<?xml version="1.0" encoding="UTF-8" standalone="no"?>
<!-- Created with Inkscape (http://www.inkscape.org/) -->

<svg
   xmlns:dc="http://purl.org/dc/elements/1.1/"
   xmlns:cc="http://creativecommons.org/ns#"
   xmlns:rdf="http://www.w3.org/1999/02/22-rdf-syntax-ns#"
   xmlns:svg="http://www.w3.org/2000/svg"
   xmlns="http://www.w3.org/2000/svg"
   xmlns:sodipodi="http://sodipodi.sourceforge.net/DTD/sodipodi-0.dtd"
   xmlns:inkscape="http://www.inkscape.org/namespaces/inkscape"
   width="92.209961"
   height="50.073772"
   id="svg4577"
   sodipodi:version="0.32"
   inkscape:version="0.91 r13725"
   version="1.0"
   sodipodi:docname="cle.svg"
   inkscape:output_extension="org.inkscape.output.svgz.inkscape">
  <defs
     id="defs4579" />
  <sodipodi:namedview
     id="base"
     pagecolor="#ffffff"
     bordercolor="#666666"
     borderopacity="1.0"
     inkscape:pageopacity="0.0"
     inkscape:pageshadow="2"
     inkscape:zoom="2.8"
     inkscape:cx="39.063252"
     inkscape:cy="20.141487"
     inkscape:document-units="px"
     inkscape:current-layer="layer1"
     showgrid="false"
     inkscape:window-width="1280"
     inkscape:window-height="972"
     inkscape:window-x="-8"
     inkscape:window-y="-8"
     inkscape:window-maximized="1" />
  <metadata
     id="metadata4582">
    <rdf:RDF>
      <cc:Work
         rdf:about="">
        <dc:format>image/svg+xml</dc:format>
        <dc:type
           rdf:resource="http://purl.org/dc/dcmitype/StillImage" />
        <dc:title></dc:title>
      </cc:Work>
    </rdf:RDF>
  </metadata>
  <g
     inkscape:label="fond"
     inkscape:groupmode="layer"
     id="layer1"
     transform="translate(-473.89502,-627.3253)">
    <path
       style="color:#000000;fill:none;fill-opacity:1;fill-rule:nonzero;stroke:#070500;stroke-width:7.65900183;stroke-linecap:butt;stroke-linejoin:miter;marker:none;marker-start:none;marker-mid:none;marker-end:none;stroke-miterlimit:3.66666675;stroke-dasharray:none;stroke-dashoffset:0;stroke-opacity:1;visibility:visible;display:inline;overflow:visible;enable-background:accumulate"
       d="M 528.27439,656.81828 C 528.32813,656.76023 528.3833,656.70302 528.43989,656.64671 C 530.68195,654.41558 534.31237,654.42445 536.5435,656.66652 C 538.77463,658.90858 538.76576,662.539 536.52369,664.77013 L 536.5237,664.77013 C 536.46711,664.82644 536.40963,664.88133 536.35132,664.93479"
       id="path3464" />
    <path
       style="color:#000000;fill:none;fill-opacity:1;fill-rule:nonzero;stroke:#070500;stroke-width:7.65900183;stroke-linecap:butt;stroke-linejoin:miter;marker:none;marker-start:none;marker-mid:none;marker-end:none;stroke-miterlimit:3.66666675;stroke-dasharray:none;stroke-dashoffset:0;stroke-opacity:1;visibility:visible;display:inline;overflow:visible;enable-background:accumulate"
       d="M 527.35434,648.8035 C 527.40809,648.86155 527.46325,648.91876 527.51984,648.97507 C 529.76191,651.2062 533.39233,651.19733 535.62346,648.95526 C 537.85459,646.7132 537.84571,643.08278 535.60365,640.85165 L 535.60365,640.85165 C 535.54706,640.79534 535.48959,640.74045 535.43127,640.68699"
       id="path3466" />
    <path
       style="color:#000000;fill:none;fill-opacity:1;fill-rule:nonzero;stroke:#070500;stroke-width:7.65900183;stroke-linecap:butt;stroke-linejoin:miter;marker:none;marker-start:none;marker-mid:none;marker-end:none;stroke-miterlimit:3.66666675;stroke-dasharray:none;stroke-dashoffset:0;stroke-opacity:1;visibility:visible;display:inline;overflow:visible;enable-background:accumulate"
       d="M 559.90314,641.75849 C 559.90314,647.61173 555.15269,652.36218 549.29945,652.36218 C 543.44621,652.36218 538.69576,647.61173 538.69576,641.75849 C 538.69576,635.90525 543.44621,631.1548 549.29945,631.1548 C 555.15269,631.1548 559.90314,635.90525 559.90314,641.75849 z "
       id="path3468" />
    <path
       style="color:#000000;fill:none;fill-opacity:1;fill-rule:nonzero;stroke:#070500;stroke-width:7.65900183;stroke-linecap:butt;stroke-linejoin:miter;marker:none;marker-start:none;marker-mid:none;marker-end:none;stroke-miterlimit:3.66666675;stroke-dasharray:none;stroke-dashoffset:0;stroke-opacity:1;visibility:visible;display:inline;overflow:visible;enable-background:accumulate"
       d="M 559.90314,662.96588 C 559.90314,668.81911 555.15269,673.56957 549.29945,673.56957 C 543.44621,673.56957 538.69576,668.81911 538.69576,662.96588 C 538.69576,657.11264 543.44621,652.36218 549.29945,652.36218 C 555.15269,652.36218 559.90314,657.11264 559.90314,662.96588 z "
       id="path3470" />
    <path
       style="color:#000000;fill:none;fill-opacity:1;fill-rule:nonzero;stroke:#070500;stroke-width:7.65900183;stroke-linecap:butt;stroke-linejoin:miter;marker:none;marker-start:none;marker-mid:none;marker-end:none;stroke-miterlimit:3.66666675;stroke-dasharray:none;stroke-dashoffset:0;stroke-opacity:1;visibility:visible;display:inline;overflow:visible;enable-background:accumulate"
       d="M 562.27548,652.48695 C 562.27548,654.43803 560.69199,656.02151 558.7409,656.02151 C 556.78983,656.02151 555.20634,654.43803 555.20634,652.48695 C 555.20634,650.53587 556.78983,648.95238 558.7409,648.95238 C 560.69199,648.95238 562.27548,650.53587 562.27548,652.48695 z "
       id="path3472" />
    <path
       style="color:#000000;fill:none;fill-opacity:1;fill-rule:nonzero;stroke:#070500;stroke-width:7.65900183;stroke-linecap:butt;stroke-linejoin:miter;marker:none;marker-start:none;marker-mid:none;marker-end:none;stroke-miterlimit:3.66666675;stroke-dasharray:none;stroke-dashoffset:0;stroke-opacity:1;visibility:visible;display:inline;overflow:visible;enable-background:accumulate"
       d="M 541.34668,652.36218 C 541.34668,654.31326 539.7632,655.89675 537.81212,655.89675 C 535.86104,655.89675 534.27755,654.31326 534.27755,652.36218 C 534.27755,650.4111 535.86104,648.82762 537.81212,648.82762 C 539.7632,648.82762 541.34668,650.4111 541.34668,652.36218 z "
       id="path3474" />
    <path
       style="color:#000000;fill:none;fill-opacity:1;fill-rule:evenodd;stroke:#070500;stroke-width:7.08822107;stroke-linecap:square;stroke-linejoin:miter;marker:none;marker-start:none;marker-mid:none;marker-end:none;stroke-miterlimit:3.5733335;stroke-dasharray:none;stroke-dashoffset:0;stroke-opacity:1;visibility:visible;display:inline;overflow:visible;enable-background:accumulate"
       d="M 492.64713,653.24582 L 492.64713,666.50044"
       id="path3478"
       sodipodi:nodetypes="cc" />
    <path
       style="color:#000000;fill:none;fill-opacity:1;fill-rule:evenodd;stroke:#070500;stroke-width:7.08822107;stroke-linecap:square;stroke-linejoin:miter;marker:none;marker-start:none;marker-mid:none;marker-end:none;stroke-miterlimit:3.5733335;stroke-dasharray:none;stroke-dashoffset:0;stroke-opacity:1;visibility:visible;display:inline;overflow:visible;enable-background:accumulate"
       d="M 489.8536,652.92345 L 489.8536,664.95725"
       id="path3480"
       sodipodi:nodetypes="cc" />
    <path
       style="color:#000000;fill:none;fill-opacity:1;fill-rule:evenodd;stroke:#070500;stroke-width:7.08822107;stroke-linecap:square;stroke-linejoin:miter;marker:none;marker-start:none;marker-mid:none;marker-end:none;stroke-miterlimit:3.5733335;stroke-dasharray:none;stroke-dashoffset:0;stroke-opacity:1;visibility:visible;display:inline;overflow:visible;enable-background:accumulate"
       d="M 483.91001,653.24582 L 483.91001,667.38408"
       id="path3482"
       sodipodi:nodetypes="cc" />
    <path
       style="color:#000000;fill:none;fill-opacity:1;fill-rule:evenodd;stroke:#070500;stroke-width:7.08822107;stroke-linecap:square;stroke-linejoin:miter;marker:none;marker-start:none;marker-mid:none;marker-end:none;stroke-miterlimit:3.5733335;stroke-dasharray:none;stroke-dashoffset:0;stroke-opacity:1;visibility:visible;display:inline;overflow:visible;enable-background:accumulate"
       d="M 483.93055,663.3224 L 478.37783,663.3224"
       id="path3484"
       sodipodi:nodetypes="cc" />
    <path
       sodipodi:nodetypes="cc"
       style="color:#000000;fill:none;fill-opacity:1;fill-rule:evenodd;stroke:#000000;stroke-width:7.65900183;stroke-linecap:square;stroke-linejoin:miter;marker:none;marker-start:none;marker-mid:none;marker-end:none;stroke-miterlimit:4;stroke-dasharray:none;stroke-dashoffset:0;stroke-opacity:1;visibility:visible;display:inline;overflow:visible;enable-background:accumulate"
       d="M 534.27755,652.558 L 477.72452,652.558"
       id="path3604" />
    <path
       sodipodi:nodetypes="cc"
       style="color:#000000;fill:none;fill-opacity:1;fill-rule:evenodd;stroke:#000000;stroke-width:7.08822107;stroke-linecap:square;stroke-linejoin:miter;marker:none;marker-start:none;marker-mid:none;marker-end:none;stroke-miterlimit:3.5733335;stroke-dasharray:none;stroke-dashoffset:0;stroke-opacity:1;visibility:visible;display:inline;overflow:visible;enable-background:accumulate"
       d="M 483.57307,657.15699 L 477.98406,657.15699"
       id="path3606" />
  </g>
  <g
     inkscape:groupmode="layer"
     id="layer3"
     inkscape:label="Cle">
    <path
       transform="matrix(0.8836411,0,0,0.8836411,-1.1388724,1.2407566)"
       style="color:#000000;fill:none;fill-opacity:1;fill-rule:nonzero;stroke:#ffcc00;stroke-width:5.77836514;stroke-linecap:butt;stroke-linejoin:miter;marker:none;marker-start:none;marker-mid:none;marker-end:none;stroke-miterlimit:4;stroke-dasharray:none;stroke-dashoffset:0;stroke-opacity:1;visibility:visible;display:inline;overflow:visible;enable-background:accumulate"
       d="M 62.828946,31.972518 C 62.889768,31.906821 62.9522,31.842081 63.016242,31.778351 C 65.553544,29.253425 69.66202,29.263465 72.186948,31.800766 C 74.711874,34.338065 74.701833,38.446543 72.164532,40.971471 L 72.164533,40.971471 C 72.100491,41.035202 72.035449,41.097318 71.969454,41.157817"
       id="path3555" />
    <path
       transform="matrix(0.8836411,0,0,0.8836411,-1.1388724,1.2407566)"
       style="color:#000000;fill:none;fill-opacity:1;fill-rule:nonzero;stroke:#ffcc00;stroke-width:5.77836514;stroke-linecap:butt;stroke-linejoin:miter;marker:none;marker-start:none;marker-mid:none;marker-end:none;stroke-miterlimit:4;stroke-dasharray:none;stroke-dashoffset:0;stroke-opacity:1;visibility:visible;display:inline;overflow:visible;enable-background:accumulate"
       d="M 61.787749,22.902335 C 61.848571,22.968032 61.911003,23.032772 61.975045,23.096502 C 64.512347,25.621428 68.620823,25.611388 71.145751,23.074087 C 73.670677,20.536788 73.660636,16.42831 71.123335,13.903382 L 71.123336,13.903382 C 71.059294,13.839651 70.994252,13.777535 70.928257,13.717036"
       id="path3557" />
    <path
       transform="matrix(0.8836411,0,0,0.8836411,-1.1388724,1.2407566)"
       style="color:#000000;fill:none;fill-opacity:1;fill-rule:nonzero;stroke:#ffcc00;stroke-width:5.77836514;stroke-linecap:butt;stroke-linejoin:miter;marker:none;marker-start:none;marker-mid:none;marker-end:none;stroke-miterlimit:4;stroke-dasharray:none;stroke-dashoffset:0;stroke-opacity:1;visibility:visible;display:inline;overflow:visible;enable-background:accumulate"
       d="M 98.622615,14.929633 C 98.622615,21.553633 93.246616,26.929633 86.622616,26.929633 C 79.998616,26.929633 74.622616,21.553633 74.622616,14.929633 C 74.622616,8.3056331 79.998616,2.9296331 86.622616,2.9296331 C 93.246616,2.9296331 98.622615,8.3056331 98.622615,14.929633 z "
       id="path3559" />
    <path
       transform="matrix(0.8836411,0,0,0.8836411,-1.1388724,1.2407566)"
       style="color:#000000;fill:none;fill-opacity:1;fill-rule:nonzero;stroke:#ffcc00;stroke-width:5.77836514;stroke-linecap:butt;stroke-linejoin:miter;marker:none;marker-start:none;marker-mid:none;marker-end:none;stroke-miterlimit:4;stroke-dasharray:none;stroke-dashoffset:0;stroke-opacity:1;visibility:visible;display:inline;overflow:visible;enable-background:accumulate"
       d="M 98.622615,38.929633 C 98.622615,45.553633 93.246616,50.929633 86.622616,50.929633 C 79.998616,50.929633 74.622616,45.553633 74.622616,38.929633 C 74.622616,32.305633 79.998616,26.929633 86.622616,26.929633 C 93.246616,26.929633 98.622615,32.305633 98.622615,38.929633 z "
       id="path3561" />
    <path
       transform="matrix(0.8836411,0,0,0.8836411,-1.1388724,1.2407566)"
       style="color:#000000;fill:none;fill-opacity:1;fill-rule:nonzero;stroke:#ffcc00;stroke-width:5.77836514;stroke-linecap:butt;stroke-linejoin:miter;marker:none;marker-start:none;marker-mid:none;marker-end:none;stroke-miterlimit:4;stroke-dasharray:none;stroke-dashoffset:0;stroke-opacity:1;visibility:visible;display:inline;overflow:visible;enable-background:accumulate"
       d="M 101.30734,27.070826 C 101.30734,29.278826 99.515335,31.070826 97.307331,31.070826 C 95.099331,31.070826 93.307331,29.278826 93.307331,27.070826 C 93.307331,24.862826 95.099331,23.070826 97.307331,23.070826 C 99.515335,23.070826 101.30734,24.862826 101.30734,27.070826 z "
       id="path3563" />
    <path
       transform="matrix(0.8836411,0,0,0.8836411,-1.1388724,1.2407566)"
       style="color:#000000;fill:none;fill-opacity:1;fill-rule:nonzero;stroke:#ffcc00;stroke-width:5.77836514;stroke-linecap:butt;stroke-linejoin:miter;marker:none;marker-start:none;marker-mid:none;marker-end:none;stroke-miterlimit:4;stroke-dasharray:none;stroke-dashoffset:0;stroke-opacity:1;visibility:visible;display:inline;overflow:visible;enable-background:accumulate"
       d="M 77.622616,26.929633 C 77.622616,29.137633 75.830616,30.929633 73.622616,30.929633 C 71.414616,30.929633 69.622616,29.137633 69.622616,26.929633 C 69.622616,24.721633 71.414616,22.929633 73.622616,22.929633 C 75.830616,22.929633 77.622616,24.721633 77.622616,26.929633 z "
       id="path3565" />
    <path
       transform="matrix(0.8836411,0,0,0.8836411,-1.1388724,1.2407566)"
       sodipodi:nodetypes="cc"
       style="color:#000000;fill:none;fill-opacity:1;fill-rule:evenodd;stroke:#ffcc00;stroke-width:6.01620483;stroke-linecap:square;stroke-linejoin:miter;marker:none;marker-start:none;marker-mid:none;marker-end:none;stroke-miterlimit:4;stroke-dasharray:none;stroke-dashoffset:0;stroke-opacity:1;visibility:visible;display:inline;overflow:visible;enable-background:accumulate"
       d="M 69.622616,27.151234 L 5.6226162,27.151234"
       id="path3567" />
    <path
       transform="matrix(0.8836411,0,0,0.8836411,-1.1388724,1.2407566)"
       sodipodi:nodetypes="cc"
       style="color:#000000;fill:none;fill-opacity:1;fill-rule:evenodd;stroke:#ffcc00;stroke-width:5.01350403;stroke-linecap:square;stroke-linejoin:miter;marker:none;marker-start:none;marker-mid:none;marker-end:none;stroke-miterlimit:3.20000005;stroke-dasharray:none;stroke-dashoffset:0;stroke-opacity:1;visibility:visible;display:inline;overflow:visible;enable-background:accumulate"
       d="M 22.510255,27.929633 L 22.510255,42.929633"
       id="path3569" />
    <path
       transform="matrix(0.8836411,0,0,0.8836411,-1.1388724,1.2407566)"
       sodipodi:nodetypes="cc"
       style="color:#000000;fill:none;fill-opacity:1;fill-rule:evenodd;stroke:#ffcc00;stroke-width:5.01350403;stroke-linecap:square;stroke-linejoin:miter;marker:none;marker-start:none;marker-mid:none;marker-end:none;stroke-miterlimit:3.20000005;stroke-dasharray:none;stroke-dashoffset:0;stroke-opacity:1;visibility:visible;display:inline;overflow:visible;enable-background:accumulate"
       d="M 19.348866,27.564811 L 19.348866,41.183235"
       id="path3571" />
    <path
       transform="matrix(0.8836411,0,0,0.8836411,-1.1388724,1.2407566)"
       sodipodi:nodetypes="cc"
       style="color:#000000;fill:none;fill-opacity:1;fill-rule:evenodd;stroke:#ffcc00;stroke-width:5.01350403;stroke-linecap:square;stroke-linejoin:miter;marker:none;marker-start:none;marker-mid:none;marker-end:none;stroke-miterlimit:3.20000005;stroke-dasharray:none;stroke-dashoffset:0;stroke-opacity:1;visibility:visible;display:inline;overflow:visible;enable-background:accumulate"
       d="M 12.622616,27.929633 L 12.622616,43.929633"
       id="path3573" />
    <path
       transform="matrix(0.8836411,0,0,0.8836411,-1.1388724,1.2407566)"
       sodipodi:nodetypes="cc"
       style="color:#000000;fill:none;fill-opacity:1;fill-rule:evenodd;stroke:#ffcc00;stroke-width:5.01350403;stroke-linecap:square;stroke-linejoin:miter;marker:none;marker-start:none;marker-mid:none;marker-end:none;stroke-miterlimit:3.20000005;stroke-dasharray:none;stroke-dashoffset:0;stroke-opacity:1;visibility:visible;display:inline;overflow:visible;enable-background:accumulate"
       d="M 12.645861,39.333105 L 6.3619463,39.333105"
       id="path3575" />
    <path
       transform="matrix(0.8836411,0,0,0.8836411,-1.1388724,1.2407566)"
       sodipodi:nodetypes="cc"
       style="color:#000000;fill:none;fill-opacity:1;fill-rule:evenodd;stroke:#ffcc00;stroke-width:5.01350403;stroke-linecap:square;stroke-linejoin:miter;marker:none;marker-start:none;marker-mid:none;marker-end:none;stroke-miterlimit:3.20000005;stroke-dasharray:none;stroke-dashoffset:0;stroke-opacity:1;visibility:visible;display:inline;overflow:visible;enable-background:accumulate"
       d="M 12.241302,32.355827 L 5.916331,32.355827"
       id="path3577" />
  </g>
</svg>
