<?xml version="1.0" encoding="UTF-8" standalone="no"?>
<!-- Created with Inkscape (http://www.inkscape.org/) -->

<svg
   xmlns:dc="http://purl.org/dc/elements/1.1/"
   xmlns:cc="http://creativecommons.org/ns#"
   xmlns:rdf="http://www.w3.org/1999/02/22-rdf-syntax-ns#"
   xmlns:svg="http://www.w3.org/2000/svg"
   xmlns="http://www.w3.org/2000/svg"
   xmlns:xlink="http://www.w3.org/1999/xlink"
   xmlns:sodipodi="http://sodipodi.sourceforge.net/DTD/sodipodi-0.dtd"
   xmlns:inkscape="http://www.inkscape.org/namespaces/inkscape"
   width="303.80838"
   height="175.21948"
   id="svg2"
   sodipodi:version="0.32"
   inkscape:version="0.91 r13725"
   version="1.0"
   sodipodi:docname="epingle.svg"
   inkscape:output_extension="org.inkscape.output.svgz.inkscape"
   inkscape:export-filename="C:\Documents and Settings\jmviglino\Mes documents\svg\epingle.png"
   inkscape:export-xdpi="60"
   inkscape:export-ydpi="60">
  <defs
     id="defs4">
    <linearGradient
       id="linearGradient6308">
      <stop
         style="stop-color:#9f611e;stop-opacity:1;"
         offset="0"
         id="stop6310" />
      <stop
         style="stop-color:#59260d;stop-opacity:1;"
         offset="1"
         id="stop6312" />
    </linearGradient>
    <linearGradient
       id="linearGradient4815">
      <stop
         style="stop-color:#f6d626;stop-opacity:1;"
         offset="0"
         id="stop4817" />
      <stop
         style="stop-color:#f7eaa3;stop-opacity:1;"
         offset="1"
         id="stop4819" />
    </linearGradient>
    <linearGradient
       inkscape:collect="always"
       xlink:href="#linearGradient4815"
       id="linearGradient5145"
       gradientUnits="userSpaceOnUse"
       spreadMethod="reflect"
       x1="102.52747"
       y1="482.33939"
       x2="88.981171"
       y2="455.06522" />
    <filter
       inkscape:collect="always"
       id="filter6304">
      <feGaussianBlur
         inkscape:collect="always"
         stdDeviation="0.53894576"
         id="feGaussianBlur6306" />
    </filter>
    <linearGradient
       inkscape:collect="always"
       xlink:href="#linearGradient6308"
       id="linearGradient6314"
       x1="62.064201"
       y1="464.90088"
       x2="78.200356"
       y2="499.73926"
       gradientUnits="userSpaceOnUse"
       spreadMethod="reflect"
       gradientTransform="translate(84.510928,-403.83944)" />
    <linearGradient
       inkscape:collect="always"
       xlink:href="#linearGradient6308"
       id="linearGradient6340"
       x1="33.482235"
       y1="478.86026"
       x2="51.919525"
       y2="517.38623"
       gradientUnits="userSpaceOnUse"
       spreadMethod="reflect"
       gradientTransform="translate(84.510928,-403.83944)" />
    <filter
       inkscape:collect="always"
       id="filter3188">
      <feGaussianBlur
         inkscape:collect="always"
         stdDeviation="5.6354516"
         id="feGaussianBlur3190" />
    </filter>
  </defs>
  <sodipodi:namedview
     id="base"
     pagecolor="#ffffff"
     bordercolor="#666666"
     borderopacity="1.0"
     inkscape:pageopacity="0.0"
     inkscape:pageshadow="2"
     inkscape:zoom="0.80298944"
     inkscape:cx="149.73487"
     inkscape:cy="-113.18021"
     inkscape:document-units="px"
     inkscape:current-layer="layer1"
     showgrid="false"
     inkscape:window-width="1280"
     inkscape:window-height="972"
     inkscape:window-x="-8"
     inkscape:window-y="-8"
     inkscape:window-maximized="1" />
  <metadata
     id="metadata7">
    <rdf:RDF>
      <cc:Work
         rdf:about="">
        <dc:format>image/svg+xml</dc:format>
        <dc:type
           rdf:resource="http://purl.org/dc/dcmitype/StillImage" />
        <dc:title></dc:title>
      </cc:Work>
    </rdf:RDF>
  </metadata>
  <g
     inkscape:label="Calque 1"
     inkscape:groupmode="layer"
     id="layer1"
     transform="translate(84.510928,-403.83944)">
    <path
       style="opacity:0.15;fill:#000000;fill-opacity:1;stroke:none;stroke-width:3;stroke-miterlimit:4;stroke-dasharray:none;stroke-opacity:1;filter:url(#filter3188)"
       d="M -44.534248,606.59053 C -57.617302,602.60045 -62.478466,587.73152 -58.845301,575.55968 C -51.750636,561.98862 -36.975606,554.90489 -24.872722,546.43874 C 14.957328,521.30211 66.808258,493.24573 98.462018,477.68279 C 130.11578,462.11985 140.46487,456.57318 161.66571,446.45689 C 174.66785,440.54441 189.60275,431.68728 203.90352,439.12623 C 214.29187,444.06334 221.93289,455.68427 219.20666,467.39902 C 220.45903,479.62017 212.30407,489.59092 201.50219,494.28195 C 164.92239,514.06365 127.5463,532.35634 91.016218,552.24728 C 57.153758,569.86869 23.125938,587.49494 -12.540922,601.21687 C -22.726942,604.41446 -33.710077,609.21229 -44.534248,606.59053 z M -31.230899,594.14863 C -22.529902,588.09861 -26.437342,570.12652 -38.609681,573.93364 C -47.500544,575.9315 -55.397961,583.30378 -48.377522,591.15246 C -44.814992,597.43636 -36.917577,596.51615 -31.230899,594.14863 z M 11.140318,581.26356 C 60.340208,558.57599 107.14023,531.17211 154.25264,504.5174 C 154.63987,496.13091 156.93455,487.61139 155.4442,479.30573 C 154.74487,470.5296 139.83529,464.09037 136.18444,465.06861 C 84.942448,496.05778 30.096648,520.63515 -20.524452,552.64104 C -25.987912,556.6253 -44.388503,567.79106 -29.109681,565.97128 C -18.563672,570.41832 -16.879922,582.16045 -15.436192,592.13815 C -6.269512,589.51506 2.223158,584.66998 11.140318,581.26356 z "
       id="path2177"
       sodipodi:nodetypes="ccczccccccccccccccccccc"
       transform="matrix(0.9710591,0.2388394,-0.2388394,0.9710591,115.73367,-2.7300789)" />
    <path
       style="fill:url(#linearGradient5145);fill-opacity:1;stroke:#9f611e;stroke-opacity:1"
       d="M -68.531723,574.64417 C -81.614777,570.65409 -86.475941,555.78516 -82.842776,543.61332 C -75.748111,530.04226 -60.973081,522.95853 -48.870199,514.49238 C -9.0401507,489.35575 42.810788,461.29937 74.464545,445.73643 C 106.1183,430.17349 116.46739,424.62682 137.66823,414.51053 C 150.67037,408.59805 165.60527,399.74092 179.90604,407.17987 C 190.29439,412.11698 197.93541,423.73791 195.20918,435.45266 C 196.46155,447.67381 188.30659,457.64456 177.50471,462.33559 C 140.92491,482.11729 103.54882,500.40998 67.018745,520.30092 C 33.156279,537.92233 -0.87154027,555.54858 -36.538396,569.27051 C -46.724416,572.4681 -57.707552,577.26593 -68.531723,574.64417 z M -55.228374,562.20227 C -46.527379,556.15225 -50.434813,538.18016 -62.607156,541.98728 C -71.498019,543.98514 -79.395436,551.35742 -72.374997,559.2061 C -68.812467,565.49 -60.915052,564.56979 -55.228374,562.20227 z M -12.857156,549.3172 C 36.342729,526.62963 83.142756,499.22575 130.25516,472.57104 C 130.64239,464.18455 132.93707,455.66503 131.44672,447.35937 C 130.74739,438.58324 115.83781,432.14401 112.18696,433.12225 C 60.944977,464.11142 6.0991726,488.68879 -44.52193,520.69468 C -49.985383,524.67894 -68.385978,535.8447 -53.107156,534.02492 C -42.561142,538.47196 -40.877396,550.21409 -39.433666,560.19179 C -30.266982,557.5687 -21.774314,552.72362 -12.857156,549.3172 z "
       id="path5066"
       sodipodi:nodetypes="ccczccccccccccccccccccc" />
    <path
       id="path3226"
       style="fill:#ffffff;fill-opacity:1;stroke:#ffffff;stroke-width:0.40000001;stroke-miterlimit:4;stroke-opacity:1;filter:url(#filter6304)"
       d="M -55.213806,566.14925 C -49.534316,564.23354 -45.998486,558.34917 -45.528446,550.03075 C -45.167896,543.64988 -45.310146,543.12818 -48.356576,539.6585 C -50.120846,537.6491 -52.080226,536.01936 -52.710746,536.03685 C -53.341276,536.05435 -52.993266,536.72231 -51.937396,537.52123 C -45.987646,542.02305 -44.650936,550.46397 -48.680926,558.0848 C -49.958996,560.50167 -52.444966,563.32028 -54.205296,564.34837 C -57.433386,566.23367 -67.357156,567.26528 -67.357156,565.71555 C -67.357156,565.25985 -67.855196,565.19482 -68.463916,565.57103 C -72.041526,567.78212 -61.427896,568.24529 -55.213806,566.14925 z M -27.127756,562.96025 C -11.566136,556.83173 66.942434,517.26874 69.849134,514.09048 C 70.560674,513.31246 69.117844,513.82106 66.642844,515.22069 C 55.323284,521.62199 -1.5625558,550.48821 -13.357156,555.816 C -16.932156,557.43088 -23.907156,560.42589 -28.857156,562.47158 C -33.807156,564.51728 -38.044656,566.37418 -38.273826,566.59804 C -39.272886,567.57395 -36.762426,566.7546 -27.127756,562.96025 z M -31.654205,561.77539 C 3.7444429,545.55245 37.840901,528.7269 72.832709,509.39631 C 75.071771,508.02555 74.812746,507.00249 72.939741,508.00096 C 37.332641,527.93388 -18.162963,554.97486 -35.763054,562.14748 C -37.870166,563.25694 -37.66542,563.81845 -31.654205,561.77539 z M -79.027252,552.1427 C -80.775808,542.9653 -73.321703,535.85768 -66.373586,530.65126 C -38.606126,511.83625 37.786785,469.14827 36.78573,467.93437 C 35.631525,466.53475 -22.846885,501.34248 -52.072758,519.08509 C -61.725331,525.19422 -71.878734,531.49863 -78.468101,541.05855 C -81.122081,545.34451 -80.800063,553.88422 -78.766278,556.33163 C -78.543789,554.92783 -78.989456,553.54151 -79.027252,552.1427 z M 94.678864,497.15616 C 104.10044,491.73926 112.78411,486.47234 113.97592,485.45189 C 115.16773,484.43143 116.14284,483.76343 116.14284,483.96745 C 116.14284,484.17146 116.79568,484.12077 117.59359,483.8548 C 118.54423,483.53792 118.67092,483.14044 117.96112,482.70176 C 117.36536,482.33356 115.81252,482.8585 114.51038,483.86829 C 113.20823,484.87809 110.11784,486.85184 107.64284,488.25441 C 92.060084,497.08509 78.007384,505.3198 77.192844,506.09774 C 74.892434,508.29477 78.627214,506.38497 94.678864,497.15616 z M 80.650034,508.51468 C 83.899475,506.80227 87.852397,504.55914 89.434302,503.52994 C 91.016208,502.50074 97.228776,499.06094 103.24002,495.88593 C 109.25126,492.71093 117.36294,488.23164 121.26598,485.93196 C 125.16903,483.63227 128.69107,481.75071 129.09274,481.75071 C 129.49441,481.75071 131.72776,480.45794 134.05575,478.87788 C 136.80156,477.01423 137.5884,476.00505 136.29566,476.00505 C 135.19963,476.00505 133.26745,477.03927 132.00193,478.30332 C 130.73641,479.56736 129.70098,480.36872 129.70098,480.08411 C 129.70098,479.37833 118.69662,485.37106 93.80922,499.62997 C 82.29135,506.22897 73.289366,511.62816 73.804802,511.62816 C 74.320239,511.62816 77.400594,510.22709 80.650034,508.51468 z M 123.3012,480.72007 C 124.9129,481.26348 125.93739,479.30513 124.50464,478.41964 C 123.73121,477.94163 123.60321,478.13191 124.12753,478.98027 C 124.65908,479.84035 124.4624,480.10115 123.53204,479.76991 C 121.58856,479.07796 118.44422,480.87466 119.26748,482.20671 C 119.73273,482.95951 120.29539,482.83674 121.04548,481.81877 C 121.64903,480.99968 122.6641,480.50526 123.3012,480.72007 z M 132.11652,474.96246 C 131.79108,474.43589 131.29981,474.00505 131.02481,474.00505 C 130.74981,474.00505 130.80292,474.45505 131.14284,475.00505 C 131.7277,475.95138 131.16749,476.17605 127.64284,476.40868 C 126.81784,476.46314 126.25534,476.84459 126.39284,477.25637 C 126.53034,477.66814 126.64284,478.24161 126.64284,478.53073 C 126.64284,478.81985 128.00755,478.35069 129.67554,477.48814 C 131.34352,476.6256 132.44196,475.48904 132.11652,474.96246 z M 53.465784,463.17506 C 61.913654,458.3994 72.600825,452.62384 87.474169,444.79628 C 103.30547,436.46455 110.16406,432.45612 108.69166,432.39593 C 107.78038,432.35865 100.12481,436.29948 78.793355,447.78652 C 74.354359,450.17693 65.880991,454.71082 59.963653,457.8618 C 49.560175,463.40172 45.65626,465.95617 47.493618,466.02137 C 47.97864,466.03859 50.666114,464.75776 53.465784,463.17506 z M 168.93258,460.52214 C 181.91117,453.1504 177.29719,453.14182 163.20344,460.51149 C 157.22543,463.63743 153.82816,466.19133 155.65397,466.18687 C 157.47979,466.18242 163.45516,463.63328 168.93258,460.52214 z M 150.88861,436.81362 C 150.88861,436.81362 155.36057,431.68889 154.94402,431.57104 C 154.52747,431.45319 149.22239,436.34221 149.22239,436.34221 C 146.37515,439.43725 143.11405,444.33581 142.16576,446.6571 C 141.21749,448.97838 141.82718,450.03501 142.66448,448.5295 C 143.50177,447.02402 147.93037,440.72445 150.88861,436.81362 z M 163.25641,439.34163 C 161.91104,438.80432 160.22354,437.87774 159.50641,437.28258 C 158.74173,436.64795 158.20254,436.60143 158.20254,437.17009 C 158.20254,438.30283 162.02908,440.30806 164.20254,440.31428 C 165.02754,440.31664 164.60178,439.87895 163.25641,439.34163 z M 167.15607,437.4976 C 164.96335,436.71678 162.60085,435.30052 161.90607,434.35036 C 161.20862,433.39654 160.64284,433.16286 160.64284,433.82862 C 160.64284,435.41676 166.59557,439.00856 169.14284,438.95742 C 170.27739,438.93464 169.41767,438.30294 167.15607,437.4976 z M 175.45188,432.33191 C 175.88262,431.17352 176.8774,430.68079 177.71141,431.21271 C 178.6452,431.80827 178.8549,431.58445 178.27319,430.61316 C 177.76269,429.76073 176.66336,429.46636 175.83022,429.95899 C 174.9971,430.45161 174.7136,430.39793 175.20025,429.83968 C 175.68689,429.28143 174.96536,427.58442 173.59684,426.06854 C 172.22832,424.55266 171.10862,422.58697 171.10862,421.70034 C 171.10862,420.69646 170.05543,420.37249 168.31706,420.84161 L 165.5255,421.59495 L 168.3455,422.67147 C 171.76672,423.97751 173.37308,427.66226 171.14164,429.08544 C 169.92009,429.86451 170.11203,430.47701 171.91676,431.55904 C 173.92403,432.76249 173.97478,433.00374 172.22772,433.03742 C 171.07949,433.05957 169.42709,432.19122 168.55575,431.10774 C 167.27141,429.51076 167.3693,428.98029 169.0728,428.30571 C 170.70132,427.66081 170.84279,427.06165 169.70156,425.6426 C 167.7616,423.23039 165.50932,423.29015 166.41649,425.72977 C 166.91635,427.07402 166.51353,427.40391 165.07016,426.83234 C 163.86967,426.35694 164.52042,427.76548 166.63024,430.20907 C 170.54632,434.74464 174.22548,435.63 175.45188,432.33191 z M 188.00159,426.22739 C 187.94952,423.80948 187.44309,420.8219 186.87617,419.5883 C 186.08657,417.87018 185.87866,419.0391 185.98753,424.58448 C 186.06569,428.56596 185.73974,432.9195 185.2632,434.25901 C 184.66167,435.94982 184.96232,435.76637 186.2465,433.65902 C 187.31127,431.91173 188.05608,428.75795 188.00159,426.22739 z M 183.50061,426.26623 C 182.30506,423.25943 181.53044,422.85794 179.95587,424.42896 C 177.13494,427.24353 177.42567,429.6753 180.27922,427.13352 C 182.09838,425.51312 182.39569,425.92177 181.61854,428.97441 C 180.95087,431.59697 181.35095,432.43643 182.82504,431.50594 C 184.03931,430.73947 184.34291,428.38465 183.50061,426.26623 z M 179.05998,421.7405 C 180.51273,418.26904 180.47634,418.12074 178.6806,420.19413 C 176.91838,422.22881 176.08986,421.93226 176.51812,419.42012 C 176.59722,418.95615 175.75712,418.88013 174.65122,419.25116 C 172.26211,420.05273 172.221,420.32439 174.03934,423.29498 C 176.01462,426.52196 177.21449,426.15046 179.05998,421.7405 z M 165.89469,413.36327 C 169.86218,410.28194 176.94182,413.17461 176.78112,411.69349 C 176.68448,410.80282 170.38114,408.59349 165.88536,410.94164 C 161.30288,413.33507 160.55786,418.00505 160.83286,418.00505 C 161.10786,418.00505 161.9955,416.39156 165.89469,413.36327 z " />
    <path
       style="fill:url(#linearGradient6314);fill-opacity:1;stroke:url(#linearGradient6340);stroke-opacity:1"
       d="M 252.5625,0.84375 C 235.71327,1.18704 221.30294,12.61009 205.875,17.1875 C 195.71491,21.39989 206.25408,32.97159 207.5,31.0625 C 210.04375,30.850681 211.59132,33.545389 212.71875,35.6875 C 214.44877,37.902266 215.54422,41.009499 215.3125,35.8125 C 227.36888,35.218019 234.92268,22.89887 245.28125,17.46875 C 249.35234,13.479229 255.82984,5.98849 259.84375,12.6875 C 259.49291,7.7144003 264.15499,12.18567 261.71875,12.9375 C 270.1473,11.115 270.1222,34.02497 269.40625,18.1875 C 267.82678,12.658699 262.46598,8.83259 256.8125,8.5625 C 247.38697,11.35938 241.11229,18.56387 232.09375,21.625 C 226.5575,22.717139 214.06163,25.44102 213.84375,29.9375 C 217.05453,34.667971 208.07565,23.395435 206.84375,28.59375 C 206.25872,27.766234 205.39157,26.89412 204.65625,24.875 C 200.59351,16.040689 219.56085,17.57535 224.40625,11.96875 C 236.21875,6.6367903 250.60014,-1.99667 263.375,5.40625 C 274.75036,11.10868 277.81225,28.26791 267.375,36.4375 C 254.72373,48.463369 237.47037,50.71891 223.9375,61.0625 C 222.75773,67.314642 229.94385,64.21704 222,65.625 C 216.56577,56.872703 221.62122,50.37848 225.875,41.1875 C 226.78198,37.122689 243.53628,22.67208 232.65625,31.375 C 226.84811,35.845919 222.26143,41.29129 221.6875,43.5 C 220.01634,38.337009 237.71642,24.94803 225.9375,33.875 C 222.30778,40.221849 215.78996,34.86924 219.21875,43.09375 C 215.90006,51.198029 215.81596,60.17531 214.75,68.8125 C 159.58321,100.42154 103.83363,131.58993 45.21875,156.46875 C 43.95248,154.91586 45.239028,150.43454 42.28125,145.90625 C 43.267625,141.34027 35.097082,130.56402 34.53125,132.84375 C 43.867744,140.72978 40.802563,155.94813 30.96875,162 C 23.754721,171.52612 7.0728,157.40931 6.8125,158.125 C 8.0750468,163.34604 29.388506,168.42838 15.375,167.28125 C 10.583188,166.34682 -0.282342,152.03774 3.6875,152.59375 C 6.4385981,154.82536 -0.681371,140.29271 5.0625,136.875 C 7.6401478,132.80983 10.916703,129.43865 14.5625,126.4375 C 15.152521,125.55236 15.778165,124.69276 16.40625,123.84375 C 10.750317,127.96597 5.50832,132.55714 2.125,138.71875 C -3.6561549,158.2974 9.073838,172.87361 24.34375,171.5625 C 57.462569,165.48667 87.039519,148.4061 117.0625,134 C 165.65368,109.345 213.76434,83.74865 262.03125,58.46875 C 293.18923,44.527979 286.55169,1.17129 252.5625,0.84375 z M 247.6875,17.5625 C 235.80108,23.395809 260.79155,40.69798 249.53125,29.875 C 245.51082,26.436149 246.36774,21.57212 247.6875,17.5625 z M 244.15625,23.65625 C 240.52531,27.696059 241.80767,34.30047 246.71875,33.4375 C 243.45612,30.885729 243.2883,27.32993 244.15625,23.65625 z M 277.0625,32.53125 C 277.24194,32.514209 277.3949,32.52595 277.5625,32.53125 C 285.08178,32.774779 269.30367,48.01536 263.125,45.125 C 260.52888,44.015149 271.49979,33.05957 277.0625,32.53125 z M 264.125,47.40625 C 271.63941,51.665839 250.85874,58.85692 246.40625,62 C 241.16611,64.915929 227.48298,71.17578 237.65625,61.0625 C 245.6561,56.009609 254.06157,47.30713 264.125,47.40625 z M 219.25,66.25 C 228.01034,76.903099 208.12037,79.4773 201.96875,85.03125 C 153.70222,112.84774 105.08737,140.53535 53.5625,161.9375 C 44.460137,165.39889 35.061143,168.72157 25.40625,169.9375 C 44.067616,162.59194 63.112483,155.9962 80.96875,146.6875 C 128.48055,123.94756 174.43125,98.11031 219.90625,71.59375 C 216.22905,71.918749 202.75501,80.72074 195.53125,84.4375 C 146.07191,112.40531 96.406834,140.59422 43.65625,161.96875 C 28.085519,164.60954 91.594097,137.29156 100.625,132.6875 C 139.02128,113.44737 176.43595,92.30119 213.65625,70.90625 C 215.20374,68.943359 220.67649,69.80526 219.25,66.25 z M 21.375,129.3125 C 17.632629,129.22981 7.3649086,142.39927 7.21875,141.21875 C 10.058497,133.89513 7.627822,137.67888 6.46875,141.1875 C 5.3096781,144.69612 5.422208,147.9296 7.3125,153.375 C 9.1724178,159.36488 23.846121,164.50988 23.75,160.28125 C 15.605931,160.65257 8.091705,154.11358 8.03125,148.34375 C 7.1852958,144.16799 14.059815,132.90194 22.875,134.15625 C 32.256845,133.24477 10.478181,132.71712 22.65625,130.90625 C 22.514581,129.80756 22.068032,129.32781 21.375,129.3125 z M 31.15625,133.90625 C 32.966092,136.71867 35.777378,142.40627 29.125,136.75 C 24.526249,135.1115 15.383367,137.40889 24.90625,137.25 C 35.834982,137.2289 34.989506,151.78751 33.625,155.625 C 36.525717,150.21598 40.169987,144.17354 31.15625,133.90625 z M 40.78125,152.15625 C 43.114806,159.11025 29.881095,171.03517 23.3125,166.1875 C 31.851652,165.29678 36.6591,158.9475 40.78125,152.15625 z "
       id="path3128"
       sodipodi:nodetypes="cccccccccccccccccccccccccccccccccccccccccccccccscccccccccccccccccccscccccccccccccc"
       transform="translate(-84.510928,403.83944)" />
  </g>
</svg>
