<?xml version="1.0" encoding="UTF-8" standalone="no"?>
<svg
   xmlns:dc="http://purl.org/dc/elements/1.1/"
   xmlns:cc="http://creativecommons.org/ns#"
   xmlns:rdf="http://www.w3.org/1999/02/22-rdf-syntax-ns#"
   xmlns:svg="http://www.w3.org/2000/svg"
   xmlns="http://www.w3.org/2000/svg"
   xmlns:sodipodi="http://sodipodi.sourceforge.net/DTD/sodipodi-0.dtd"
   xmlns:inkscape="http://www.inkscape.org/namespaces/inkscape"
   width="196.22527"
   height="166.27376"
   id="svg5323"
   sodipodi:version="0.32"
   inkscape:version="0.91 r13725"
   inkscape:output_extension="org.inkscape.output.svgz.inkscape"
   sodipodi:docname="forum.svg"
   version="1.0"
   inkscape:export-filename="\\Fuj0910p158\svg\forum2.png"
   inkscape:export-xdpi="96.660004"
   inkscape:export-ydpi="96.660004">
  <sodipodi:namedview
     inkscape:window-height="968"
     inkscape:window-width="1280"
     inkscape:pageshadow="2"
     inkscape:pageopacity="0.0"
     guidetolerance="10.0"
     gridtolerance="10.0"
     objecttolerance="10.0"
     borderopacity="1.0"
     bordercolor="#666666"
     pagecolor="#ffffff"
     id="base"
     inkscape:zoom="1.3113867"
     inkscape:cx="31.925709"
     inkscape:cy="27.154983"
     inkscape:window-x="50"
     inkscape:window-y="50"
     inkscape:current-layer="layer4"
     showgrid="false"
     inkscape:window-maximized="0" />
  <metadata
     id="metadata5454">
    <rdf:RDF>
      <cc:Work
         rdf:about="">
        <dc:format>image/svg+xml</dc:format>
        <dc:type
           rdf:resource="http://purl.org/dc/dcmitype/StillImage" />
        <dc:title></dc:title>
        <dc:creator>
          <cc:Agent>
            <dc:title>JEM</dc:title>
          </cc:Agent>
        </dc:creator>
        <dc:subject>
          <rdf:Bag>
            <rdf:li>z'animo</rdf:li>
          </rdf:Bag>
        </dc:subject>
      </cc:Work>
    </rdf:RDF>
  </metadata>
  <defs
     id="defs5452">
    <linearGradient
       id="linearGradient20469">
      <stop
         offset="0"
         style="stop-color:#ffd900;stop-opacity:1;"
         id="stop20471" />
      <stop
         offset="1"
         style="stop-color:#cc810b;stop-opacity:1;"
         id="stop20473" />
    </linearGradient>
    <linearGradient
       id="linearGradient20463">
      <stop
         offset="0"
         style="stop-color:#ffd900;stop-opacity:1;"
         id="stop20465" />
      <stop
         offset="1"
         style="stop-color:#de9800;stop-opacity:1;"
         id="stop20467" />
    </linearGradient>
    <linearGradient
       id="linearGradient20457">
      <stop
         offset="0"
         style="stop-color:#ffd900;stop-opacity:1;"
         id="stop20459" />
      <stop
         offset="1"
         style="stop-color:#ffd900;stop-opacity:0;"
         id="stop20461" />
    </linearGradient>
    <linearGradient
       id="linearGradient18310">
      <stop
         offset="0"
         style="stop-color:#ffd900;stop-opacity:1;"
         id="stop18312" />
      <stop
         offset="1"
         style="stop-color:#de9800;stop-opacity:1;"
         id="stop18314" />
    </linearGradient>
    <linearGradient
       id="linearGradient14368">
      <stop
         offset="0"
         style="stop-color:#ff9c00;stop-opacity:1;"
         id="stop14370" />
      <stop
         offset="1"
         style="stop-color:#cc810b;stop-opacity:1;"
         id="stop14372" />
    </linearGradient>
    <linearGradient
       id="linearGradient10371">
      <stop
         offset="0"
         style="stop-color:#ffffff;stop-opacity:1;"
         id="stop10373" />
      <stop
         offset="0.72500002"
         style="stop-color:#ffffff;stop-opacity:1;"
         id="stop10377" />
      <stop
         offset="1"
         style="stop-color:#bbbbbb;stop-opacity:1;"
         id="stop10375" />
    </linearGradient>
    <linearGradient
       id="linearGradient10361">
      <stop
         offset="0"
         style="stop-color:#ffffff;stop-opacity:1;"
         id="stop10363" />
      <stop
         offset="1"
         style="stop-color:#ffffff;stop-opacity:0;"
         id="stop10365" />
    </linearGradient>
    <linearGradient
       id="linearGradient7396">
      <stop
         offset="0"
         style="stop-color:#ffffff;stop-opacity:1;"
         id="stop7398" />
      <stop
         offset="1"
         style="stop-color:#000000;stop-opacity:1;"
         id="stop7400" />
    </linearGradient>
  </defs>
  <g
     inkscape:label="fond"
     style="opacity:1;display:inline"
     id="layer4"
     transform="translate(64.02084,-1.5752968)"
     inkscape:groupmode="layer">
    <path
       style="opacity:0.95528451;color:#000000;fill:#484848;fill-opacity:1;fill-rule:evenodd;stroke:none;stroke-width:10;stroke-linecap:round;stroke-linejoin:round;marker:none;stroke-miterlimit:4;stroke-dasharray:none;stroke-dashoffset:1.46999993;stroke-opacity:1;visibility:visible;display:inline;overflow:visible;enable-background:accumulate"
       d="M 76.362659,1.5775623 C 41.85088,2.9580012 13.579222,17.724127 6.2008347,54.172619 C 6.4175792,83.663929 42.3453,104.26452 72.287643,102.51894 C 77.63044,102.20745 82.73866,101.16398 87.491669,99.540626 C 89.025962,99.309238 90.533392,99.042064 92.016343,98.693852 C 92.518214,99.871357 92.628326,101.56368 92.297378,103.8329 C 91.845878,106.92873 90.567512,110.74965 89.037365,114.40298 C 85.957458,121.75644 81.899061,128.41856 81.899061,128.41856 C 81.316611,129.38848 81.354724,130.64219 82.011475,131.42607 C 86.445893,132.95263 93.148516,129.9911 95.192045,129.14854 C 97.235574,128.30598 124.3096,109.88038 124.39164,77.144898 C 129.30699,69.847982 132.20521,61.182059 132.20443,51.770858 C 132.20229,26.053041 110.26528,4.3682538 82.320614,1.8403544 C 82.292996,1.8291838 82.264857,1.8194389 82.236303,1.8111553 C 82.197264,1.8076821 82.162955,1.7853544 82.123889,1.7819561 C 82.105157,1.7813478 82.086415,1.7813478 82.067682,1.7819561 C 82.011232,1.7770983 81.955502,1.7866534 81.899061,1.7819561 C 80.043722,1.6275391 78.19333,1.5618608 76.362659,1.5775623 z "
       id="path3326"
       sodipodi:nodetypes="ccsccsscczcscssssc" />
    <path
       style="opacity:1;color:#000000;fill:#5acdef;fill-opacity:1;fill-rule:evenodd;stroke:none;stroke-width:2;stroke-linecap:round;stroke-linejoin:round;marker:none;stroke-miterlimit:4;stroke-dasharray:none;stroke-dashoffset:1.46999993;stroke-opacity:1;visibility:visible;display:inline;overflow:visible;enable-background:accumulate"
       d="M 75.28911,3.9435903 C 77.09352,3.9294903 78.914857,3.9904721 80.746048,4.143543 C 80.764805,4.1451109 80.783256,4.1419571 80.802016,4.143543 C 80.829985,4.1448825 80.858,4.1448825 80.885969,4.143543 C 107.9917,6.4737943 129.07286,27.09044 129.07492,51.218098 C 129.07567,60.138794 126.28897,68.337942 121.49117,75.240975 C 121.38558,75.391098 121.32703,75.570367 121.32327,75.755139 C 121.41566,106.82324 93.031152,125.37195 93.031152,125.37195 C 92.468816,125.73987 91.932554,125.67583 91.575969,125.25769 C 91.218554,124.83858 91.133418,124.03344 91.520001,123.40099 C 91.520001,123.40099 95.609461,116.82448 98.711964,109.54713 C 100.25399,105.93011 101.54343,102.14882 102.01411,98.978205 C 102.43552,96.139491 102.23718,94.032881 101.17458,92.579722 C 100.93357,92.23712 100.49422,92.107304 100.11118,92.265511 C 94.356188,94.711815 87.957976,96.275432 81.165812,96.664468 C 51.784404,98.347269 24.737012,78.050176 24.525602,49.789865 C 24.3266,23.188404 47.945716,4.1572582 75.28911,3.9435903 z "
       id="path3248" />
    <path
       style="opacity:0.95528451;color:#000000;fill:#484848;fill-opacity:1;fill-rule:evenodd;stroke:none;stroke-width:10;stroke-linecap:round;stroke-linejoin:round;marker:none;stroke-miterlimit:4;stroke-dasharray:none;stroke-dashoffset:1.46999993;stroke-opacity:1;visibility:visible;display:inline;overflow:visible;enable-background:accumulate"
       d="M -45.073858,52.809487 C -52.815649,52.666989 -64.334283,56.593408 -64.014315,64.11112 C -64.014315,64.11112 -63.198358,144.53087 -63.198358,144.53087 C -63.162888,147.99964 -60.385619,150.57194 -57.036474,150.2652 C -57.036474,150.26521 -13.645436,146.64644 -13.645436,146.64644 C -2.3352081,169.86311 23.719777,167.80221 23.719777,167.80221 C 24.846436,167.73577 32.840903,166.18773 34.80554,163.59889 C 35.542859,162.9593 36.04231,162.0459 36.184226,161.0101 C 36.432223,159.20004 35.410703,157.45276 33.680081,157.11298 C 33.680081,157.11299 33.284973,157.03427 32.442077,156.61192 C 31.59919,156.1896 30.370505,155.43527 28.953157,154.10664 C 26.823585,152.11038 24.395307,148.77147 22.509909,143.3339 C 32.750588,142.3949 46.116395,141.16265 46.116395,141.16265 C 48.033302,140.98666 54.695051,140.49584 58.215071,136.54178 C 59.850415,135.08622 60.412901,133.21181 60.578533,131.11366 C 60.578533,131.11366 60.353441,62.02338 60.353441,62.02338 C 60.34216,58.615414 58.01608,55.65191 54.894969,55.565304 C 54.894969,55.565303 -44.736454,52.81259 -44.848766,52.809487 C -44.923802,52.80864 -44.998819,52.809487 -45.073858,52.809487 z "
       id="path3324"
       sodipodi:nodetypes="cccscccsssscccccccc" />
    <text
       xml:space="preserve"
       style="font-size:89.30409241px;font-style:normal;font-weight:normal;opacity:1;fill:#ffffff;fill-opacity:1;stroke:none;stroke-width:1px;stroke-linecap:butt;stroke-linejoin:miter;stroke-opacity:1;display:inline;font-family:Batang"
       x="55.58271"
       y="82.096527"
       id="text3376"
       transform="scale(1.0619629,0.9416525)"><tspan
         sodipodi:role="line"
         id="tspan3378"
         x="55.58271"
         y="82.096527"
         style="font-style:italic;font-weight:bold;fill:#ffffff;fill-opacity:1;font-family:Calibri">!</tspan></text>
    <path
       style="opacity:0.95528451;color:#000000;fill:#ff6000;fill-opacity:1;fill-rule:evenodd;stroke:none;stroke-width:2;stroke-linecap:round;stroke-linejoin:round;marker:none;stroke-miterlimit:4;stroke-dasharray:none;stroke-dashoffset:1.46999993;stroke-opacity:1;visibility:visible;display:inline;overflow:visible;enable-background:accumulate"
       d="M -43.964627,55.78072 C -43.946098,55.781292 -43.927554,55.781292 -43.909025,55.78072 C -43.909025,55.78072 -43.715184,55.780699 -43.714419,55.78072 C -43.327114,55.791395 54.700727,58.497226 54.700727,58.497226 C 56.633924,58.550743 58.361909,60.561835 58.370444,63.134494 C 58.370444,63.134494 58.592851,131.21178 58.592851,131.21178 C 58.600862,133.75622 56.851603,135.89191 54.923134,136.06857 C 54.923134,136.06857 20.70024,139.19666 20.70024,139.19666 C 20.439909,139.22047 20.203364,139.35609 20.053435,139.56749 C 19.903507,139.77888 19.855372,140.04467 19.921815,140.29424 C 21.916467,148.07907 25.131635,152.54943 27.900671,155.13899 C 29.425303,156.5648 30.782522,157.41926 31.764994,157.91037 C 32.747466,158.40148 33.433047,158.54148 33.433047,158.54148 C 34.103542,158.6728 34.632472,159.42105 34.489481,160.46224 C 34.346428,161.50387 33.507121,162.28614 32.793626,162.32813 C 32.793626,162.32813 7.6702696,164.36012 -3.264126,141.96804 C -3.4222661,141.64516 -3.7634453,141.44963 -4.1259536,141.47414 C -4.1259536,141.47414 -43.074998,145.04127 -43.074998,145.04127 C -45.887073,145.29821 -48.132201,143.22892 -48.162562,140.26681 C -48.162562,140.26681 -48.968787,60.994216 -48.968787,60.994216 C -48.998748,58.014227 -46.765681,55.735452 -43.964627,55.78072 z "
       id="path3233" />
    <text
       xml:space="preserve"
       style="font-size:89.30409241px;font-style:normal;font-weight:normal;fill:#ffffff;fill-opacity:1;stroke:none;stroke-width:1px;stroke-linecap:butt;stroke-linejoin:miter;stroke-opacity:1;font-family:Batang"
       x="-13.439599"
       y="135.46231"
       id="text3372"
       transform="scale(1.0619629,0.9416525)"><tspan
         sodipodi:role="line"
         id="tspan3374"
         x="-13.439599"
         y="135.46231"
         style="font-style:italic;font-weight:bold;fill:#ffffff;fill-opacity:1;font-family:Calibri">?</tspan></text>
    <g
       id="g3510"
       transform="matrix(0.9998415,1.7804605e-2,-1.7804605e-2,0.9998415,3.1240647,6.0971476)">
      <path
         sodipodi:nodetypes="ccsccsscczcscssssc"
         id="path3439"
         d="M 89.20088,293.79818 C 54.726774,295.9205 25.104872,284.09391 14.07261,248.58022 C 11.301102,219.21863 44.957441,195.08491 74.922602,193.78869 C 80.269475,193.55741 85.457115,194.07811 90.350098,195.21169 C 91.899944,195.28648 93.426683,195.39959 94.937277,195.59581 C 95.317298,194.37352 95.255428,192.67875 94.696334,190.45473 C 93.933583,187.42055 92.274781,183.74876 90.38246,180.26921 C 86.573567,173.26553 81.861251,167.04874 81.861251,167.04874 C 81.183554,166.1428 81.094482,164.89168 81.668456,164.04531 C 85.925447,162.07745 92.893565,164.34485 95.011923,164.97609 C 97.130285,165.60733 125.93138,181.19587 129.32874,213.75468 C 134.9579,220.51621 138.71898,228.844 139.67145,238.20688 C 142.27425,263.79265 122.64648,287.58788 95.10158,292.93326 C 95.075234,292.94717 95.048226,292.95972 95.020662,292.97085 C 94.982175,292.97827 94.950302,293.00395 94.911777,293.01129 C 94.893205,293.01379 94.874562,293.01569 94.855866,293.01698 C 94.800199,293.02753 94.743787,293.02366 94.688114,293.03406 C 92.857956,293.37561 91.023736,293.62837 89.20088,293.79818 z "
         style="opacity:0.95528451;color:#000000;fill:#484848;fill-opacity:1;fill-rule:evenodd;stroke:none;stroke-width:10;stroke-linecap:round;stroke-linejoin:round;marker:none;stroke-miterlimit:4;stroke-dasharray:none;stroke-dashoffset:1.46999993;stroke-opacity:1;visibility:visible;display:inline;overflow:visible;enable-background:accumulate" />
      <path
         id="path3441"
         d="M 87.893209,291.55306 C 89.689767,291.38432 91.495553,291.13916 93.301821,290.8014 C 93.320326,290.79795 93.339001,290.79921 93.357503,290.79573 C 93.385195,290.79158 93.41307,290.78874 93.441021,290.78723 C 120.17133,285.72346 139.05583,263.07756 136.61402,239.07378 C 135.7112,230.19888 132.10835,222.32417 126.63603,215.9426 C 126.51578,215.80394 126.43937,215.63153 126.41691,215.44809 C 123.36198,184.53041 93.244677,168.95213 93.244677,168.95213 C 92.647963,168.64306 92.120947,168.76108 91.808544,169.21319 C 91.495423,169.66635 91.492273,170.47597 91.940935,171.06601 C 91.940935,171.06601 96.675485,177.19448 100.49914,184.12016 C 102.39961,187.56239 104.06542,191.19362 104.85482,194.30025 C 105.5616,197.08169 105.57765,199.19755 104.66771,200.75087 C 104.46264,201.11612 104.03869,201.28976 103.6416,201.17118 C 97.668414,199.32036 91.144738,198.41286 84.348104,198.71379 C 54.947351,200.01565 30.094929,222.94795 32.747057,251.08433 C 35.243507,277.56914 60.668793,294.11007 87.893209,291.55306 z "
         style="color:#000000;fill:#5acdef;fill-opacity:1;fill-rule:evenodd;stroke:none;stroke-width:2;stroke-linecap:round;stroke-linejoin:round;marker:none;stroke-miterlimit:4;stroke-dasharray:none;stroke-dashoffset:1.46999993;stroke-opacity:1;visibility:visible;display:inline;overflow:visible;enable-background:accumulate" />
      <path
         sodipodi:nodetypes="cccscccsssscccccccc"
         id="path3443"
         d="M -33.356494,288.95503 C -41.044036,289.88095 -52.901132,287.14143 -53.344269,279.62998 C -53.344269,279.62998 -60.678124,199.54117 -60.678124,199.54117 C -60.994184,196.08665 -58.491744,193.24627 -55.128754,193.2122 C -55.128755,193.21219 -11.594333,192.41733 -11.594333,192.41733 C -2.6938602,168.17446 23.435872,167.58569 23.435872,167.58569 C 24.563466,167.53767 32.673617,168.26799 34.890371,170.64452 C 35.688681,171.20614 36.27808,172.06426 36.524181,173.08036 C 36.954242,174.85599 36.114955,176.69775 34.427649,177.21107 C 34.427648,177.21106 34.042546,177.3294 33.246764,177.83495 C 32.450988,178.34048 31.305027,179.21538 30.029544,180.68074 C 28.113123,182.88243 26.035527,186.45013 24.710591,192.0507 C 34.993713,191.94761 48.415593,191.81971 48.415593,191.81971 C 50.340468,191.80064 57.01767,191.61417 60.920093,195.19136 C 62.694454,196.47379 63.443908,198.28159 63.821205,200.35217 C 63.821205,200.35217 70.595341,269.10992 70.595341,269.10992 C 70.929307,272.5015 68.91536,275.68537 65.819067,276.08766 C 65.819067,276.08766 -33.021139,288.91777 -33.132559,288.93223 C -33.207123,288.94067 -33.281841,288.94743 -33.356494,288.95503 z "
         style="opacity:0.95528451;color:#000000;fill:#484848;fill-opacity:1;fill-rule:evenodd;stroke:none;stroke-width:10;stroke-linecap:round;stroke-linejoin:round;marker:none;stroke-miterlimit:4;stroke-dasharray:none;stroke-dashoffset:1.46999993;stroke-opacity:1;visibility:visible;display:inline;overflow:visible;enable-background:accumulate" />
      <text
         transform="matrix(1.0565013,-0.1075649,-9.5378802e-2,-0.9368096,0,0)"
         id="text3445"
         y="-239.57185"
         x="39.217758"
         style="font-size:89.30409241px;font-style:normal;font-weight:normal;fill:#ffffff;fill-opacity:1;stroke:none;stroke-width:1px;stroke-linecap:butt;stroke-linejoin:miter;stroke-opacity:1;display:inline;font-family:Batang"
         xml:space="preserve"><tspan
           style="font-style:italic;font-weight:bold;fill:#ffffff;fill-opacity:1;font-family:Calibri"
           y="-239.57185"
           x="39.217758"
           id="tspan3447"
           sodipodi:role="line">!</tspan></text>
      <path
         id="path3449"
         d="M -32.55392,285.88673 C -32.535544,285.88428 -32.517095,285.8824 -32.498604,285.88109 C -32.498604,285.88109 -32.305757,285.86148 -32.304998,285.86138 C -31.920767,285.81153 65.328853,273.1905 65.328853,273.1905 C 67.246688,272.94144 68.762081,270.76567 68.509995,268.20537 C 68.509995,268.20537 61.835799,200.45568 61.835799,200.45568 C 61.586044,197.92352 59.629459,195.97599 57.693013,195.99557 C 57.693013,195.99557 23.329284,196.34996 23.329284,196.34996 C 23.067881,196.35265 22.818815,196.24168 22.648245,196.04656 C 22.477677,195.85144 22.402868,195.59189 22.44369,195.33687 C 23.639568,187.39005 26.385404,182.61702 28.877905,179.7603 C 30.250278,178.1874 31.51397,177.19986 32.441645,176.61176 C 33.36932,176.02366 34.037195,175.81494 34.037195,175.81494 C 34.69094,175.61638 35.141361,174.81841 34.893644,173.79706 C 34.645822,172.77527 33.731596,172.08204 33.017517,172.11253 C 33.017517,172.11253 7.8175513,172.63571 -0.79254415,196.02016 C -0.91716674,196.35739 -1.2367861,196.58648 -1.5999123,196.59881 C -1.5999123,196.59881 -40.709955,196.99513 -40.709955,196.99513 C -43.533593,197.02434 -45.557579,199.31039 -45.287755,202.26034 C -45.287755,202.26034 -38.060412,281.2069 -38.060412,281.2069 C -37.78838,284.1746 -35.335983,286.21548 -32.55392,285.88673 z "
         style="opacity:0.95528451;color:#000000;fill:#ff6000;fill-opacity:1;fill-rule:evenodd;stroke:none;stroke-width:2;stroke-linecap:round;stroke-linejoin:round;marker:none;stroke-miterlimit:4;stroke-dasharray:none;stroke-dashoffset:1.46999993;stroke-opacity:1;visibility:visible;display:inline;overflow:visible;enable-background:accumulate" />
      <text
         transform="matrix(1.0565013,-0.1075649,-9.5378802e-2,-0.9368096,0,0)"
         id="text3451"
         y="-222.31277"
         x="-29.804556"
         style="font-size:89.30409241px;font-style:normal;font-weight:normal;fill:#ffffff;fill-opacity:1;stroke:none;stroke-width:1px;stroke-linecap:butt;stroke-linejoin:miter;stroke-opacity:1;display:inline;font-family:Batang"
         xml:space="preserve"><tspan
           style="font-style:italic;font-weight:bold;fill:#ffffff;fill-opacity:1;font-family:Calibri"
           y="-222.31277"
           x="-29.804556"
           id="tspan3453"
           sodipodi:role="line">?</tspan></text>
    </g>
  </g>
</svg>
