<?xml version="1.0" encoding="UTF-8" standalone="no"?>
<!-- Created with Inkscape (http://www.inkscape.org/) -->

<svg
   xmlns:dc="http://purl.org/dc/elements/1.1/"
   xmlns:cc="http://creativecommons.org/ns#"
   xmlns:rdf="http://www.w3.org/1999/02/22-rdf-syntax-ns#"
   xmlns:svg="http://www.w3.org/2000/svg"
   xmlns="http://www.w3.org/2000/svg"
   xmlns:sodipodi="http://sodipodi.sourceforge.net/DTD/sodipodi-0.dtd"
   xmlns:inkscape="http://www.inkscape.org/namespaces/inkscape"
   width="528.60901"
   height="422.13196"
   id="svg2"
   version="1.1"
   inkscape:version="0.91 r13725"
   sodipodi:docname="geo-carte.svg"
   inkscape:export-filename="D:\Projet Echanges\svg\geo-carte.png"
   inkscape:export-xdpi="90"
   inkscape:export-ydpi="90">
  <defs
     id="defs4" />
  <sodipodi:namedview
     id="base"
     pagecolor="#ffffff"
     bordercolor="#666666"
     borderopacity="1.0"
     inkscape:pageopacity="0.0"
     inkscape:pageshadow="2"
     inkscape:zoom="0.7"
     inkscape:cx="263.93875"
     inkscape:cy="70.333659"
     inkscape:document-units="px"
     inkscape:current-layer="layer2"
     showgrid="false"
     inkscape:window-width="1280"
     inkscape:window-height="972"
     inkscape:window-x="-8"
     inkscape:window-y="-8"
     inkscape:window-maximized="1" />
  <metadata
     id="metadata7">
    <rdf:RDF>
      <cc:Work
         rdf:about="">
        <dc:format>image/svg+xml</dc:format>
        <dc:type
           rdf:resource="http://purl.org/dc/dcmitype/StillImage" />
        <dc:title></dc:title>
      </cc:Work>
    </rdf:RDF>
  </metadata>
  <g
     inkscape:label="Fond"
     inkscape:groupmode="layer"
     id="layer1"
     style="display:inline"
     transform="translate(631.39734,-221.02335)">
    <path
       style="fill:#e0e256"
       d="m -114.15625,227.0625 -511.34692,23.50079 c 4.71311,135.18675 7.01263,249.28157 13.84296,377.16799 l 501.56646,-11.76253 -4.0625,-388.90625 z"
       id="path2858"
       sodipodi:nodetypes="ccccc" />
    <path
       style="fill:#f3960b"
       d="m -361.63674,233.11722 c -18.85403,38.18264 -33.16617,60.78272 -13.39451,110.38278 3.89244,7.52714 8.69995,24.3607 10.65625,37.40625 1.51647,4.55159 5.0537,44.15758 14.85311,39.09296 0,0 44.59766,-57.75446 67.90664,-61.37788 34.76621,1.94131 84.27035,15.80567 74.02136,41.34575 -14.60945,36.4062 19.48473,53.69245 14.71008,84.20978 -6.92458,36.68002 -28.27421,67.53965 -45.52244,74.22939 0.66774,2.67096 7.92734,31.99722 30.36564,64.15863 62.63453,-0.18523 91.2765,-10.03655 97.01015,-14.26872 l -7.14372,-376.15323 c -80.6597,2.51462 -135.34282,-10.005 -243.46256,0.97429 z"
       id="path2856"
       sodipodi:nodetypes="cccccscccccc" />
  </g>
  <g
     inkscape:groupmode="layer"
     id="layer4"
     inkscape:label="veget"
     style="display:inline"
     transform="translate(631.39734,-221.02335)">
    <path
       style="fill:#90b222;display:inline"
       d="m -115.15625,224.03125 -60.875,2.6875 c -2.01931,24.64885 -8.95678,48.13171 -16.4375,71.59375 -13.15244,30.41299 -16.488,37.27189 -17.15625,65.75 18.38202,10.41106 33.82192,30.55534 56.65625,28.40625 0.005,-0.005 0.026,0.005 0.0312,0 11.64172,-12.466 23.58004,-24.40898 38.125,-33.46875 -0.1547,-60.18359 -0.34375,-134.96875 -0.34375,-134.96875 l 5e-5,0 z m -370.125,14.40625 c -63.31386,5.07402 -140,10.84375 -140,10.84375 l 4,170.46875 c 31.33334,-36.99081 70.72876,-65.85762 103.4375,-101.3125 23.98727,-26.64258 40.53811,-46.62894 32.5625,-79.99995 l 0,-5e-5 z M -511.625,490.65625 c -44.44133,1.01343 -82.02031,47.92063 -106.0625,81.40625 l 1.5,64.125 c 0,0 118.47216,-2.88063 240.1875,-6.28125 -25.25252,-57.0092 -75.1898,-123.35924 -135.625,-139.25 z m 278.15625,64.3125 c -20.56034,2.59204 -65.24094,-4.94682 -80.21875,8.71875 -15.24474,26.39664 3.41789,40.81251 18.52189,57.72033 31.16362,-0.94057 64.37638,-3.90469 90.00936,-4.80155 -10.9955,-22.8706 -21.18861,-37.22721 -28.3125,-61.63753 z"
       id="path2852"
       sodipodi:nodetypes="ccccccccccccccscccccccccc" />
  </g>
  <g
     inkscape:groupmode="layer"
     id="layer3"
     inkscape:label="Eau"
     style="display:inline"
     transform="translate(631.39734,-221.02335)">
    <path
       style="fill:#2999a3;display:inline"
       d="m -285.3125,326.3125 c -18.583,0.47174 -31.40732,12.23521 -38.96875,35.4375 -9.23092,28.32508 -33.42088,43.41636 -62.15625,38.8125 -51.59154,-8.26577 -82.50945,-4.31136 -148.1875,18.90625 -6.00369,2.12235 -12.48845,4.2683 -18.875,6.28125 -1.19956,1.97711 -2.27457,2.95813 -3.09375,2.34375 -22.49634,6.42753 -40.25689,13.24717 -65.23661,20.41964 -2.30448,16.91686 -4.69749,36.68513 -3.45089,53.33036 11.38568,-4.45527 19.81763,-8.64335 25.5,-11.78125 2.77317,-4.15852 7.61742,-6.62993 16.59375,-10.78125 10.6884,-4.9431 24.88225,-14.12425 31.5625,-20.375 15.67585,-14.66799 33.72927,-21.33324 49.53125,-18.3125 7.40075,1.41474 17.82857,-1.05539 25.375,-6 28.00959,-18.31413 67.26155,15.25188 94.46875,13.53125 11.74858,-1.17076 25.59375,-12.71875 25.59375,-12.71875 29.49955,-14.70024 33.375,-15.38343 33.375,-5.6875 0,3.89551 -10.37003,13.005 -23.0625,20.25 -12.69248,7.24501 -26.75832,16.29054 -31.25,20.09375 -4.49167,3.80321 -11.0053,8.63575 -19.23049,28.10073 -8.22519,19.46498 11.22873,34.04277 24.88674,59.08677 15.09679,27.21497 20.26057,40.22051 24.28125,69.51786 14.47175,-0.52828 27.78299,-3.13485 43.35714,-3.54911 -6.67335,-34.8649 -77.80284,-97.32079 -58.58477,-127.07589 19.21808,-29.7551 77.17214,-20.86461 62.91518,-78.11161 -13.8046,-43.16809 3.11493,-49.20333 61.03125,-21.78125 46.15465,39.04816 73.19992,21.63778 124.56696,11.46434 -1.18656,-16.21301 -1.12075,-31.90214 0.30358,-61.16965 -76.86516,42.73163 -109.31608,-17.39481 -171.24554,-20.23214 l -5e-5,-5e-5 z"
       id="path2854"
       sodipodi:nodetypes="cssscccccssscccssszccczcccccc" />
  </g>
  <g
     inkscape:groupmode="layer"
     id="layer5"
     inkscape:label="Villes"
     transform="translate(631.39734,-221.02335)">
    <path
       style="fill:#c54b20;display:inline"
       d="m -523.68041,577.72395 c -19.19865,-11.18219 -4.97708,-35.52116 19.13966,-32.75586 32.94341,6.94462 6.47098,46.88328 -19.13966,32.75586 z"
       id="path2881"
       sodipodi:nodetypes="ccc" />
    <path
       style="fill:#c54b20;display:inline"
       d="m -305.87127,556.77025 c 23.09617,-8.86283 41.69692,6.49697 23.75528,19.61622 -14.12993,15.84097 -46.48533,-2.45745 -23.75528,-19.61622 z"
       id="path2879"
       sodipodi:nodetypes="ccc" />
    <path
       style="fill:#c54b20;display:inline"
       d="m -184.37355,555.63467 c -4.32268,-11.26473 5.77919,-21.24685 21.50178,-21.24685 15.13196,0 22.63648,12.05877 13.98893,22.47843 -7.73898,9.32489 -31.75967,8.49134 -35.49071,-1.23158 z"
       id="path2877" />
    <path
       style="fill:#c54b20;display:inline"
       d="m -251.06857,500.73845 c 10.38761,-5.55927 28.55614,4.47153 23.35172,12.89244 -11.62186,16.10623 -49.2789,6.98422 -23.35172,-12.89244 z"
       id="path2875"
       sodipodi:nodetypes="ccc" />
    <path
       style="fill:#c54b20;display:inline"
       d="m -511.77742,436.24887 c -10.04655,-10.04656 -6.39807,-21.90602 8.6578,-28.14237 25.24834,-10.4582 43.2678,6.06809 26.6445,24.43663 -9.70127,10.71979 -26.5225,12.48554 -35.3023,3.70574 z"
       id="path2871" />
    <path
       style="fill:#c54b20;display:inline"
       d="m -585.14271,355.84295 c 5.60662,-15.08284 36.17973,-15.81669 40.88825,-0.98145 8.26351,27.84047 -52.81831,39.53248 -40.88825,0.98145 z"
       id="path2850"
       sodipodi:nodetypes="ccc" />
  </g>
  <g
     inkscape:groupmode="layer"
     id="layer2"
     inkscape:label="Cadre"
     style="display:inline"
     transform="translate(631.39734,-221.02335)">
    <path
       id="path2848"
       d="m -620.86235,640.35868 c -4.10012,-5.05987 -7.66579,-37.68314 -9.48649,-201.69692 -1.18048,-106.34062 -1.39715,-194.29901 -0.48149,-195.46308 5.47149,-6.95583 252.98654,-21.10468 378.00372,-21.60805 l 140.89255,-0.56728 1.16217,53.442 c 0.63917,29.3931 3.24189,117.86951 5.78388,196.61424 2.94442,91.2132 2.93266,145.20745 -0.034,148.78021 -3.18067,3.83246 -46.54264,6.64245 -136.95973,8.87541 -123.30952,3.04527 -246.76005,12.20306 -334.51594,14.18132 -12.19256,0.28371 -40.08776,0.93134 -44.36467,-2.55785 z m 219.85563,-26.41296 c 38.74546,-1.26097 116.87905,-2.81777 173.6302,-3.45956 58.05746,-0.65656 105.12738,-3.21004 107.62778,-5.83866 2.68644,-2.82426 2.63212,-38.29451 -0.13739,-89.69313 -2.51969,-46.76176 -5.83869,-128.00683 -7.37553,-180.54463 l -2.79429,-95.52325 -51.6686,-3.53687 c -54.17456,-3.7084 -152.47139,-0.59647 -238.71562,7.55737 -28.05706,2.65262 -82.71365,6.95292 -121.4591,9.55622 -38.74546,2.6033 -71.21299,4.79281 -72.15008,4.86557 -0.93708,0.0728 -0.16593,26.91403 1.71369,59.64726 1.87961,32.73322 3.92406,101.05397 4.54323,151.82387 0.61916,50.7699 1.4877,106.29104 1.93009,123.38031 l 0.80433,31.0714 66.80251,-3.50661 c 36.74138,-1.92864 98.50333,-4.53832 137.24878,-5.79929 z"
       style="fill:#232418;fill-opacity:1"
       sodipodi:nodetypes="csscccssscccsscccsssssccccc" />
  </g>
</svg>
