<?xml version="1.0" encoding="UTF-8" standalone="no"?>
<!-- Created with Inkscape (http://www.inkscape.org/) -->

<svg
   xmlns:dc="http://purl.org/dc/elements/1.1/"
   xmlns:cc="http://creativecommons.org/ns#"
   xmlns:rdf="http://www.w3.org/1999/02/22-rdf-syntax-ns#"
   xmlns:svg="http://www.w3.org/2000/svg"
   xmlns="http://www.w3.org/2000/svg"
   xmlns:xlink="http://www.w3.org/1999/xlink"
   xmlns:sodipodi="http://sodipodi.sourceforge.net/DTD/sodipodi-0.dtd"
   xmlns:inkscape="http://www.inkscape.org/namespaces/inkscape"
   width="100.96597"
   height="100.9375"
   id="svg2452"
   sodipodi:version="0.32"
   inkscape:version="0.91 r13725"
   version="1.0"
   sodipodi:docname="geo-planet.svg"
   inkscape:output_extension="org.inkscape.output.svgz.inkscape"
   inkscape:export-filename="C:\Documents and Settings\jmviglino\Mes documents\svg\planet.png"
   inkscape:export-xdpi="300"
   inkscape:export-ydpi="300">
  <defs
     id="defs2454">
    <linearGradient
       id="linearGradient4326">
      <stop
         style="stop-color:#66ccff;stop-opacity:1;"
         offset="0"
         id="stop4328" />
      <stop
         style="stop-color:#0099ff;stop-opacity:1;"
         offset="1"
         id="stop4330" />
    </linearGradient>
    <linearGradient
       id="linearGradient4255">
      <stop
         style="stop-color:#ffffff;stop-opacity:1;"
         offset="0"
         id="stop4257" />
      <stop
         style="stop-color:#ffffff;stop-opacity:0;"
         offset="1"
         id="stop4259" />
    </linearGradient>
    <linearGradient
       id="linearGradient4235">
      <stop
         style="stop-color:#66ff00;stop-opacity:1;"
         offset="0"
         id="stop4237" />
      <stop
         style="stop-color:#eba60d;stop-opacity:1;"
         offset="1"
         id="stop4239" />
    </linearGradient>
    <radialGradient
       inkscape:collect="always"
       xlink:href="#linearGradient4255"
       id="radialGradient4324"
       gradientUnits="userSpaceOnUse"
       gradientTransform="matrix(1,0,0,0.9034091,0,3.913381)"
       cx="-55.04929"
       cy="40.515011"
       fx="-55.04929"
       fy="40.515011"
       r="52.705383" />
    <radialGradient
       inkscape:collect="always"
       xlink:href="#linearGradient4326"
       id="radialGradient4332"
       cx="360"
       cy="464"
       fx="360"
       fy="464"
       r="335"
       gradientUnits="userSpaceOnUse"
       gradientTransform="matrix(0.6840361,0.4419926,-1.2064517,1.8671277,673.54062,-561.46456)" />
    <radialGradient
       inkscape:collect="always"
       xlink:href="#linearGradient4235"
       id="radialGradient4345"
       cx="-62.835316"
       cy="56.910576"
       fx="-62.835316"
       fy="56.910576"
       r="47.015594"
       gradientTransform="matrix(0.9574015,0.7539222,-1.3787132,1.7508197,75.786659,4.6433566)"
       gradientUnits="userSpaceOnUse" />
    <radialGradient
       inkscape:collect="always"
       xlink:href="#linearGradient4235"
       id="radialGradient4347"
       gradientUnits="userSpaceOnUse"
       gradientTransform="matrix(0.9574015,0.7539222,-1.3787132,1.7508197,75.786659,4.6433566)"
       cx="-62.835316"
       cy="56.910576"
       fx="-62.835316"
       fy="56.910576"
       r="47.015594" />
    <radialGradient
       inkscape:collect="always"
       xlink:href="#linearGradient4235"
       id="radialGradient4349"
       gradientUnits="userSpaceOnUse"
       gradientTransform="matrix(0.9574015,0.7539222,-1.3787132,1.7508197,75.786659,4.6433566)"
       cx="-62.835316"
       cy="56.910576"
       fx="-62.835316"
       fy="56.910576"
       r="47.015594" />
    <radialGradient
       inkscape:collect="always"
       xlink:href="#linearGradient4235"
       id="radialGradient4351"
       gradientUnits="userSpaceOnUse"
       gradientTransform="matrix(0.9574015,0.7539222,-1.3787132,1.7508197,75.786659,4.6433566)"
       cx="-62.835316"
       cy="56.910576"
       fx="-62.835316"
       fy="56.910576"
       r="47.015594" />
  </defs>
  <sodipodi:namedview
     id="base"
     pagecolor="#ffffff"
     bordercolor="#666666"
     borderopacity="1.0"
     inkscape:pageopacity="0.0"
     inkscape:pageshadow="2"
     inkscape:zoom="0.81548975"
     inkscape:cx="-103.8752"
     inkscape:cy="112.7031"
     inkscape:document-units="px"
     inkscape:current-layer="layer5"
     inkscape:window-width="1280"
     inkscape:window-height="972"
     inkscape:window-x="-8"
     inkscape:window-y="-8"
     showgrid="false"
     inkscape:window-maximized="1" />
  <metadata
     id="metadata2457">
    <rdf:RDF>
      <cc:Work
         rdf:about="">
        <dc:format>image/svg+xml</dc:format>
        <dc:type
           rdf:resource="http://purl.org/dc/dcmitype/StillImage" />
        <dc:title></dc:title>
        <dc:creator>
          <cc:Agent>
            <dc:title>JEM</dc:title>
          </cc:Agent>
        </dc:creator>
        <dc:subject>
          <rdf:Bag>
            <rdf:li>Icon</rdf:li>
          </rdf:Bag>
        </dc:subject>
      </cc:Work>
    </rdf:RDF>
  </metadata>
  <g
     inkscape:groupmode="layer"
     id="layer3"
     style="display:inline"
     transform="translate(116.0364,-4.9911121)"
     inkscape:label="Terre">
    <circle
       transform="matrix(0.1497312,0,0,0.1497312,-119.58344,-13.687684)"
       style="opacity:1;color:#000000;fill:url(#radialGradient4332);fill-opacity:1;fill-rule:nonzero;stroke:none;stroke-width:2;stroke-linecap:butt;stroke-linejoin:miter;marker:none;marker-start:none;marker-mid:none;marker-end:none;stroke-miterlimit:4;stroke-dasharray:none;stroke-dashoffset:0;stroke-opacity:1;visibility:visible;display:inline;overflow:visible;enable-background:accumulate"
       cx="360"
       cy="464"
       r="335"
       id="circle2191"
       sodipodi:cx="360"
       sodipodi:cy="464"
       sodipodi:rx="335"
       sodipodi:ry="335" />
    <g
       id="g4334"
       style="fill:url(#radialGradient4345);fill-opacity:1;fill-rule:nonzero">
      <path
         id="path2193"
         d="M -59.541227,104.3005 L -52.503861,95.316632 L -46.21515,90.824692 L -45.017301,81.69109 L -45.466494,81.391628 L -45.915688,81.092165 L -46.514613,80.942434 L -47.263269,80.792703 L -48.011925,80.792703 L -48.910312,80.642972 L -49.808699,80.642972 L -50.707086,80.493241 L -52.503861,80.493241 L -53.402248,80.343509 L -54.150904,80.193778 L -54.89956,80.044047 L -55.648216,79.744585 L -56.09741,79.445122 L -56.546603,78.995929 L -56.995797,78.397004 L -57.145528,77.798079 L -57.44499,77.049423 L -57.594722,76.151036 L -57.744453,75.40238 L -57.744453,74.503993 L -57.894184,73.605605 L -57.894184,72.557487 L -57.744453,70.610981 L -57.744453,69.712594 L -57.594722,68.814207 L -57.44499,67.91582 L -57.295259,67.167164 L -57.145528,66.418508 L -56.995797,65.669852 L -52.054667,57.883829 L -49.509237,56.236786 L -41.274018,54.140549 L -34.536118,55.937324 L -32.589608,59.680604 L -30.044178,62.375765 L -27.049558,61.627109 L -23.306278,63.124421 L -21.359768,59.980066 L -27.049558,55.038937 L -30.792838,54.589743 L -33.787458,48.899957 L -38.279398,50.846463 L -38.279398,53.841087 L -42.471868,52.9427 L -42.022678,47.552377 L -35.883698,47.552377 L -38.728588,42.611247 L -39.626978,38.119311 L -36.332888,37.370655 L -35.284768,42.311785 L -31.541488,41.113935 L -27.049558,40.51501 L -29.145798,36.023074 L -30.343648,39.317161 L -34.086928,36.472268 L -32.889078,32.279794 L -27.049558,32.279794 L -27.498748,27.039202 L -20.311648,37.370655 L -15.819718,59.980066 L -23.306278,83.487865 L -22.857088,70.161788 L -25.402518,84.685714 L -37.530738,96.514482 L -55.049291,104.89942 L -59.541227,104.3005 L -59.541227,104.3005"
         style="fill:url(#radialGradient4347);fill-opacity:1;fill-rule:nonzero;stroke:none;stroke-width:0.29946241" />
      <path
         id="path2195"
         d="M -105.65844,83.038671 L -101.91516,80.942434 L -94.428597,78.995929 L -89.038274,79.295391 L -79.90467,73.905068 L -80.054402,73.605605 L -80.054402,73.306143 L -80.204133,72.707218 L -80.503595,71.958562 L -80.952789,71.209906 L -81.401982,70.46125 L -82.000907,69.562863 L -82.599832,68.664476 L -83.348488,67.91582 L -84.696069,66.119045 L -85.294994,65.220658 L -85.893918,64.472002 L -86.492843,63.723346 L -87.091768,62.97469 L -87.39123,62.226034 L -87.690693,61.627109 L -87.990155,61.028185 L -88.139886,60.578991 L -88.289618,60.129797 L -88.289618,59.830335 L -88.289618,59.381141 L -88.289618,59.081679 L -88.139886,58.482754 L -87.990155,57.883829 L -87.990155,57.584367 L -87.840424,57.135173 L -87.990155,56.68598 L -87.990155,56.236786 L -88.139886,55.637861 L -88.289618,55.038937 L -93.979403,39.766354 L -97.423221,39.766354 L -99.519458,36.77173 L -96.225371,33.178181 L -96.225371,30.782482 L -92.781554,27.787858 L -96.674565,27.787858 L -96.674565,25.392159 L -90.236123,21.199685 L -87.690693,24.194309 L -90.236123,28.686245 L -84.995531,25.691621 L -71.220261,25.691621 L -66.578594,30.033826 L -66.279131,24.194309 L -62.38612,27.488396 L -59.84069,27.039202 L -59.541227,17.456405 L -65.829938,19.25318 L -64.033163,13.862857 L -56.995797,15.5099 L -58.343378,20.451029 L -52.35413,20.451029 L -51.904936,20.151567 L -51.306011,19.702373 L -50.856818,19.103449 L -50.407624,18.504524 L -50.257893,18.205061 L -50.108162,17.755868 L -49.95843,17.456405 L -49.95843,17.007212 L -49.95843,16.408287 L -49.95843,15.959093 L -50.108162,15.360169 L -50.257893,14.761244 L -50.407624,14.31205 L -50.557355,14.162319 L -50.856818,13.563394 L -51.15628,13.263932 L -51.605474,13.114201 L -51.904936,12.964469 L -52.35413,12.814738 L -52.653592,12.814738 L -53.102786,12.964469 L -53.851442,13.114201 L -54.600098,13.413663 L -54.89956,13.413663 L -55.199022,13.563394 L -55.498485,13.563394 L -55.797947,13.413663 L -57.744453,10.56877 L -53.551979,9.670383 L -72.717573,8.921727 L -90.685317,15.5099 L -98.171877,24.194309 L -100.41785,34.076569 L -101.61569,38.119311 L -100.71731,41.862591 L -101.91516,44.857215 L -107.45521,46.803721 L -107.45521,59.680604 L -106.10763,63.124421 L -109.10225,72.258025 L -109.85091,77.94781 L -105.65844,83.038671 L -105.65844,83.038671"
         style="opacity:1;color:#000000;fill:url(#radialGradient4349);fill-opacity:1;fill-rule:nonzero;stroke:none;stroke-width:0.29946241;stroke-linecap:butt;stroke-linejoin:miter;marker:none;marker-start:none;marker-mid:none;marker-end:none;stroke-miterlimit:4;stroke-dasharray:none;stroke-dashoffset:0;stroke-opacity:1;visibility:visible;display:inline;overflow:visible;enable-background:accumulate" />
      <path
         id="path2197"
         d="M -46.963806,18.803986 L -48.311387,21.648879 L -54.001173,24.194309 L -52.803323,28.237052 L -46.963806,25.841353 L -41.573488,27.039202 L -39.926438,24.194309 L -39.626978,19.552642 L -46.963806,18.803986 z "
         style="opacity:1;color:#000000;fill:url(#radialGradient4351);fill-opacity:1;fill-rule:nonzero;stroke:none;stroke-width:0.29946241;stroke-linecap:butt;stroke-linejoin:miter;marker:none;marker-start:none;marker-mid:none;marker-end:none;stroke-miterlimit:4;stroke-dasharray:none;stroke-dashoffset:0;stroke-opacity:1;visibility:visible;display:inline;overflow:visible;enable-background:accumulate" />
    </g>
  </g>
  <g
     inkscape:groupmode="layer"
     id="layer5"
     style="display:inline"
     transform="translate(116.0364,-4.9911121)"
     inkscape:label="Reflet">
    <path
       style="fill:url(#radialGradient4324);fill-opacity:1;fill-rule:nonzero;stroke:none;stroke-width:0.29946241;display:inline"
       d="M -39.926438,-3.655694 L -42.621598,-4.554081 L -45.167032,-5.302737 L -47.862194,-5.9016618 L -50.407624,-6.3508554 L -53.102786,-6.6503178 L -55.648216,-6.800049 L -58.193646,-6.9497802 L -60.739077,-6.9497802 L -63.284507,-6.800049 L -65.829938,-6.5005866 L -68.225637,-6.2011242 L -70.771067,-5.7519306 L -73.166766,-5.1530058 L -75.412734,-4.554081 L -77.808434,-3.805425 L -80.054402,-2.907038 L -82.150638,-1.858919 L -84.246875,-0.81080103 L -86.343112,0.23731697 L -88.289618,1.584898 L -90.236123,2.932479 L -92.182629,4.28006 L -93.829672,5.927103 L -95.626446,7.424415 L -97.123758,9.221189 L -98.62107,11.017964 L -99.968651,12.814738 L -101.31623,14.761244 L -102.51408,16.857481 L -103.5622,18.953717 L -104.46059,21.049954 L -105.35897,23.445653 L -106.10763,25.691621 L -106.70656,27.937589 L -107.00602,30.333289 L -107.30548,32.579257 L -107.60494,34.974956 L -107.60494,37.220924 L -107.45521,39.616623 L -107.30548,41.862591 L -106.85629,44.25829 L -106.40709,46.504258 L -105.80817,48.750226 L -105.20924,50.996194 L -104.31086,53.242162 L -103.41247,55.338399 L -102.36435,57.584367 L -101.31623,59.680604 L -99.968651,61.776841 L -98.62107,63.723346 L -97.123758,65.669852 L -95.626446,67.616357 L -93.979403,69.413132 L -92.182629,71.209906 L -90.385854,72.856949 L -88.439349,74.503993 L -86.492843,76.151036 L -84.396606,77.648348 L -82.150638,78.995929 L -79.90467,80.343509 L -77.508971,81.541359 L -75.113272,82.739209 L -72.567842,83.787327 L -70.022411,84.685714 L -67.476981,85.584102 L -64.781819,86.183022 L -62.236389,86.781952 L -59.541227,87.231142 L -56.995797,87.530602 L -54.450366,87.830072 L -51.755205,87.979802 L -49.209774,87.830072 L -46.814075,87.830072 L -44.268648,87.530602 L -41.723218,87.231142 L -39.327518,86.781952 L -36.931818,86.183022 L -34.536118,85.434372 L -32.290148,84.685714 L -30.044178,83.937058 L -27.798208,82.88894 L -25.701978,81.840821 L -23.605738,80.642972 L -21.659238,79.445122 L -19.712728,78.097541 L -17.915958,76.600229 L -16.119178,75.102917 L -14.472138,73.455874 L -12.825088,71.808831 L -11.327778,70.012057 L -9.9801982,68.065551 L -8.7823482,66.119045 L -7.5844982,64.17254 L -6.3866482,62.076303 L -5.4882682,59.830335 L -4.5898782,57.584367 L -3.9909482,55.338399 L -3.3920282,52.9427 L -2.9428382,50.696732 L -2.6433682,48.301033 L -2.4936382,46.055065 L -2.4936382,43.659365 L -2.4936382,41.413397 L -2.7930982,39.017698 L -3.0925682,36.77173 L -3.5417582,34.525762 L -4.1406882,32.130063 L -4.8893382,29.884095 L -5.6379982,27.787858 L -6.5363782,25.54189 L -7.5844982,23.445653 L -8.7823482,21.349417 L -9.9801982,19.25318 L -11.327778,17.306674 L -12.825088,15.360169 L -14.472138,13.413663 L -16.119178,11.467157 L -17.766218,9.820114 L -19.712728,8.02334 L -21.509498,6.376297 L -23.605738,4.878985 L -25.701978,3.381673 L -27.947948,1.884361 L -30.193908,0.68651097 L -32.439878,-0.66107003 L -34.985308,-1.709188 L -37.381008,-2.757307 L -39.926438,-3.655694"
       id="path2201" />
  </g>
  <g
     inkscape:groupmode="layer"
     id="layer1"
     inkscape:label="Grille ombre"
     style="display:inline"
     transform="translate(-3.3465365,-2.90625)">
    <path
       style="opacity:0.8;fill:#4f661d;fill-opacity:1;display:inline"
       d="M 52.75,2.875 C 42.878972,3.0919341 32.012009,6.8816312 23.215782,13.506154 C 15.592894,19.716594 10.022261,26.64397 6.833467,35.858788 C 3.052662,46.146607 2.7756683,61.466611 9.5198229,77.237518 C 11.156288,81.06432 22.804456,100.01172 50.28125,103.46762 C 61.671327,104.04151 72.318874,101.32723 81.71875,94.78125 C 86.589177,91.389533 92.547126,85.609689 94.125,82.71875 C 96.479554,79.383536 98.991262,76.343036 100.03125,71.875 C 100.75703,68.756875 103.65233,60.822365 103.5,54.875 C 103.21449,43.727909 103.05375,40.023712 101.90625,47.75 C 101.83217,48.637022 99.336262,51.550478 97.65625,52.96875 L 97.65625,53.15625 C 95.97015,54.229223 94.34375,55 94.34375,55 L 94.3125,54.8125 C 93.994429,55.05292 93.771582,54.05297 93.125,50.125 C 92.701979,47.555128 91.92967,43.702168 91.40625,41.5625 L 90.577137,38.310724 C 91.116806,37.994929 91.477431,37.532457 91.875,37.0625 C 94.162264,33.972709 95.419762,31.126199 94.9375,27.28125 C 97.355259,29.640393 96.652142,26.434222 93.375,22.5625 C 88.555317,16.049796 84.893635,13.352298 77.647943,9.1772171 C 69.994636,4.7672611 61.440065,2.8789868 52.75,2.875 z M 56.90625,3.90625 L 54.1875,5.6875 C 52.046372,7.1070833 50.751504,7.4686707 48.0625,7.34375 C 46.188848,7.2567069 43.092891,7.5337982 41.15625,7.96875 L 37.625,8.75 L 38.875,7.25 C 40.60052,5.1889186 45.206864,4.1569407 53.59375,3.96875 L 56.90625,3.90625 z M 59,4.40625 C 60.617504,4.3796387 62.528516,5.0422367 64.90625,6.40625 L 68.34375,8.375 L 65.4375,7.25 C 61.529503,5.6956137 60.713504,6.0783707 64.0625,7.90625 C 67.343954,9.6972645 67.145635,10.636579 63.6875,9.71875 C 62.298232,9.3500183 59.765249,8.7438714 58.0625,8.375 C 56.35974,8.0061245 54.815912,7.6354495 54.625,7.53125 C 54.080849,7.2342526 54.923607,6.1065155 56.375,5.1875 C 57.169025,4.6847242 58.029498,4.4222168 59,4.40625 z M 64.8125,5.1875 C 64.898124,5.1582326 65.068641,5.1629377 65.3125,5.1875 C 66.021976,5.2589595 67.487015,5.9465651 68.5625,6.71875 C 69.864077,7.6532606 70.380021,7.8329025 70.09375,7.25 C 69.40684,5.8513316 71.81008,6.7128338 77.6875,9.9375 C 82.348521,12.494785 83.975437,13.747703 89.6875,19.125 C 91.299491,20.642521 94.848732,25.272343 94.65625,25.625 C 94.459651,25.985204 93.675252,25.502694 93.5,24.90625 C 93.417816,24.626565 90.493333,22.394755 87.03125,19.96875 C 77.628321,13.379772 77.088617,12.935978 77.53125,12.125 C 77.750785,11.722774 77.588762,11.204814 77.15625,10.96875 C 76.72374,10.732686 76.133821,10.932041 75.875,11.40625 C 75.466773,12.154194 74.974064,11.965423 72.0625,10 C 70.216522,8.7538919 67.66036,7.1367624 66.375,6.40625 C 65.049598,5.6529805 64.555628,5.2753023 64.8125,5.1875 z M 36.84375,7.03125 C 37.416076,6.9152799 37.283235,7.2214422 36.875,8 C 36.503429,8.708672 35.499979,9.5174674 34.625,9.8125 C 33.750029,10.107536 30.839558,11.470262 28.15625,12.8125 C 24.887262,14.447718 23.633512,14.832287 24.375,14 C 25.791626,12.409943 31.620973,8.9396292 34.96875,7.6875 C 35.907429,7.3364191 36.500354,7.1008321 36.84375,7.03125 z M 57.65625,9.25 C 61.53304,9.8744933 64.523343,10.644064 63.84375,10.84375 C 63.562349,10.926436 63.067935,11.885072 62.75,13 C 62.404699,14.210921 62.181493,13.942917 61.817519,14.047224 C 61.474913,14.145408 59.850676,14.069021 57.78125,14.28125 C 55.711825,14.493478 53.271018,14.764237 52.375,14.875 C 50.82022,15.067184 50.77831,14.991468 51,13.375 C 51.622811,9.6702107 54.804357,8.8652569 57.65625,9.25 z M 48.3125,9.78125 C 50.117681,9.8216237 50.178263,9.882305 49.5,11.125 C 49.112763,11.834487 48.685852,13.131747 48.5625,14.03125 C 48.363306,15.483691 47.718473,15.970435 42.78125,18.25 C 39.723617,19.661738 36.682744,21.20105 36.03125,21.6875 C 35.379764,22.173956 34.685022,22.493042 34.46875,22.375 C 34.252486,22.256963 34.11636,20.593342 34.1875,18.6875 C 34.325511,14.990044 35.851033,11.410703 37.4375,11.0625 C 39.776854,10.549058 46.603238,9.7430218 48.3125,9.78125 z M 71.8125,11.71875 C 71.988586,11.667012 72.928464,12.477817 73.875,13.53125 C 75.699234,15.56151 76.368778,15.75822 76.5625,14.3125 C 76.644755,13.698653 77.035762,13.633927 77.875,14.125 C 79.434111,15.037303 81.074312,17.033938 79.875,16.5625 C 79.412808,16.380817 79.630104,16.807756 80.375,17.5 L 81.75,18.75 L 79.90625,17.8125 C 77.741804,16.725716 77.830102,17.624453 80.15625,20.0625 C 81.045649,20.994682 81.789644,22.108243 81.8125,22.53125 C 81.840551,23.050636 81.619162,22.992537 81.09375,22.34375 C 80.665837,21.815359 79.804721,21.011653 79.1875,20.5625 C 78.24143,19.874039 78.093621,19.915503 78.28125,20.875 C 78.460158,21.789906 78.314024,22.041126 77.5,22.09375 C 76.924301,22.130973 76.724305,22.278242 77.0625,22.46875 C 77.389665,22.653049 77.601348,23.25815 77.53125,23.78125 C 77.444233,24.430667 77.088649,24.545759 76.375,24.15625 C 75.631513,23.750455 75.485435,23.062048 75.875,21.8125 C 76.662306,19.287199 76.143807,18.966056 74.9375,21.21875 C 74.369371,22.279718 73.564407,23.197822 73.15625,23.25 C 71.529185,23.457994 67.617371,20.32583 68.1875,19.28125 C 68.41262,18.868792 68.765885,18.65347 69,18.78125 C 69.521474,19.06587 73.634927,17.209194 73.5,16.75 C 73.446816,16.568987 71.889915,16.847912 70.0625,17.375 C 67.544089,18.101399 66.523039,18.115457 65.84375,17.40625 C 64.685155,16.196622 65.113803,15.485875 67.25,15.0625 C 69.145035,14.686916 68.470875,13.924755 66.21875,13.90625 C 65.122494,13.897242 64.978951,13.768787 65.46875,13.3125 C 65.80998,12.994606 66.840601,12.972994 67.78125,13.25 L 69.5,13.75 L 68,12.78125 C 66.571535,11.860793 66.601647,11.828567 68.84375,12.4375 C 70.147444,12.79157 71.790575,13.570444 72.5,14.15625 C 74.227386,15.582638 74.425322,15.031458 72.8125,13.25 C 72.100146,12.463157 71.636425,11.770492 71.8125,11.71875 z M 34.40625,11.84375 L 33.65625,14.75 C 33.2502,16.341329 32.881345,19.118358 32.84375,20.90625 C 32.806154,22.694143 32.533705,24.17049 32.21875,24.1875 C 31.903797,24.204511 29.741197,25.822322 27.6875,28.03125 C 19.90026,36.4071 21.352164,30.359762 21.360859,23.960719 C 21.368229,18.472179 22.194612,18.571626 24.96875,16.71875 C 26.644091,15.599781 29.464836,14.062527 31.21875,13.28125 L 34.40625,11.84375 z M 31.5,12.03125 C 31.588891,12.01066 31.682706,12.011577 31.71875,12.03125 C 31.862917,12.109937 31.467135,12.498016 30.84375,12.90625 C 30.220366,13.314482 29.581667,13.578686 29.4375,13.5 C 29.293324,13.421309 29.689116,13.033231 30.3125,12.625 C 30.780039,12.318825 31.233328,12.093021 31.5,12.03125 z M 74.21875,12.15625 C 74.321761,12.164319 74.517076,12.248347 74.8125,12.40625 C 75.319508,12.677244 75.594873,13.149159 75.4375,13.4375 C 75.088521,14.07689 75.046655,14.054395 74.40625,12.875 C 74.134374,12.374306 74.047064,12.142802 74.21875,12.15625 z M 81.875,13.78125 C 81.441684,13.731131 81.816645,14.069808 82.6875,14.53125 C 83.558353,14.992694 83.906284,15.036326 83.46875,14.625 C 83.031215,14.213676 82.308328,13.831372 81.875,13.78125 z M 61.547661,14.876135 C 62.107712,15.181754 62.972207,16.018271 63.71875,17.34375 C 64.123626,18.062616 64.34502,18.831146 64.21875,19.0625 C 64.092477,19.293854 62.405907,20.202356 60.46875,21.09375 C 58.531595,21.985145 56.375773,23.096123 55.6875,23.5625 C 54.00618,24.701758 53.382994,24.226693 52.0625,20.8125 L 50.9375,17.9375 C 50.9375,17.9375 53.374614,16.712596 55.997905,15.857455 C 58.658745,14.990073 58.815537,15.185926 61.547661,14.876135 z M 86.03125,17.40625 C 85.59144,17.354964 85.841648,17.637808 86.5625,18.03125 C 87.283353,18.424691 87.624794,18.467154 87.34375,18.125 C 87.062696,17.782841 86.471053,17.457534 86.03125,17.40625 z M 19.25,18.625 C 19.575678,18.518269 19.565234,19.591176 19.28125,22.25 C 18.965554,25.205771 19.440851,33.231718 20,34.28125 C 20.170449,34.601201 18.670797,38.369137 16.65625,42.65625 C 14.641716,46.943363 12.848232,51.058192 12.6875,51.8125 C 12.526788,52.566819 12.194614,53.077832 11.9375,52.9375 C 11.167959,52.517485 6.4303868,40.482335 6.5625,39.28125 C 6.6296946,38.670235 8.0505018,35.39321 9.71875,32 C 12.036039,27.286642 13.407842,25.143297 15.5,22.90625 C 17.006155,21.295762 18.498563,19.571972 18.8125,19.09375 C 18.997885,18.811358 19.141441,18.660577 19.25,18.625 z M 48.03125,18.6875 L 48.9375,21.15625 C 49.438185,22.510234 50.231251,24.33489 50.6875,25.1875 C 51.335201,26.397867 51.302065,26.808767 50.53125,27.125 C 49.988262,27.34776 47.609635,29.369432 45.25,31.625 C 42.890358,33.880563 40.723795,35.679618 40.4375,35.625 C 39.77401,35.498428 36.624357,30.274045 35.5,27.4375 L 34.625,25.28125 L 37.6875,23.3125 C 39.364714,22.238257 41.524664,21.123152 42.375,20.65625 C 44.116388,19.67737 46.084413,19.091567 48.03125,18.6875 z M 80.65625,19.0625 C 80.754861,19.068753 80.930836,19.158724 81.21875,19.3125 C 81.708738,19.574205 82.135416,20.114392 82.15625,20.5 C 82.204172,21.387309 81.508303,21.005118 80.84375,19.78125 C 80.569585,19.276341 80.491899,19.052079 80.65625,19.0625 z M 84.5,19.90625 L 87.40625,21.46875 C 88.99868,22.322307 91.085359,23.834125 92.03125,24.84375 C 94.273397,27.236952 92.364542,26.212178 87.8125,22.5625 L 84.5,19.90625 z M 65.78125,20.90625 C 65.910699,20.903293 65.993651,20.926804 66.0625,20.96875 C 66.553983,21.268188 68.336971,22.311198 70,23.28125 L 73,25.03125 L 71.4375,29.4375 C 70.567466,31.862979 69.662444,34.436988 69.4375,35.15625 C 69.040465,36.425762 68.899028,36.388818 64.96875,34.1875 C 60.885903,31.900729 56.271991,28.163602 55.875,26.8125 C 55.567935,25.767449 63.839513,20.950599 65.78125,20.90625 z M 78.96875,21.0625 C 79.217235,20.98949 79.779855,21.486042 80.21875,22.15625 C 80.858196,23.132708 80.795371,23.452571 79.96875,23.78125 C 78.716824,24.279056 78.0903,23.999523 78.03125,22.90625 C 78.001457,22.354722 78.223766,22.360996 78.6875,22.90625 C 79.066808,23.352248 79.489402,23.498444 79.625,23.25 C 79.760601,23.001556 79.562056,22.4404 79.1875,22 C 78.812951,21.559604 78.720277,21.135512 78.96875,21.0625 z M 85.327558,22.128884 C 87.332392,23.335169 89.208179,24.731354 91.0625,26.15625 C 96.087497,29.450592 93.718439,33.729795 90.21875,36.53125 C 90.21875,36.53125 90.131165,36.356073 90.125,36.34375 C 90.055545,36.349906 89.944266,36.322846 89.8125,36.25 C 87.628942,31.390871 85.731314,29.309723 83.9375,25.6875 C 83.897525,25.630839 83.6875,25.3125 83.6875,25.3125 C 83.6875,25.3125 84.311046,24.906566 84.6875,24.03125 C 85.063954,23.155934 85.241146,22.661427 85.327558,22.128884 z M 75.1875,25.5 L 76.71875,25.90625 C 78.039531,26.248721 78.396981,27.004424 79.5,31.375 C 80.902034,36.930307 81.339319,35.910672 80.03125,30.125 C 79.561294,28.046357 79.336915,26.825788 79.399179,26.333712 C 80.086312,26.382544 81.321268,25.994023 82.15625,25.78125 C 82.60397,25.752037 82.910721,26.0463 83.375,26.78125 C 85.58922,29.852507 87.405393,33.322526 88.46875,36.96875 C 87.065801,37.986104 85.386338,38.503282 83.71875,38.90625 C 83.704032,38.907908 83.70145,38.904959 83.6875,38.90625 C 81.731746,39.314251 81.548064,39.227057 81.548064,39.227057 C 81.548064,39.227057 81.344318,36.947974 81.114516,36.905448 C 80.870464,36.860283 81.017446,38.584343 80.5625,38.65625 C 79.557712,38.815064 77.541588,38.722176 75.90625,38.4375 C 74.270922,38.15283 72.600522,37.739617 72.21875,37.53125 C 71.758661,37.280134 72.138066,35.203489 73.34375,31.34375 L 75.1875,25.5 z M 33.15625,26.59375 C 33.34684,26.537747 34.277026,28.109676 35.1875,30.09375 C 36.097984,32.077826 37.394973,34.547801 38.09375,35.5625 C 39.22788,37.209388 39.230103,37.56439 38.15625,38.90625 C 37.494617,39.73301 36.126019,41.630107 35.09375,43.125 C 34.06148,44.619895 32.53696,46.762318 31.71875,47.90625 C 30.90053,49.050177 30.07962,49.892932 29.875,49.78125 C 29.299564,49.467177 24.277184,40.846011 23.53125,38.875 C 22.955707,37.354215 23.096544,36.827907 24.46875,34.96875 C 25.901932,33.026977 32.31273,26.841603 33.15625,26.59375 z M 52.625,28.40625 C 52.700845,28.36781 53.718435,29.311177 54.90625,30.53125 C 56.094061,31.751323 59.455823,34.275169 62.375,36.125 L 67.6875,39.5 L 66.46875,42.5625 C 65.786023,44.248176 64.488768,47.274895 63.59375,49.3125 L 61.96875,53.03125 L 57.15625,50.3125 C 51.90472,47.359124 48.42612,44.80215 44.96875,41.34375 C 41.562611,37.936601 41.567952,37.942503 44,35.375 C 45.586284,33.700387 51.341939,29.056543 52.625,28.40625 z M 89.3125,39.46875 L 90.40625,42.09375 C 91.907053,45.701298 93.298026,54.342092 92.611994,55.471718 C 92.34532,55.910825 89.671417,56.537193 87.28125,56.9375 C 86.620847,57.048103 86.001369,57.144479 85.40625,57.21875 L 85.375,57.28125 C 84.959493,57.30371 84.699425,57.29614 84.3125,57.3125 C 83.437122,57.392907 82.772452,57.43418 82.5,57.375 C 81.212733,57.408688 80.633206,57.360859 80.633206,57.360859 C 81.398255,51.789704 81.732679,46.791827 81.84375,41.4375 C 81.84375,41.437501 81.845269,41.550579 83.5,41.25 L 86.21875,40.4375 L 89.3125,39.46875 z M 40.71875,39.5 L 43.4375,42.40625 C 47.373397,46.580115 52.170027,50.361411 56.71875,52.875 L 60.6875,55.0625 L 59.09375,58.78125 C 58.215268,60.827882 56.777866,63.872167 55.875,65.53125 L 54.21875,68.53125 L 48.34375,65.25 C 45.118161,63.446064 42.077196,61.615808 41.5625,61.1875 C 41.047797,60.75918 39.450777,59.451618 38.03125,58.28125 C 36.611726,57.110878 34.537683,55.183934 33.40625,54 C 31.472028,51.97605 31.408016,51.745682 32.34375,50.03125 C 33.70168,47.543284 38.28823,41.451139 39.625,40.375 L 40.71875,39.5 z M 21.15625,39.6875 C 21.727781,39.539291 22.20169,40.425025 23.875,43.75 C 25.129997,46.24376 26.878629,49.056507 27.75,50.03125 C 29.291945,51.756119 29.284543,51.877328 27.90625,54.46875 C 27.127354,55.933196 25.72144,59.238193 24.78125,61.8125 C 23.841068,64.386813 22.957713,66.421304 22.8125,66.3125 C 22.378048,65.986982 20.1725,63.494549 17.3125,60.125 C 14.598226,56.927155 13.371358,54.191136 14,52.6875 C 16.01168,47.875787 19.641723,40.853784 20.5,40.125 C 20.764248,39.900624 20.96574,39.736903 21.15625,39.6875 z M 71.40625,40.40625 C 72.019794,40.410597 72.913551,40.554236 74.28125,40.78125 C 76.441843,41.139875 78.731631,41.408765 79.375,41.40625 C 80.330871,41.40252 80.578614,41.98443 80.65625,44.53125 C 80.739333,47.256207 79.567529,55.746682 78.96875,56.84375 C 78.656157,57.416474 74.447769,56.929848 70.34375,55.875 C 66.391484,54.859158 64.95626,54.223659 64.96875,53.46875 C 64.973352,53.190585 65.580129,51.783959 66.3125,50.3125 C 67.655911,47.613303 68.982147,44.391014 69.875,41.625 C 70.156646,40.752494 70.383677,40.399005 71.40625,40.40625 z M 5.1875,46.1875 C 5.2021623,46.175799 5.2270347,46.180963 5.25,46.1875 C 7.4552411,51.273245 11.418422,55.997933 11.03125,59.125 C 10.743173,60.354322 10.556845,62.694893 10.59375,64.34375 C 10.630656,65.992604 10.516313,67.553592 10.375,67.8125 C 10.233687,68.07141 9.4697054,67.236763 9.0371858,67.000698 C 5.7787132,62.052807 5.1550999,56.530101 4.71875,50.59375 C 4.8658547,48.368081 5.0650801,46.417039 5.15625,46.25 C 5.1683856,46.227766 5.1728377,46.199201 5.1875,46.1875 z M 101.90625,51.0625 C 102.14714,50.981342 102.20684,51.355983 102.34375,52.28125 C 102.905,56.074153 102.2793,61.912974 101.09375,64.1875 C 99.456573,67.115659 96.530154,68.539635 93.8125,70.25 C 93.759132,68.297839 93.975418,66.029193 94.209846,63.935056 C 94.625842,60.085408 94.366638,59.86691 94.71875,56.625 L 98.21875,54.09375 C 99.367877,53.22399 100.71945,52.13221 101.21875,51.65625 C 101.55918,51.331734 101.76172,51.111195 101.90625,51.0625 z M 30.6875,53.71875 C 30.741763,53.700794 30.802886,53.696447 30.84375,53.71875 C 31.0635,53.838689 32.783852,55.573266 34.6875,57.5625 C 38.517605,61.5648 47.245054,67.789685 51,69.21875 L 53.40625,70.15625 L 50.15625,75.34375 C 48.364939,78.197135 46.65246,80.763198 46.34375,81.0625 C 45.201574,82.169876 25.490361,70.138148 24.84375,67.9375 C 24.79227,67.762282 25.396967,65.619318 26.1875,63.15625 C 27.631608,58.656787 29.873555,53.988088 30.6875,53.71875 z M 63.71875,56.15625 L 66,56.9375 C 67.263804,57.373556 70.561959,58.088183 73.3125,58.53125 C 79.254639,59.488431 79.222848,59.472125 76.6875,66 C 73.791738,73.455861 73.829133,73.429319 70.03125,72.9375 C 66.383806,72.606089 62.888343,71.715806 59.46875,70.4375 L 56.53125,69.28125 L 60.125,62.71875 L 63.71875,56.15625 z M 92.84375,58 C 93.035828,58.009467 93.076028,58.61365 93.079609,58.668558 C 93.134746,59.514084 93.292783,60.602876 92.46875,67.21875 L 92,70.9375 L 87.21875,72.1875 C 84.592234,72.86207 81.219078,73.400624 79.71875,73.40625 C 78.405876,73.483297 76.486292,73.535806 75.223987,73.573673 C 77.76744,67.889304 79.095603,64.265972 80.104923,59.363827 C 80.10492,59.363829 83.614832,59.26658 84.9375,59.15625 C 84.945604,59.155574 84.960829,59.15691 84.96875,59.15625 C 88.486672,58.443175 91.799638,57.948537 92.84375,58 z M 12.75,59.1875 C 13.343247,59.098198 14.218235,60.10924 15.625,62.0625 C 16.178367,62.830842 17.933371,64.719193 19.53125,66.25 L 22.4375,69.03125 L 21.75,72.5 C 21.37186,74.40498 21.041613,77.071732 21,78.4375 C 20.958378,79.803265 20.866207,81.063094 20.78125,81.21875 C 20.499231,81.735458 19.370858,80.765026 16.9375,77.90625 C 13.855891,73.755533 11.531067,71.37117 11.53125,65.34375 C 11.719148,61.237343 11.987254,59.302316 12.75,59.1875 z M 7.8125,69.40625 C 7.9224664,69.357218 8.1028898,69.49918 8.40625,69.84375 C 11.241003,74.192012 14.646613,79.239217 19,83.46875 C 19.656644,84.106712 22.23264,89.766728 21.78125,90.59375 C 21.529625,91.054772 19.76589,89.956728 19.46875,89.15625 C 19.324845,88.768525 18.331525,87.541451 17.25,86.4375 C 16.168464,85.333546 14.428422,83.14932 13.40625,81.59375 C 8.7543757,74.514385 7.6610742,72.358335 7.65625,70.1875 C 7.655183,69.708139 7.7025336,69.455282 7.8125,69.40625 z M 99.78125,69.53125 L 98,73.53125 C 97.024607,75.731588 95.017482,79.317278 93.53125,81.5 L 90.90625,85.34375 L 90.875,85.375 C 89.434023,86.736363 88.21875,87.625 88.21875,87.625 C 88.9145,85.20283 89.062601,84.863915 90.400314,81.426327 C 91.611121,78.344807 92.596361,75.137834 92.96875,74.03125 C 93.07991,73.482902 93.457139,73.018564 93.78125,72.5625 C 95.259043,71.650782 96.249088,71.350684 97.53125,70.65625 L 99.78125,69.53125 z M 23.96875,70.6875 C 24.088234,70.6524 25.720346,71.705827 27.59375,73.0625 C 29.467154,74.419171 34.006099,77.39025 37.6875,79.65625 L 44.40625,83.78125 L 42.375,86.84375 C 41.268225,88.523761 39.745948,90.628551 39,91.53125 L 37.65625,93.1875 L 33.4375,90.96875 C 29.600559,88.965245 24.186636,85.274026 22.9375,83.8125 C 22.11801,82.853667 23.052956,70.956592 23.96875,70.6875 z M 55.53125,71.375 L 61.053771,72.933834 C 65.908552,74.268073 66.52049,74.613981 71.9375,75.75 C 72.239319,76.28007 70.482388,79.356216 66.75,84.75 C 65.112093,87.116976 64.760821,87.324771 62.84375,87.125 C 61.684841,87.004235 58.863997,86.370526 56.5625,85.71875 C 54.261002,85.06697 51.406718,83.992142 50.21875,83.34375 C 48.41214,82.357704 48.176219,82.054939 48.8125,81.40625 C 49.23089,80.979688 50.921658,78.544752 52.5625,76 L 55.53125,71.375 z M 90.78125,73.65625 C 90.941109,73.64848 91.025143,73.667109 91.0625,73.6875 C 91.554751,73.956171 89.804965,79.353425 87.875,83.53125 L 86,87.65625 C 86,87.65625 86.074131,87.837578 82.6875,88.03125 C 78.311255,88.281515 75.894769,88.499176 72.34375,88.3125 C 67.939673,87.945129 67.716571,87.862036 67.376397,86.840782 C 70.266006,83.709603 72.639109,78.123501 74.367493,75.622032 C 78.342141,75.399997 84.098413,74.843773 88.28125,74.03125 C 89.315996,73.824147 90.301674,73.679561 90.78125,73.65625 z M 47.21875,84.75 C 47.691393,84.709696 48.29901,84.841063 49.09375,85.125 C 52.101439,86.199556 60.207992,88.809879 61.78125,89.21875 L 63.09375,89.5625 L 60.15625,92.625 C 58.529338,94.30031 56.345368,96.331331 55.3125,97.15625 C 53.245578,98.807028 52.42671,98.748168 44.15625,96.09375 C 37.84717,94.068848 38.017296,94.514295 41.84375,90.1875 C 43.685302,88.105153 45.575968,85.935092 46.0625,85.375 C 46.392461,84.995155 46.746107,84.790304 47.21875,84.75 z M 22.46875,86.40625 L 24.84375,88.1875 C 26.14471,89.17516 29.14234,91.03262 31.53125,92.3125 C 35.674361,94.532195 35.861094,94.711071 35.25,95.8125 C 34.897636,96.447589 34.215014,97.179516 33.75,97.4375 C 32.70026,98.019846 29.479635,96.577434 26.21875,94.09375 C 23.26371,91.843014 23.098505,91.567039 22.75,88.65625 L 22.46875,86.40625 z M 80.59375,90.40625 C 82.011256,90.385672 84.405234,90.554625 84.527584,90.613827 C 80.822101,94.492667 75.688244,97.599472 70.21875,99.53125 C 64.680404,100.52741 65.949461,99.901594 61.96875,99.65625 C 56.182201,99.238801 56.190004,99.262847 57.375,98.34375 C 57.870626,97.959345 60.176659,95.947376 62.46875,93.90625 C 66.617248,90.211994 66.781411,90.386289 70.09375,90.4375 C 77.298026,90.548884 69.818617,90.562674 80.59375,90.40625 z M 37.46875,96.03125 C 38.177293,96.071992 39.136771,96.464505 40.96875,97.25 C 43.07027,98.151047 46.102301,99.275217 47.6875,99.71875 C 50.954756,100.63291 51.115665,100.76889 49.625,101.46875 C 47.977507,102.24222 44.956622,101.9815 40.3125,100.65625 C 37.98195,99.991181 35.561435,99.198484 34.96875,98.875 C 33.96021,98.32454 34.011608,98.177774 35.53125,96.9375 C 36.309747,96.302118 36.760207,95.990508 37.46875,96.03125 z M 53.46875,101.4375 C 55.327509,101.44352 57.979257,101.82907 58.09375,102.21875 C 58.132169,102.34947 56.672723,102.43967 54.84375,102.4375 C 51.03364,102.433 50.061705,102.13204 52,101.5625 C 52.315788,101.46972 52.849164,101.43549 53.46875,101.4375 z "
       id="path2198"
       sodipodi:nodetypes="cccscscsscccccscccccscccscccccccccsssssccsssssssssssssccsssssccssssscccsssssssccsssscccsssssssssssssssssssscccssscccssssscccssssccsssccssccssssccsccssccssssssssscccssssccccccssscccscccscccsssccssssssccccsccczcccsscccccscsssscccssssssssccsccccccsscccsscccccccccccccccccsssscccssssssssccssssssssccccssccsccscccccsccsscccssscccssccccccsccccccssccscccsscccccsssssscccccccccccccsccccccsccccssssscccsccsccccccscccsssscccssssccccccsssscssssssccsssc" />
  </g>
  <g
     inkscape:groupmode="layer"
     id="layer2"
     inkscape:label="Grille noir"
     style="display:inline"
     transform="translate(-3.3465365,-2.90625)">
    <path
       style="fill:#0f1a09;display:inline"
       d="M 53.875,2.90625 C 26.67564,2.90625 4.4731694,24.512717 3.46875,51.46875 C 3.4652416,51.520791 3.4721249,51.572914 3.46875,51.625 C 3.3270571,53.811829 3.3117996,56.050586 3.40625,58.3125 C 4.8948601,73.655233 13.037803,86.191868 25.0625,95.46875 C 33.508907,101.45319 43.729495,103.56791 53.875,103.84375 C 81.713607,103.84375 104.3125,81.213608 104.3125,53.375 C 104.3125,34.925844 94.396714,18.767681 79.59375,9.96875 C 71.850419,5.2162377 62.901031,3.2337232 53.875,2.90625 z M 53.875,4.03125 C 54.71557,4.03125 55.544694,4.0521264 56.375,4.09375 C 56.385372,4.09427 56.395879,4.0932236 56.40625,4.09375 C 56.668392,4.1142568 56.922807,4.1324274 57.1875,4.15625 C 59.463717,4.3611118 61.824407,4.6729395 64.21875,5.125 C 76.780529,7.8104383 87.567726,15.276561 94.59375,25.53125 C 94.582103,25.55612 94.559107,25.585565 94.53125,25.59375 C 94.308394,25.659235 93.617828,25.128169 93,24.40625 C 92.382162,23.684327 90.613948,22.457332 89.09375,21.6875 C 87.051916,20.65351 86.785486,20.585182 88.0625,21.46875 C 92.224453,24.3484 95.71095,27.611466 97.15625,29.71875 C 97.185195,29.771543 97.221243,29.82209 97.25,29.875 C 97.441131,30.226662 97.629737,30.580749 97.8125,30.9375 C 97.816724,30.945746 97.80828,30.960502 97.8125,30.96875 C 97.929165,31.381613 97.897573,31.688549 97.625,31.84375 C 97.250557,32.056952 97.3305,32.182286 97.8125,32.15625 C 98.058325,32.142972 98.22188,32.097504 98.34375,32 C 99.405123,34.428546 100.32205,36.417413 101.125,39.09375 C 101.92795,41.770086 101.94925,43.313458 102.15625,45.40625 C 102.43083,48.182272 101.23826,50.371267 97.40625,53.03125 C 96.876789,53.398775 96.334203,53.739067 95.78125,54.0625 C 95.052964,48.152434 93.37528,43.175407 92.28125,39.59375 C 91.007819,35.424764 91.53125,37.125 91.53125,37.125 L 93.34375,33.875 C 94.037003,32.623079 94.394463,31.93422 94.4375,31.78125 C 94.375494,31.816947 94.099622,32.173161 93.625,32.875 C 92.793181,34.105065 91.827829,35.203819 91.46875,35.3125 C 91.109681,35.421187 90.009491,33.911353 89.03125,31.9375 C 88.053003,29.963643 86.514507,27.36356 85.625,26.1875 C 84.430049,24.607601 84.137238,23.620488 84.5,22.375 C 84.719722,20.349786 83.654204,18.829822 82.3125,17.4375 C 80.50779,15.830251 80.284314,15.734644 80.8125,16.8125 C 82.687227,20.638188 82.818783,21.140359 82.09375,22.46875 C 81.259675,23.996922 78.616365,24.928673 76.40625,24.46875 C 75.468386,24.273576 75.128735,23.977077 75.375,23.5 C 75.600795,23.062585 75.366164,23.014844 74.71875,23.40625 C 73.957236,23.866645 73.002748,23.681125 71.125,22.65625 C 69.721204,21.89006 68.266823,20.892709 67.90625,20.46875 C 67.190189,19.626806 67.594294,18.759179 68.59375,18.53125 C 68.914023,18.458211 69.250368,18.521915 69.4375,18.15625 C 69.624628,17.790589 69.015325,17.81046 68.0625,18.1875 C 66.558859,18.782505 66.195237,18.697444 65.34375,17.5625 C 64.231272,16.079682 64.39583,13.440096 65.65625,12.34375 C 66.941259,11.226011 69.482974,10.806636 71.40625,11.40625 C 72.910467,11.875212 73.045948,11.836573 72.34375,11 C 70.456525,9.0662024 65.441533,9.7610867 63.1875,12.21875 C 62.331981,13.151556 63.381438,17.269026 64.46875,18.4375 C 64.878752,18.878111 63.44702,19.876034 59.625,21.84375 C 56.639633,23.380727 54.081806,24.66788 53.9375,24.71875 C 53.466089,24.884936 50.706662,18.997888 50.6875,17.78125 C 50.672792,16.847627 51.340904,16.383803 53.75,15.59375 L 56.78125,14.59375 L 53.6875,15.0625 C 50.684993,15.53131 50.551919,15.505637 50.5625,14.21875 C 50.568537,13.483411 51.149257,11.834931 51.84375,10.5625 C 52.86211,8.6966853 53.400521,8.2625211 54.625,8.28125 C 55.619296,8.296463 55.747814,8.2260724 55,8.0625 C 54.000366,7.8438445 54.026052,7.5967372 55.125,6.25 C 56.313529,4.7934729 56.299112,4.7643987 55,5.34375 C 54.245308,5.6803149 53.246479,6.3491951 52.78125,6.84375 C 52.316024,7.3383066 50.718928,7.6558695 49.25,7.5625 C 47.78107,7.4691295 44.472105,7.7521976 41.875,8.15625 L 37.15625,8.875 L 38.375,7.3125 C 38.756243,6.8312891 39.282312,6.4125649 39.9375,6.03125 C 44.357167,4.7297666 49.034528,4.03125 53.875,4.03125 z M 37.875,6.71875 C 38.054003,7.365514 35.59879,9.4813798 33.3125,10.5 C 31.337481,11.328013 29.370598,12.252201 27.75,13.0625 C 26.922527,13.476236 26.072241,13.960205 25.25,14.46875 C 25.090912,14.538068 24.898401,14.658907 24.71875,14.8125 C 23.935806,15.312871 23.179462,15.801997 22.5625,16.25 C 22.824417,15.597796 23.06685,15.055367 23.375,14.625 C 27.685266,11.223426 32.576566,8.5382445 37.875,6.71875 z M 50.71875,8.1875 L 49.78125,11.21875 C 49.26554,12.879113 48.878066,14.622981 48.90625,15.09375 C 48.937626,15.617638 47.417571,16.575364 45,17.5625 C 42.827533,18.449558 39.534409,20.000109 37.65625,21.03125 C 35.7781,22.062394 34.133179,22.868133 34.03125,22.8125 C 33.364925,22.44882 34.069818,15.473499 35,13.15625 C 36.085613,10.451811 36.237893,10.3198 39.125,9.5625 C 40.775516,9.1295689 44.07076,8.6268887 46.4375,8.46875 L 50.71875,8.1875 z M 35.40625,10.40625 L 34.4375,12.875 C 33.535495,15.246899 32.937164,19.924387 33.21875,22.4375 C 33.317258,23.316702 32.617384,24.184909 30.15625,26.21875 C 28.394339,27.674768 26.015714,29.891106 24.875,31.125 C 23.734284,32.358893 22.54352,33.462962 22.21875,33.59375 C 21.47315,33.893994 20.379795,28.185928 20.5,24.5625 C 20.550008,23.05452 21.181745,20.136353 21.875,18.09375 C 21.959161,17.845777 22.017954,17.717544 22.09375,17.5 C 23.347934,16.509405 25.844545,14.796477 28.0625,13.6875 C 30.187951,12.624774 32.867773,11.357241 35.40625,10.40625 z M 76.78125,11.71875 C 76.663603,11.70857 76.529944,12.033447 76.375,12.65625 C 76.173462,13.466335 76.279817,13.821206 76.625,13.5 C 76.957502,13.190587 77.138378,12.564677 77,12.09375 C 76.933738,11.868237 76.851838,11.724858 76.78125,11.71875 z M 20.65625,17.09375 C 20.872909,17.137461 20.850487,17.451598 20.5,18.09375 C 19.265843,20.354943 19.317238,32.018244 20.5625,34.5625 C 20.710336,34.864547 19.024406,38.547988 16.84375,42.75 C 14.663097,46.952011 12.790424,51.012445 12.65625,51.78125 C 12.522077,52.550053 12.212189,53.085699 11.96875,52.9375 C 11.101778,52.409725 8.203413,46.1828 7.25,42.78125 C 6.7884175,41.134449 6.5606965,40.187709 6.6875,39.09375 C 6.7016722,38.971484 6.758287,38.846543 6.78125,38.71875 C 9.3826786,30.351561 14.159181,22.928435 20.4375,17.125 C 20.523869,17.099086 20.599884,17.082378 20.65625,17.09375 z M 48.03125,17.65625 C 48.192703,17.661192 48.314401,17.699869 48.40625,17.75 C 48.810678,17.970737 49.774203,19.519234 50.53125,21.21875 C 51.288297,22.918264 52.134826,24.552072 52.40625,24.84375 C 52.736159,25.198287 51.587115,26.473769 48.96875,28.65625 C 46.81465,30.451759 44.156497,32.879391 43.0625,34.0625 C 41.968492,35.245604 40.857152,36.235776 40.59375,36.25 C 39.918768,36.28646 36.242519,30.165117 35.25,27.375 C 34.79442,26.094304 34.603325,24.6905 34.84375,24.25 C 35.888963,22.334985 45.609452,17.582119 48.03125,17.65625 z M 65.125,20.09375 L 69.65625,22.71875 L 74.1875,25.34375 L 72.25,31 C 71.187269,34.117236 70.100302,36.737122 69.84375,36.8125 C 69.049591,37.045849 62.853654,33.73447 60.375,31.75 C 59.080196,30.713348 57.246605,28.912645 56.28125,27.78125 L 54.5,25.75 L 57.65625,23.90625 C 59.37906,22.905803 61.743393,21.641657 62.9375,21.09375 L 65.125,20.09375 z M 83.625,25 C 84.175614,25.008263 84.477438,25.472005 85.28125,26.65625 C 87.398361,29.775339 90.40275,35.902601 90.09375,36.46875 C 89.936143,36.757514 88.350983,37.468739 86.5625,38.0625 L 83.3125,39.15625 L 82.78125,37.71875 C 82.555551,35.340308 82.239537,32.873298 82,31.8125 C 81.656064,30.289355 80.874447,27.365909 80.34375,25.8125 C 81.057319,25.7373 81.738208,25.587581 82.21875,25.40625 C 82.877433,25.157704 83.294632,24.995042 83.625,25 z M 33.03125,25.5 C 33.274417,25.469537 33.46158,25.541804 33.5625,25.71875 C 33.795752,26.127721 35.260691,28.940896 36.84375,31.96875 L 39.71875,37.46875 L 38.21875,39.21875 C 37.382416,40.16782 35.344801,43.026545 33.6875,45.59375 C 32.030209,48.160961 30.427342,50.266609 30.15625,50.28125 C 29.327528,50.326011 23.997851,41.255738 23.125,38.3125 L 22.3125,35.5625 L 25.8125,31.8125 C 29.596962,27.739095 31.977528,25.632005 33.03125,25.5 z M 75.8125,25.625 C 76.362569,25.623939 77.301902,25.699312 78.21875,25.8125 C 78.638009,25.864258 79.126126,25.865476 79.625,25.84375 C 80.11461,27.218084 80.961273,30.413317 81.3125,31.96875 C 81.546146,33.003455 81.898477,35.847728 82.125,38.40625 C 81.739707,38.937917 80.759568,39.059548 78.84375,38.96875 C 77.191023,38.89042 74.787278,38.524458 73.5,38.15625 C 71.371325,37.547369 71.188637,37.390631 71.53125,36.25 C 73.608363,29.334776 74.914939,25.760131 75.40625,25.65625 C 75.487261,25.639122 75.629144,25.625354 75.8125,25.625 z M 52.90625,27.59375 C 53.817303,27.601236 55.101702,28.42688 57.34375,30.40625 C 59.083405,31.942085 62.442539,34.237725 64.8125,35.53125 C 67.182453,36.824768 68.912344,37.804247 69,38.09375 C 68.534489,42.587448 66.362778,47.113078 64.34375,51.25 C 63.306395,53.150619 62.887062,53.431827 61.75,53.15625 C 57.938811,52.232567 46.611606,44.010542 42.78125,39.375 C 41.210358,37.473885 41.226767,37.327987 42.5625,35.6875 C 44.948555,32.757075 51.562834,27.582712 52.90625,27.59375 z M 20.96875,37.65625 C 21.148713,37.603376 22.235755,39.41115 23.40625,41.65625 C 24.576736,43.901345 26.397121,46.965313 27.4375,48.46875 C 28.47788,49.972181 29.408731,51.357928 29.5,51.53125 C 29.591281,51.704575 28.631758,54.066681 27.375,56.8125 C 26.118244,59.558318 24.706995,62.908914 24.25,64.25 C 23.514844,66.40733 23.296903,66.621654 22.4375,66.125 C 21.034723,65.314321 14.138103,57.102127 13.75,55.78125 C 13.153024,53.749564 14.866361,48.264654 17.78125,42.9375 C 19.34045,40.087932 20.788804,37.709132 20.96875,37.65625 z M 90.3125,37.78125 C 90.695516,37.719197 90.958029,37.817823 91.1875,38.15625 C 91.199079,38.173327 91.207311,38.200386 91.21875,38.21875 C 91.399853,38.698768 91.597297,39.162231 91.78125,39.75 C 93.277333,44.530304 94.576243,49.352383 95.3125,54.3125 C 92.226011,56.030458 88.785122,57.095724 84.875,57.5 C 82.829461,57.711497 82.02168,57.671048 81.75,57.25 C 82.38768,53.525209 83.173036,47.937608 83.0625,41.90625 C 83.052523,41.361863 83.023247,40.614141 82.96875,39.84375 L 85.78125,39.15625 C 88.288585,38.631191 89.546467,37.905356 90.3125,37.78125 z M 71.40625,38.6875 C 71.673494,38.608983 73.888817,39.188402 76.375,39.34375 C 81.129394,39.643346 82.088752,39.853851 82.3125,41.21875 C 82.314307,41.229775 82.310787,41.238825 82.3125,41.25 C 82.321525,41.460622 82.340504,41.760384 82.34375,41.9375 C 82.449011,47.681008 81.742375,53.01732 81.125,56.71875 C 81.116101,56.734455 81.102978,56.733462 81.09375,56.75 C 80.304014,58.165336 74.044052,57.380102 66.03125,54.875 L 64.21875,54.3125 L 67.5625,46.5625 C 69.405983,42.302426 71.139012,38.766025 71.40625,38.6875 z M 40.59375,39.03125 C 41.251593,39.020063 41.968943,39.65612 44.125,41.875 C 47.905979,45.766152 52.109248,48.973436 56.96875,51.65625 C 63.338909,55.173058 63.228971,54.53303 59,62.28125 C 55.453516,68.779034 55.312659,68.974385 54,68.65625 C 52.57669,68.311301 45.176944,64.274401 43.125,62.71875 C 38.809788,59.44724 35.883833,56.895234 33.53125,54.40625 L 30.8125,51.5625 L 32.0625,49.28125 C 33.938898,45.843359 38.638075,39.815489 39.90625,39.21875 C 40.164518,39.097223 40.374469,39.034979 40.59375,39.03125 z M 5.5625,44.75 C 5.9378887,44.831714 6.4570129,45.624195 7.15625,47.0625 C 7.9689589,48.73421 8.9119254,50.939987 9.25,51.9375 C 9.58808,52.935024 10.228694,54.145988 10.6875,54.625 C 11.146317,55.104021 11.390103,56.389697 11.21875,57.5 C 11.047387,58.610297 10.819734,61.326147 10.71875,63.53125 C 10.617762,65.736358 10.455559,67.701395 10.34375,67.90625 C 10.231939,68.111108 9.7762696,68.079815 9.34375,67.84375 C 8.3322165,66.430852 7.5646373,65.49874 6.6206461,63.829514 C 4.9253214,60.642206 4.5965774,56.935409 4.5625,53.375 C 4.5625,50.472145 4.8313427,47.640835 5.3125,44.875 C 5.398047,44.784891 5.458734,44.727412 5.5625,44.75 z M 103.0625,49.8125 C 103.05778,49.832141 103.06397,49.868662 103.125,50.5625 C 103.27219,52.235843 103.21098,56.528392 102.8125,59.75 C 102.5787,61.628996 102.19899,63.474756 101.75,65.28125 L 99.125,67.1875 C 97.370438,68.465252 95.581976,69.435823 95.457577,69.367929 C 95.950008,64.753353 95.99694,60.78702 95.90625,56.46875 C 96.197322,55.428458 97.039538,54.57479 99.625,52.53125 L 103.0625,49.8125 z M 30.53125,52.9375 C 30.574445,52.927903 30.590355,52.918591 30.625,52.9375 C 30.862528,53.067143 32.72957,54.861685 34.75,56.9375 C 37.712421,59.981133 39.92421,61.63116 46.1875,65.40625 C 50.459179,67.980936 54.025679,70.378512 54.125,70.71875 C 54.419391,71.72722 47.189545,81.836528 46.125,81.90625 C 45.227112,81.965059 36.614716,77.377038 34.09375,75.5 C 33.428506,75.004672 31.122896,73.301021 28.96875,71.71875 C 26.814599,70.136463 24.868543,68.529094 24.65625,68.15625 C 23.884143,66.800229 29.192212,53.235016 30.53125,52.9375 z M 64.21875,55.53125 C 64.744614,55.472309 65.757602,55.676519 66.8125,56.0625 C 68.219015,56.577131 71.396011,57.325384 73.84375,57.75 C 75.927704,58.441153 80.025122,57.193009 80.482891,59.469448 C 79.64494,62.850546 78.115919,67.827644 77.21875,70.25 C 77.171309,70.378092 77.139913,70.471348 77.09375,70.59375 C 76.885198,71.006328 76.74174,71.309202 76.75,71.40625 C 76.497665,72.043855 76.26761,72.632958 76.03125,73.15625 C 76.01206,73.170648 75.987548,73.171512 75.96875,73.1875 C 74.990328,74.019633 66.574271,72.963069 61.28125,71.34375 C 58.753926,70.570556 56.66013,69.813608 56.625,69.6875 C 56.563544,69.466886 63.098554,56.846076 63.875,55.6875 C 63.927173,55.60965 64.043462,55.550897 64.21875,55.53125 z M 94.25,56.4375 C 95.128444,56.355886 95.273504,56.675848 95.40625,57.46875 C 95.567545,61.515739 95.252941,65.552106 94.5,69.53125 C 93.408738,71.530634 77.870703,74.771573 76.96875,73.1875 C 76.93819,73.133828 76.887507,73.097853 76.84375,73.0625 C 77.172955,72.321329 77.502245,71.506443 77.875,70.5 C 78.903911,67.72194 80.660858,62.747668 81.40625,59.09375 C 81.89817,58.512305 82.725615,58.364446 84.84375,58.1875 C 86.720881,58.030683 89.820692,57.494263 91.71875,57 C 92.934656,56.683372 93.722934,56.486469 94.25,56.4375 z M 13.625,58.09375 L 16.5,61.59375 C 18.06856,63.514916 20.101258,65.708882 21.03125,66.46875 C 22.122363,67.360253 22.65836,68.338517 22.5625,69.21875 C 22.480796,69.969003 22.133729,72.854725 21.78125,75.65625 C 21.428782,78.457775 21.112673,81.122086 21.0625,81.5625 C 20.938581,82.650221 20.521933,82.337817 17.40625,78.65625 C 15.927438,76.908854 14.327974,75.077913 13.84375,74.59375 C 11.932886,72.683127 11.306726,70.15675 11.53125,65.25 C 11.683155,61.930109 12.079866,59.783138 12.6875,59.125 L 13.625,58.09375 z M 100.28125,68.21875 L 99.59375,70.53125 C 98.835562,73.151751 90.8251,86.36211 89.668122,86.988128 C 89.390087,87.138576 90.078382,85.840545 90.5,84.8125 C 91.975984,81.213555 92.972995,79.256591 93.96875,75.96875 C 94.277249,74.950131 94.549552,73.812628 94.78125,72.59375 C 94.848552,72.493818 95.154352,71.720778 95.229923,71.59148 C 95.676473,70.827443 96.801249,70.2967 98.03125,69.5625 L 100.28125,68.21875 z M 7.8125,69.40625 C 7.9224664,69.357218 8.1028898,69.49918 8.40625,69.84375 C 8.8158772,70.309026 9.761078,71.829917 10.5,73.21875 C 11.238931,74.607589 13.786211,77.515968 16.15625,79.6875 C 18.587116,81.914779 20.724187,84.38124 21.0625,85.34375 C 21.392342,86.28217 21.797121,86.814452 21.96875,86.5 C 22.36389,85.776035 36.359787,94.058323 36.4375,95.0625 C 36.469922,95.481537 36.7416,95.579857 37.15625,95.34375 C 37.527664,95.132275 38.820485,95.500941 40.03125,96.15625 C 41.949965,97.194719 47.553905,98.998198 51.09375,99.71875 C 52.065536,99.916553 52.077802,100.13716 51.25,101.03125 C 50.310703,102.04577 50.365488,102.06632 52.125,101.25 C 53.14423,100.77714 54.255829,100.53797 54.59375,100.71875 C 54.931664,100.89952 56.804358,101.16332 58.78125,101.3125 L 62.375,101.5625 L 59.53125,102.21875 C 59.008521,102.33816 58.357825,102.44759 57.65625,102.53125 C 56.403916,102.62653 55.151606,102.6875 53.875,102.6875 C 47.066436,102.6875 40.683517,101.04522 34.6875,98.8125 C 29.712857,96.96011 25.68854,93.656241 21.5625,90.625 C 17.26892,87.409718 14.219983,82.958763 11.40625,78.46875 C 9.9430934,75.999422 8.7076059,73.409686 7.6875,70.6875 C 7.6732058,70.518559 7.6566207,70.354303 7.65625,70.1875 C 7.655183,69.708139 7.7025336,69.455282 7.8125,69.40625 z M 24.1875,69.625 L 26.5625,71.375 C 27.867511,72.335963 32.501423,75.260291 36.875,77.875 C 41.248587,80.489719 44.979782,82.959957 45.15625,83.375 C 45.488641,84.156771 39.30046,92.478987 37.71875,93.375 C 36.884514,93.847579 34.689808,92.67677 29,88.75 C 21.821298,83.795673 22.050545,84.126351 22.40625,78.84375 C 22.580936,76.24944 23.034211,73.112798 23.4375,71.875 L 24.1875,69.625 z M 56.875,70.84375 C 57.170787,70.866515 57.457853,70.97974 57.78125,71.15625 C 58.441715,71.516732 61.815962,72.666159 65.34375,73.1875 C 70.751459,73.986658 71.738382,74.16389 75.198184,74.341372 C 75.637667,74.581242 74.299082,76.820981 71.71875,81 C 69.76684,84.161237 67.358072,87.331456 66.946404,87.681564 C 66.033022,88.458381 60.52811,87.182359 54.375,85.25 C 47.031874,82.943925 47.302077,83.607333 51.25,77.28125 C 54.357852,72.301318 55.593258,70.745102 56.875,70.84375 z M 93.59375,71.84375 C 93.952206,71.721565 94.259731,71.989289 94.28125,72.5625 C 94.005529,74.016675 93.728825,75.373071 93.3125,76.5 C 92.465379,78.793031 91.828125,80.53125 90.53125,83.25 C 89.234375,85.96875 88.125,87.375 88.125,87.375 C 88.125,87.375 88.051242,87.577289 83.5625,88.03125 C 79.099551,88.482602 74.572388,88.755468 70.09375,88.4375 L 67.78125,88.1875 C 71.092902,83.898696 73.211935,78.826722 76.65625,74.65625 C 77.418308,75.072181 84.501161,74.155359 88.1875,73.375 C 90.864985,72.808205 91.159389,72.673535 93.59375,71.84375 z M 47.59375,83.875 C 48.01298,83.855115 48.541768,83.990122 49.1875,84.28125 C 50.173716,84.725883 53.495314,85.823639 56.5625,86.71875 C 59.629689,87.613867 63.905319,88.411172 64.760475,88.770077 C 66.234086,89.388542 65.184134,89.73701 64,91.125 C 61.91614,93.567639 56.475812,97.911524 54.78125,98.5 C 53.83918,98.827154 51.511623,98.587915 49.09375,97.9375 C 46.843092,97.332074 43.450074,96.194237 41.5625,95.40625 C 38.361712,94.070041 38.202889,93.929874 39,93.15625 C 39.47008,92.700027 41.161854,90.766668 42.78125,88.84375 C 44.40063,86.920822 46.107347,84.919265 46.5625,84.40625 C 46.860521,84.070353 47.17452,83.894885 47.59375,83.875 z M 84.969924,88.989717 C 85.974322,88.919479 86.973604,88.707697 87.03125,88.71875 C 87.108112,88.733487 87.169057,88.780976 87.1875,88.84375 C 85.470171,91.309118 82.964692,92.674855 80.59375,94.4375 C 78.535934,95.967355 72.643497,99.046182 69.28125,99.8125 C 68.125509,100.07592 64.710366,100.12555 61.71875,99.9375 C 55.49626,99.546359 55.3482,99.510761 56.5625,98.5625 C 57.056135,98.177011 59.60804,95.936149 62.21875,93.5625 L 66.96875,89.21875 L 70.9375,89.5625 C 76.227214,89.690691 78.509732,89.441479 84.969924,88.989717 z "
       id="path2196"
       sodipodi:nodetypes="ccscccscccsssccsssscssssscssscsccsssssccssssssssssssscssssscccsssssssscccccccscccccccssssssccccsssssscsccsssccsssssssccccsssssssscccccssccccccsscccscsccscccsscccccscscssssccssccsssccssssssssccssscscsccccsssscscccccssssscccsccssssssccccccsscccccccssssssssccsccsscsssssccccscscsscccsssssssccccssscscccssssssssssssccccsscccscccssssscccsscsssscccsscscccsscssssssssssccscsssscccs" />
  </g>
</svg>
