<?xml version="1.0" encoding="UTF-8" standalone="no"?>
<!-- Created with Inkscape (http://www.inkscape.org/) -->

<svg
   xmlns:dc="http://purl.org/dc/elements/1.1/"
   xmlns:cc="http://creativecommons.org/ns#"
   xmlns:rdf="http://www.w3.org/1999/02/22-rdf-syntax-ns#"
   xmlns:svg="http://www.w3.org/2000/svg"
   xmlns="http://www.w3.org/2000/svg"
   xmlns:xlink="http://www.w3.org/1999/xlink"
   xmlns:sodipodi="http://sodipodi.sourceforge.net/DTD/sodipodi-0.dtd"
   xmlns:inkscape="http://www.inkscape.org/namespaces/inkscape"
   width="104.3199"
   height="104.3199"
   id="svg2452"
   sodipodi:version="0.32"
   inkscape:version="0.91 r13725"
   version="1.0"
   sodipodi:docname="globe.svg"
   inkscape:output_extension="org.inkscape.output.svgz.inkscape"
   inkscape:export-filename="C:\Documents and Settings\jmviglino\Mes documents\svg\globe.png"
   inkscape:export-xdpi="40.220001"
   inkscape:export-ydpi="40.220001">
  <defs
     id="defs2454">
    <linearGradient
       id="linearGradient3206">
      <stop
         style="stop-color:#ffffff;stop-opacity:1;"
         offset="0"
         id="stop3208" />
      <stop
         style="stop-color:#ffffff;stop-opacity:0;"
         offset="1"
         id="stop3210" />
    </linearGradient>
    <linearGradient
       id="linearGradient4326">
      <stop
         style="stop-color:#d5f1ff;stop-opacity:1;"
         offset="0"
         id="stop4328" />
      <stop
         style="stop-color:#0099ff;stop-opacity:1;"
         offset="1"
         id="stop4330" />
    </linearGradient>
    <linearGradient
       id="linearGradient4255">
      <stop
         style="stop-color:#ffffff;stop-opacity:1;"
         offset="0"
         id="stop4257" />
      <stop
         style="stop-color:#ffffff;stop-opacity:0;"
         offset="1"
         id="stop4259" />
    </linearGradient>
    <linearGradient
       id="linearGradient4235">
      <stop
         style="stop-color:#66ff00;stop-opacity:1;"
         offset="0"
         id="stop4237" />
      <stop
         style="stop-color:#eba60d;stop-opacity:1;"
         offset="1"
         id="stop4239" />
    </linearGradient>
    <radialGradient
       inkscape:collect="always"
       xlink:href="#linearGradient4255"
       id="radialGradient4324"
       gradientUnits="userSpaceOnUse"
       gradientTransform="matrix(1,0,0,0.9034091,85.22486,0.8477385)"
       cx="-55.04929"
       cy="40.515011"
       fx="-55.04929"
       fy="40.515011"
       r="52.705383" />
    <radialGradient
       inkscape:collect="always"
       xlink:href="#linearGradient4235"
       id="radialGradient4345"
       cx="-62.835316"
       cy="56.910576"
       fx="-62.835316"
       fy="56.910576"
       r="47.015594"
       gradientTransform="matrix(0.9574015,0.7539222,-1.3787132,1.7508197,75.786659,4.6433566)"
       gradientUnits="userSpaceOnUse" />
    <radialGradient
       inkscape:collect="always"
       xlink:href="#linearGradient4235"
       id="radialGradient2196"
       gradientUnits="userSpaceOnUse"
       gradientTransform="matrix(0.9574015,0.7539222,-1.3787132,1.7508197,75.786659,4.6433566)"
       cx="-62.835316"
       cy="56.910576"
       fx="-62.835316"
       fy="56.910576"
       r="47.015594" />
    <radialGradient
       inkscape:collect="always"
       xlink:href="#linearGradient4326"
       id="radialGradient2232"
       gradientUnits="userSpaceOnUse"
       gradientTransform="matrix(9.8964612e-2,7.5733156e-2,-0.1204708,0.1631629,-41.376676,-54.837057)"
       cx="356.88412"
       cy="397.16324"
       fx="356.88412"
       fy="397.16324"
       r="335" />
    <radialGradient
       inkscape:collect="always"
       xlink:href="#linearGradient3206"
       id="radialGradient3212"
       cx="51.042946"
       cy="41.340862"
       fx="51.042946"
       fy="41.340862"
       r="46.751049"
       gradientTransform="matrix(1,0,0,1.0590163,0,-2.4397858)"
       gradientUnits="userSpaceOnUse" />
  </defs>
  <sodipodi:namedview
     id="base"
     pagecolor="#ffffff"
     bordercolor="#666666"
     borderopacity="1.0"
     inkscape:pageopacity="0.0"
     inkscape:pageshadow="2"
     inkscape:zoom="3.261959"
     inkscape:cx="1.3086046"
     inkscape:cy="57.787361"
     inkscape:document-units="px"
     inkscape:current-layer="layer5"
     inkscape:window-width="748"
     inkscape:window-height="573"
     inkscape:window-x="66"
     inkscape:window-y="87"
     showgrid="false"
     inkscape:window-maximized="0" />
  <metadata
     id="metadata2457">
    <rdf:RDF>
      <cc:Work
         rdf:about="">
        <dc:format>image/svg+xml</dc:format>
        <dc:type
           rdf:resource="http://purl.org/dc/dcmitype/StillImage" />
        <dc:title></dc:title>
        <dc:creator>
          <cc:Agent>
            <dc:title>JEM</dc:title>
          </cc:Agent>
        </dc:creator>
        <dc:subject>
          <rdf:Bag>
            <rdf:li>Icon</rdf:li>
          </rdf:Bag>
        </dc:subject>
      </cc:Work>
    </rdf:RDF>
  </metadata>
  <g
     inkscape:groupmode="layer"
     id="layer4"
     style="display:inline"
     transform="translate(117.84016,-3.6276408)" />
  <g
     inkscape:groupmode="layer"
     id="layer3"
     style="display:inline"
     transform="translate(117.84016,-3.6276408)">
    <path
       sodipodi:type="arc"
       style="opacity:1;color:#000000;fill:url(#radialGradient3212);fill-opacity:1;fill-rule:nonzero;stroke:#000000;stroke-width:0;stroke-linecap:butt;stroke-linejoin:miter;marker:none;marker-start:none;marker-mid:none;marker-end:none;stroke-miterlimit:4;stroke-dasharray:none;stroke-dashoffset:0;stroke-opacity:1;visibility:visible;display:inline;overflow:visible;enable-background:accumulate"
       id="path3204"
       sodipodi:cx="51.042946"
       sodipodi:cy="41.340862"
       sodipodi:rx="46.751049"
       sodipodi:ry="49.510124"
       d="M 97.793995,41.340862 A 46.751049,49.510124 0 0 1 51.042946,90.850986 46.751049,49.510124 0 0 1 4.2918968,41.340862 46.751049,49.510124 0 0 1 51.042946,-8.1692619 46.751049,49.510124 0 0 1 97.793995,41.340862 Z"
       transform="matrix(1.0459016,0,0,1,-119.27338,14.040868)" />
    <path
       style="opacity:1;color:#000000;fill:url(#radialGradient2232);fill-opacity:1;fill-rule:nonzero;stroke:none;stroke-width:2;stroke-linecap:butt;stroke-linejoin:miter;marker:none;marker-start:none;marker-mid:none;marker-end:none;stroke-miterlimit:4;stroke-dasharray:none;stroke-dashoffset:0;stroke-opacity:1;visibility:visible;display:inline;overflow:visible;enable-background:accumulate"
       d="M -66.862756,3.8566403 C -72.75157,4.0221104 -78.611247,5.2222443 -84.09077,7.4419874 C -95.917998,12.153456 -105.83014,21.55711 -111.31294,33.217728 C -117.07225,45.272425 -117.91199,59.620448 -113.66077,72.301241 C -109.65187,84.469548 -101.01305,94.94945 -89.960352,101.11322 C -79.570546,106.99312 -67.119401,108.91436 -55.472596,106.53969 C -43.545851,104.17244 -32.592859,97.236506 -25.172866,87.450141 C -18.275335,78.463178 -14.439094,67.104069 -14.48071,55.698823 C -14.473705,48.68613 -15.875571,41.66041 -18.605281,35.220353 C -23.593133,23.332363 -33.133851,13.504777 -44.748713,8.2817985 C -51.666978,5.1194876 -59.291425,3.6438925 -66.862756,3.8566403 z M -74.096619,6.7313781 C -68.623849,6.6842856 -63.068761,7.105292 -57.566609,7.2481849 C -55.375891,7.2904163 -53.280811,7.3669202 -56.614785,7.8941934 C -59.716147,7.7621017 -57.643274,9.7199678 -56.646512,11.253438 C -55.131919,11.679742 -53.447369,9.8844437 -51.91912,11.091936 C -50.091679,13.093864 -50.278449,16.728697 -52.680579,18.230329 C -54.583364,18.934893 -56.876015,18.32787 -58.93089,18.521034 C -59.31235,17.394214 -58.08622,15.023006 -57.852156,13.417567 C -60.233787,12.850099 -62.609204,12.273113 -64.990836,11.705644 C -65.598907,13.562814 -66.222959,15.436447 -66.831029,17.293618 C -64.702761,16.674561 -62.550338,16.03925 -60.422081,15.420193 C -60.489993,17.632829 -60.576252,19.861445 -60.644173,22.074081 C -60.520806,24.113831 -60.470418,26.076311 -63.023733,25.756329 C -64.567485,25.130274 -65.839551,23.430549 -67.275213,22.397084 C -67.376559,24.40902 -67.491144,26.425329 -67.592488,28.437265 C -69.163348,26.94121 -70.717294,25.443559 -72.288153,23.947505 C -76.171737,23.947505 -80.048552,23.947505 -83.932133,23.947505 C -86.302992,23.435392 -88.127275,25.080894 -90.087261,26.143933 C -92.791548,28.202333 -90.346747,25.015463 -89.738259,23.689102 C -88.06114,22.004721 -90.840375,20.744581 -91.61018,19.296244 C -93.381476,20.47047 -95.137379,21.642765 -96.908667,22.81699 C -98.597634,23.073597 -98.892575,26.882468 -96.813484,26.111634 C -93.909979,25.705341 -94.226332,26.534614 -96.3693,28.049659 C -98.627067,28.833105 -96.841414,31.379911 -98.463312,32.539418 C -99.368936,33.927616 -102.08531,35.218133 -100.04969,36.803074 C -99.348834,39.043231 -97.219729,38.458176 -95.385748,38.482696 C -94.275348,41.517084 -93.164768,44.557026 -92.054364,47.591416 C -91.17095,50.780287 -89.084302,53.883388 -89.325802,57.216943 C -90.26394,59.578622 -88.774621,62.01619 -87.358699,63.80623 C -85.255194,67.105434 -81.965793,69.836117 -81.108389,73.787061 C -84.199446,75.64423 -87.281748,77.485563 -90.372809,79.342734 C -93.254962,79.196573 -96.184051,78.709874 -98.939224,79.85954 C -101.92136,80.452263 -104.71799,81.491422 -107.25183,83.218785 C -107.68109,82.688126 -108.12339,82.166725 -108.55265,81.636064 C -109.43383,80.006662 -111.83907,78.821655 -111.34467,76.791 C -111.15,72.645226 -109.69726,68.800658 -108.42574,64.904444 C -107.33801,63.11426 -108.06315,61.375481 -108.86993,59.639475 C -109.36198,56.287905 -108.95345,52.755111 -109.09202,49.335639 C -108.97899,47.592124 -109.81275,45.16002 -107.31528,45.136583 C -105.88867,44.27731 -103.34861,44.589763 -103.00035,42.584851 C -101.69516,40.751657 -102.78718,38.76023 -103.15898,36.803074 C -101.67986,32.191207 -100.8319,27.40072 -99.732416,22.687789 C -97.42919,19.469597 -94.567468,16.527899 -92.054364,13.417567 C -86.06495,11.181789 -80.086019,8.967156 -74.096619,6.7313781 z M -47.667639,16.841411 C -45.184663,17.099352 -42.694663,17.358682 -40.211685,17.616621 C -40.546889,19.691309 -39.951225,22.031274 -41.322146,23.786002 C -41.806607,26.281528 -44.030494,24.741553 -45.668809,24.561213 C -47.609261,23.594849 -49.356068,24.876145 -51.157661,25.562526 C -53.215997,27.067923 -54.16983,26.211465 -54.393862,23.818303 C -55.729198,21.660683 -52.389866,21.7053 -51.157661,20.749763 C -49.103071,20.369942 -48.361869,18.636549 -47.667639,16.841411 z M -27.742791,25.82093 C -27.486121,25.769628 -26.911423,26.616963 -26.219872,27.791255 C -24.375485,30.762434 -21.956523,33.480099 -20.477201,36.609271 C -18.994924,44.204771 -17.517622,51.785573 -16.035356,59.381071 C -18.569005,67.480398 -21.116299,75.571664 -23.649948,83.670991 C -23.49793,79.079652 -23.326053,74.502346 -23.174036,69.91101 C -24.035469,74.915052 -24.914244,79.926665 -25.775688,84.930707 C -29.986051,89.022537 -34.03886,93.309615 -38.339764,97.269469 C -44.180746,100.11564 -50.044072,102.98291 -55.885053,105.82909 C -57.405238,105.62273 -58.901883,105.38943 -60.422081,105.18308 C -57.844408,102.01276 -55.576713,98.524013 -52.807489,95.557548 C -50.891607,93.986099 -48.457618,92.745604 -46.874453,90.970887 C -46.481711,87.922224 -46.093267,84.878531 -45.700537,81.829867 C -47.784354,80.377852 -50.528553,80.8645 -52.934399,80.602451 C -55.109653,80.523597 -57.871375,79.827219 -58.232886,77.243207 C -59.130067,73.238062 -58.818661,68.953709 -57.693519,65.033645 C -55.959147,62.413789 -54.468627,59.525069 -52.585397,57.05544 C -49.546036,54.590145 -45.473337,54.545731 -41.893241,53.340892 C -39.612956,53.95995 -37.320384,54.595259 -35.040108,55.214317 C -33.932357,57.731212 -32.524531,60.035803 -30.471353,61.868204 C -28.693792,61.282999 -26.929045,60.801835 -25.268048,61.965105 C -23.293625,63.699104 -22.805561,60.899942 -21.809755,59.607174 C -22.44394,58.265899 -24.47674,57.150753 -25.648778,55.892626 C -26.817954,54.322273 -28.510565,53.966114 -30.344443,53.922299 C -32.179143,53.834072 -32.231044,51.112732 -33.295097,49.884746 C -33.755495,47.200508 -35.548245,48.395384 -37.229303,49.238738 C -39.759095,49.157398 -38.326424,52.200658 -39.132951,52.985588 C -40.549622,52.304 -43.830535,53.027662 -42.971974,50.627656 C -42.490845,49.134627 -43.643094,45.874796 -41.195236,46.557803 C -39.965076,46.230807 -36.467844,47.222773 -36.689936,46.040996 C -38.099935,43.570003 -39.758871,41.171356 -39.926138,38.224293 C -41.313925,36.333498 -37.108993,35.689745 -36.753391,36.609271 C -36.050758,37.833898 -36.725684,41.450797 -34.976653,40.840627 C -32.571143,39.843399 -30.01267,39.576268 -27.457244,39.257907 C -28.190579,38.019542 -28.984883,35.208143 -29.678166,34.897349 C -30.272642,36.626791 -30.612172,39.194893 -32.406728,36.770774 C -34.354502,35.848983 -34.958957,34.459216 -33.866192,32.507117 C -34.003751,29.935917 -31.52042,30.91893 -29.868531,30.762895 C -27.329167,31.47099 -27.172793,29.929649 -27.679336,27.791255 C -27.946877,26.434754 -27.942423,25.860831 -27.742791,25.82093 z "
       id="circle2184" />
  </g>
  <g
     inkscape:groupmode="layer"
     id="layer5"
     style="display:inline"
     transform="translate(117.84016,-3.6276408)">
    <circle
       transform="matrix(0.1497312,0,0,0.1497312,-119.58344,-13.687684)"
       style="opacity:1;color:#000000;fill:none;fill-opacity:1;fill-rule:nonzero;stroke:#000000;stroke-width:26.71453857;stroke-linecap:butt;stroke-linejoin:miter;marker:none;marker-start:none;marker-mid:none;marker-end:none;stroke-miterlimit:4;stroke-dasharray:none;stroke-dashoffset:0;stroke-opacity:1;visibility:visible;display:inline;overflow:visible;enable-background:accumulate"
       cx="360"
       cy="464"
       r="335"
       id="circle4253"
       sodipodi:cx="360"
       sodipodi:cy="464"
       sodipodi:rx="335"
       sodipodi:ry="335"
       inkscape:export-xdpi="41.41"
       inkscape:export-ydpi="41.41"
       inkscape:export-filename="C:\Documents and Settings\jmviglino\Mes documents\svg\globe.png" />
  </g>
</svg>
