<?xml version="1.0" encoding="UTF-8" standalone="no"?>
<svg
   xmlns:dc="http://purl.org/dc/elements/1.1/"
   xmlns:cc="http://creativecommons.org/ns#"
   xmlns:rdf="http://www.w3.org/1999/02/22-rdf-syntax-ns#"
   xmlns:svg="http://www.w3.org/2000/svg"
   xmlns="http://www.w3.org/2000/svg"
   xmlns:sodipodi="http://sodipodi.sourceforge.net/DTD/sodipodi-0.dtd"
   xmlns:inkscape="http://www.inkscape.org/namespaces/inkscape"
   width="3.4379in"
   height="2.3073in"
   viewBox="0 0 298 200"
   id="svg2"
   sodipodi:version="0.32"
   inkscape:version="0.91 r13725"
   sodipodi:docname="nuage.svg"
   inkscape:output_extension="org.inkscape.output.svgz.inkscape"
   version="1.1">
  <metadata
     id="metadata35">
    <rdf:RDF>
      <cc:Work
         rdf:about="">
        <dc:format>image/svg+xml</dc:format>
        <dc:type
           rdf:resource="http://purl.org/dc/dcmitype/StillImage" />
        <dc:title></dc:title>
      </cc:Work>
    </rdf:RDF>
  </metadata>
  <defs
     id="defs33" />
  <sodipodi:namedview
     inkscape:window-height="480"
     inkscape:window-width="640"
     inkscape:pageshadow="2"
     inkscape:pageopacity="0.0"
     guidetolerance="10.0"
     gridtolerance="10.0"
     objecttolerance="10.0"
     borderopacity="1.0"
     bordercolor="#666666"
     pagecolor="#ffffff"
     id="base"
     inkscape:zoom="1.2837479"
     inkscape:cx="196.85015"
     inkscape:cy="69.098573"
     inkscape:current-layer="svg2"
     showgrid="false"
     inkscape:window-x="0"
     inkscape:window-y="0"
     inkscape:window-maximized="0" />
  <path
     style="fill:#000000;fill-opacity:1;stroke:#000000;stroke-width:1.9262532;stroke-opacity:1"
     d="M 172.88023,-1.3045121e-015 C 163.03814,1.3359799 153.96884,11.243185 148.65658,12.386232 C 134.63023,3.0690477 115.98433,2.9660101 102.19222,12.951292 C 97.158238,21.246574 91.26295,22.73404 82.953524,18.133173 C 62.015669,13.384532 37.064845,22.895345 28.422117,43.48185 C 21.907981,52.04818 30.080129,63.466786 16.484779,65.768475 C 2.7827952,68.088218 -3.4853031,86.294284 1.5281984,99.191868 C 3.5250107,108.41289 17.225329,111.1559 8.0119602,120.38939 C 0.31176317,145.40288 16.494458,155.55679 38.419032,157.74722 C 63.387282,186.46297 80.622861,180.76863 111.9654,175.50621 C 120.87162,188.11617 138.43407,193.14748 153.31002,191.63929 C 165.4151,190.74238 177.73474,184.76975 185.20868,175.14258 C 190.83317,170.01738 192.29772,164.92345 197.69641,165.60677 C 235.80065,170.42969 251.01687,147.28345 255.54357,132.55221 C 275.64692,130.90541 291.99267,110.59923 290.43512,90.789716 C 289.59583,77.351537 283.32298,68.909083 283.95295,54.462372 C 284.58139,40.050746 272.88767,29.224723 260.25387,23.987872 C 253.72602,16.993175 248.87145,4.0744855 236.88898,1.1646888 C 223.4042,-3.59868 208.21428,3.3598137 198.37083,8.2628595 C 191.5324,0.62165 182.6215,-1.3222939 172.88023,-1.3045121e-015 z M 196.15175,17.153112 C 203.76794,5.6453921 217.75479,-0.5608301 231.38239,2.3089889 C 241.95282,3.9916352 251.88298,11.370271 254.82167,22.137104 C 256.0655,24.90197 256.06172,33.98315 258.69921,26.004418 C 270.08084,30.03831 280.58257,39.287981 281.55368,52.047406 C 284.87385,63.103513 274.44828,73.009281 270.30939,80.011927 C 277.26163,76.620268 280.564,64.771104 285.14468,77.561789 C 292.30226,92.975864 287.49582,112.11097 274.04694,122.51063 C 266.89878,128.36507 254.14157,135.21832 249.78945,122.50015 C 247.209,114.95933 235.03339,98.979901 229.81796,103.41919 C 272.07484,132.22007 237.44364,169.80899 196.6405,162.36977 C 195.32537,160.76427 195.18997,157.35631 192.32157,154.41548 C 189.97828,168.1046 180.7637,181.25882 167.13971,185.94959 C 154.76836,191.94794 139.59144,190.98543 127.24885,185.09974 C 116.819,183.79097 110.9193,166.9604 105.419,166.14106 C 115.34049,178.28059 88.890539,178.34515 81.713686,178.2678 C 65.576229,178.49198 50.085128,169.75092 40.721204,156.77895 C 55.636064,150.76832 32.9068,157.23628 28.129229,154.32985 C 13.491359,151.0071 2.790069,133.99272 10.375659,119.99063 C 11.484115,107.31275 30.978759,122.5074 30.772054,115.096 C 17.650622,115.147 5.1269205,108.26939 2.3514208,94.286159 C -0.68888701,80.649986 9.9430199,67.973007 23.068746,65.558622 C 26.988357,64.808219 29.049725,75.202824 27.854676,64.717529 C 23.364131,45.422109 38.857192,26.025909 57.175054,21.239636 C 68.608248,17.615807 81.802743,18.081989 92.399469,23.837887 C 95.232447,27.13245 108.56284,31.587437 99.353718,25.029829 C 90.914822,19.831369 110.19278,9.4692952 116.54472,8.7862443 C 125.88517,5.3223646 150.93427,7.8105295 147.57884,20.734819 C 153.81968,14.209772 160.60713,4.0452101 172.4709,2.3850007 C 185.51022,0.56028487 195.23468,2.3304176 196.15175,17.153112 z "
     id="path8"
     sodipodi:nodetypes="cccccsccccccsccscccsccccccccscccccccccccccccccccsc" />
</svg>
