<?xml version="1.0" encoding="UTF-8" standalone="no"?>
<!-- Created with Inkscape (http://www.inkscape.org/) -->

<svg
   xmlns:dc="http://purl.org/dc/elements/1.1/"
   xmlns:cc="http://creativecommons.org/ns#"
   xmlns:rdf="http://www.w3.org/1999/02/22-rdf-syntax-ns#"
   xmlns:svg="http://www.w3.org/2000/svg"
   xmlns="http://www.w3.org/2000/svg"
   xmlns:sodipodi="http://sodipodi.sourceforge.net/DTD/sodipodi-0.dtd"
   xmlns:inkscape="http://www.inkscape.org/namespaces/inkscape"
   width="74.219818"
   height="103.54319"
   id="svg2167"
   sodipodi:version="0.32"
   inkscape:version="0.91 r13725"
   version="1.0"
   sodipodi:docname="patte.svg"
   inkscape:output_extension="org.inkscape.output.svgz.inkscape">
  <defs
     id="defs2169" />
  <sodipodi:namedview
     id="base"
     pagecolor="#ffffff"
     bordercolor="#666666"
     borderopacity="1.0"
     inkscape:pageopacity="0.0"
     inkscape:pageshadow="2"
     inkscape:zoom="7.4558259"
     inkscape:cx="37.109909"
     inkscape:cy="51.771595"
     inkscape:document-units="px"
     inkscape:current-layer="layer1"
     inkscape:window-width="1280"
     inkscape:window-height="968"
     inkscape:window-x="0"
     inkscape:window-y="22"
     showgrid="false"
     inkscape:window-maximized="0" />
  <metadata
     id="metadata2172">
    <rdf:RDF>
      <cc:Work
         rdf:about="">
        <dc:format>image/svg+xml</dc:format>
        <dc:type
           rdf:resource="http://purl.org/dc/dcmitype/StillImage" />
        <dc:title></dc:title>
        <dc:creator>
          <cc:Agent>
            <dc:title>JEM</dc:title>
          </cc:Agent>
        </dc:creator>
        <dc:subject>
          <rdf:Bag>
            <rdf:li>icon empreinte</rdf:li>
          </rdf:Bag>
        </dc:subject>
      </cc:Work>
    </rdf:RDF>
  </metadata>
  <g
     inkscape:label="Calque 1"
     inkscape:groupmode="layer"
     id="layer1"
     transform="translate(-537.1758,-583.44773)">
    <path
       style="fill:#000000"
       d="M 538.3373,638.82301 C 534.8181,647.85169 539.68986,657.98712 547.65002,662.79232 C 555.53745,667.55362 561.67108,660.31596 561.33784,652.44833 C 561.03553,645.31096 556.12726,638.5709 550.05632,635.01042 C 545.55236,632.36895 540.21949,633.99416 538.3373,638.82301 z "
       id="path34"
       sodipodi:nodetypes="cssss" />
    <path
       style="fill:#000000"
       d="M 596.95324,638.13856 C 592.49772,643.03411 588.06086,648.36656 586.8339,655.00384 C 586.11498,660.09818 588.40103,664.28261 592.16372,667.42414 C 598.53101,669.80098 604.47857,665.70159 607.50571,660.30631 C 609.54596,656.66997 610.89284,652.32555 611.20013,648.19599 C 611.62529,642.4823 611.8648,636.63141 606.2346,634.36047 C 603.03003,633.06791 599.12846,635.77737 596.95324,638.13856 z "
       id="path32"
       sodipodi:nodetypes="cccsssc" />
    <path
       style="fill:#000000"
       d="M 541.92798,631.94956 C 541.51927,632.0143 541.56634,631.21666 541.49601,630.81051 C 541.30981,629.73525 541.42837,627.31703 541.48069,626.21234 C 541.58984,623.90782 542.08026,619.56141 542.66767,619.52666 C 543.13212,619.49918 544.3716,623.67667 544.693,625.21447 C 545.13011,627.30586 545.64089,629.24566 545.6482,631.33887 C 545.64867,631.47416 545.42737,631.60303 545.32183,631.55469 C 544.59462,631.22162 543.87989,631.2364 543.14119,631.38839 C 542.71642,631.47578 542.34547,631.88343 541.92798,631.94956 z "
       id="path2627"
       sodipodi:nodetypes="cssssssss" />
    <path
       style="fill:#000000"
       d="M 564.00595,593.53842 C 563.59325,593.53402 563.7398,592.88611 563.72108,592.54293 C 563.67152,591.63437 564.09194,589.66668 564.28218,588.76754 C 564.67904,586.89183 565.70923,583.39421 566.29508,583.44835 C 566.7583,583.49117 567.46175,587.09362 567.58719,588.40076 C 567.75779,590.17845 568.02032,591.84213 567.76523,593.56083 C 567.74875,593.67191 567.51353,593.74652 567.41511,593.692 C 566.73696,593.31634 566.02757,593.22789 565.27727,593.24866 C 564.84583,593.2606 564.42752,593.5429 564.00595,593.53842 z "
       id="path2625"
       sodipodi:nodetypes="cssssssss" />
    <path
       style="fill:#000000"
       d="M 564.06708,597.17398 C 558.65723,596.78432 555.65498,602.26114 553.91925,606.65167 C 551.41586,612.98399 551.61027,619.80151 553.38877,626.28794 C 554.33708,629.74654 556.39695,632.59907 559.68371,634.07084 C 565.54287,635.69141 568.93919,629.45788 571.08546,625.01111 C 572.18126,622.13146 572.74941,619.07302 572.95482,616.00067 C 573.27324,611.23797 572.62899,606.50272 570.48508,602.23546 C 569.11458,599.50758 567.08781,597.39156 564.06708,597.17398 z "
       id="path36"
       sodipodi:nodetypes="cssccsss" />
    <path
       style="fill:#000000"
       d="M 584.58837,597.16579 C 581.26354,597.35272 579.35756,600.7681 578.33524,603.74533 C 575.59447,611.72715 577.60904,623.78791 579.67694,628.18161 C 581.35838,631.75422 584.22041,635.39132 588.35177,635.76009 C 592.29525,636.16429 595.83286,633.32115 597.43217,629.89503 C 600.44362,620.72176 597.88241,610.58249 593.16034,602.42104 C 591.16429,599.23222 588.25442,596.95967 584.58837,597.16579 z "
       id="path38"
       sodipodi:nodetypes="csscccs" />
    <path
       style="fill:#000000"
       d="M 605.75741,632.20258 C 605.34605,632.23619 605.43235,631.57754 605.38212,631.23754 C 605.24915,630.3374 605.48669,628.33936 605.59337,627.42654 C 605.81591,625.52226 606.51982,621.94467 607.10817,621.94467 C 607.57336,621.94467 608.60538,625.46708 608.8506,626.75713 C 609.18409,628.51158 609.59862,630.14403 609.50279,631.87891 C 609.4966,631.99104 609.26925,632.08698 609.16623,632.04175 C 608.45638,631.7301 607.74187,631.70731 606.99666,631.79705 C 606.56815,631.84864 606.1776,632.16825 605.75741,632.20258 z "
       id="path48"
       sodipodi:nodetypes="cssssssss" />
    <ellipse
       transform="matrix(0.1496949,0,0,0.1496949,535.77474,582.35418)"
       style="fill:#000000"
       cx="223"
       cy="626"
       rx="80"
       ry="73"
       id="ellipse12"
       sodipodi:cx="223"
       sodipodi:cy="626"
       sodipodi:rx="80"
       sodipodi:ry="73" />
    <ellipse
       transform="matrix(0.1496949,0,0,0.1496949,535.77474,582.35418)"
       style="fill:#000000"
       cx="316"
       cy="626"
       rx="78"
       ry="73"
       id="ellipse14"
       sodipodi:cx="316"
       sodipodi:cy="626"
       sodipodi:rx="78"
       sodipodi:ry="73" />
    <ellipse
       transform="matrix(0.1496949,0,0,0.1496949,535.77474,582.35418)"
       style="fill:#000000"
       cx="259"
       cy="566"
       rx="67"
       ry="72"
       id="ellipse16"
       sodipodi:cx="259"
       sodipodi:cy="566"
       sodipodi:rx="67"
       sodipodi:ry="72" />
    <path
       style="fill:#000000"
       d="M 582.44689,594.33425 C 582.04359,594.42196 582.04204,593.75768 581.9473,593.4273 C 581.69647,592.55265 581.66774,590.54075 581.65278,589.62183 C 581.62157,587.70485 581.84625,584.06559 582.42943,583.9878 C 582.89054,583.92629 584.37926,587.28132 584.7929,588.52762 C 585.35544,590.22256 585.98219,591.78586 586.1166,593.51819 C 586.12529,593.63015 585.91261,593.75531 585.80452,593.7241 C 585.0597,593.50905 584.34845,593.58093 583.62164,593.76842 C 583.20372,593.87622 582.85886,594.24466 582.44689,594.33425 z "
       id="path2623"
       sodipodi:nodetypes="cssssssss" />
  </g>
</svg>
