<?xml version="1.0" encoding="UTF-8" standalone="no"?>
<!-- Created with Inkscape (http://www.inkscape.org/) -->

<svg
   xmlns:dc="http://purl.org/dc/elements/1.1/"
   xmlns:cc="http://creativecommons.org/ns#"
   xmlns:rdf="http://www.w3.org/1999/02/22-rdf-syntax-ns#"
   xmlns:svg="http://www.w3.org/2000/svg"
   xmlns="http://www.w3.org/2000/svg"
   xmlns:xlink="http://www.w3.org/1999/xlink"
   xmlns:sodipodi="http://sodipodi.sourceforge.net/DTD/sodipodi-0.dtd"
   xmlns:inkscape="http://www.inkscape.org/namespaces/inkscape"
   version="1.0"
   width="134.25757"
   height="128.05765"
   id="svg2452"
   inkscape:version="0.91 r13725"
   sodipodi:docname="spip-mashup.svg"
   style="display:inline"
   inkscape:export-filename="C:\EasyPHP1-8\www\spip 2.1.8\plugins\spip_mashup\img\spip-mashup.png"
   inkscape:export-xdpi="300.09921"
   inkscape:export-ydpi="300.09921">
  <metadata
     id="metadata43">
    <rdf:RDF>
      <cc:Work
         rdf:about="">
        <dc:format>image/svg+xml</dc:format>
        <dc:type
           rdf:resource="http://purl.org/dc/dcmitype/StillImage" />
        <dc:title></dc:title>
      </cc:Work>
    </rdf:RDF>
  </metadata>
  <sodipodi:namedview
     pagecolor="#ffffff"
     bordercolor="#666666"
     borderopacity="1"
     objecttolerance="10"
     gridtolerance="10"
     guidetolerance="10"
     inkscape:pageopacity="0"
     inkscape:pageshadow="2"
     inkscape:window-width="1280"
     inkscape:window-height="972"
     id="namedview41"
     showgrid="false"
     inkscape:zoom="3.68584"
     inkscape:cx="20.676745"
     inkscape:cy="66.017002"
     inkscape:window-x="-8"
     inkscape:window-y="-8"
     inkscape:window-maximized="1"
     inkscape:current-layer="layer8" />
  <defs
     id="defs2454">
    <inkscape:perspective
       sodipodi:type="inkscape:persp3d"
       inkscape:vp_x="0 : 64.028824 : 1"
       inkscape:vp_y="0 : 1000 : 0"
       inkscape:vp_z="134.25757 : 64.028824 : 1"
       inkscape:persp3d-origin="67.128784 : 42.685883 : 1"
       id="perspective45" />
    <linearGradient
       id="linearGradient4326">
      <stop
         id="stop4328"
         style="stop-color:#66ccff;stop-opacity:1"
         offset="0" />
      <stop
         id="stop4330"
         style="stop-color:#0099ff;stop-opacity:1"
         offset="1" />
    </linearGradient>
    <linearGradient
       id="linearGradient4255">
      <stop
         id="stop4257"
         style="stop-color:#ffffff;stop-opacity:1"
         offset="0" />
      <stop
         id="stop4259"
         style="stop-color:#ffffff;stop-opacity:0"
         offset="1" />
    </linearGradient>
    <linearGradient
       id="linearGradient4235">
      <stop
         id="stop4237"
         style="stop-color:#66ff00;stop-opacity:1"
         offset="0" />
      <stop
         id="stop4239"
         style="stop-color:#eba60d;stop-opacity:1"
         offset="1" />
    </linearGradient>
    <filter
       color-interpolation-filters="sRGB"
       id="filter3224">
      <feGaussianBlur
         id="feGaussianBlur3226"
         stdDeviation="29.105691" />
    </filter>
    <radialGradient
       cx="-55.04929"
       cy="40.515011"
       r="52.705383"
       fx="-55.04929"
       fy="40.515011"
       id="radialGradient4324"
       xlink:href="#linearGradient4255"
       gradientUnits="userSpaceOnUse"
       gradientTransform="matrix(1,0,0,0.9034091,0,3.913381)" />
    <radialGradient
       cx="360"
       cy="464"
       r="335"
       fx="360"
       fy="464"
       id="radialGradient4332"
       xlink:href="#linearGradient4326"
       gradientUnits="userSpaceOnUse"
       gradientTransform="matrix(0.6840361,0.4419926,-1.2064517,1.8671277,673.54062,-561.46456)" />
    <radialGradient
       cx="-62.835316"
       cy="56.910576"
       r="47.015594"
       fx="-62.835316"
       fy="56.910576"
       id="radialGradient4345"
       xlink:href="#linearGradient4235"
       gradientUnits="userSpaceOnUse"
       gradientTransform="matrix(0.9574015,0.7539222,-1.3787132,1.7508197,75.786659,4.6433566)" />
    <radialGradient
       cx="-62.835316"
       cy="56.910576"
       r="47.015594"
       fx="-62.835316"
       fy="56.910576"
       id="radialGradient4347"
       xlink:href="#linearGradient4235"
       gradientUnits="userSpaceOnUse"
       gradientTransform="matrix(0.9574015,0.7539222,-1.3787132,1.7508197,75.786659,4.6433566)" />
    <radialGradient
       cx="-62.835316"
       cy="56.910576"
       r="47.015594"
       fx="-62.835316"
       fy="56.910576"
       id="radialGradient4349"
       xlink:href="#linearGradient4235"
       gradientUnits="userSpaceOnUse"
       gradientTransform="matrix(0.9574015,0.7539222,-1.3787132,1.7508197,75.786659,4.6433566)" />
    <radialGradient
       cx="-62.835316"
       cy="56.910576"
       r="47.015594"
       fx="-62.835316"
       fy="56.910576"
       id="radialGradient4351"
       xlink:href="#linearGradient4235"
       gradientUnits="userSpaceOnUse"
       gradientTransform="matrix(0.9574015,0.7539222,-1.3787132,1.7508197,75.786659,4.6433566)" />
    <filter
       color-interpolation-filters="sRGB"
       id="filter3224-1">
      <feGaussianBlur
         id="feGaussianBlur3226-7"
         stdDeviation="29.105691" />
    </filter>
    <inkscape:perspective
       id="perspective2859"
       inkscape:persp3d-origin="0.5 : 0.33333333 : 1"
       inkscape:vp_z="1 : 0.5 : 1"
       inkscape:vp_y="0 : 1000 : 0"
       inkscape:vp_x="0 : 0.5 : 1"
       sodipodi:type="inkscape:persp3d" />
    <filter
       color-interpolation-filters="sRGB"
       id="filter3224-1-1">
      <feGaussianBlur
         id="feGaussianBlur3226-7-7"
         stdDeviation="29.105691" />
    </filter>
    <inkscape:perspective
       id="perspective2909"
       inkscape:persp3d-origin="0.5 : 0.33333333 : 1"
       inkscape:vp_z="1 : 0.5 : 1"
       inkscape:vp_y="0 : 1000 : 0"
       inkscape:vp_x="0 : 0.5 : 1"
       sodipodi:type="inkscape:persp3d" />
    <radialGradient
       cx="-55.04929"
       cy="40.515011"
       r="52.705383"
       fx="-55.04929"
       fy="40.515011"
       id="radialGradient4324-0"
       xlink:href="#linearGradient4255-9"
       gradientUnits="userSpaceOnUse"
       gradientTransform="matrix(1,0,0,0.9034091,0,3.913381)" />
    <linearGradient
       id="linearGradient4255-9">
      <stop
         id="stop4257-4"
         style="stop-color:#ffffff;stop-opacity:1"
         offset="0" />
      <stop
         id="stop4259-8"
         style="stop-color:#ffffff;stop-opacity:0"
         offset="1" />
    </linearGradient>
    <radialGradient
       r="52.705383"
       fy="40.515011"
       fx="-55.04929"
       cy="40.515011"
       cx="-55.04929"
       gradientTransform="matrix(1,0,0,0.9034091,0,3.913381)"
       gradientUnits="userSpaceOnUse"
       id="radialGradient2919"
       xlink:href="#linearGradient4255-9"
       inkscape:collect="always" />
    <inkscape:perspective
       id="perspective2951"
       inkscape:persp3d-origin="0.5 : 0.33333333 : 1"
       inkscape:vp_z="1 : 0.5 : 1"
       inkscape:vp_y="0 : 1000 : 0"
       inkscape:vp_x="0 : 0.5 : 1"
       sodipodi:type="inkscape:persp3d" />
    <radialGradient
       cx="360"
       cy="464"
       r="335"
       fx="360"
       fy="464"
       id="radialGradient4332-8"
       xlink:href="#linearGradient4326-2"
       gradientUnits="userSpaceOnUse"
       gradientTransform="matrix(0.6840361,0.4419926,-1.2064517,1.8671277,673.54062,-561.46456)" />
    <linearGradient
       id="linearGradient4326-2">
      <stop
         id="stop4328-4"
         style="stop-color:#66ccff;stop-opacity:1"
         offset="0" />
      <stop
         id="stop4330-5"
         style="stop-color:#0099ff;stop-opacity:1"
         offset="1" />
    </linearGradient>
    <radialGradient
       cx="-62.835316"
       cy="56.910576"
       r="47.015594"
       fx="-62.835316"
       fy="56.910576"
       id="radialGradient4345-5"
       xlink:href="#linearGradient4235-1"
       gradientUnits="userSpaceOnUse"
       gradientTransform="matrix(0.9574015,0.7539222,-1.3787132,1.7508197,75.786659,4.6433566)" />
    <linearGradient
       id="linearGradient4235-1">
      <stop
         id="stop4237-7"
         style="stop-color:#66ff00;stop-opacity:1"
         offset="0" />
      <stop
         id="stop4239-1"
         style="stop-color:#eba60d;stop-opacity:1"
         offset="1" />
    </linearGradient>
    <radialGradient
       cx="-62.835316"
       cy="56.910576"
       r="47.015594"
       fx="-62.835316"
       fy="56.910576"
       id="radialGradient4347-1"
       xlink:href="#linearGradient4235-1"
       gradientUnits="userSpaceOnUse"
       gradientTransform="matrix(0.9574015,0.7539222,-1.3787132,1.7508197,75.786659,4.6433566)" />
    <linearGradient
       id="linearGradient2964">
      <stop
         id="stop2966"
         style="stop-color:#66ff00;stop-opacity:1"
         offset="0" />
      <stop
         id="stop2968"
         style="stop-color:#eba60d;stop-opacity:1"
         offset="1" />
    </linearGradient>
    <radialGradient
       cx="-62.835316"
       cy="56.910576"
       r="47.015594"
       fx="-62.835316"
       fy="56.910576"
       id="radialGradient4349-5"
       xlink:href="#linearGradient4235-1"
       gradientUnits="userSpaceOnUse"
       gradientTransform="matrix(0.9574015,0.7539222,-1.3787132,1.7508197,75.786659,4.6433566)" />
    <linearGradient
       id="linearGradient2971">
      <stop
         id="stop2973"
         style="stop-color:#66ff00;stop-opacity:1"
         offset="0" />
      <stop
         id="stop2975"
         style="stop-color:#eba60d;stop-opacity:1"
         offset="1" />
    </linearGradient>
    <radialGradient
       cx="-62.835316"
       cy="56.910576"
       r="47.015594"
       fx="-62.835316"
       fy="56.910576"
       id="radialGradient4351-2"
       xlink:href="#linearGradient4235-1"
       gradientUnits="userSpaceOnUse"
       gradientTransform="matrix(0.9574015,0.7539222,-1.3787132,1.7508197,75.786659,4.6433566)" />
    <linearGradient
       id="linearGradient2978">
      <stop
         id="stop2980"
         style="stop-color:#66ff00;stop-opacity:1"
         offset="0" />
      <stop
         id="stop2982"
         style="stop-color:#eba60d;stop-opacity:1"
         offset="1" />
    </linearGradient>
    <radialGradient
       r="47.015594"
       fy="56.910576"
       fx="-62.835316"
       cy="56.910576"
       cx="-62.835316"
       gradientTransform="matrix(0.9574015,0.7539222,-1.3787132,1.7508197,75.786659,4.6433566)"
       gradientUnits="userSpaceOnUse"
       id="radialGradient2990"
       xlink:href="#linearGradient4235-1"
       inkscape:collect="always" />
    <inkscape:perspective
       id="perspective3062"
       inkscape:persp3d-origin="0.5 : 0.33333333 : 1"
       inkscape:vp_z="1 : 0.5 : 1"
       inkscape:vp_y="0 : 1000 : 0"
       inkscape:vp_x="0 : 0.5 : 1"
       sodipodi:type="inkscape:persp3d" />
    <filter
       color-interpolation-filters="sRGB"
       id="filter3224-6">
      <feGaussianBlur
         id="feGaussianBlur3226-1"
         stdDeviation="29.105691" />
    </filter>
    <inkscape:perspective
       id="perspective2850"
       inkscape:persp3d-origin="0.5 : 0.33333333 : 1"
       inkscape:vp_z="1 : 0.5 : 1"
       inkscape:vp_y="0 : 1000 : 0"
       inkscape:vp_x="0 : 0.5 : 1"
       sodipodi:type="inkscape:persp3d" />
    <inkscape:perspective
       id="perspective2933"
       inkscape:persp3d-origin="0.5 : 0.33333333 : 1"
       inkscape:vp_z="1 : 0.5 : 1"
       inkscape:vp_y="0 : 1000 : 0"
       inkscape:vp_x="0 : 0.5 : 1"
       sodipodi:type="inkscape:persp3d" />
    <inkscape:perspective
       id="perspective3000"
       inkscape:persp3d-origin="0.5 : 0.33333333 : 1"
       inkscape:vp_z="1 : 0.5 : 1"
       inkscape:vp_y="0 : 1000 : 0"
       inkscape:vp_x="0 : 0.5 : 1"
       sodipodi:type="inkscape:persp3d" />
    <inkscape:perspective
       id="perspective3701"
       inkscape:persp3d-origin="0.5 : 0.33333333 : 1"
       inkscape:vp_z="1 : 0.5 : 1"
       inkscape:vp_y="0 : 1000 : 0"
       inkscape:vp_x="0 : 0.5 : 1"
       sodipodi:type="inkscape:persp3d" />
    <radialGradient
       r="52.705383"
       fy="40.515011"
       fx="-55.04929"
       cy="40.515011"
       cx="-55.04929"
       gradientTransform="matrix(1,0,0,0.9034091,0,3.913381)"
       gradientUnits="userSpaceOnUse"
       id="radialGradient2919-7"
       xlink:href="#linearGradient4255-9-6"
       inkscape:collect="always" />
    <linearGradient
       id="linearGradient4255-9-6">
      <stop
         id="stop4257-4-1"
         style="stop-color:#ffffff;stop-opacity:1"
         offset="0" />
      <stop
         id="stop4259-8-4"
         style="stop-color:#ffffff;stop-opacity:0"
         offset="1" />
    </linearGradient>
    <radialGradient
       r="52.705383"
       fy="40.515011"
       fx="-55.04929"
       cy="40.515011"
       cx="-55.04929"
       gradientTransform="matrix(1,0,0,0.9034091,0,3.913381)"
       gradientUnits="userSpaceOnUse"
       id="radialGradient3711"
       xlink:href="#linearGradient4255-9-6"
       inkscape:collect="always" />
    <radialGradient
       inkscape:collect="always"
       xlink:href="#linearGradient4255-9-6"
       id="radialGradient3801"
       gradientUnits="userSpaceOnUse"
       gradientTransform="matrix(1,0,0,0.9034091,0,3.913381)"
       cx="-55.04929"
       cy="40.515011"
       fx="-55.04929"
       fy="40.515011"
       r="52.705383" />
    <inkscape:perspective
       id="perspective3824"
       inkscape:persp3d-origin="0.5 : 0.33333333 : 1"
       inkscape:vp_z="1 : 0.5 : 1"
       inkscape:vp_y="0 : 1000 : 0"
       inkscape:vp_x="0 : 0.5 : 1"
       sodipodi:type="inkscape:persp3d" />
    <inkscape:perspective
       id="perspective3855"
       inkscape:persp3d-origin="0.5 : 0.33333333 : 1"
       inkscape:vp_z="1 : 0.5 : 1"
       inkscape:vp_y="0 : 1000 : 0"
       inkscape:vp_x="0 : 0.5 : 1"
       sodipodi:type="inkscape:persp3d" />
    <radialGradient
       inkscape:collect="always"
       xlink:href="#linearGradient4255-9-6-6"
       id="radialGradient3801-7"
       gradientUnits="userSpaceOnUse"
       gradientTransform="matrix(1,0,0,0.9034091,0,3.913381)"
       cx="-55.04929"
       cy="40.515011"
       fx="-55.04929"
       fy="40.515011"
       r="52.705383" />
    <linearGradient
       id="linearGradient4255-9-6-6">
      <stop
         id="stop4257-4-1-1"
         style="stop-color:#ffffff;stop-opacity:1"
         offset="0" />
      <stop
         id="stop4259-8-4-8"
         style="stop-color:#ffffff;stop-opacity:0"
         offset="1" />
    </linearGradient>
    <radialGradient
       r="52.705383"
       fy="40.515011"
       fx="-55.04929"
       cy="40.515011"
       cx="-55.04929"
       gradientTransform="matrix(1,0,0,0.9034091,0,3.913381)"
       gradientUnits="userSpaceOnUse"
       id="radialGradient3866"
       xlink:href="#linearGradient4255-9-6-6"
       inkscape:collect="always" />
    <radialGradient
       inkscape:collect="always"
       xlink:href="#linearGradient4255-9-6-6"
       id="radialGradient3915"
       gradientUnits="userSpaceOnUse"
       gradientTransform="matrix(1,0,0,0.9034091,0,3.913381)"
       cx="-55.04929"
       cy="40.515011"
       fx="-55.04929"
       fy="40.515011"
       r="52.705383" />
    <inkscape:perspective
       id="perspective3942"
       inkscape:persp3d-origin="0.5 : 0.33333333 : 1"
       inkscape:vp_z="1 : 0.5 : 1"
       inkscape:vp_y="0 : 1000 : 0"
       inkscape:vp_x="0 : 0.5 : 1"
       sodipodi:type="inkscape:persp3d" />
    <radialGradient
       inkscape:collect="always"
       xlink:href="#linearGradient4255-9-6-6"
       id="radialGradient3966"
       cx="81.511406"
       cy="42.143471"
       fx="81.511406"
       fy="42.143471"
       r="45.59375"
       gradientTransform="matrix(1.2777636,0.39170197,-0.31834416,1.0384644,-9.2247665,-32.621732)"
       gradientUnits="userSpaceOnUse" />
  </defs>
  <g
     inkscape:groupmode="layer"
     id="layer4"
     inkscape:label="Ombre"
     style="display:inline">
    <g
       transform="translate(136.10488,7.9097371)"
       id="layer4-4"
       style="opacity:0.3;fill:#000000;fill-opacity:1;display:inline">
      <ellipse
         cx="402"
         cy="518"
         rx="355"
         ry="361"
         transform="matrix(0.13544472,0,0,0.13061241,-113.84028,-3.7841528)"
         id="ellipse2187"
         style="fill:#000000;fill-opacity:1;stroke:none;filter:url(#filter3224-6)"
         sodipodi:cx="402"
         sodipodi:cy="518"
         sodipodi:rx="355"
         sodipodi:ry="361" />
    </g>
  </g>
  <g
     inkscape:groupmode="layer"
     id="layer3"
     inkscape:label="Terre"
     style="display:inline">
    <g
       transform="translate(136.10488,7.9097369)"
       id="layer3-7"
       style="display:inline">
      <circle
         cx="360"
         cy="464"
         r="335"
         transform="matrix(0.1497312,0,0,0.1497312,-119.58344,-13.687684)"
         id="circle2191"
         style="color:#000000;fill:url(#radialGradient4332-8);fill-opacity:1;fill-rule:nonzero;stroke:none;stroke-width:2;marker:none;visibility:visible;display:inline;overflow:visible;enable-background:accumulate"
         sodipodi:cx="360"
         sodipodi:cy="464"
         sodipodi:rx="335"
         sodipodi:ry="335" />
      <g
         id="g4334"
         style="fill:url(#radialGradient2990);fill-opacity:1;fill-rule:nonzero">
        <path
           d="m -59.541227,104.3005 7.037366,-8.983868 6.288711,-4.49194 1.197849,-9.133602 -0.449193,-0.299462 -0.449194,-0.299463 -0.598925,-0.149731 -0.748656,-0.149731 -0.748656,0 -0.898387,-0.149731 -0.898387,0 -0.898387,-0.149731 -1.796775,0 -0.898387,-0.149732 -0.748656,-0.149731 -0.748656,-0.149731 -0.748656,-0.299462 -0.449194,-0.299463 -0.449193,-0.449193 -0.449194,-0.598925 -0.149731,-0.598925 -0.299462,-0.748656 -0.149732,-0.898387 -0.149731,-0.748656 0,-0.898387 -0.149731,-0.898388 0,-1.048118 0.149731,-1.946506 0,-0.898387 0.149731,-0.898387 0.149732,-0.898387 0.149731,-0.748656 0.149731,-0.748656 0.149731,-0.748656 4.94113,-7.786023 2.54543,-1.647043 8.235219,-2.096237 6.7379,1.796775 1.94651,3.74328 2.54543,2.695161 2.99462,-0.748656 3.74328,1.497312 1.94651,-3.144355 -5.68979,-4.941129 -3.74328,-0.449194 -2.99462,-5.689786 -4.49194,1.946506 0,2.994624 -4.19247,-0.898387 0.44919,-5.390323 6.13898,0 -2.84489,-4.94113 -0.89839,-4.491936 3.29409,-0.748656 1.04812,4.94113 3.74328,-1.19785 4.49193,-0.598925 -2.09624,-4.491936 -1.19785,3.294087 -3.74328,-2.844893 1.19785,-4.192474 5.83952,0 0.851452,-7.408329 7.1871,11.848869 3.191288,23.259732 -7.48656,23.507799 0.44919,-13.326077 -2.54543,14.523926 -12.12822,11.828768 -17.518553,8.384938 -4.491936,-0.59892 0,0"
           id="path2193"
           style="fill:url(#radialGradient4347-1);fill-opacity:1;fill-rule:nonzero;stroke:none" />
        <path
           d="m -105.65844,83.038671 3.74328,-2.096237 7.486563,-1.946505 5.390323,0.299462 9.133604,-5.390323 -0.149732,-0.299463 0,-0.299462 -0.149731,-0.598925 -0.299462,-0.748656 -0.449194,-0.748656 -0.449193,-0.748656 -0.598925,-0.898387 -0.598925,-0.898387 -0.748656,-0.748656 -1.347581,-1.796775 -0.598925,-0.898387 -0.598924,-0.748656 -0.598925,-0.748656 -0.598925,-0.748656 -0.299462,-0.748656 -0.299463,-0.598925 -0.299462,-0.598924 -0.149731,-0.449194 -0.149732,-0.449194 0,-0.299462 0,-0.449194 0,-0.299462 0.149732,-0.598925 0.149731,-0.598925 0,-0.299462 0.149731,-0.449194 -0.149731,-0.449193 0,-0.449194 -0.149731,-0.598925 -0.149732,-0.598924 -5.689785,-15.272583 -3.443818,0 -2.096237,-2.994624 3.294087,-3.593549 0,-2.395699 3.443817,-2.994624 -3.893011,0 0,-2.395699 6.438442,-4.192474 2.54543,2.994624 -2.54543,4.491936 5.240592,-2.994624 13.77527,0 4.641667,4.342205 0.299463,-5.839517 3.893011,3.294087 2.54543,-0.449194 0.299463,-9.582797 -6.288711,1.796775 1.796775,-5.390323 7.037366,1.647043 -1.347581,4.941129 5.989248,0 0.449194,-0.299462 0.598925,-0.449194 0.449193,-0.598924 0.449194,-0.598925 0.149731,-0.299463 0.149731,-0.449193 0.149732,-0.299463 0,-0.449193 0,-0.598925 0,-0.449194 -0.149732,-0.598924 -0.149731,-0.598925 -0.149731,-0.449194 -0.149731,-0.149731 -0.299463,-0.598925 -0.299462,-0.299462 -0.449194,-0.149731 -0.299462,-0.149732 -0.449194,-0.149731 -0.299462,0 -0.449194,0.149731 -0.748656,0.149732 -0.748656,0.299462 -0.299462,0 -0.299462,0.149731 -0.299463,0 -0.299462,-0.149731 -1.946506,-2.844893 4.192474,-0.898387 -3.079587,-3.6259329 -18.253744,0.7095403 -16.667102,7.2384936 -6.619465,10.201825 -2.245973,9.88226 -1.19784,4.042742 0.89838,3.74328 -1.19785,2.994624 -5.54005,1.946506 0,12.876883 1.34758,3.443817 -2.99462,9.133604 -0.74866,5.689785 4.19247,5.090861 0,0"
           id="path2195"
           style="color:#000000;fill:url(#radialGradient4349-5);fill-opacity:1;fill-rule:nonzero;stroke:none;stroke-width:0.29946241;marker:none;visibility:visible;display:inline;overflow:visible;enable-background:accumulate" />
        <path
           d="m -46.963806,18.803986 -1.347581,2.844893 -5.689786,2.54543 1.19785,4.042743 5.839517,-2.395699 5.390318,1.197849 1.64705,-2.844893 0.29946,-4.641667 -7.336828,-0.748656 z"
           id="path2197"
           style="color:#000000;fill:url(#radialGradient4351-2);fill-opacity:1;fill-rule:nonzero;stroke:none;stroke-width:0.29946241;marker:none;visibility:visible;display:inline;overflow:visible;enable-background:accumulate" />
      </g>
    </g>
  </g>
  <g
     inkscape:groupmode="layer"
     id="layer8"
     inkscape:label="Lumière"
     style="display:inline">
    <path
       style="color:#000000;fill:url(#radialGradient3966);fill-opacity:1;stroke:none;stroke-width:2.88599992000000020;marker:none;visibility:visible;display:inline;overflow:visible;enable-background:accumulate"
       d="m 70.4375,13.53125 c -14.189732,0 -27.000714,5.904001 -36.125,15.375 -3.143605,6.169338 -4.90625,12.992584 -4.90625,20.1875 0,27.361049 25.286791,49.5625 56.46875,49.5625 8.918045,0 17.34478,-1.831634 24.84375,-5.0625 6.20232,-8.347189 9.875,-18.707972 9.875,-29.90625 0,-27.702577 -22.453673,-50.15625 -50.15625,-50.15625 z"
       id="circle4253-9" />
  </g>
  <g
     inkscape:groupmode="layer"
     id="layer6"
     inkscape:label="Globe"
     style="display:inline">
    <g
       transform="matrix(0.43410853,0,0,0.43410853,-135.04116,-197.69427)"
       id="g3830"
       style="stroke:#000000;stroke-width:2.5;stroke-miterlimit:4;stroke-opacity:1;stroke-dasharray:none;display:inline">
      <path
         style="fill:none;stroke:#000000;stroke-width:2.5;stroke-linecap:round;stroke-linejoin:miter;stroke-miterlimit:4;stroke-opacity:1;stroke-dasharray:none"
         d="m 540.51827,507.38488 c -25.82724,-1.18676 -51.76107,5.72396 -73.4183,19.88289 -33.48268,21.19255 -63.74936,49.06392 -83.51462,83.71059 -7.93892,14.77155 -14.069,32.05816 -9.88755,48.93955"
         id="path3789" />
      <path
         style="color:#000000;fill:none;stroke:#000000;stroke-width:2.5;stroke-linecap:round;stroke-miterlimit:4;stroke-opacity:1;stroke-dasharray:none;marker:none;visibility:visible;display:inline;overflow:visible;enable-background:accumulate"
         d="m 589.30373,601.64789 c 0.63198,45.50912 -28.61882,89.39868 -70.68408,106.63749 -41.32441,17.99815 -92.65876,8.6855 -124.89663,-22.86251 -32.66773,-30.35383 -44.58716,-80.36169 -29.34016,-122.23442 14.74394,-43.40213 57.3797,-75.40273 103.23299,-77.12229 44.57475,-2.8811 89.12914,22.95559 109.02683,62.89441 8.33799,16.22524 12.68882,34.44912 12.66105,52.68732 z"
         id="path3775" />
      <path
         style="fill:none;stroke:#000000;stroke-width:2.5;stroke-linecap:round;stroke-linejoin:miter;stroke-miterlimit:4;stroke-opacity:1;stroke-dasharray:none"
         d="m 566.1905,532.13363 c -18.41452,-15.11589 -43.73347,-17.41736 -66.67683,-17.43359 -44.61968,0.72908 -89.76942,19.32349 -119.54853,53.00404 -12.93432,15.0667 -22.06833,34.56215 -20.22828,54.80756"
         id="path3753" />
      <path
         style="fill:none;stroke:#000000;stroke-width:2.5;stroke-linecap:round;stroke-linejoin:miter;stroke-miterlimit:4;stroke-opacity:1;stroke-dasharray:none"
         d="m 587.19449,579.37357 c -8.64327,-21.9103 -28.43942,-37.24766 -48.18866,-48.82094 -39.89524,-22.49966 -90.2551,-22.47664 -131.9642,-4.95246 -17.36229,7.66766 -33.53171,19.81695 -42.40457,36.95795"
         id="path3755" />
      <path
         style="fill:none;stroke:#000000;stroke-width:2.5;stroke-linecap:round;stroke-linejoin:miter;stroke-miterlimit:4;stroke-opacity:1;stroke-dasharray:none"
         d="m 581.64183,643.10564 c 6.49831,-38.2072 -13.09237,-76.91722 -42.69724,-100.42111 -25.20081,-19.79398 -55.18051,-35.25377 -87.33644,-39.00641 -27.98956,-3.25034 -57.74559,8.27577 -73.17975,32.49611"
         id="path3759" />
      <path
         style="fill:none;stroke:#000000;stroke-width:2.5;stroke-linecap:round;stroke-linejoin:miter;stroke-miterlimit:4;stroke-opacity:1;stroke-dasharray:none"
         d="m 521.23871,496.27321 c -22.90445,8.89308 -40.43119,26.82345 -55.73317,45.44644 -26.40371,32.12314 -51.69128,66.58652 -65.08637,106.37104 -4.04505,13.2951 -6.65053,27.99417 -2.06193,41.5068"
         id="path3761" />
      <path
         style="fill:none;stroke:#000000;stroke-width:2.5;stroke-linecap:round;stroke-linejoin:miter;stroke-miterlimit:4;stroke-opacity:1;stroke-dasharray:none"
         d="m 502.8774,490.12563 c -9.59364,12.94133 -12.70005,29.41473 -18.89475,44.08628 -17.95372,50.38252 -36.85995,100.68239 -48.81075,152.90909 -1.41693,7.48319 -3.0571,15.12244 -2.32153,22.77146"
         id="path3763" />
      <path
         style="fill:none;stroke:#000000;stroke-width:2.5;stroke-linecap:round;stroke-linejoin:miter;stroke-miterlimit:4;stroke-opacity:1;stroke-dasharray:none"
         d="m 461.63971,486.49819 c 19.92788,3.96058 29.50059,24.4885 36.22874,41.58401 16.0568,41.08939 28.66678,84.39349 29.73651,128.76588 -0.0653,18.53694 -2.30547,38.80181 -14.71533,53.51882"
         id="path3767" />
      <path
         style="color:#000000;fill:none;stroke:#000000;stroke-width:2.5;stroke-linecap:round;stroke-miterlimit:4;stroke-opacity:1;stroke-dasharray:none;marker:none;visibility:visible;display:inline;overflow:visible;enable-background:accumulate"
         d="m 554.40113,541.37884 c -2.29804,23.5015 -35.95536,40.83082 -70.86173,36.50305 -34.42036,-3.12568 -63.76236,-26.47475 -62.4967,-49.65161 -0.37412,-23.33127 29.89763,-42.30733 64.32792,-40.45856 34.4357,0.75152 66.82439,22.19686 69.05985,45.58149 0.34188,2.6911 0.32909,5.38005 -0.0293,8.02563 z"
         id="path3777" />
      <path
         style="color:#000000;fill:none;stroke:#000000;stroke-width:2.5;stroke-linecap:round;stroke-miterlimit:4;stroke-opacity:1;stroke-dasharray:none;marker:none;visibility:visible;display:inline;overflow:visible;enable-background:accumulate"
         d="m 577.10406,549.89461 c 7.17101,22.92955 -4.78325,48.0152 -24.43569,60.55989 -35.3417,23.32706 -82.97956,21.89876 -120.26301,3.90038 -24.39349,-11.85701 -47.5034,-34.89594 -47.1724,-63.72863 0.46167,-17.61409 10.17454,-34.33711 23.85307,-45.09999"
         id="path3779" />
      <path
         style="color:#000000;fill:none;stroke:#000000;stroke-width:2.5;stroke-linecap:round;stroke-miterlimit:4;stroke-opacity:1;stroke-dasharray:none;marker:none;visibility:visible;display:inline;overflow:visible;enable-background:accumulate"
         d="m 588.63952,589.15422 c 3.32099,28.28508 -17.88352,53.45255 -41.95999,65.41575 -32.89626,16.49714 -72.77232,18.0264 -107.07991,4.87455 -30.33196,-10.74521 -62.31634,-29.36281 -73.26828,-61.5043 -3.89289,-11.81672 -3.97147,-24.64181 -1.22778,-36.71094"
         id="path3781" />
      <path
         style="color:#000000;fill:none;stroke:#000000;stroke-width:2.5;stroke-linecap:round;stroke-miterlimit:4;stroke-opacity:1;stroke-dasharray:none;marker:none;visibility:visible;display:inline;overflow:visible;enable-background:accumulate"
         d="m 578.70714,650.04413 c -14.18256,31.05429 -48.98783,46.55615 -81.34412,49.8813 -45.32097,4.51586 -95.06395,-10.9674 -123.68843,-47.78101 -7.16639,-9.5425 -12.47743,-20.63339 -14.43888,-32.4594"
         id="path3783" />
      <path
         style="fill:none;stroke:#000000;stroke-width:2.5;stroke-linecap:round;stroke-linejoin:miter;stroke-miterlimit:4;stroke-opacity:1;stroke-dasharray:none"
         d="m 483.38863,487.09517 c 8.81918,8.10787 7.54129,21.94481 8.60288,32.99301 1.12459,52.35296 0.40809,105.00276 -6.94167,156.927 -2.50462,13.57968 -4.40933,28.12876 -12.20916,39.85643"
         id="path3797" />
      <path
         style="fill:none;stroke:#000000;stroke-width:2.5;stroke-linecap:round;stroke-linejoin:miter;stroke-miterlimit:4;stroke-opacity:1;stroke-dasharray:none"
         d="m 427.29453,495.76813 c 26.22696,-4.28525 53.18281,6.45379 71.54591,25.16023 31.49713,29.16901 58.40856,67.34546 62.32841,111.20892 1.59831,19.05071 -2.16629,38.43008 -10.63571,55.55983"
         id="path3801" />
      <path
         style="color:#000000;fill:none;stroke:#000000;stroke-width:2.5;stroke-linecap:round;stroke-miterlimit:4;stroke-opacity:1;stroke-dasharray:none;marker:none;visibility:visible;display:inline;overflow:visible;enable-background:accumulate"
         d="m 513.86498,520.15737 c -0.73611,12.19811 -24.28561,17.51845 -37.47681,8.46635 -14.14867,-8.13381 -9.4469,-24.95597 7.53717,-27.00035 15.15659,-2.67441 31.82369,7.62782 29.93964,18.534 z"
         id="path3777-4" />
    </g>
  </g>
  <g
     inkscape:groupmode="layer"
     id="layer7"
     inkscape:label="Contour"
     style="display:none">
    <circle
       d="M 695,464 C 695,649.01539 545.01539,799 360,799 174.98461,799 25,649.01539 25,464 25,278.98461 174.98461,129 360,129 c 185.01539,0 335,149.98461 335,335 z"
       style="color:#000000;fill:none;stroke:#006c91;stroke-width:19.27453995;stroke-linecap:butt;stroke-linejoin:miter;stroke-miterlimit:4;stroke-opacity:1;stroke-dasharray:none;stroke-dashoffset:0;marker:none;visibility:visible;display:inline;overflow:visible;enable-background:accumulate"
       id="circle4253"
       transform="matrix(0.1497312,0,0,0.1497312,16.521445,-5.7779471)"
       r="335"
       cy="464"
       cx="360"
       sodipodi:cx="360"
       sodipodi:cy="464"
       sodipodi:rx="335"
       sodipodi:ry="335" />
  </g>
  <g
     inkscape:groupmode="layer"
     id="layer1"
     inkscape:label="Spip"
     style="display:inline">
    <ellipse
       d="M 757,518 C 757,717.37479 598.06109,879 402,879 205.93891,879 47,717.37479 47,518 47,318.62521 205.93891,157 402,157 c 196.06109,0 355,161.62521 355,361 z"
       style="fill:#808080;fill-opacity:0.45320195;stroke:none;display:inline;filter:url(#filter3224-1-1)"
       id="ellipse2187-4"
       transform="matrix(0.04127556,-0.00985879,0.00338434,0.01233287,30.203843,23.889632)"
       ry="361"
       rx="355"
       cy="518"
       cx="402"
       sodipodi:cx="402"
       sodipodi:cy="518"
       sodipodi:rx="355"
       sodipodi:ry="361" />
    <path
       style="fill:#ff6600;stroke:#7a3100;stroke-width:1.5;stroke-linecap:round;stroke-linejoin:round;stroke-miterlimit:4;stroke-opacity:1;stroke-dasharray:none;display:inline"
       id="path3851"
       d="M 49.68714,3.5495301 C 48.68797,2.7126903 49.30073,1.4629246 49.30073,1.4629246 c 0,0 1.004663,1.0046623 3.477673,1.3137908" />
    <path
       style="fill:#ff6600;stroke:#7a3100;stroke-width:1.5;stroke-linecap:round;stroke-linejoin:round;stroke-miterlimit:4;stroke-opacity:1;stroke-dasharray:none;display:inline"
       id="path3853-8"
       d="M 53.982156,2.8248575 C 53.38134,1.6682861 54.42735,0.7499977 54.42735,0.7499977 c 0,0 0.541391,1.3136175 2.705672,2.5494348" />
    <path
       style="fill:#ff6600;stroke:#7a3100;stroke-width:1.5;stroke-linecap:round;stroke-linejoin:round;stroke-miterlimit:4;stroke-opacity:1;stroke-dasharray:none;display:inline"
       id="path3853"
       d="M 49.68714,3.5495301 C 48.68797,2.7126903 49.30073,1.4629246 49.30073,1.4629246 c 0,0 1.004663,1.0046623 3.477673,1.3137908" />
    <path
       style="fill:#ff6600;stroke:#7a3100;stroke-width:1.5;stroke-linecap:round;stroke-linejoin:round;stroke-miterlimit:4;stroke-opacity:1;stroke-dasharray:none;display:inline"
       id="path3847"
       d="m 48.523289,16.675328 7.419037,4.018649 -1.854763,-5.100588 8.655551,2.009321 c 0,0 -4.618093,-2.881311 -6.646226,-5.177874 8.482175,1.722086 12.128545,-3.2553679 6.027969,-7.5736026 C 55.95054,0.4808015 46.950685,2.1178335 49.296104,8.7926013 44.076667,4.7907917 27.643705,4.5373314 29.694105,18.833212 11.966425,3.3263209 -8.869834,34.710301 5.600976,41.562845 19.892975,48.330721 28.304915,23.714386 16.265835,24.628122 c 1.84112,-11.327063 10.87476,-6.609838 13.5906,-3.632629 l -1.05543,11.105256 4.79146,-8.655546 3.709523,1.236505 -0.519943,-3.426912 c 3.59435,1.67963 9.923125,-0.98372 11.741244,-4.579468 z" />
    <path
       style="color:#000000;fill:#3c1800;fill-opacity:1;stroke:#451c00;stroke-width:1.08194327;stroke-linecap:round;stroke-linejoin:miter;stroke-miterlimit:4;stroke-opacity:1;stroke-dasharray:none;stroke-dashoffset:0;marker:none;visibility:visible;display:inline;overflow:visible;enable-background:accumulate"
       id="path3849"
       d="m 59.985453,7.0881216 a 1.159225,0.77281663 18.615692 1 1 -2.19715,-0.7400925 1.159225,0.77281663 18.615692 1 1 2.19715,0.7400925 z" />
  </g>
</svg>
