<?xml version="1.0" encoding="UTF-8" standalone="no"?>
<!-- Created with Inkscape (http://www.inkscape.org/) -->

<svg
   xmlns:dc="http://purl.org/dc/elements/1.1/"
   xmlns:cc="http://creativecommons.org/ns#"
   xmlns:rdf="http://www.w3.org/1999/02/22-rdf-syntax-ns#"
   xmlns:svg="http://www.w3.org/2000/svg"
   xmlns="http://www.w3.org/2000/svg"
   xmlns:xlink="http://www.w3.org/1999/xlink"
   xmlns:sodipodi="http://sodipodi.sourceforge.net/DTD/sodipodi-0.dtd"
   xmlns:inkscape="http://www.inkscape.org/namespaces/inkscape"
   width="141.2413"
   height="71.031113"
   id="svg2347"
   sodipodi:version="0.32"
   inkscape:version="0.91 r13725"
   version="1.0"
   sodipodi:docname="za-carotte.svg"
   inkscape:output_extension="org.inkscape.output.svgz.inkscape">
  <defs
     id="defs2349">
    <linearGradient
       id="linearGradient3328">
      <stop
         style="stop-color:#ff9900;stop-opacity:1;"
         offset="0"
         id="stop3330" />
      <stop
         style="stop-color:#a46200;stop-opacity:1;"
         offset="1"
         id="stop3332" />
    </linearGradient>
    <linearGradient
       inkscape:collect="always"
       xlink:href="#linearGradient3328"
       id="linearGradient3334"
       x1="396.53333"
       y1="279.90436"
       x2="430.80933"
       y2="399.69745"
       gradientUnits="userSpaceOnUse" />
  </defs>
  <sodipodi:namedview
     id="base"
     pagecolor="#ffffff"
     bordercolor="#666666"
     borderopacity="1.0"
     inkscape:pageopacity="0.0"
     inkscape:pageshadow="2"
     inkscape:zoom="4.6940943"
     inkscape:cx="70.620651"
     inkscape:cy="35.515556"
     inkscape:document-units="px"
     inkscape:current-layer="layer1"
     showgrid="false"
     inkscape:window-width="1280"
     inkscape:window-height="972"
     inkscape:window-x="-8"
     inkscape:window-y="-8"
     inkscape:window-maximized="1" />
  <metadata
     id="metadata2352">
    <rdf:RDF>
      <cc:Work
         rdf:about="">
        <dc:format>image/svg+xml</dc:format>
        <dc:type
           rdf:resource="http://purl.org/dc/dcmitype/StillImage" />
        <dc:title></dc:title>
        <dc:creator>
          <cc:Agent>
            <dc:title>JEM</dc:title>
          </cc:Agent>
        </dc:creator>
        <dc:subject>
          <rdf:Bag>
            <rdf:li>z'animo</rdf:li>
          </rdf:Bag>
        </dc:subject>
      </cc:Work>
    </rdf:RDF>
  </metadata>
  <g
     inkscape:label="Calque 1"
     inkscape:groupmode="layer"
     id="layer1"
     transform="translate(-5.0834639e-2,-3.9802699)">
    <path
       transform="matrix(0.1496054,0,0,0.1496054,5.5699e-3,0)"
       style="fill:#99cc00;stroke:#000000;stroke-width:46.78975677;stroke-linecap:round;stroke-linejoin:round;stroke-miterlimit:4;stroke-dasharray:none;stroke-opacity:1"
       d="M 434,299 L 432,296 L 431,292 L 428,287 L 427,282 L 426,278 L 425,275 L 426,272 L 427,269 L 429,267 L 432,264 L 435,262 L 439,258 L 443,255 L 449,251 L 455,246 L 458,243 L 461,240 L 465,237 L 468,233 L 472,229 L 476,224 L 480,219 L 485,213 L 490,207 L 495,200 L 500,192 L 505,185 L 510,177 L 516,168 L 527,152 L 539,135 L 551,118 L 557,110 L 563,102 L 569,95 L 575,88 L 581,81 L 586,75 L 592,69 L 598,64 L 603,60 L 608,56 L 614,53 L 619,51 L 624,50 L 626,50 L 628,50 L 630,50 L 633,51 L 635,52 L 637,53 L 639,54 L 640,56 L 642,58 L 643,59 L 643,61 L 644,64 L 644,66 L 644,68 L 643,73 L 642,79 L 639,85 L 636,92 L 632,99 L 628,106 L 623,113 L 618,120 L 612,128 L 606,136 L 594,152 L 582,167 L 576,175 L 570,182 L 564,189 L 559,196 L 554,203 L 550,209 L 546,215 L 543,221 L 541,226 L 539,230 L 538,234 L 538,235 L 538,237 L 539,238 L 540,240 L 541,241 L 542,241 L 544,242 L 546,242 L 550,242 L 555,242 L 561,240 L 568,237 L 575,234 L 583,230 L 592,226 L 601,221 L 611,216 L 621,211 L 631,205 L 642,199 L 653,193 L 675,181 L 698,169 L 709,164 L 720,158 L 731,154 L 742,149 L 752,145 L 763,142 L 772,140 L 782,138 L 791,137 L 799,137 L 803,137 L 807,138 L 810,138 L 814,140 L 817,141 L 820,143 L 823,144 L 825,147 L 828,149 L 830,151 L 831,154 L 832,156 L 832,158 L 832,160 L 831,162 L 830,164 L 829,166 L 827,168 L 825,169 L 823,171 L 820,173 L 817,174 L 813,176 L 809,178 L 805,179 L 801,181 L 792,183 L 782,186 L 771,189 L 759,191 L 747,194 L 735,196 L 722,198 L 697,203 L 684,205 L 672,208 L 660,210 L 649,212 L 638,215 L 628,217 L 623,219 L 619,220 L 615,221 L 611,222 L 607,224 L 604,225 L 601,227 L 598,228 L 595,230 L 594,231 L 592,233 L 591,235 L 590,236 L 589,238 L 589,240 L 590,242 L 591,243 L 592,245 L 594,247 L 596,249 L 599,251 L 602,253 L 606,255 L 609,257 L 613,259 L 618,261 L 623,263 L 628,265 L 633,267 L 639,269 L 651,273 L 663,277 L 677,281 L 691,285 L 706,290 L 721,294 L 736,298 L 767,307 L 783,312 L 798,316 L 813,321 L 827,326 L 841,330 L 854,335 L 866,340 L 872,342 L 878,344 L 883,347 L 888,349 L 893,351 L 897,354 L 901,356 L 905,359 L 908,361 L 911,363 L 914,366 L 916,368 L 918,371 L 919,373 L 920,376 L 921,378 L 921,381 L 920,383 L 919,386 L 918,388 L 916,389 L 914,391 L 912,392 L 909,393 L 906,393 L 903,394 L 899,394 L 895,394 L 891,393 L 886,393 L 877,391 L 866,389 L 855,385 L 843,382 L 830,377 L 817,372 L 803,367 L 789,362 L 775,356 L 761,350 L 732,338 L 718,332 L 704,326 L 690,320 L 677,314 L 664,309 L 652,304 L 641,300 L 631,296 L 621,293 L 617,291 L 612,290 L 608,289 L 605,288 L 602,288 L 599,287 L 596,287 L 593,287 L 591,288 L 590,288 L 590,289 L 590,289 L 591,290 L 592,290 L 594,293 L 596,296 L 600,301 L 604,305 L 608,311 L 613,317 L 619,324 L 624,331 L 630,339 L 637,347 L 643,355 L 650,364 L 664,381 L 677,399 L 684,407 L 690,416 L 696,424 L 702,432 L 708,439 L 713,446 L 717,453 L 721,459 L 725,464 L 728,468 L 730,472 L 731,475 L 732,477 L 732,478 L 732,478 L 730,478 L 728,477 L 725,476 L 722,474 L 718,471 L 714,468 L 709,464 L 704,460 L 698,455 L 693,450 L 687,445 L 680,439 L 674,433 L 667,426 L 653,413 L 638,399 L 623,386 L 608,372 L 594,359 L 587,353 L 580,347 L 573,342 L 567,337 L 560,332 L 554,328 L 548,324 L 543,321 L 538,318 L 534,316 L 529,314 L 525,313 L 520,312 L 516,311 L 512,310 L 508,310 L 499,310 L 492,310 L 484,311 L 477,313 L 470,314 L 463,314 L 457,314 L 455,314 L 452,314 L 449,313 L 447,312 L 444,311 L 442,309 L 440,307 L 438,305 L 436,302 L 434,299 z "
       id="path2357" />
    <path
       transform="matrix(0.1496054,0,0,0.1496054,5.5699081e-3,0)"
       style="fill:url(#linearGradient3334);stroke:#000000;stroke-width:23.39487839;stroke-linecap:round;stroke-linejoin:round;stroke-miterlimit:4;stroke-dasharray:none;stroke-opacity:1;fill-opacity:1.0"
       d="M 12,340 L 12,338 L 13,336 L 14,335 L 15,333 L 17,331 L 19,329 L 22,327 L 25,325 L 28,323 L 32,320 L 36,318 L 40,316 L 45,313 L 49,311 L 54,308 L 60,305 L 71,300 L 84,294 L 97,289 L 111,283 L 125,277 L 140,272 L 156,266 L 171,260 L 203,249 L 236,238 L 252,233 L 267,228 L 283,223 L 298,219 L 312,215 L 326,211 L 339,208 L 351,205 L 357,204 L 362,202 L 368,201 L 373,200 L 377,199 L 382,199 L 386,198 L 390,198 L 397,197 L 404,197 L 411,197 L 417,198 L 423,199 L 428,201 L 433,202 L 438,205 L 443,207 L 447,210 L 451,212 L 455,216 L 458,219 L 462,222 L 467,230 L 472,238 L 476,246 L 479,254 L 481,263 L 483,271 L 484,278 L 485,285 L 485,292 L 485,298 L 484,304 L 483,311 L 481,318 L 479,326 L 476,333 L 472,340 L 467,348 L 462,354 L 458,358 L 455,361 L 451,364 L 447,367 L 443,370 L 438,372 L 433,375 L 428,377 L 423,379 L 417,381 L 411,383 L 404,384 L 397,385 L 390,386 L 386,387 L 382,387 L 377,387 L 373,388 L 368,388 L 362,388 L 357,388 L 351,388 L 339,388 L 326,388 L 312,387 L 298,387 L 283,386 L 267,385 L 252,385 L 236,383 L 203,381 L 171,378 L 156,376 L 140,374 L 125,372 L 111,370 L 97,368 L 84,366 L 71,364 L 60,361 L 54,360 L 49,359 L 44,357 L 40,356 L 36,355 L 32,353 L 28,352 L 25,351 L 22,349 L 19,348 L 17,347 L 15,345 L 14,344 L 13,342 L 12,341 L 12,339 L 12,340 z "
       id="path2322" />
    <path
       transform="matrix(0.1496054,0,0,0.1496054,5.5699081e-3,0)"
       style="fill:#99cc00"
       d="M 434,299 L 432,296 L 431,292 L 428,287 L 427,282 L 426,278 L 425,275 L 426,272 L 427,269 L 429,267 L 432,264 L 435,262 L 439,258 L 443,255 L 449,251 L 455,246 L 458,243 L 461,240 L 465,237 L 468,233 L 472,229 L 476,224 L 480,219 L 485,213 L 490,207 L 495,200 L 500,192 L 505,185 L 510,177 L 516,168 L 527,152 L 539,135 L 551,118 L 557,110 L 563,102 L 569,95 L 575,88 L 581,81 L 586,75 L 592,69 L 598,64 L 603,60 L 608,56 L 614,53 L 619,51 L 624,50 L 626,50 L 628,50 L 630,50 L 633,51 L 635,52 L 637,53 L 639,54 L 640,56 L 642,58 L 643,59 L 643,61 L 644,64 L 644,66 L 644,68 L 643,73 L 642,79 L 639,85 L 636,92 L 632,99 L 628,106 L 623,113 L 618,120 L 612,128 L 606,136 L 594,152 L 582,167 L 576,175 L 570,182 L 564,189 L 559,196 L 554,203 L 550,209 L 546,215 L 543,221 L 541,226 L 539,230 L 538,234 L 538,235 L 538,237 L 539,238 L 540,240 L 541,241 L 542,241 L 544,242 L 546,242 L 550,242 L 555,242 L 561,240 L 568,237 L 575,234 L 583,230 L 592,226 L 601,221 L 611,216 L 621,211 L 631,205 L 642,199 L 653,193 L 675,181 L 698,169 L 709,164 L 720,158 L 731,154 L 742,149 L 752,145 L 763,142 L 772,140 L 782,138 L 791,137 L 799,137 L 803,137 L 807,138 L 810,138 L 814,140 L 817,141 L 820,143 L 823,144 L 825,147 L 828,149 L 830,151 L 831,154 L 832,156 L 832,158 L 832,160 L 831,162 L 830,164 L 829,166 L 827,168 L 825,169 L 823,171 L 820,173 L 817,174 L 813,176 L 809,178 L 805,179 L 801,181 L 792,183 L 782,186 L 771,189 L 759,191 L 747,194 L 735,196 L 722,198 L 697,203 L 684,205 L 672,208 L 660,210 L 649,212 L 638,215 L 628,217 L 623,219 L 619,220 L 615,221 L 611,222 L 607,224 L 604,225 L 601,227 L 598,228 L 595,230 L 594,231 L 592,233 L 591,235 L 590,236 L 589,238 L 589,240 L 590,242 L 591,243 L 592,245 L 594,247 L 596,249 L 599,251 L 602,253 L 606,255 L 609,257 L 613,259 L 618,261 L 623,263 L 628,265 L 633,267 L 639,269 L 651,273 L 663,277 L 677,281 L 691,285 L 706,290 L 721,294 L 736,298 L 767,307 L 783,312 L 798,316 L 813,321 L 827,326 L 841,330 L 854,335 L 866,340 L 872,342 L 878,344 L 883,347 L 888,349 L 893,351 L 897,354 L 901,356 L 905,359 L 908,361 L 911,363 L 914,366 L 916,368 L 918,371 L 919,373 L 920,376 L 921,378 L 921,381 L 920,383 L 919,386 L 918,388 L 916,389 L 914,391 L 912,392 L 909,393 L 906,393 L 903,394 L 899,394 L 895,394 L 891,393 L 886,393 L 877,391 L 866,389 L 855,385 L 843,382 L 830,377 L 817,372 L 803,367 L 789,362 L 775,356 L 761,350 L 732,338 L 718,332 L 704,326 L 690,320 L 677,314 L 664,309 L 652,304 L 641,300 L 631,296 L 621,293 L 617,291 L 612,290 L 608,289 L 605,288 L 602,288 L 599,287 L 596,287 L 593,287 L 591,288 L 590,288 L 590,289 L 590,289 L 591,290 L 592,290 L 594,293 L 596,296 L 600,301 L 604,305 L 608,311 L 613,317 L 619,324 L 624,331 L 630,339 L 637,347 L 643,355 L 650,364 L 664,381 L 677,399 L 684,407 L 690,416 L 696,424 L 702,432 L 708,439 L 713,446 L 717,453 L 721,459 L 725,464 L 728,468 L 730,472 L 731,475 L 732,477 L 732,478 L 732,478 L 730,478 L 728,477 L 725,476 L 722,474 L 718,471 L 714,468 L 709,464 L 704,460 L 698,455 L 693,450 L 687,445 L 680,439 L 674,433 L 667,426 L 653,413 L 638,399 L 623,386 L 608,372 L 594,359 L 587,353 L 580,347 L 573,342 L 567,337 L 560,332 L 554,328 L 548,324 L 543,321 L 538,318 L 534,316 L 529,314 L 525,313 L 520,312 L 516,311 L 512,310 L 508,310 L 499,310 L 492,310 L 484,311 L 477,313 L 470,314 L 463,314 L 457,314 L 455,314 L 452,314 L 449,313 L 447,312 L 444,311 L 442,309 L 440,307 L 438,305 L 436,302 L 434,299 z "
       id="path2326" />
  </g>
</svg>
