<?xml version="1.0" encoding="UTF-8" standalone="no"?>
<svg
   xmlns:dc="http://purl.org/dc/elements/1.1/"
   xmlns:cc="http://creativecommons.org/ns#"
   xmlns:rdf="http://www.w3.org/1999/02/22-rdf-syntax-ns#"
   xmlns:svg="http://www.w3.org/2000/svg"
   xmlns="http://www.w3.org/2000/svg"
   xmlns:xlink="http://www.w3.org/1999/xlink"
   xmlns:sodipodi="http://sodipodi.sourceforge.net/DTD/sodipodi-0.dtd"
   xmlns:inkscape="http://www.inkscape.org/namespaces/inkscape"
   width="142.14355"
   height="138.38597"
   id="svg5323"
   sodipodi:version="0.32"
   inkscape:version="0.91 r13725"
   inkscape:output_extension="org.inkscape.output.svgz.inkscape"
   sodipodi:docname="za-cochon.svg"
   version="1.0"
   inkscape:export-filename="C:\Documents and Settings\jmviglino\Mes documents\svg\tictac.png"
   inkscape:export-xdpi="600"
   inkscape:export-ydpi="600">
  <metadata
     id="metadata5454">
    <rdf:RDF>
      <cc:Work
         rdf:about="">
        <dc:format>image/svg+xml</dc:format>
        <dc:type
           rdf:resource="http://purl.org/dc/dcmitype/StillImage" />
        <dc:title></dc:title>
        <dc:creator>
          <cc:Agent>
            <dc:title>JEM</dc:title>
          </cc:Agent>
        </dc:creator>
        <dc:subject>
          <rdf:Bag>
            <rdf:li>z'animo</rdf:li>
          </rdf:Bag>
        </dc:subject>
      </cc:Work>
    </rdf:RDF>
  </metadata>
  <defs
     id="defs5452">
    <linearGradient
       id="linearGradient6059">
      <stop
         style="stop-color:#ff99cc;stop-opacity:1;"
         offset="0"
         id="stop6061" />
      <stop
         style="stop-color:#ff99cc;stop-opacity:1;"
         offset="1"
         id="stop6063" />
    </linearGradient>
    <linearGradient
       inkscape:collect="always"
       xlink:href="#linearGradient5827"
       id="linearGradient5869"
       x1="76.839859"
       y1="21.099823"
       x2="76.839859"
       y2="59.02837"
       gradientUnits="userSpaceOnUse"
       gradientTransform="translate(-13.625491,70.138458)" />
    <linearGradient
       inkscape:collect="always"
       xlink:href="#linearGradient5827"
       id="linearGradient5841"
       x1="115"
       y1="319"
       x2="815"
       y2="319"
       gradientUnits="userSpaceOnUse" />
    <linearGradient
       inkscape:collect="always"
       xlink:href="#linearGradient5827"
       id="linearGradient5833"
       x1="382.83105"
       y1="353.36514"
       x2="560.6131"
       y2="575"
       gradientUnits="userSpaceOnUse" />
    <linearGradient
       inkscape:collect="always"
       xlink:href="#linearGradient5827"
       id="linearGradient5851"
       x1="427.52588"
       y1="464.61035"
       x2="392.75204"
       y2="424.1662"
       gradientUnits="userSpaceOnUse" />
    <linearGradient
       inkscape:collect="always"
       xlink:href="#linearGradient5827"
       id="linearGradient5849"
       x1="541.74933"
       y1="466.8338"
       x2="504.1662"
       y2="425.52863"
       gradientUnits="userSpaceOnUse" />
    <linearGradient
       inkscape:collect="always"
       xlink:href="#linearGradient5827"
       id="linearGradient5861"
       x1="110.57078"
       y1="-43.63372"
       x2="142.2029"
       y2="-7.9837265"
       gradientUnits="userSpaceOnUse"
       gradientTransform="translate(-13.625491,70.138458)" />
    <linearGradient
       id="linearGradient5827">
      <stop
         style="stop-color:#ff99cc;stop-opacity:1;"
         offset="0"
         id="stop5829" />
      <stop
         style="stop-color:#a84476;stop-opacity:1;"
         offset="1"
         id="stop5831" />
    </linearGradient>
    <linearGradient
       inkscape:collect="always"
       xlink:href="#linearGradient5827"
       id="linearGradient5859"
       x1="18.884768"
       y1="-36.421455"
       x2="41.459873"
       y2="-7.9837265"
       gradientUnits="userSpaceOnUse"
       gradientTransform="translate(-13.625491,70.138458)" />
    <linearGradient
       id="linearGradient4370">
      <stop
         style="stop-color:#e7e7e7;stop-opacity:1;"
         offset="0"
         id="stop4372" />
      <stop
         style="stop-color:#b5b5b5;stop-opacity:1;"
         offset="1"
         id="stop4374" />
    </linearGradient>
    <linearGradient
       id="linearGradient10371">
      <stop
         id="stop10373"
         offset="0"
         style="stop-color:#ffffff;stop-opacity:1;" />
      <stop
         style="stop-color:#ffffff;stop-opacity:1;"
         offset="0.72500002"
         id="stop10377" />
      <stop
         id="stop10375"
         offset="1"
         style="stop-color:#bbbbbb;stop-opacity:1;" />
    </linearGradient>
    <linearGradient
       id="linearGradient7396">
      <stop
         style="stop-color:#ffffff;stop-opacity:1;"
         offset="0"
         id="stop7398" />
      <stop
         style="stop-color:#000000;stop-opacity:1;"
         offset="1"
         id="stop7400" />
    </linearGradient>
    <radialGradient
       inkscape:collect="always"
       xlink:href="#linearGradient10371"
       id="radialGradient10449"
       gradientUnits="userSpaceOnUse"
       gradientTransform="matrix(-1.0116561e-2,1.2900781,-1.2764138,-1.6513077e-2,108.81931,-9.0482603)"
       cx="43.378098"
       cy="52.918861"
       fx="43.378098"
       fy="52.918861"
       r="14.08727" />
    <radialGradient
       inkscape:collect="always"
       xlink:href="#linearGradient10371"
       id="radialGradient10451"
       gradientUnits="userSpaceOnUse"
       gradientTransform="matrix(-2.7798347e-2,1.1860934,-1.1864193,-2.7805985e-2,96.722101,-4.6633809)"
       cx="42.645226"
       cy="44.580708"
       fx="42.645226"
       fy="44.580708"
       r="14.08727" />
    <radialGradient
       inkscape:collect="always"
       xlink:href="#linearGradient7396"
       id="radialGradient10453"
       gradientUnits="userSpaceOnUse"
       gradientTransform="matrix(0.548023,-4.5834327e-2,5.4508166e-2,0.6517326,23.274469,19.49083)"
       cx="57.390118"
       cy="48.883465"
       fx="57.390118"
       fy="48.883465"
       r="4.9099026" />
    <radialGradient
       inkscape:collect="always"
       xlink:href="#linearGradient7396"
       id="radialGradient10455"
       gradientUnits="userSpaceOnUse"
       gradientTransform="matrix(0.6896268,0,0,0.6896268,19.836006,15.712507)"
       cx="63.910179"
       cy="50.816406"
       fx="63.910179"
       fy="50.816406"
       r="2.9176619" />
    <radialGradient
       inkscape:collect="always"
       xlink:href="#linearGradient4370"
       id="radialGradient4561"
       gradientUnits="userSpaceOnUse"
       gradientTransform="matrix(0.1554984,0.1994531,-0.1409417,0.1098816,42.89686,-30.948471)"
       cx="291.27371"
       cy="284.51001"
       fx="291.27371"
       fy="284.51001"
       r="226" />
    <linearGradient
       inkscape:collect="always"
       xlink:href="#linearGradient4370"
       id="linearGradient4563"
       gradientUnits="userSpaceOnUse"
       gradientTransform="matrix(0.1853387,0,0,0.1853387,-5.8941716,8.2533898)"
       x1="137.59026"
       y1="180.82201"
       x2="180.8329"
       y2="212.27121" />
    <linearGradient
       inkscape:collect="always"
       xlink:href="#linearGradient4370"
       id="linearGradient4565"
       gradientUnits="userSpaceOnUse"
       gradientTransform="matrix(0.1853387,0,0,0.1853387,-5.8941716,8.2533898)"
       x1="541.51593"
       y1="163.13184"
       x2="590"
       y2="211.28842" />
    <linearGradient
       inkscape:collect="always"
       xlink:href="#linearGradient4370"
       id="linearGradient4567"
       gradientUnits="userSpaceOnUse"
       gradientTransform="matrix(0.1853387,0,0,0.1853387,-5.8941716,8.2533898)"
       x1="195.57471"
       y1="559.19519"
       x2="201.47144"
       y2="631.92145" />
    <linearGradient
       inkscape:collect="always"
       xlink:href="#linearGradient4370"
       id="linearGradient4569"
       gradientUnits="userSpaceOnUse"
       gradientTransform="matrix(0.1853387,0,0,0.1853387,-5.8941716,8.2533898)"
       x1="511.0495"
       y1="562.14355"
       x2="518.9118"
       y2="633.88702" />
    <linearGradient
       inkscape:collect="always"
       xlink:href="#linearGradient4370"
       id="linearGradient4571"
       gradientUnits="userSpaceOnUse"
       gradientTransform="matrix(0.1853387,0,0,0.1853387,-5.8941716,8.2533898)"
       x1="284.02557"
       y1="503.1763"
       x2="328.25104"
       y2="538.55664" />
    <linearGradient
       inkscape:collect="always"
       xlink:href="#linearGradient4370"
       id="linearGradient4573"
       gradientUnits="userSpaceOnUse"
       gradientTransform="matrix(0.1853387,0,0,0.1853387,-5.8941716,8.2533898)"
       x1="415.71912"
       y1="503.1763"
       x2="456.99619"
       y2="546.41895" />
    <radialGradient
       inkscape:collect="always"
       xlink:href="#linearGradient7396"
       id="radialGradient4597"
       gradientUnits="userSpaceOnUse"
       gradientTransform="matrix(0.5134748,0,0,0.2922012,31.193043,52.022709)"
       cx="61.997612"
       cy="70.201492"
       fx="61.997612"
       fy="70.201492"
       r="11.366768" />
    <linearGradient
       inkscape:collect="always"
       xlink:href="#linearGradient6059"
       id="linearGradient6065"
       x1="240"
       y1="179"
       x2="690"
       y2="179"
       gradientUnits="userSpaceOnUse" />
  </defs>
  <sodipodi:namedview
     inkscape:window-height="968"
     inkscape:window-width="1280"
     inkscape:pageshadow="2"
     inkscape:pageopacity="0.0"
     guidetolerance="10.0"
     gridtolerance="10.0"
     objecttolerance="10.0"
     borderopacity="1.0"
     bordercolor="#666666"
     pagecolor="#ffffff"
     id="base"
     inkscape:zoom="2.6227735"
     inkscape:cx="80.650777"
     inkscape:cy="70.411304"
     inkscape:window-x="0"
     inkscape:window-y="22"
     inkscape:current-layer="layer5"
     showgrid="false"
     inkscape:window-maximized="0" />
  <g
     inkscape:groupmode="layer"
     id="layer4"
     inkscape:label="fond"
     style="display:inline"
     transform="translate(10.1357,1.7590128)">
    <path
       style="fill:none;fill-opacity:1;stroke:#000000;stroke-width:7;stroke-linecap:round;stroke-linejoin:round;stroke-miterlimit:4;stroke-dasharray:none;stroke-opacity:1;display:inline"
       d="M 26.635061,91.238281 L 29.783281,119.87208 L 36.379549,129.16683 L 42.076327,120.47174 L 47.92302,127.36784 L 63.514201,101.88226 L 77.156484,127.9675 L 81.054279,123.61996 L 83.602837,128.56716 L 90.798769,121.82098 L 99.793679,93.786839 L 26.635061,91.238281 z "
       id="path6068"
       transform="translate(-2.68806,3.9601239)" />
    <ellipse
       transform="matrix(0.1499152,0,0,0.1499152,-10.083751,17.842166)"
       style="fill:none;fill-opacity:1;stroke:#000000;stroke-width:46.69306564;stroke-linecap:round;stroke-linejoin:round;stroke-miterlimit:4;stroke-dasharray:none;stroke-opacity:1;display:inline"
       cx="465"
       cy="319"
       rx="350"
       ry="319"
       id="ellipse6070"
       sodipodi:cx="465"
       sodipodi:cy="319"
       sodipodi:rx="350"
       sodipodi:ry="319" />
    <path
       style="fill:none;fill-opacity:1;stroke:#000000;stroke-width:7;stroke-linecap:round;stroke-linejoin:round;stroke-miterlimit:4;stroke-dasharray:none;stroke-opacity:1;display:inline"
       d="M 100.09351,23.776441 L 100.39334,23.776441 L 100.69317,23.926356 L 101.14292,23.926356 L 101.44275,24.076271 L 101.89249,24.376102 L 102.34224,24.526017 L 103.24173,25.125678 L 104.14122,25.875254 L 105.19063,26.62483 L 106.38995,27.524321 L 107.58927,28.723643 L 108.78859,29.773049 L 109.98791,31.122286 L 111.33715,32.321607 L 112.68639,33.820759 L 114.03563,35.169996 L 115.23495,36.669148 L 117.93342,39.667452 L 119.13274,41.316519 L 120.33207,42.815671 L 121.53139,44.314823 L 122.58079,45.813975 L 123.6302,47.313127 L 124.67961,48.812279 L 125.5791,50.311431 L 126.32867,51.660668 L 127.07825,52.85999 L 127.528,54.059311 L 127.97774,55.108718 L 128.42749,56.158124 L 128.5774,57.057615 L 128.5774,57.507361 L 128.5774,57.807191 L 128.5774,58.107022 L 128.42749,58.406852 L 128.42749,58.706683 L 128.27757,58.856598 L 127.97774,59.156428 L 127.528,59.456259 L 127.07825,59.756089 L 126.6285,59.906004 L 126.02884,60.205834 L 125.42918,60.355749 L 124.67961,60.505664 L 123.93003,60.805494 L 123.18046,60.95541 L 122.28096,61.105325 L 121.53139,61.25524 L 120.6319,61.405155 L 118.683,61.55507 L 116.58419,61.704986 L 114.48537,61.854901 L 112.23664,62.004816 L 109.98791,62.154731 L 107.73919,62.154731 L 105.49046,62.154731 L 103.24173,62.004816 L 100.993,62.004816 L 98.894189,61.854901 L 98.744269,60.95541 L 98.744269,59.906004 L 98.594359,58.706683 L 98.444439,57.507361 L 98.294529,56.158124 L 98.144609,54.808887 L 97.994699,53.459651 L 97.844779,51.960499 L 97.694869,50.461346 L 97.694869,48.812279 L 97.395039,45.66406 L 97.095209,42.365925 L 96.945289,39.217706 L 96.945289,37.718554 L 96.945289,36.219402 L 96.945289,34.72025 L 96.945289,33.371013 L 96.945289,32.021777 L 97.095209,30.67254 L 97.095209,29.473219 L 97.245119,28.423812 L 97.544949,27.374406 L 97.694869,26.474915 L 97.994699,25.725339 L 98.294529,24.975763 L 98.744269,24.526017 L 98.894189,24.226187 L 99.194019,24.076271 L 99.343929,23.926356 L 99.643759,23.926356 L 99.793679,23.776441 L 100.09351,23.776441 z "
       id="path6072"
       transform="translate(-2.68806,3.9601239)" />
    <path
       style="fill:none;fill-opacity:1;stroke:#000000;stroke-width:7;stroke-linecap:round;stroke-linejoin:round;stroke-miterlimit:4;stroke-dasharray:none;stroke-opacity:1;display:inline"
       d="M 24.536249,23.17678 L 24.236418,23.17678 L 23.936587,23.326695 L 23.636757,23.326695 L 23.187011,23.476611 L 22.737266,23.776441 L 22.437435,23.926356 L 21.537944,24.526017 L 20.488538,25.275593 L 19.439131,26.025169 L 18.23981,26.92466 L 17.040488,28.123982 L 15.841167,29.173388 L 14.641845,30.522625 L 13.292608,31.721947 L 11.943371,33.071183 L 10.74405,34.570335 L 9.3948125,36.069487 L 6.8462545,39.067791 L 5.4970175,40.716858 L 4.2976955,42.21601 L 3.0983745,43.715162 L 2.0489685,45.214314 L 0.99956155,46.713466 L 0.10007055,48.212618 L -0.79942045,49.561855 L -1.6989115,50.911092 L -2.2985725,52.260329 L -2.8982335,53.459651 L -3.3479795,54.509057 L -3.797725,55.558463 L -3.94764,56.457955 L -3.94764,56.757785 L -3.94764,57.207531 L -3.94764,57.507361 L -3.797725,57.807191 L -3.797725,58.107022 L -3.64781,58.256937 L -3.1980635,58.556767 L -2.8982335,58.856598 L -2.4484875,59.006513 L -1.8488275,59.306343 L -1.3990815,59.456259 L -0.64950545,59.756089 L -0.049844453,59.906004 L 0.69973155,60.055919 L 1.4493075,60.205834 L 2.3487985,60.355749 L 3.2482895,60.505664 L 4.1477805,60.655579 L 6.0966785,60.95541 L 8.0455755,61.105325 L 10.144389,61.25524 L 12.393117,61.405155 L 14.641845,61.405155 L 16.890573,61.55507 L 19.289216,61.405155 L 21.388029,61.405155 L 23.636757,61.405155 L 25.73557,61.25524 L 25.885485,60.355749 L 25.885485,59.306343 L 26.035401,58.107022 L 26.185316,56.9077 L 26.335231,55.558463 L 26.485146,54.209227 L 26.635061,52.710075 L 26.784977,51.360837 L 26.934892,49.71177 L 27.084807,48.212618 L 27.234722,45.064399 L 27.534553,41.766265 L 27.684468,38.618045 L 27.684468,37.118893 L 27.684468,35.619741 L 27.834383,34.120589 L 27.684468,32.771353 L 27.684468,31.422116 L 27.534553,30.072879 L 27.534553,28.873558 L 27.384637,27.824151 L 27.084807,26.774745 L 26.934892,25.875254 L 26.635061,25.125678 L 26.335231,24.376102 L 25.885485,23.926356 L 25.585655,23.476611 L 25.285825,23.326695 L 25.135909,23.326695 L 24.836079,23.17678 L 24.536249,23.17678 z "
       id="path6074"
       transform="translate(-2.68806,3.9601239)" />
    <path
       style="fill:none;fill-opacity:1;fill-rule:evenodd;stroke:#000000;stroke-width:7;stroke-linecap:round;stroke-linejoin:round;stroke-miterlimit:4;stroke-dasharray:none;stroke-opacity:1;display:inline"
       d="M 44.638748,21.50664 C 44.638748,21.50664 57.135531,20.782189 58.765546,22.593317 C 60.395562,24.404445 62.025577,30.381166 62.025577,30.381166 C 62.025577,30.381166 63.112254,23.679993 65.828946,21.868865 C 68.545638,20.057737 83.940228,27.121137 83.940228,27.121137 C 83.940228,27.121137 73.797908,21.144414 73.979018,18.789948 C 74.160138,16.435481 87.200258,10.458759 87.200258,10.458759 C 87.200258,10.458759 73.797908,14.805466 72.892348,13.537677 C 71.986778,12.269887 80.861308,-2.2191367 80.861308,-2.2191367 C 80.861308,-2.2191367 66.915618,15.529917 64.380043,14.986579 C 61.844464,14.443241 66.734508,2.3086833 66.734508,2.3086833 C 66.734508,2.3086833 60.757787,12.632113 57.497757,15.529917 C 54.237726,18.427722 44.457635,21.687753 44.638748,21.50664 z "
       id="path6076"
       transform="translate(-2.68806,3.9601239)" />
    <path
       style="fill:none;fill-opacity:1;stroke:#000000;stroke-width:12;stroke-linecap:round;stroke-linejoin:round;stroke-miterlimit:4;stroke-dasharray:none;stroke-opacity:1;display:inline"
       d="M 101.89249,90.488704 C 104.42746,94.303155 104.60325,102.95364 110.3424,102.09004 C 115.35013,101.3365 121.74618,94.976774 120.98542,90.216972 C 120.12742,84.848798 111.67247,92.321313 110.93916,95.625926 C 110.16939,99.09482 113.57577,102.27671 116.96249,102.71523 C 122.80011,103.10564 127.05022,97.709755 128.69591,92.603439"
       id="path6079"
       sodipodi:nodetypes="cssscc"
       transform="translate(-2.68806,3.9601239)" />
  </g>
  <g
     inkscape:groupmode="layer"
     id="layer5"
     inkscape:label="Cochon"
     style="display:inline"
     transform="translate(7.44764,5.7191367)">
    <path
       style="fill:#000000;fill-opacity:0;stroke:#b75284;stroke-width:5;stroke-linecap:round;stroke-linejoin:round;stroke-miterlimit:4;stroke-dasharray:none;stroke-opacity:1;display:inline"
       d="M 101.89249,90.488704 C 104.42746,94.303155 104.60325,102.95364 110.3424,102.09004 C 115.35013,101.3365 121.74618,94.976774 120.98542,90.216972 C 120.12742,84.848798 111.67247,92.321313 110.93916,95.625926 C 110.16939,99.09482 113.57577,102.27671 116.96249,102.71523 C 122.80011,103.10564 127.05022,97.709755 128.69591,92.603439"
       id="path5771"
       sodipodi:nodetypes="cssscc" />
    <path
       style="fill:url(#linearGradient5869);fill-opacity:1;display:inline"
       d="M 26.635061,91.238281 L 29.783281,119.87208 L 36.379549,129.16683 L 42.076327,120.47174 L 47.92302,127.36784 L 63.514201,101.88226 L 77.156484,127.9675 L 81.054279,123.61996 L 83.602837,128.56716 L 90.798769,121.82098 L 99.793679,93.786839 L 26.635061,91.238281 z "
       id="path5773" />
    <path
       style="fill:none;stroke:none;stroke-width:0.29983041;display:inline"
       d="M 26.635061,91.238281 L 29.783281,119.87208 L 36.379549,129.16683 L 42.076327,120.47174 L 47.92302,127.36784 L 63.514201,101.88226 L 77.156484,127.9675 L 81.054279,123.61996 L 83.602837,128.56716 L 90.798769,121.82098 L 99.793679,93.786839"
       id="path5775" />
    <ellipse
       transform="matrix(0.1499152,0,0,0.1499152,-7.3956905,13.882042)"
       style="fill:url(#linearGradient5841);fill-opacity:1;display:inline"
       cx="465"
       cy="319"
       rx="350"
       ry="319"
       id="ellipse5777"
       sodipodi:cx="465"
       sodipodi:cy="319"
       sodipodi:rx="350"
       sodipodi:ry="319" />
    <ellipse
       transform="matrix(0.1499152,0,0,0.1499152,-7.3956905,13.882042)"
       style="fill:url(#linearGradient6065);fill-opacity:1;display:inline"
       cx="465"
       cy="179"
       rx="225"
       ry="165"
       id="ellipse5779"
       sodipodi:cx="465"
       sodipodi:cy="179"
       sodipodi:rx="225"
       sodipodi:ry="165" />
    <path
       style="fill:#ff3300;fill-opacity:0.49019608;display:inline"
       d="M 103.88256,67.589962 C 103.4311,67.60655 102.9038,67.802626 102.28881,68.277462 C 99.208985,70.927452 100.65366,75.465457 99.070065,78.839962 C 97.953035,81.373997 96.764427,86.423372 92.976315,85.121212 C 90.373915,83.326378 88.446613,77.302963 84.507565,79.996212 C 82.527614,81.470498 83.417781,83.654388 85.351315,84.558712 C 87.450757,85.12717 92.145513,87.403222 88.132565,89.121212 C 85.490478,88.636031 82.255233,94.086108 85.882565,93.527462 C 88.016192,91.007863 92.999194,92.009744 91.632565,95.871212 C 89.788195,98.446146 91.828824,100.67556 94.570065,99.121212 C 94.756252,99.096517 94.931845,99.065688 95.101315,99.027462 C 95.996055,98.373748 96.880925,97.700952 97.726315,96.996212 C 98.263905,95.647362 97.908316,93.885982 97.007565,92.371212 C 96.966754,88.388032 102.07771,90.114026 104.63256,89.933712 C 105.80782,88.473201 106.89205,86.951047 107.88256,85.371212 C 107.58693,84.797538 107.06896,84.310069 106.28881,84.058712 C 103.62969,83.307177 99.616092,86.054981 98.038815,82.808712 C 99.164935,78.91647 101.89834,75.786627 103.94506,72.371212 C 106.16487,71.06658 105.83893,67.518079 103.88256,67.589962 z "
       id="path5781" />
    <path
       style="fill:#0000ff;fill-opacity:0.49019608;display:inline"
       d="M 32.781587,63.803798 C 35.054925,66.606897 31.01703,68.810557 28.93902,69.999646 C 24.978727,71.361708 26.188136,75.687302 29.573638,76.890471 C 32.703438,79.182713 36.557727,79.706992 40.115149,80.945179 C 43.499537,81.620753 43.906665,87.969634 39.664504,85.478056 C 36.099164,82.514957 32.840201,78.81565 28.446568,76.973291 C 25.145416,77.983484 27.288475,82.259844 26.335453,84.722633 C 25.462316,88.143122 20.210409,86.735347 20.608686,83.436289 C 20.337614,80.653843 23.183568,76.363639 19.609951,74.839178 C 16.946046,75.295351 13.21082,76.506812 12.825388,72.382974 C 11.254124,69.359827 13.705314,66.491134 16.378305,69.220276 C 19.799413,70.410955 21.780206,66.43631 19.325137,64.061733 C 18.339802,59.823349 24.17667,63.350151 23.243938,66.132402 C 24.519062,70.767104 27.734619,66.133636 28.436284,63.75965 C 29.548238,62.20762 31.780087,61.985132 32.781587,63.803798 z "
       id="path5783" />
    <path
       style="fill:#ffff00;fill-opacity:0.49019608;display:inline"
       d="M 88.949689,41.975652 C 94.206179,44.428859 99.120089,39.081241 102.09323,35.359947 C 104.29684,32.689457 103.50939,25.480328 107.40555,30.766904 C 110.53627,33.878157 116.94723,41.790447 109.8364,43.987949 C 105.47127,45.811563 97.299729,43.070126 96.530509,49.51794 C 99.597409,54.260514 107.92101,51.306334 110.72841,56.790432 C 113.30409,62.360549 105.71831,68.199676 100.79344,64.694451 C 96.895589,62.303079 88.170969,58.103584 87.083599,65.393034 C 88.261699,70.595128 86.176289,76.731612 79.841464,76.206143 C 75.292169,77.457323 69.046891,73.697865 74.341697,69.468955 C 79.186224,66.490472 78.008299,57.121136 71.324155,58.696688 C 67.324137,61.769515 63.23895,58.086003 67.132478,54.214613 C 70.270565,50.854534 79.469549,55.115325 79.369783,48.154865 C 76.913966,44.162386 69.704943,40.56286 72.840908,34.968386 C 79.261791,27.030702 85.045203,36.67596 88.949689,41.975652 z "
       id="path5785"
       sodipodi:nodetypes="ccccccccccccccc" />
    <ellipse
       transform="matrix(0.1499152,0,0,0.1499152,-7.3956905,13.882042)"
       style="fill:url(#linearGradient5833);fill-opacity:1;display:inline"
       cx="468"
       cy="452"
       rx="141"
       ry="123"
       id="ellipse5787"
       sodipodi:cx="468"
       sodipodi:cy="452"
       sodipodi:rx="141"
       sodipodi:ry="123" />
    <ellipse
       transform="matrix(0.1499152,0,0,0.1499152,-7.3956905,13.882042)"
       style="fill:url(#linearGradient5851);fill-opacity:1;display:inline"
       cx="412"
       cy="446"
       rx="31"
       ry="33"
       id="ellipse5789"
       sodipodi:cx="412"
       sodipodi:cy="446"
       sodipodi:rx="31"
       sodipodi:ry="33" />
    <circle
       transform="matrix(0.1499152,0,0,0.1499152,-7.3956905,13.882042)"
       style="fill:url(#linearGradient5849);fill-opacity:1;display:inline"
       cx="525"
       cy="446"
       r="32"
       id="circle5791"
       sodipodi:cx="525"
       sodipodi:cy="446"
       sodipodi:rx="32"
       sodipodi:ry="32" />
    <path
       style="fill:url(#linearGradient5861);fill-opacity:1;display:inline"
       d="M 100.09351,23.776441 L 100.39334,23.776441 L 100.69317,23.926356 L 101.14292,23.926356 L 101.44275,24.076271 L 101.89249,24.376102 L 102.34224,24.526017 L 103.24173,25.125678 L 104.14122,25.875254 L 105.19063,26.62483 L 106.38995,27.524321 L 107.58927,28.723643 L 108.78859,29.773049 L 109.98791,31.122286 L 111.33715,32.321607 L 112.68639,33.820759 L 114.03563,35.169996 L 115.23495,36.669148 L 117.93342,39.667452 L 119.13274,41.316519 L 120.33207,42.815671 L 121.53139,44.314823 L 122.58079,45.813975 L 123.6302,47.313127 L 124.67961,48.812279 L 125.5791,50.311431 L 126.32867,51.660668 L 127.07825,52.85999 L 127.528,54.059311 L 127.97774,55.108718 L 128.42749,56.158124 L 128.5774,57.057615 L 128.5774,57.507361 L 128.5774,57.807191 L 128.5774,58.107022 L 128.42749,58.406852 L 128.42749,58.706683 L 128.27757,58.856598 L 127.97774,59.156428 L 127.528,59.456259 L 127.07825,59.756089 L 126.6285,59.906004 L 126.02884,60.205834 L 125.42918,60.355749 L 124.67961,60.505664 L 123.93003,60.805494 L 123.18046,60.95541 L 122.28096,61.105325 L 121.53139,61.25524 L 120.6319,61.405155 L 118.683,61.55507 L 116.58419,61.704986 L 114.48537,61.854901 L 112.23664,62.004816 L 109.98791,62.154731 L 107.73919,62.154731 L 105.49046,62.154731 L 103.24173,62.004816 L 100.993,62.004816 L 98.894189,61.854901 L 98.744269,60.95541 L 98.744269,59.906004 L 98.594359,58.706683 L 98.444439,57.507361 L 98.294529,56.158124 L 98.144609,54.808887 L 97.994699,53.459651 L 97.844779,51.960499 L 97.694869,50.461346 L 97.694869,48.812279 L 97.395039,45.66406 L 97.095209,42.365925 L 96.945289,39.217706 L 96.945289,37.718554 L 96.945289,36.219402 L 96.945289,34.72025 L 96.945289,33.371013 L 96.945289,32.021777 L 97.095209,30.67254 L 97.095209,29.473219 L 97.245119,28.423812 L 97.544949,27.374406 L 97.694869,26.474915 L 97.994699,25.725339 L 98.294529,24.975763 L 98.744269,24.526017 L 98.894189,24.226187 L 99.194019,24.076271 L 99.343929,23.926356 L 99.643759,23.926356 L 99.793679,23.776441 L 100.09351,23.776441 z "
       id="path5793" />
    <path
       style="fill:#00ffff;fill-opacity:0.49019608;display:inline"
       d="M 105.88256,39.902462 C 105.6992,39.922463 105.5203,39.990074 105.32006,40.089962 C 104.09232,41.275163 104.16735,43.39124 105.22631,44.652462 C 106.79975,45.940243 108.58649,46.97819 110.22631,48.183712 C 112.38199,49.649101 114.18566,51.523278 115.75756,53.589962 C 117.12991,55.089977 116.76081,57.839249 114.91381,58.777462 C 113.25229,59.389614 111.39743,59.274159 109.75756,59.996212 C 108.72368,60.276661 107.76258,61.138027 107.41381,62.152462 L 107.72631,62.152462 L 109.97631,62.152462 L 112.22631,61.996212 L 114.47631,61.839962 L 116.57006,61.714962 L 118.69506,61.558712 L 120.63256,61.402462 L 121.53881,61.246212 L 122.28881,61.089962 L 123.19506,60.964962 L 123.94506,60.808712 L 124.69506,60.496212 L 125.41381,60.371212 L 126.03881,60.214962 L 126.63256,59.902462 L 127.07006,59.746212 L 127.53881,59.464962 L 127.97631,59.152462 L 128.28881,58.871212 L 128.41381,58.714962 L 128.41381,58.683712 C 128.02138,58.248647 127.51281,57.941686 126.85131,57.902462 C 125.32944,58.000519 123.01827,58.159776 122.50756,56.308712 C 122.10668,53.719713 124.26971,51.857889 125.16381,49.621212 L 124.69506,48.808712 L 123.63256,47.308712 L 122.57006,45.808712 L 121.97631,44.933712 C 121.49429,44.999039 121.02001,45.170667 120.63256,45.464962 C 119.31581,46.632219 119.50265,48.594096 118.78881,50.089962 C 118.36414,51.470024 116.89732,53.412782 115.32006,52.308712 C 112.50216,49.452677 110.63833,45.848648 108.60131,42.433712 C 108.04215,41.4191 107.16611,39.762458 105.88256,39.902462 z "
       id="path5795" />
    <path
       style="fill:#00ff00;fill-opacity:0.49019608;display:inline"
       d="M 62.314878,80.894132 C 62.887904,79.126805 63.172831,77.266126 64.049447,75.605789 C 64.878011,73.413447 65.957465,70.86835 68.373852,70.074065 C 69.752438,69.683556 70.975698,70.690935 72.188634,71.178543 C 73.723301,72.574785 70.986176,73.568235 69.880793,73.872099 C 67.817117,74.948422 66.265524,76.771549 64.643982,78.397205 C 63.863587,79.225638 63.049631,80.023784 62.314878,80.894132 z "
       id="path5797" />
    <path
       style="fill:#ff0000;fill-opacity:0.49019608;display:inline"
       d="M 32.331838,36.968979 C 32.854242,35.35444 33.051982,33.646607 33.825213,32.117763 C 34.75702,30.084326 35.421217,27.701927 37.453262,26.463837 C 38.437174,25.77846 39.878635,25.857571 40.860127,26.515416 C 41.759454,26.782104 43.631625,27.870888 42.206332,28.749808 C 40.776569,29.557357 39.124199,30.005456 37.905224,31.168702 C 36.006589,32.843191 34.359277,34.768972 32.617145,36.597562 L 32.471431,36.780605 L 32.331838,36.968979 L 32.331838,36.968979 z "
       id="path5799" />
    <path
       style="fill:url(#linearGradient5859);fill-opacity:1;display:inline"
       d="M 24.536249,23.17678 L 24.236418,23.17678 L 23.936587,23.326695 L 23.636757,23.326695 L 23.187011,23.476611 L 22.737266,23.776441 L 22.437435,23.926356 L 21.537944,24.526017 L 20.488538,25.275593 L 19.439131,26.025169 L 18.23981,26.92466 L 17.040488,28.123982 L 15.841167,29.173388 L 14.641845,30.522625 L 13.292608,31.721947 L 11.943371,33.071183 L 10.74405,34.570335 L 9.3948125,36.069487 L 6.8462545,39.067791 L 5.4970175,40.716858 L 4.2976955,42.21601 L 3.0983745,43.715162 L 2.0489685,45.214314 L 0.99956155,46.713466 L 0.10007055,48.212618 L -0.79942045,49.561855 L -1.6989115,50.911092 L -2.2985725,52.260329 L -2.8982335,53.459651 L -3.3479795,54.509057 L -3.797725,55.558463 L -3.94764,56.457955 L -3.94764,56.757785 L -3.94764,57.207531 L -3.94764,57.507361 L -3.797725,57.807191 L -3.797725,58.107022 L -3.64781,58.256937 L -3.1980635,58.556767 L -2.8982335,58.856598 L -2.4484875,59.006513 L -1.8488275,59.306343 L -1.3990815,59.456259 L -0.64950545,59.756089 L -0.049844453,59.906004 L 0.69973155,60.055919 L 1.4493075,60.205834 L 2.3487985,60.355749 L 3.2482895,60.505664 L 4.1477805,60.655579 L 6.0966785,60.95541 L 8.0455755,61.105325 L 10.144389,61.25524 L 12.393117,61.405155 L 14.641845,61.405155 L 16.890573,61.55507 L 19.289216,61.405155 L 21.388029,61.405155 L 23.636757,61.405155 L 25.73557,61.25524 L 25.885485,60.355749 L 25.885485,59.306343 L 26.035401,58.107022 L 26.185316,56.9077 L 26.335231,55.558463 L 26.485146,54.209227 L 26.635061,52.710075 L 26.784977,51.360837 L 26.934892,49.71177 L 27.084807,48.212618 L 27.234722,45.064399 L 27.534553,41.766265 L 27.684468,38.618045 L 27.684468,37.118893 L 27.684468,35.619741 L 27.834383,34.120589 L 27.684468,32.771353 L 27.684468,31.422116 L 27.534553,30.072879 L 27.534553,28.873558 L 27.384637,27.824151 L 27.084807,26.774745 L 26.934892,25.875254 L 26.635061,25.125678 L 26.335231,24.376102 L 25.885485,23.926356 L 25.585655,23.476611 L 25.285825,23.326695 L 25.135909,23.326695 L 24.836079,23.17678 L 24.536249,23.17678 z "
       id="path5801" />
    <path
       style="fill:#00ff00;fill-opacity:0.49019608;display:inline"
       d="M 17.820065,27.339962 L 17.038815,28.121212 L 15.851315,29.183712 L 14.632565,30.527462 L 13.288815,31.714962 L 11.945065,33.058712 L 10.757565,34.558712 L 9.3825645,36.058712 L 9.2888145,36.152462 C 9.8977685,38.172357 8.8272245,40.362708 6.1013145,40.464962 C 5.9666545,40.484586 5.8112295,40.504235 5.6638145,40.527462 L 5.5075645,40.714962 L 4.2888145,42.214962 L 3.1013145,43.714962 L 2.0388145,45.214962 L 1.1638145,46.496212 C 2.1658585,47.469906 3.8247665,47.348051 4.9763145,46.089962 C 6.2025655,43.652985 10.946805,41.785669 10.163815,46.152462 C 7.9764695,48.890929 13.743864,53.268785 13.132565,48.683712 C 11.606761,45.279632 16.040015,42.793405 18.257565,45.652462 C 19.880745,49.119845 22.534641,45.682823 22.038815,43.246212 C 23.239599,38.397401 17.92364,39.832515 15.507565,38.121212 C 14.568179,34.376559 19.181275,31.727955 18.195065,28.027462 C 18.084315,27.768742 17.958139,27.542642 17.820065,27.339962 z "
       id="path5803" />
    <path
       style="fill:#ee81b7;fill-opacity:1;fill-rule:evenodd;stroke:none;stroke-width:0.5;stroke-linecap:butt;stroke-linejoin:round;stroke-miterlimit:4;stroke-dasharray:none;stroke-opacity:1;display:inline"
       d="M 44.638748,21.50664 C 44.638748,21.50664 57.135531,20.782189 58.765546,22.593317 C 60.395562,24.404445 62.025577,30.381166 62.025577,30.381166 C 62.025577,30.381166 63.112254,23.679993 65.828946,21.868865 C 68.545638,20.057737 83.940228,27.121137 83.940228,27.121137 C 83.940228,27.121137 73.797908,21.144414 73.979018,18.789948 C 74.160138,16.435481 87.200258,10.458759 87.200258,10.458759 C 87.200258,10.458759 73.797908,14.805466 72.892348,13.537677 C 71.986778,12.269887 80.861308,-2.2191367 80.861308,-2.2191367 C 80.861308,-2.2191367 66.915618,15.529917 64.380043,14.986579 C 61.844464,14.443241 66.734508,2.3086833 66.734508,2.3086833 C 66.734508,2.3086833 60.757787,12.632113 57.497757,15.529917 C 54.237726,18.427722 44.457635,21.687753 44.638748,21.50664 z "
       id="path6057" />
  </g>
  <g
     inkscape:groupmode="layer"
     id="layer2"
     inkscape:label="yeux"
     style="display:inline"
     transform="translate(10.1357,1.7590128)">
    <path
       sodipodi:type="arc"
       style="fill:url(#radialGradient10449);fill-opacity:1;fill-rule:nonzero;stroke:none;stroke-width:0;stroke-linejoin:miter;stroke-miterlimit:4;stroke-dasharray:none;stroke-dashoffset:0;stroke-opacity:1;display:inline"
       id="path9390"
       sodipodi:cx="45.271362"
       sodipodi:cy="48.481598"
       sodipodi:rx="14.08727"
       sodipodi:ry="13.735088"
       d="M 59.358632,48.481598 A 14.08727,13.735088 0 0 1 45.271362,62.216686 14.08727,13.735088 0 0 1 31.184093,48.481598 14.08727,13.735088 0 0 1 45.271362,34.74651 14.08727,13.735088 0 0 1 59.358632,48.481598 Z"
       transform="matrix(1,0,0,0.7785548,28.93195,12.219765)" />
    <path
       sodipodi:type="arc"
       style="fill:url(#radialGradient10451);fill-opacity:1;fill-rule:nonzero;stroke:none;stroke-width:0;stroke-linejoin:miter;stroke-miterlimit:4;stroke-dasharray:none;stroke-dashoffset:0;stroke-opacity:1"
       id="path9386"
       sodipodi:cx="45.271362"
       sodipodi:cy="48.481598"
       sodipodi:rx="14.08727"
       sodipodi:ry="13.735088"
       d="M 59.358632,48.481598 A 14.08727,13.735088 0 0 1 45.271362,62.216686 14.08727,13.735088 0 0 1 31.184093,48.481598 14.08727,13.735088 0 0 1 45.271362,34.74651 14.08727,13.735088 0 0 1 59.358632,48.481598 Z"
       transform="translate(0.8854763,1.2916472)" />
    <path
       sodipodi:type="arc"
       style="fill:url(#radialGradient10453);fill-opacity:1;fill-rule:nonzero;stroke:#000000;stroke-width:0;stroke-linejoin:miter;stroke-miterlimit:4;stroke-dasharray:none;stroke-dashoffset:0;stroke-opacity:1"
       id="path8393"
       sodipodi:cx="55.624268"
       sodipodi:cy="50.756863"
       sodipodi:rx="4.4599028"
       sodipodi:ry="4.8900456"
       d="m 60.08417,50.756863 a 4.4599028,4.8900456 0 0 1 -4.459902,4.890045 4.4599028,4.8900456 0 0 1 -4.459903,-4.890045 4.4599028,4.8900456 0 0 1 4.459903,-4.890046 4.4599028,4.8900456 0 0 1 4.459902,4.890046 z"
       transform="translate(1.55372e-2,-4.52785e-2)" />
    <path
       sodipodi:type="arc"
       style="fill:url(#radialGradient10455);fill-opacity:1;fill-rule:nonzero;stroke:#000000;stroke-width:0;stroke-linejoin:miter;stroke-miterlimit:4;stroke-dasharray:none;stroke-dashoffset:0;stroke-opacity:1"
       id="path8395"
       sodipodi:cx="63.095173"
       sodipodi:cy="51.775623"
       sodipodi:rx="2.4676619"
       sodipodi:ry="2.6487746"
       d="m 65.562835,51.775623 a 2.4676619,2.6487746 0 0 1 -2.467662,2.648775 2.4676619,2.6487746 0 0 1 -2.467662,-2.648775 2.4676619,2.6487746 0 0 1 2.467662,-2.648774 2.4676619,2.6487746 0 0 1 2.467662,2.648774 z"
       transform="translate(-9.05562e-2,-0.4980605)" />
  </g>
</svg>
