<?xml version="1.0" encoding="UTF-8" standalone="no"?>
<!-- Created with Inkscape (http://www.inkscape.org/) -->

<svg
   xmlns:dc="http://purl.org/dc/elements/1.1/"
   xmlns:cc="http://creativecommons.org/ns#"
   xmlns:rdf="http://www.w3.org/1999/02/22-rdf-syntax-ns#"
   xmlns:svg="http://www.w3.org/2000/svg"
   xmlns="http://www.w3.org/2000/svg"
   xmlns:xlink="http://www.w3.org/1999/xlink"
   xmlns:sodipodi="http://sodipodi.sourceforge.net/DTD/sodipodi-0.dtd"
   xmlns:inkscape="http://www.inkscape.org/namespaces/inkscape"
   version="1.0"
   width="48.849998mm"
   height="59.130001mm"
   id="svg2299"
   sodipodi:version="0.32"
   inkscape:version="0.91 r13725"
   sodipodi:docname="buddy_conquis.svg"
   inkscape:output_extension="org.inkscape.output.svgz.inkscape"
   inkscape:export-filename="\\Fuj0910p158\svg\buddy\buddy_conquis.png"
   inkscape:export-xdpi="300"
   inkscape:export-ydpi="300">
  <metadata
     id="metadata103">
    <rdf:RDF>
      <cc:Work
         rdf:about="">
        <dc:format>image/svg+xml</dc:format>
        <dc:type
           rdf:resource="http://purl.org/dc/dcmitype/StillImage" />
        <dc:title></dc:title>
      </cc:Work>
    </rdf:RDF>
  </metadata>
  <sodipodi:namedview
     inkscape:window-height="573"
     inkscape:window-width="748"
     inkscape:pageshadow="2"
     inkscape:pageopacity="0.0"
     guidetolerance="10.0"
     gridtolerance="10.0"
     objecttolerance="10.0"
     borderopacity="1.0"
     bordercolor="#666666"
     pagecolor="#ffffff"
     id="base"
     inkscape:zoom="2.5447181"
     inkscape:cx="45.685346"
     inkscape:cy="169.06748"
     inkscape:window-x="154"
     inkscape:window-y="203"
     inkscape:current-layer="layer13"
     showgrid="false"
     inkscape:window-maximized="0" />
  <defs
     id="defs2350">
    <linearGradient
       id="linearGradient3291">
      <stop
         id="stop3293"
         offset="0"
         style="stop-color:#ffffff;stop-opacity:1" />
      <stop
         id="stop3295"
         offset="1"
         style="stop-color:#586674;stop-opacity:1;" />
    </linearGradient>
    <linearGradient
       id="linearGradient3385">
      <stop
         id="stop3387"
         offset="0"
         style="stop-color:#ffffff;stop-opacity:1;" />
      <stop
         style="stop-color:#91c0ff;stop-opacity:1;"
         offset="0.2"
         id="stop3401" />
      <stop
         id="stop3389"
         offset="1"
         style="stop-color:#006bcc;stop-opacity:1;" />
    </linearGradient>
    <linearGradient
       id="linearGradient14869">
      <stop
         style="stop-color:#ffffff;stop-opacity:1"
         offset="0"
         id="stop14871" />
      <stop
         style="stop-color:#ffff00;stop-opacity:1"
         offset="0.34999999"
         id="stop14873" />
      <stop
         style="stop-color:#ffcc00;stop-opacity:1"
         offset="1"
         id="stop14875" />
    </linearGradient>
    <linearGradient
       id="linearGradient14821">
      <stop
         style="stop-color:#ffffff;stop-opacity:1"
         offset="0"
         id="stop14823" />
      <stop
         style="stop-color:#99ff66;stop-opacity:1"
         offset="1"
         id="stop14825" />
    </linearGradient>
    <linearGradient
       id="linearGradient14710">
      <stop
         style="stop-color:#ffcc00;stop-opacity:1"
         offset="0"
         id="stop14712" />
      <stop
         style="stop-color:#ffff00;stop-opacity:1"
         offset="1"
         id="stop14714" />
    </linearGradient>
    <linearGradient
       id="linearGradient4247">
      <stop
         style="stop-color:#ffffff;stop-opacity:1"
         offset="0"
         id="stop4249" />
      <stop
         style="stop-color:#cc9933;stop-opacity:1"
         offset="1"
         id="stop4251" />
    </linearGradient>
    <linearGradient
       id="linearGradient10439">
      <stop
         style="stop-color:#ffffff;stop-opacity:1"
         offset="0"
         id="stop10441" />
      <stop
         style="stop-color:#000000;stop-opacity:1"
         offset="1"
         id="stop10443" />
    </linearGradient>
    <radialGradient
       cx="94.916206"
       cy="78.029587"
       r="23.433178"
       fx="94.916206"
       fy="78.029587"
       id="radialGradient4253"
       xlink:href="#linearGradient4247"
       gradientUnits="userSpaceOnUse"
       gradientTransform="matrix(1,0,0,0.9343434,0,5.123154)" />
    <filter
       id="filter3329"
       height="2.2122524"
       y="-0.60612619"
       width="1.360805"
       x="-0.18040247">
      <feGaussianBlur
         id="feGaussianBlur3331"
         stdDeviation="16.483922"
         inkscape:collect="always" />
    </filter>
    <radialGradient
       cx="123.96304"
       cy="138.82095"
       r="37.265629"
       fx="123.96304"
       fy="138.82095"
       id="radialGradient14827"
       xlink:href="#linearGradient14821"
       gradientUnits="userSpaceOnUse"
       gradientTransform="matrix(0.7534516,0,0,0.7569267,30.18611,34.969149)" />
    <linearGradient
       x1="66.491394"
       y1="92.545174"
       x2="91.73098"
       y2="48.036644"
       id="linearGradient14894"
       xlink:href="#linearGradient14710"
       gradientUnits="userSpaceOnUse" />
    <radialGradient
       cx="102.20155"
       cy="29.245192"
       r="42.034233"
       fx="102.20155"
       fy="29.245192"
       id="radialGradient14896"
       xlink:href="#linearGradient14869"
       gradientUnits="userSpaceOnUse"
       gradientTransform="matrix(1.4936354,0.5344713,-0.3293721,0.920465,-37.735206,-46.022803)" />
    <linearGradient
       x1="73.037209"
       y1="151.41418"
       x2="94.344315"
       y2="88.654755"
       id="linearGradient16906"
       xlink:href="#linearGradient10439"
       gradientUnits="userSpaceOnUse" />
    <linearGradient
       inkscape:collect="always"
       xlink:href="#linearGradient3291"
       id="linearGradient3289"
       x1="77.479736"
       y1="52.481869"
       x2="126.12229"
       y2="86.104424"
       gradientUnits="userSpaceOnUse"
       spreadMethod="reflect" />
    <radialGradient
       inkscape:collect="always"
       xlink:href="#linearGradient3291"
       id="radialGradient3303"
       cx="117.47517"
       cy="56.032253"
       fx="117.47517"
       fy="56.032253"
       r="46.293335"
       gradientTransform="matrix(0.3363674,0.3127415,-0.2167819,0.2331586,81.370283,5.5921867)"
       gradientUnits="userSpaceOnUse" />
    <linearGradient
       inkscape:collect="always"
       xlink:href="#linearGradient3291"
       id="linearGradient3317"
       x1="100.14003"
       y1="33.661297"
       x2="134.43907"
       y2="60.383316"
       gradientUnits="userSpaceOnUse"
       spreadMethod="reflect" />
    <linearGradient
       inkscape:collect="always"
       xlink:href="#linearGradient3291"
       id="linearGradient3319"
       x1="72.096725"
       y1="159.23769"
       x2="142.09669"
       y2="175.35428"
       gradientUnits="userSpaceOnUse"
       spreadMethod="reflect" />
    <radialGradient
       inkscape:collect="always"
       xlink:href="#linearGradient14821"
       id="radialGradient3472"
       cx="134.15401"
       cy="127.72245"
       fx="134.15401"
       fy="127.72245"
       r="25.662739"
       gradientTransform="matrix(1,0,0,1.1699412,0,-24.844784)"
       gradientUnits="userSpaceOnUse" />
    <radialGradient
       inkscape:collect="always"
       xlink:href="#linearGradient14821"
       id="radialGradient3476"
       gradientUnits="userSpaceOnUse"
       gradientTransform="matrix(0.9384673,0,0,0.9528633,-76.944019,-22.727007)"
       cx="135.82895"
       cy="125.80685"
       fx="135.82895"
       fy="125.80685"
       r="25.662739" />
    <radialGradient
       inkscape:collect="always"
       xlink:href="#linearGradient14821"
       id="radialGradient3482"
       cx="116.61039"
       cy="139.16472"
       fx="116.61039"
       fy="139.16472"
       r="61.953602"
       gradientTransform="matrix(1,0,0,0.8083,0,29.567039)"
       gradientUnits="userSpaceOnUse"
       spreadMethod="reflect" />
    <radialGradient
       inkscape:collect="always"
       xlink:href="#linearGradient14821"
       id="radialGradient3484"
       cx="91.471275"
       cy="128.46349"
       fx="91.471275"
       fy="128.46349"
       r="24.065882"
       gradientTransform="matrix(1,0,0,1.1030134,0,-13.233458)"
       gradientUnits="userSpaceOnUse" />
  </defs>
  <g
     inkscape:groupmode="layer"
     id="layer11"
     inkscape:label="Ombre"
     style="display:none">
    <g
       style="display:inline"
       id="layer5">
      <path
         d="M 24.563731,170.3673 C 24.563731,170.3673 92.516385,200.30435 126.29152,200.30435 C 160.06665,200.30435 253.4421,158.08544 244.2307,151.17689 C 235.0193,144.26834 24.911573,170.28971 24.563731,170.3673 z "
         transform="matrix(0.8564845,0,0,1,3.524081,0)"
         style="fill:#808080;fill-rule:evenodd;stroke:none;stroke-width:1px;stroke-linecap:butt;stroke-linejoin:miter;stroke-opacity:1;filter:url(#filter3329)"
         id="path3235" />
    </g>
  </g>
  <g
     inkscape:groupmode="layer"
     id="layer15"
     inkscape:label="Body"
     style="display:inline">
    <path
       id="path3478"
       style="color:#000000;fill:url(#radialGradient3482);fill-opacity:1.0;fill-rule:nonzero;stroke:#006bcc;stroke-width:3.5;stroke-linecap:round;stroke-linejoin:round;marker:none;marker-start:none;marker-mid:none;marker-end:none;stroke-miterlimit:4;stroke-dasharray:none;stroke-dashoffset:0;stroke-opacity:1;visibility:visible;display:inline;overflow:visible;enable-background:accumulate"
       d="M 27.719914,170.06711 C 38.402702,185.25856 60.90203,195.29108 85.915796,199.76733 C 110.9629,204.24956 126.22124,205.63085 147.69962,185.9076 C 149.30589,165.35019 146.80196,140.05598 132.99328,124.75872 C 119.52046,110.29018 98.821697,105.79233 79.747107,105.91116 C 64.50381,105.8225 47.676667,109.81523 37.854213,122.37835 C 27.409794,135.8063 27.873024,152.60902 27.719914,170.06711 z " />
    <path
       id="path3414"
       style="color:#000000;fill:url(#linearGradient3319);fill-opacity:1.0;fill-rule:nonzero;stroke:#586674;stroke-width:3.5;stroke-linecap:round;stroke-linejoin:round;marker:none;marker-start:none;marker-mid:none;marker-end:none;stroke-miterlimit:4;stroke-dasharray:none;stroke-dashoffset:0;stroke-opacity:1;visibility:visible;display:inline;overflow:visible;enable-background:accumulate"
       d="M 41.538424,182.98458 C 44.898604,188.29849 60.907808,195.2853 85.915796,199.76733 C 110.96172,204.25616 114.51011,202.20921 118.48493,201.88047 C 102.83589,169.60545 116.54321,130.23171 132.99328,124.75872 C 119.52046,110.29018 98.821697,105.79233 79.747107,105.91116 C 64.50381,105.8225 58.28688,105.49255 48.464426,118.05567 C 38.020007,131.48362 32.947933,170.63511 41.538424,182.98458 z "
       sodipodi:nodetypes="csccccc" />
    <path
       id="path14924"
       style="color:#000000;fill:none;fill-opacity:1;fill-rule:nonzero;stroke:#586674;stroke-width:3.5;stroke-linecap:round;stroke-linejoin:round;marker:none;marker-start:none;marker-mid:none;marker-end:none;stroke-miterlimit:4;stroke-dasharray:none;stroke-dashoffset:0;stroke-opacity:1;visibility:visible;display:inline;overflow:visible;enable-background:accumulate"
       d="M 67.693781,144.03015 C 59.452436,166.9909 60.461181,185.116 68.899401,195.86546"
       sodipodi:nodetypes="cc" />
    <path
       id="path14926"
       style="color:#000000;fill:url(#radialGradient3484);fill-opacity:1.0;fill-rule:nonzero;stroke:#586674;stroke-width:3.5;stroke-linecap:butt;stroke-linejoin:round;marker:none;marker-start:none;marker-mid:none;marker-end:none;stroke-miterlimit:4;stroke-dasharray:none;stroke-dashoffset:0;stroke-opacity:1;visibility:visible;display:inline;overflow:visible;enable-background:accumulate"
       d="M 66.727371,146.18501 C 82.149966,121.62708 104.21647,116.139 113.78716,111.95171 C 96.936897,104.91472 91.712308,103.14216 75.851139,103.79363 C 68.262362,115.28894 64.679051,122.8711 66.727371,146.18501 z "
       sodipodi:nodetypes="cccc" />
    <path
       style="fill:url(#radialGradient3472);fill-rule:evenodd;stroke:#006bcc;stroke-width:3.5;stroke-linecap:round;stroke-linejoin:round;stroke-opacity:1;fill-opacity:1.0;stroke-miterlimit:4;stroke-dasharray:none"
       d="M 126.14363,118.73949 C 170.57067,106.45643 146.57812,154.10686 146.57812,154.10686 C 146.57812,154.10686 148.54298,146.24744 135.57494,149.39121 C 122.6069,152.53497 113.17561,174.93432 113.17561,174.93432 C 113.17561,174.93432 82.081782,130.92158 126.14363,118.73949 z "
       id="path3464"
       sodipodi:nodetypes="ccscz" />
    <path
       style="fill:url(#radialGradient3476);fill-opacity:1;fill-rule:evenodd;stroke:#006bcc;stroke-width:3.05992579;stroke-linecap:round;stroke-linejoin:round;stroke-miterlimit:4;stroke-dasharray:none;stroke-opacity:1;display:inline"
       d="M 50.083013,99.717371 C 85.067097,92.170484 73.53443,109.8786 73.53443,109.8786 C 73.53443,109.8786 69.532187,109.54626 57.362106,112.10671 C 45.192024,114.66716 38.209196,151.62717 38.209196,151.62717 C 38.209196,151.62717 15.019942,107.2813 50.083013,99.717371 z "
       id="path3474"
       sodipodi:nodetypes="ccscz" />
  </g>
  <g
     inkscape:groupmode="layer"
     id="layer13"
     inkscape:label="Tete"
     style="display:inline">
    <g
       style="display:inline"
       id="layer1">
      <path
         d="M 88.115692,41.031699 C 66.918839,40.299562 47.814399,61.472035 49.917415,83.355591 C 50.808886,104.27604 70.239877,122.41445 90.480971,120.42766 C 110.09895,119.487 127.494,100.61299 126.45576,80.063284 C 126.35725,59.282518 108.4773,40.127647 88.115692,41.031699 z "
         style="fill:#cc9933;fill-opacity:1;stroke:#ba7e33;stroke-width:3.67887735px;stroke-linejoin:round;stroke-dasharray:none;stroke-opacity:1"
         id="path2339" />
      <path
         d="M 118.34938,78.029587 C 118.35473,90.125192 107.86177,99.933269 94.916204,99.933269 C 81.970636,99.933269 71.477679,90.125192 71.483028,78.029587 C 71.477679,65.933982 81.970636,56.125905 94.916204,56.125905 C 107.86177,56.125905 118.35473,65.933982 118.34938,78.029587 z "
         transform="matrix(1.0505834,0.5629794,-0.5029678,0.9385949,34.681886,-45.567383)"
         style="opacity:1;color:#000000;fill:url(#radialGradient4253);fill-opacity:1;fill-rule:nonzero;stroke:none;stroke-width:7;stroke-linecap:round;stroke-linejoin:round;marker:none;marker-start:none;marker-mid:none;marker-end:none;stroke-miterlimit:4;stroke-dasharray:none;stroke-dashoffset:0;stroke-opacity:1;visibility:visible;display:inline;overflow:visible;enable-background:accumulate"
         id="path3268" />
      <path
         d="M 100.5452,43.133905 C 87.434077,38.162125 53.092058,48.624381 56.557178,66.27645 C 62.193065,70.198859 63.088499,64.140098 69.23068,61.808667 C 80.415348,78.869083 106.58537,102.98035 121.99986,97.501498 C 120.96348,76.124204 139.89919,63.743598 100.5452,43.133905 z "
         style="fill:#cc9933;fill-opacity:1;fill-rule:nonzero;stroke:none;stroke-width:3.5;stroke-miterlimit:4;stroke-dasharray:none;stroke-opacity:1;opacity:0.8"
         id="path4255"
         sodipodi:nodetypes="ccccc" />
      <path
         d="M 121.8821,99.96209 C 139.97611,76.674586 130.05774,42.981179 102.43387,34.430402 C 82.841934,28.365855 53.107254,39.857839 51.135001,64.151538 C 57.311649,68.813417 68.941401,52.80092 75.672922,50.029958 C 77.327745,67.121278 94.565429,70.252259 107.75649,76.958699 C 111.77299,79.503178 108.71736,88.384978 114.68369,88.248262 C 117.27661,87.057673 121.14649,80.41749 123.29043,85.494714 C 122.53081,90.619934 120.1267,94.804838 121.8821,99.96209 z "
         style="fill:#ba7e33;fill-opacity:1;fill-rule:evenodd;stroke:#985a00;stroke-width:3.5;stroke-linecap:round;stroke-linejoin:round;stroke-miterlimit:4;stroke-dasharray:none;stroke-opacity:1"
         id="path2341" />
    </g>
  </g>
  <g
     inkscape:groupmode="layer"
     id="layer14"
     inkscape:label="Yeux"
     style="display:none">
    <g
       style="display:inline"
       id="layer4">
      <g
         style="display:inline"
         id="g3312">
        <path
           d="M 66.782646,83.818527 C 66.782646,86.892113 65.150196,89.383747 63.136467,89.383747 C 61.122738,89.383747 59.490288,86.892113 59.490288,83.818527 C 59.490288,80.744941 61.122738,78.253307 63.136467,78.253307 C 65.150196,78.253307 66.782646,80.744941 66.782646,83.818527 z "
           transform="translate(-2,-2.4070902)"
           style="opacity:1;color:#000000;fill:#985a00;fill-opacity:1;fill-rule:nonzero;stroke:none;stroke-width:7;stroke-linecap:butt;stroke-linejoin:round;marker:none;marker-start:none;marker-mid:none;marker-end:none;stroke-miterlimit:4;stroke-dasharray:none;stroke-dashoffset:0;stroke-opacity:1;visibility:visible;display:inline;overflow:visible;enable-background:accumulate"
           id="path2322" />
        <path
           d="M 66.782646,83.818527 C 66.782646,86.892113 65.150196,89.383747 63.136467,89.383747 C 61.122738,89.383747 59.490288,86.892113 59.490288,83.818527 C 59.490288,80.744941 61.122738,78.253307 63.136467,78.253307 C 65.150196,78.253307 66.782646,80.744941 66.782646,83.818527 z "
           transform="translate(-0.8192271,-1.3061016)"
           style="opacity:1;color:#000000;fill:#ba7e33;fill-opacity:1;fill-rule:nonzero;stroke:none;stroke-width:7;stroke-linecap:butt;stroke-linejoin:round;marker:none;marker-start:none;marker-mid:none;marker-end:none;stroke-miterlimit:4;stroke-dasharray:none;stroke-dashoffset:0;stroke-opacity:1;visibility:visible;display:inline;overflow:visible;enable-background:accumulate"
           id="path3295" />
      </g>
      <g
         style="display:inline"
         id="g3316">
        <path
           d="M 66.782646,83.818527 C 66.782646,86.892113 65.150196,89.383747 63.136467,89.383747 C 61.122738,89.383747 59.490288,86.892113 59.490288,83.818527 C 59.490288,80.744941 61.122738,78.253307 63.136467,78.253307 C 65.150196,78.253307 66.782646,80.744941 66.782646,83.818527 z "
           transform="translate(17.847086,3.6461774)"
           style="opacity:1;color:#000000;fill:#985a00;fill-opacity:1;fill-rule:nonzero;stroke:none;stroke-width:7;stroke-linecap:butt;stroke-linejoin:round;marker:none;marker-start:none;marker-mid:none;marker-end:none;stroke-miterlimit:4;stroke-dasharray:none;stroke-dashoffset:0;stroke-opacity:1;visibility:visible;display:inline;overflow:visible;enable-background:accumulate"
           id="path2324" />
        <path
           d="M 66.782646,83.818527 C 66.782646,86.892113 65.150196,89.383747 63.136467,89.383747 C 61.122738,89.383747 59.490288,86.892113 59.490288,83.818527 C 59.490288,80.744941 61.122738,78.253307 63.136467,78.253307 C 65.150196,78.253307 66.782646,80.744941 66.782646,83.818527 z "
           transform="translate(19.027858,4.747166)"
           style="opacity:1;color:#000000;fill:#ba7e33;fill-opacity:1;fill-rule:nonzero;stroke:none;stroke-width:7;stroke-linecap:butt;stroke-linejoin:round;marker:none;marker-start:none;marker-mid:none;marker-end:none;stroke-miterlimit:4;stroke-dasharray:none;stroke-dashoffset:0;stroke-opacity:1;visibility:visible;display:inline;overflow:visible;enable-background:accumulate"
           id="path3297" />
      </g>
      <path
         d="M 60.792135,98.515822 C 60.792135,98.515822 63.506069,105.84344 68.391152,107.4718 C 73.276234,109.10016 81.689431,106.65762 81.689431,106.65762 C 81.689431,106.65762 74.633201,108.28598 69.205332,106.11484 C 63.777463,103.94369 60.249348,98.787216 60.792135,98.515822 z "
         style="fill:#985a00;fill-opacity:1;fill-rule:evenodd;stroke:#985a00;stroke-width:1px;stroke-linecap:round;stroke-linejoin:round;stroke-opacity:1;display:inline"
         id="path3299" />
    </g>
  </g>
  <g
     inkscape:groupmode="layer"
     id="layer12"
     inkscape:label="Casque"
     style="display:inline">
    <path
       id="path2296"
       style="fill:url(#radialGradient3303);fill-opacity:1;fill-rule:evenodd;stroke:#586674;stroke-width:3.5;stroke-linecap:round;stroke-linejoin:round;stroke-miterlimit:4;stroke-dasharray:none;stroke-opacity:1"
       d="M 139.8287,80.856322 C 128.6681,83.768216 131.44005,69.318786 129.30219,61.669973 C 125.63137,49.266837 116.2458,38.705791 102.43387,34.430402 C 82.841934,28.365855 53.107254,39.857839 51.135001,64.151538 C 58.423138,56.587034 65.884805,50.300069 72.616326,47.529107 C 83.445538,63.465937 122.15219,112.30872 139.8287,80.856322 z "
       sodipodi:nodetypes="ccsccc" />
    <path
       style="fill:url(#linearGradient3317);fill-opacity:1;fill-rule:evenodd;stroke:#586674;stroke-width:3.5;stroke-linecap:butt;stroke-linejoin:miter;stroke-miterlimit:4;stroke-dasharray:none;stroke-opacity:1"
       d="M 68.966382,47.415276 C 68.966382,47.415276 69.771285,20.770531 91.365719,21.675687 C 124.17878,23.051085 132.82414,52.327413 132.0382,77.281061 C 125.0785,46.285071 113.4058,32.448674 95.329139,33.234615 C 77.252481,34.020557 69.752324,47.022306 68.966382,47.415276 z "
       id="path3305"
       sodipodi:nodetypes="cccsc" />
    <path
       style="fill:url(#linearGradient3289);fill-opacity:1;fill-rule:evenodd;stroke:#586674;stroke-width:3.5;stroke-linecap:round;stroke-linejoin:round;stroke-miterlimit:4;stroke-dasharray:none;stroke-opacity:1"
       d="M 142.06019,74.037322 C 142.06019,74.037322 138.088,92.809593 116.70639,81.972341 C 96.421703,71.691064 64.10134,33.459779 64.10134,33.459779 C 64.10134,33.459779 44.566547,52.217841 42.236597,70.857447 C 40.569363,84.19532 48.071915,84.473192 48.071915,84.473192 C 47.51617,60.854043 71.087644,52.144649 71.087644,52.144649 C 71.087644,52.144649 94.476597,85.862554 116.15063,95.865958 C 137.82468,105.86936 143.17167,77.649663 142.06019,74.037322 z "
       id="path2256"
       sodipodi:nodetypes="cscsccsc" />
  </g>
</svg>
