<?xml version="1.0" encoding="UTF-8" standalone="no"?>
<svg
   xmlns:dc="http://purl.org/dc/elements/1.1/"
   xmlns:cc="http://creativecommons.org/ns#"
   xmlns:rdf="http://www.w3.org/1999/02/22-rdf-syntax-ns#"
   xmlns:svg="http://www.w3.org/2000/svg"
   xmlns="http://www.w3.org/2000/svg"
   xmlns:xlink="http://www.w3.org/1999/xlink"
   xmlns:sodipodi="http://sodipodi.sourceforge.net/DTD/sodipodi-0.dtd"
   xmlns:inkscape="http://www.inkscape.org/namespaces/inkscape"
   inkscape:export-ydpi="600"
   inkscape:export-xdpi="600"
   inkscape:export-filename="C:\Documents and Settings\jmviglino\Mes documents\svg\tictac.png"
   version="1.0"
   sodipodi:docname="za-boar.svg"
   inkscape:output_extension="org.inkscape.output.svgz.inkscape"
   inkscape:version="1.0 (4035a4fb49, 2020-05-01)"
   sodipodi:version="0.32"
   id="svg5323"
   height="138.38597"
   width="142.14355">
  <metadata
     id="metadata5454">
    <rdf:RDF>
      <cc:Work
         rdf:about="">
        <dc:format>image/svg+xml</dc:format>
        <dc:type
           rdf:resource="http://purl.org/dc/dcmitype/StillImage" />
        <dc:title />
        <dc:creator>
          <cc:Agent>
            <dc:title>JEM</dc:title>
          </cc:Agent>
        </dc:creator>
        <dc:subject>
          <rdf:Bag>
            <rdf:li>z'animo</rdf:li>
          </rdf:Bag>
        </dc:subject>
      </cc:Work>
    </rdf:RDF>
  </metadata>
  <defs
     id="defs5452">
    <linearGradient
       id="linearGradient900">
      <stop
         style="stop-color:#c87137;stop-opacity:1"
         offset="0"
         id="stop896" />
      <stop
         style="stop-color:#502d16;stop-opacity:1"
         offset="1"
         id="stop898" />
    </linearGradient>
    <linearGradient
       id="linearGradient6059">
      <stop
         id="stop6061"
         offset="0"
         style="stop-color:#ff99cc;stop-opacity:1;" />
      <stop
         id="stop6063"
         offset="1"
         style="stop-color:#ff99cc;stop-opacity:1;" />
    </linearGradient>
    <linearGradient
       gradientTransform="translate(-13.625491,70.138458)"
       gradientUnits="userSpaceOnUse"
       y2="59.02837"
       x2="76.839859"
       y1="21.099823"
       x1="76.839859"
       id="linearGradient5869"
       xlink:href="#linearGradient900"
       inkscape:collect="always" />
    <linearGradient
       gradientUnits="userSpaceOnUse"
       y2="319"
       x2="815"
       y1="319"
       x1="115"
       id="linearGradient5841"
       xlink:href="#linearGradient900"
       inkscape:collect="always" />
    <linearGradient
       gradientUnits="userSpaceOnUse"
       y2="575"
       x2="560.6131"
       y1="353.36514"
       x1="382.83105"
       id="linearGradient5833"
       xlink:href="#linearGradient900"
       inkscape:collect="always" />
    <linearGradient
       gradientUnits="userSpaceOnUse"
       y2="424.1662"
       x2="392.75204"
       y1="464.61035"
       x1="427.52588"
       id="linearGradient5851"
       xlink:href="#linearGradient900"
       inkscape:collect="always" />
    <linearGradient
       gradientUnits="userSpaceOnUse"
       y2="425.52863"
       x2="504.1662"
       y1="466.8338"
       x1="541.74933"
       id="linearGradient5849"
       xlink:href="#linearGradient900"
       inkscape:collect="always" />
    <linearGradient
       gradientTransform="translate(-13.625491,70.138458)"
       gradientUnits="userSpaceOnUse"
       y2="-7.9837265"
       x2="142.2029"
       y1="-43.63372"
       x1="110.57078"
       id="linearGradient5861"
       xlink:href="#linearGradient900"
       inkscape:collect="always" />
    <linearGradient
       id="linearGradient5827">
      <stop
         id="stop5829"
         offset="0"
         style="stop-color:#ff99cc;stop-opacity:1;" />
      <stop
         id="stop5831"
         offset="1"
         style="stop-color:#a84476;stop-opacity:1;" />
    </linearGradient>
    <linearGradient
       gradientTransform="translate(-13.625491,70.138458)"
       gradientUnits="userSpaceOnUse"
       y2="-7.9837265"
       x2="41.459873"
       y1="-36.421455"
       x1="18.884768"
       id="linearGradient5859"
       xlink:href="#linearGradient900"
       inkscape:collect="always" />
    <linearGradient
       id="linearGradient4370">
      <stop
         id="stop4372"
         offset="0"
         style="stop-color:#e7e7e7;stop-opacity:1;" />
      <stop
         id="stop4374"
         offset="1"
         style="stop-color:#b5b5b5;stop-opacity:1;" />
    </linearGradient>
    <linearGradient
       id="linearGradient10371">
      <stop
         style="stop-color:#ffffff;stop-opacity:1;"
         offset="0"
         id="stop10373" />
      <stop
         id="stop10377"
         offset="0.72500002"
         style="stop-color:#ffffff;stop-opacity:1;" />
      <stop
         style="stop-color:#bbbbbb;stop-opacity:1;"
         offset="1"
         id="stop10375" />
    </linearGradient>
    <linearGradient
       id="linearGradient7396">
      <stop
         id="stop7398"
         offset="0"
         style="stop-color:#ffffff;stop-opacity:1;" />
      <stop
         id="stop7400"
         offset="1"
         style="stop-color:#000000;stop-opacity:1;" />
    </linearGradient>
    <radialGradient
       r="14.08727"
       fy="52.918861"
       fx="43.378098"
       cy="52.918861"
       cx="43.378098"
       gradientTransform="matrix(-1.0116561e-2,1.2900781,-1.2764138,-1.6513077e-2,108.81931,-9.0482603)"
       gradientUnits="userSpaceOnUse"
       id="radialGradient10449"
       xlink:href="#linearGradient10371"
       inkscape:collect="always" />
    <radialGradient
       r="14.08727"
       fy="44.580708"
       fx="42.645226"
       cy="44.580708"
       cx="42.645226"
       gradientTransform="matrix(-2.7798347e-2,1.1860934,-1.1864193,-2.7805985e-2,96.722101,-4.6633809)"
       gradientUnits="userSpaceOnUse"
       id="radialGradient10451"
       xlink:href="#linearGradient10371"
       inkscape:collect="always" />
    <radialGradient
       r="4.9099026"
       fy="48.883465"
       fx="57.390118"
       cy="48.883465"
       cx="57.390118"
       gradientTransform="matrix(0.548023,-4.5834327e-2,5.4508166e-2,0.6517326,23.274469,19.49083)"
       gradientUnits="userSpaceOnUse"
       id="radialGradient10453"
       xlink:href="#linearGradient7396"
       inkscape:collect="always" />
    <radialGradient
       r="2.9176619"
       fy="50.816406"
       fx="63.910179"
       cy="50.816406"
       cx="63.910179"
       gradientTransform="matrix(0.6896268,0,0,0.6896268,19.836006,15.712507)"
       gradientUnits="userSpaceOnUse"
       id="radialGradient10455"
       xlink:href="#linearGradient7396"
       inkscape:collect="always" />
    <radialGradient
       r="226"
       fy="284.51001"
       fx="291.27371"
       cy="284.51001"
       cx="291.27371"
       gradientTransform="matrix(0.1554984,0.1994531,-0.1409417,0.1098816,42.89686,-30.948471)"
       gradientUnits="userSpaceOnUse"
       id="radialGradient4561"
       xlink:href="#linearGradient4370"
       inkscape:collect="always" />
    <linearGradient
       y2="212.27121"
       x2="180.8329"
       y1="180.82201"
       x1="137.59026"
       gradientTransform="matrix(0.1853387,0,0,0.1853387,-5.8941716,8.2533898)"
       gradientUnits="userSpaceOnUse"
       id="linearGradient4563"
       xlink:href="#linearGradient4370"
       inkscape:collect="always" />
    <linearGradient
       y2="211.28842"
       x2="590"
       y1="163.13184"
       x1="541.51593"
       gradientTransform="matrix(0.1853387,0,0,0.1853387,-5.8941716,8.2533898)"
       gradientUnits="userSpaceOnUse"
       id="linearGradient4565"
       xlink:href="#linearGradient4370"
       inkscape:collect="always" />
    <linearGradient
       y2="631.92145"
       x2="201.47144"
       y1="559.19519"
       x1="195.57471"
       gradientTransform="matrix(0.1853387,0,0,0.1853387,-5.8941716,8.2533898)"
       gradientUnits="userSpaceOnUse"
       id="linearGradient4567"
       xlink:href="#linearGradient4370"
       inkscape:collect="always" />
    <linearGradient
       y2="633.88702"
       x2="518.9118"
       y1="562.14355"
       x1="511.0495"
       gradientTransform="matrix(0.1853387,0,0,0.1853387,-5.8941716,8.2533898)"
       gradientUnits="userSpaceOnUse"
       id="linearGradient4569"
       xlink:href="#linearGradient4370"
       inkscape:collect="always" />
    <linearGradient
       y2="538.55664"
       x2="328.25104"
       y1="503.1763"
       x1="284.02557"
       gradientTransform="matrix(0.1853387,0,0,0.1853387,-5.8941716,8.2533898)"
       gradientUnits="userSpaceOnUse"
       id="linearGradient4571"
       xlink:href="#linearGradient4370"
       inkscape:collect="always" />
    <linearGradient
       y2="546.41895"
       x2="456.99619"
       y1="503.1763"
       x1="415.71912"
       gradientTransform="matrix(0.1853387,0,0,0.1853387,-5.8941716,8.2533898)"
       gradientUnits="userSpaceOnUse"
       id="linearGradient4573"
       xlink:href="#linearGradient4370"
       inkscape:collect="always" />
    <radialGradient
       r="11.366768"
       fy="70.201492"
       fx="61.997612"
       cy="70.201492"
       cx="61.997612"
       gradientTransform="matrix(0.5134748,0,0,0.2922012,31.193043,52.022709)"
       gradientUnits="userSpaceOnUse"
       id="radialGradient4597"
       xlink:href="#linearGradient7396"
       inkscape:collect="always" />
  </defs>
  <sodipodi:namedview
     inkscape:document-rotation="0"
     inkscape:window-maximized="1"
     showgrid="false"
     inkscape:current-layer="layer5"
     inkscape:window-y="-8"
     inkscape:window-x="-8"
     inkscape:cy="37.251108"
     inkscape:cx="-11.817292"
     inkscape:zoom="2.6227735"
     id="base"
     pagecolor="#ffffff"
     bordercolor="#666666"
     borderopacity="1.0"
     objecttolerance="10.0"
     gridtolerance="10.0"
     guidetolerance="10.0"
     inkscape:pageopacity="0.0"
     inkscape:pageshadow="2"
     inkscape:window-width="1920"
     inkscape:window-height="1017" />
  <g
     transform="translate(10.1357,1.7590128)"
     style="display:inline"
     inkscape:label="fond"
     id="layer4"
     inkscape:groupmode="layer">
    <path
       transform="translate(-2.68806,3.9601239)"
       id="path6068"
       d="M 26.635061,91.238281 L 29.783281,119.87208 L 36.379549,129.16683 L 42.076327,120.47174 L 47.92302,127.36784 L 63.514201,101.88226 L 77.156484,127.9675 L 81.054279,123.61996 L 83.602837,128.56716 L 90.798769,121.82098 L 99.793679,93.786839 L 26.635061,91.238281 z "
       style="fill:none;fill-opacity:1;stroke:#000000;stroke-width:7;stroke-linecap:round;stroke-linejoin:round;stroke-miterlimit:4;stroke-dasharray:none;stroke-opacity:1;display:inline" />
    <ellipse
       sodipodi:ry="319"
       sodipodi:rx="350"
       sodipodi:cy="319"
       sodipodi:cx="465"
       id="ellipse6070"
       ry="319"
       rx="350"
       cy="319"
       cx="465"
       style="fill:none;fill-opacity:1;stroke:#000000;stroke-width:46.69306564;stroke-linecap:round;stroke-linejoin:round;stroke-miterlimit:4;stroke-dasharray:none;stroke-opacity:1;display:inline"
       transform="matrix(0.1499152,0,0,0.1499152,-10.083751,17.842166)" />
    <path
       transform="translate(-2.68806,3.9601239)"
       id="path6072"
       d="M 100.09351,23.776441 L 100.39334,23.776441 L 100.69317,23.926356 L 101.14292,23.926356 L 101.44275,24.076271 L 101.89249,24.376102 L 102.34224,24.526017 L 103.24173,25.125678 L 104.14122,25.875254 L 105.19063,26.62483 L 106.38995,27.524321 L 107.58927,28.723643 L 108.78859,29.773049 L 109.98791,31.122286 L 111.33715,32.321607 L 112.68639,33.820759 L 114.03563,35.169996 L 115.23495,36.669148 L 117.93342,39.667452 L 119.13274,41.316519 L 120.33207,42.815671 L 121.53139,44.314823 L 122.58079,45.813975 L 123.6302,47.313127 L 124.67961,48.812279 L 125.5791,50.311431 L 126.32867,51.660668 L 127.07825,52.85999 L 127.528,54.059311 L 127.97774,55.108718 L 128.42749,56.158124 L 128.5774,57.057615 L 128.5774,57.507361 L 128.5774,57.807191 L 128.5774,58.107022 L 128.42749,58.406852 L 128.42749,58.706683 L 128.27757,58.856598 L 127.97774,59.156428 L 127.528,59.456259 L 127.07825,59.756089 L 126.6285,59.906004 L 126.02884,60.205834 L 125.42918,60.355749 L 124.67961,60.505664 L 123.93003,60.805494 L 123.18046,60.95541 L 122.28096,61.105325 L 121.53139,61.25524 L 120.6319,61.405155 L 118.683,61.55507 L 116.58419,61.704986 L 114.48537,61.854901 L 112.23664,62.004816 L 109.98791,62.154731 L 107.73919,62.154731 L 105.49046,62.154731 L 103.24173,62.004816 L 100.993,62.004816 L 98.894189,61.854901 L 98.744269,60.95541 L 98.744269,59.906004 L 98.594359,58.706683 L 98.444439,57.507361 L 98.294529,56.158124 L 98.144609,54.808887 L 97.994699,53.459651 L 97.844779,51.960499 L 97.694869,50.461346 L 97.694869,48.812279 L 97.395039,45.66406 L 97.095209,42.365925 L 96.945289,39.217706 L 96.945289,37.718554 L 96.945289,36.219402 L 96.945289,34.72025 L 96.945289,33.371013 L 96.945289,32.021777 L 97.095209,30.67254 L 97.095209,29.473219 L 97.245119,28.423812 L 97.544949,27.374406 L 97.694869,26.474915 L 97.994699,25.725339 L 98.294529,24.975763 L 98.744269,24.526017 L 98.894189,24.226187 L 99.194019,24.076271 L 99.343929,23.926356 L 99.643759,23.926356 L 99.793679,23.776441 L 100.09351,23.776441 z "
       style="fill:none;fill-opacity:1;stroke:#000000;stroke-width:7;stroke-linecap:round;stroke-linejoin:round;stroke-miterlimit:4;stroke-dasharray:none;stroke-opacity:1;display:inline" />
    <path
       transform="translate(-2.68806,3.9601239)"
       id="path6074"
       d="M 24.536249,23.17678 L 24.236418,23.17678 L 23.936587,23.326695 L 23.636757,23.326695 L 23.187011,23.476611 L 22.737266,23.776441 L 22.437435,23.926356 L 21.537944,24.526017 L 20.488538,25.275593 L 19.439131,26.025169 L 18.23981,26.92466 L 17.040488,28.123982 L 15.841167,29.173388 L 14.641845,30.522625 L 13.292608,31.721947 L 11.943371,33.071183 L 10.74405,34.570335 L 9.3948125,36.069487 L 6.8462545,39.067791 L 5.4970175,40.716858 L 4.2976955,42.21601 L 3.0983745,43.715162 L 2.0489685,45.214314 L 0.99956155,46.713466 L 0.10007055,48.212618 L -0.79942045,49.561855 L -1.6989115,50.911092 L -2.2985725,52.260329 L -2.8982335,53.459651 L -3.3479795,54.509057 L -3.797725,55.558463 L -3.94764,56.457955 L -3.94764,56.757785 L -3.94764,57.207531 L -3.94764,57.507361 L -3.797725,57.807191 L -3.797725,58.107022 L -3.64781,58.256937 L -3.1980635,58.556767 L -2.8982335,58.856598 L -2.4484875,59.006513 L -1.8488275,59.306343 L -1.3990815,59.456259 L -0.64950545,59.756089 L -0.049844453,59.906004 L 0.69973155,60.055919 L 1.4493075,60.205834 L 2.3487985,60.355749 L 3.2482895,60.505664 L 4.1477805,60.655579 L 6.0966785,60.95541 L 8.0455755,61.105325 L 10.144389,61.25524 L 12.393117,61.405155 L 14.641845,61.405155 L 16.890573,61.55507 L 19.289216,61.405155 L 21.388029,61.405155 L 23.636757,61.405155 L 25.73557,61.25524 L 25.885485,60.355749 L 25.885485,59.306343 L 26.035401,58.107022 L 26.185316,56.9077 L 26.335231,55.558463 L 26.485146,54.209227 L 26.635061,52.710075 L 26.784977,51.360837 L 26.934892,49.71177 L 27.084807,48.212618 L 27.234722,45.064399 L 27.534553,41.766265 L 27.684468,38.618045 L 27.684468,37.118893 L 27.684468,35.619741 L 27.834383,34.120589 L 27.684468,32.771353 L 27.684468,31.422116 L 27.534553,30.072879 L 27.534553,28.873558 L 27.384637,27.824151 L 27.084807,26.774745 L 26.934892,25.875254 L 26.635061,25.125678 L 26.335231,24.376102 L 25.885485,23.926356 L 25.585655,23.476611 L 25.285825,23.326695 L 25.135909,23.326695 L 24.836079,23.17678 L 24.536249,23.17678 z "
       style="fill:none;fill-opacity:1;stroke:#000000;stroke-width:7;stroke-linecap:round;stroke-linejoin:round;stroke-miterlimit:4;stroke-dasharray:none;stroke-opacity:1;display:inline" />
    <path
       transform="translate(-2.68806,3.9601239)"
       id="path6076"
       d="M 44.638748,21.50664 C 44.638748,21.50664 57.135531,20.782189 58.765546,22.593317 C 60.395562,24.404445 62.025577,30.381166 62.025577,30.381166 C 62.025577,30.381166 63.112254,23.679993 65.828946,21.868865 C 68.545638,20.057737 83.940228,27.121137 83.940228,27.121137 C 83.940228,27.121137 73.797908,21.144414 73.979018,18.789948 C 74.160138,16.435481 87.200258,10.458759 87.200258,10.458759 C 87.200258,10.458759 73.797908,14.805466 72.892348,13.537677 C 71.986778,12.269887 80.861308,-2.2191367 80.861308,-2.2191367 C 80.861308,-2.2191367 66.915618,15.529917 64.380043,14.986579 C 61.844464,14.443241 66.734508,2.3086833 66.734508,2.3086833 C 66.734508,2.3086833 60.757787,12.632113 57.497757,15.529917 C 54.237726,18.427722 44.457635,21.687753 44.638748,21.50664 z "
       style="fill:none;fill-opacity:1;fill-rule:evenodd;stroke:#000000;stroke-width:7;stroke-linecap:round;stroke-linejoin:round;stroke-miterlimit:4;stroke-dasharray:none;stroke-opacity:1;display:inline" />
    <path
       transform="translate(-2.68806,3.9601239)"
       sodipodi:nodetypes="cssscc"
       id="path6079"
       d="M 101.89249,90.488704 C 104.42746,94.303155 104.60325,102.95364 110.3424,102.09004 C 115.35013,101.3365 121.74618,94.976774 120.98542,90.216972 C 120.12742,84.848798 111.67247,92.321313 110.93916,95.625926 C 110.16939,99.09482 113.57577,102.27671 116.96249,102.71523 C 122.80011,103.10564 127.05022,97.709755 128.69591,92.603439"
       style="fill:none;fill-opacity:1;stroke:#000000;stroke-width:12;stroke-linecap:round;stroke-linejoin:round;stroke-miterlimit:4;stroke-dasharray:none;stroke-opacity:1;display:inline" />
  </g>
  <g
     transform="translate(7.44764,5.7191367)"
     style="display:inline"
     inkscape:label="Cochon"
     id="layer5"
     inkscape:groupmode="layer">
    <path
       sodipodi:nodetypes="cssscc"
       id="path5771"
       d="M 101.89249,90.488704 C 104.42746,94.303155 104.60325,102.95364 110.3424,102.09004 C 115.35013,101.3365 121.74618,94.976774 120.98542,90.216972 C 120.12742,84.848798 111.67247,92.321313 110.93916,95.625926 C 110.16939,99.09482 113.57577,102.27671 116.96249,102.71523 C 122.80011,103.10564 127.05022,97.709755 128.69591,92.603439"
       style="fill:none;fill-opacity:0;stroke:#784421;stroke-width:5;stroke-linecap:round;stroke-linejoin:round;stroke-miterlimit:4;stroke-dasharray:none;stroke-opacity:1;display:inline" />
    <path
       id="path5773"
       d="M 26.635061,91.238281 L 29.783281,119.87208 L 36.379549,129.16683 L 42.076327,120.47174 L 47.92302,127.36784 L 63.514201,101.88226 L 77.156484,127.9675 L 81.054279,123.61996 L 83.602837,128.56716 L 90.798769,121.82098 L 99.793679,93.786839 L 26.635061,91.238281 z "
       style="fill:url(#linearGradient5869);fill-opacity:1.0;display:inline" />
    <path
       id="path5775"
       d="M 26.635061,91.238281 L 29.783281,119.87208 L 36.379549,129.16683 L 42.076327,120.47174 L 47.92302,127.36784 L 63.514201,101.88226 L 77.156484,127.9675 L 81.054279,123.61996 L 83.602837,128.56716 L 90.798769,121.82098 L 99.793679,93.786839"
       style="fill:none;stroke:none;stroke-width:0.29983041;display:inline" />
    <ellipse
       id="ellipse5777"
       ry="319"
       rx="350"
       cy="319"
       cx="465"
       style="display:inline;fill:url(#linearGradient5841);fill-opacity:1"
       transform="matrix(0.1499152,0,0,0.1499152,-7.3956905,13.882042)" />
    <ellipse
       sodipodi:ry="165"
       sodipodi:rx="225"
       sodipodi:cy="179"
       sodipodi:cx="465"
       id="ellipse5779"
       ry="165"
       rx="225"
       cy="179"
       cx="465"
       style="fill:#c87137;fill-opacity:1;display:inline"
       transform="matrix(0.1499152,0,0,0.1499152,-7.3956905,13.882042)" />
    <ellipse
       sodipodi:ry="123"
       sodipodi:rx="141"
       sodipodi:cy="452"
       sodipodi:cx="468"
       id="ellipse5787"
       ry="123"
       rx="141"
       cy="452"
       cx="468"
       style="fill:url(#linearGradient5833);fill-opacity:1.0;display:inline"
       transform="matrix(0.1499152,0,0,0.1499152,-7.3956905,13.882042)" />
    <ellipse
       sodipodi:ry="33"
       sodipodi:rx="31"
       sodipodi:cy="446"
       sodipodi:cx="412"
       id="ellipse5789"
       ry="33"
       rx="31"
       cy="446"
       cx="412"
       style="fill:url(#linearGradient5851);fill-opacity:1.0;display:inline"
       transform="matrix(0.1499152,0,0,0.1499152,-7.3956905,13.882042)" />
    <circle
       sodipodi:ry="32"
       sodipodi:rx="32"
       sodipodi:cy="446"
       sodipodi:cx="525"
       id="circle5791"
       r="32"
       cy="446"
       cx="525"
       style="fill:url(#linearGradient5849);fill-opacity:1.0;display:inline"
       transform="matrix(0.1499152,0,0,0.1499152,-7.3956905,13.882042)" />
    <path
       id="path5793"
       d="M 100.09351,23.776441 L 100.39334,23.776441 L 100.69317,23.926356 L 101.14292,23.926356 L 101.44275,24.076271 L 101.89249,24.376102 L 102.34224,24.526017 L 103.24173,25.125678 L 104.14122,25.875254 L 105.19063,26.62483 L 106.38995,27.524321 L 107.58927,28.723643 L 108.78859,29.773049 L 109.98791,31.122286 L 111.33715,32.321607 L 112.68639,33.820759 L 114.03563,35.169996 L 115.23495,36.669148 L 117.93342,39.667452 L 119.13274,41.316519 L 120.33207,42.815671 L 121.53139,44.314823 L 122.58079,45.813975 L 123.6302,47.313127 L 124.67961,48.812279 L 125.5791,50.311431 L 126.32867,51.660668 L 127.07825,52.85999 L 127.528,54.059311 L 127.97774,55.108718 L 128.42749,56.158124 L 128.5774,57.057615 L 128.5774,57.507361 L 128.5774,57.807191 L 128.5774,58.107022 L 128.42749,58.406852 L 128.42749,58.706683 L 128.27757,58.856598 L 127.97774,59.156428 L 127.528,59.456259 L 127.07825,59.756089 L 126.6285,59.906004 L 126.02884,60.205834 L 125.42918,60.355749 L 124.67961,60.505664 L 123.93003,60.805494 L 123.18046,60.95541 L 122.28096,61.105325 L 121.53139,61.25524 L 120.6319,61.405155 L 118.683,61.55507 L 116.58419,61.704986 L 114.48537,61.854901 L 112.23664,62.004816 L 109.98791,62.154731 L 107.73919,62.154731 L 105.49046,62.154731 L 103.24173,62.004816 L 100.993,62.004816 L 98.894189,61.854901 L 98.744269,60.95541 L 98.744269,59.906004 L 98.594359,58.706683 L 98.444439,57.507361 L 98.294529,56.158124 L 98.144609,54.808887 L 97.994699,53.459651 L 97.844779,51.960499 L 97.694869,50.461346 L 97.694869,48.812279 L 97.395039,45.66406 L 97.095209,42.365925 L 96.945289,39.217706 L 96.945289,37.718554 L 96.945289,36.219402 L 96.945289,34.72025 L 96.945289,33.371013 L 96.945289,32.021777 L 97.095209,30.67254 L 97.095209,29.473219 L 97.245119,28.423812 L 97.544949,27.374406 L 97.694869,26.474915 L 97.994699,25.725339 L 98.294529,24.975763 L 98.744269,24.526017 L 98.894189,24.226187 L 99.194019,24.076271 L 99.343929,23.926356 L 99.643759,23.926356 L 99.793679,23.776441 L 100.09351,23.776441 z "
       style="fill:url(#linearGradient5861);fill-opacity:1.0;display:inline" />
    <path
       id="path5801"
       d="M 24.536249,23.17678 L 24.236418,23.17678 L 23.936587,23.326695 L 23.636757,23.326695 L 23.187011,23.476611 L 22.737266,23.776441 L 22.437435,23.926356 L 21.537944,24.526017 L 20.488538,25.275593 L 19.439131,26.025169 L 18.23981,26.92466 L 17.040488,28.123982 L 15.841167,29.173388 L 14.641845,30.522625 L 13.292608,31.721947 L 11.943371,33.071183 L 10.74405,34.570335 L 9.3948125,36.069487 L 6.8462545,39.067791 L 5.4970175,40.716858 L 4.2976955,42.21601 L 3.0983745,43.715162 L 2.0489685,45.214314 L 0.99956155,46.713466 L 0.10007055,48.212618 L -0.79942045,49.561855 L -1.6989115,50.911092 L -2.2985725,52.260329 L -2.8982335,53.459651 L -3.3479795,54.509057 L -3.797725,55.558463 L -3.94764,56.457955 L -3.94764,56.757785 L -3.94764,57.207531 L -3.94764,57.507361 L -3.797725,57.807191 L -3.797725,58.107022 L -3.64781,58.256937 L -3.1980635,58.556767 L -2.8982335,58.856598 L -2.4484875,59.006513 L -1.8488275,59.306343 L -1.3990815,59.456259 L -0.64950545,59.756089 L -0.049844453,59.906004 L 0.69973155,60.055919 L 1.4493075,60.205834 L 2.3487985,60.355749 L 3.2482895,60.505664 L 4.1477805,60.655579 L 6.0966785,60.95541 L 8.0455755,61.105325 L 10.144389,61.25524 L 12.393117,61.405155 L 14.641845,61.405155 L 16.890573,61.55507 L 19.289216,61.405155 L 21.388029,61.405155 L 23.636757,61.405155 L 25.73557,61.25524 L 25.885485,60.355749 L 25.885485,59.306343 L 26.035401,58.107022 L 26.185316,56.9077 L 26.335231,55.558463 L 26.485146,54.209227 L 26.635061,52.710075 L 26.784977,51.360837 L 26.934892,49.71177 L 27.084807,48.212618 L 27.234722,45.064399 L 27.534553,41.766265 L 27.684468,38.618045 L 27.684468,37.118893 L 27.684468,35.619741 L 27.834383,34.120589 L 27.684468,32.771353 L 27.684468,31.422116 L 27.534553,30.072879 L 27.534553,28.873558 L 27.384637,27.824151 L 27.084807,26.774745 L 26.934892,25.875254 L 26.635061,25.125678 L 26.335231,24.376102 L 25.885485,23.926356 L 25.585655,23.476611 L 25.285825,23.326695 L 25.135909,23.326695 L 24.836079,23.17678 L 24.536249,23.17678 z "
       style="fill:url(#linearGradient5859);fill-opacity:1.0;display:inline" />
    <path
       id="path6057"
       d="M 44.638748,21.50664 C 44.638748,21.50664 57.135531,20.782189 58.765546,22.593317 C 60.395562,24.404445 62.025577,30.381166 62.025577,30.381166 C 62.025577,30.381166 63.112254,23.679993 65.828946,21.868865 C 68.545638,20.057737 83.940228,27.121137 83.940228,27.121137 C 83.940228,27.121137 73.797908,21.144414 73.979018,18.789948 C 74.160138,16.435481 87.200258,10.458759 87.200258,10.458759 C 87.200258,10.458759 73.797908,14.805466 72.892348,13.537677 C 71.986778,12.269887 80.861308,-2.2191367 80.861308,-2.2191367 C 80.861308,-2.2191367 66.915618,15.529917 64.380043,14.986579 C 61.844464,14.443241 66.734508,2.3086833 66.734508,2.3086833 C 66.734508,2.3086833 60.757787,12.632113 57.497757,15.529917 C 54.237726,18.427722 44.457635,21.687753 44.638748,21.50664 z "
       style="fill:#784421;fill-opacity:1;fill-rule:evenodd;stroke:none;stroke-width:0.5;stroke-linecap:butt;stroke-linejoin:round;stroke-miterlimit:4;stroke-dasharray:none;stroke-opacity:1;display:inline" />
  </g>
  <g
     transform="translate(10.1357,1.7590128)"
     style="display:inline"
     inkscape:label="yeux"
     id="layer2"
     inkscape:groupmode="layer">
    <path
       transform="matrix(1,0,0,0.7785548,28.93195,12.219765)"
       d="M 59.358632,48.481598 A 14.08727,13.735088 0 0 1 45.271362,62.216686 14.08727,13.735088 0 0 1 31.184093,48.481598 14.08727,13.735088 0 0 1 45.271362,34.74651 14.08727,13.735088 0 0 1 59.358632,48.481598 Z"
       sodipodi:ry="13.735088"
       sodipodi:rx="14.08727"
       sodipodi:cy="48.481598"
       sodipodi:cx="45.271362"
       id="path9390"
       style="fill:url(#radialGradient10449);fill-opacity:1;fill-rule:nonzero;stroke:none;stroke-width:0;stroke-linejoin:miter;stroke-miterlimit:4;stroke-dasharray:none;stroke-dashoffset:0;stroke-opacity:1;display:inline"
       sodipodi:type="arc" />
    <path
       transform="translate(0.8854763,1.2916472)"
       d="M 59.358632,48.481598 A 14.08727,13.735088 0 0 1 45.271362,62.216686 14.08727,13.735088 0 0 1 31.184093,48.481598 14.08727,13.735088 0 0 1 45.271362,34.74651 14.08727,13.735088 0 0 1 59.358632,48.481598 Z"
       sodipodi:ry="13.735088"
       sodipodi:rx="14.08727"
       sodipodi:cy="48.481598"
       sodipodi:cx="45.271362"
       id="path9386"
       style="fill:url(#radialGradient10451);fill-opacity:1;fill-rule:nonzero;stroke:none;stroke-width:0;stroke-linejoin:miter;stroke-miterlimit:4;stroke-dasharray:none;stroke-dashoffset:0;stroke-opacity:1"
       sodipodi:type="arc" />
    <path
       transform="translate(1.55372e-2,-4.52785e-2)"
       d="m 60.08417,50.756863 a 4.4599028,4.8900456 0 0 1 -4.459902,4.890045 4.4599028,4.8900456 0 0 1 -4.459903,-4.890045 4.4599028,4.8900456 0 0 1 4.459903,-4.890046 4.4599028,4.8900456 0 0 1 4.459902,4.890046 z"
       sodipodi:ry="4.8900456"
       sodipodi:rx="4.4599028"
       sodipodi:cy="50.756863"
       sodipodi:cx="55.624268"
       id="path8393"
       style="fill:url(#radialGradient10453);fill-opacity:1;fill-rule:nonzero;stroke:#000000;stroke-width:0;stroke-linejoin:miter;stroke-miterlimit:4;stroke-dasharray:none;stroke-dashoffset:0;stroke-opacity:1"
       sodipodi:type="arc" />
    <path
       transform="translate(-9.05562e-2,-0.4980605)"
       d="m 65.562835,51.775623 a 2.4676619,2.6487746 0 0 1 -2.467662,2.648775 2.4676619,2.6487746 0 0 1 -2.467662,-2.648775 2.4676619,2.6487746 0 0 1 2.467662,-2.648774 2.4676619,2.6487746 0 0 1 2.467662,2.648774 z"
       sodipodi:ry="2.6487746"
       sodipodi:rx="2.4676619"
       sodipodi:cy="51.775623"
       sodipodi:cx="63.095173"
       id="path8395"
       style="fill:url(#radialGradient10455);fill-opacity:1;fill-rule:nonzero;stroke:#000000;stroke-width:0;stroke-linejoin:miter;stroke-miterlimit:4;stroke-dasharray:none;stroke-dashoffset:0;stroke-opacity:1"
       sodipodi:type="arc" />
  </g>
</svg>
