<?xml version="1.0" encoding="UTF-8" standalone="no"?>
<svg
   xmlns:dc="http://purl.org/dc/elements/1.1/"
   xmlns:cc="http://creativecommons.org/ns#"
   xmlns:rdf="http://www.w3.org/1999/02/22-rdf-syntax-ns#"
   xmlns:svg="http://www.w3.org/2000/svg"
   xmlns="http://www.w3.org/2000/svg"
   xmlns:xlink="http://www.w3.org/1999/xlink"
   xmlns:sodipodi="http://sodipodi.sourceforge.net/DTD/sodipodi-0.dtd"
   xmlns:inkscape="http://www.inkscape.org/namespaces/inkscape"
   width="31.783609"
   height="37.623466"
   id="svg5323"
   sodipodi:version="0.32"
   inkscape:version="0.91 r13725"
   inkscape:output_extension="org.inkscape.output.svgz.inkscape"
   sodipodi:docname="za-poussin.svg"
   version="1.0"
   inkscape:export-filename="C:\Documents and Settings\jmviglino\Mes documents\svg\tictac.png"
   inkscape:export-xdpi="600"
   inkscape:export-ydpi="600">
  <metadata
     id="metadata5454">
    <rdf:RDF>
      <cc:Work
         rdf:about="">
        <dc:format>image/svg+xml</dc:format>
        <dc:type
           rdf:resource="http://purl.org/dc/dcmitype/StillImage" />
        <dc:title></dc:title>
        <dc:creator>
          <cc:Agent>
            <dc:title>JEM</dc:title>
          </cc:Agent>
        </dc:creator>
        <dc:subject>
          <rdf:Bag>
            <rdf:li>z'animo</rdf:li>
          </rdf:Bag>
        </dc:subject>
      </cc:Work>
    </rdf:RDF>
  </metadata>
  <defs
     id="defs5452">
    <linearGradient
       id="linearGradient6538">
      <stop
         style="stop-color:#ffff00;stop-opacity:1;"
         offset="0"
         id="stop6540" />
      <stop
         style="stop-color:#ff9900;stop-opacity:1;"
         offset="1"
         id="stop6542" />
    </linearGradient>
    <linearGradient
       id="linearGradient6484"
       inkscape:collect="always">
      <stop
         id="stop6486"
         offset="0"
         style="stop-color:#000000;stop-opacity:0" />
      <stop
         id="stop6488"
         offset="1"
         style="stop-color:#000000;stop-opacity:0;" />
    </linearGradient>
    <linearGradient
       id="linearGradient10371">
      <stop
         id="stop10373"
         offset="0"
         style="stop-color:#ffffff;stop-opacity:1;" />
      <stop
         style="stop-color:#ffffff;stop-opacity:1;"
         offset="0.72500002"
         id="stop10377" />
      <stop
         id="stop10375"
         offset="1"
         style="stop-color:#bbbbbb;stop-opacity:1;" />
    </linearGradient>
    <linearGradient
       id="linearGradient7396">
      <stop
         style="stop-color:#ffffff;stop-opacity:1;"
         offset="0"
         id="stop7398" />
      <stop
         style="stop-color:#000000;stop-opacity:1;"
         offset="1"
         id="stop7400" />
    </linearGradient>
    <radialGradient
       inkscape:collect="always"
       xlink:href="#linearGradient10371"
       id="radialGradient10449"
       gradientUnits="userSpaceOnUse"
       gradientTransform="matrix(-1.0116561e-2,1.2900781,-1.2764138,-1.6513077e-2,108.81931,-9.0482603)"
       cx="43.378098"
       cy="52.918861"
       fx="43.378098"
       fy="52.918861"
       r="14.08727" />
    <radialGradient
       inkscape:collect="always"
       xlink:href="#linearGradient10371"
       id="radialGradient10451"
       gradientUnits="userSpaceOnUse"
       gradientTransform="matrix(-2.7798347e-2,1.1860934,-1.1864193,-2.7805985e-2,96.722101,-4.6633809)"
       cx="42.645226"
       cy="44.580708"
       fx="42.645226"
       fy="44.580708"
       r="14.08727" />
    <radialGradient
       inkscape:collect="always"
       xlink:href="#linearGradient7396"
       id="radialGradient10453"
       gradientUnits="userSpaceOnUse"
       gradientTransform="matrix(0.548023,-4.5834327e-2,5.4508166e-2,0.6517326,23.274469,19.49083)"
       cx="57.390118"
       cy="48.883465"
       fx="57.390118"
       fy="48.883465"
       r="4.9099026" />
    <radialGradient
       inkscape:collect="always"
       xlink:href="#linearGradient7396"
       id="radialGradient10455"
       gradientUnits="userSpaceOnUse"
       gradientTransform="matrix(0.6896268,0,0,0.6896268,19.836006,15.712507)"
       cx="63.910179"
       cy="50.816406"
       fx="63.910179"
       fy="50.816406"
       r="2.9176619" />
    <linearGradient
       inkscape:collect="always"
       xlink:href="#linearGradient6484"
       id="linearGradient6464"
       x1="211"
       y1="247"
       x2="623"
       y2="511"
       gradientUnits="userSpaceOnUse" />
    <linearGradient
       inkscape:collect="always"
       xlink:href="#linearGradient6538"
       id="linearGradient6474"
       x1="211"
       y1="247"
       x2="623"
       y2="511"
       gradientUnits="userSpaceOnUse" />
    <linearGradient
       inkscape:collect="always"
       xlink:href="#linearGradient6538"
       id="linearGradient6476"
       x1="195"
       y1="493"
       x2="641"
       y2="851"
       gradientUnits="userSpaceOnUse" />
    <linearGradient
       inkscape:collect="always"
       xlink:href="#linearGradient6538"
       id="linearGradient6544"
       x1="498.45428"
       y1="848.21344"
       x2="498.42819"
       y2="917.27191"
       gradientUnits="userSpaceOnUse" />
    <linearGradient
       inkscape:collect="always"
       xlink:href="#linearGradient6538"
       id="linearGradient6546"
       x1="498.45428"
       y1="843.21344"
       x2="498.42819"
       y2="912.27191"
       gradientUnits="userSpaceOnUse" />
    <linearGradient
       inkscape:collect="always"
       xlink:href="#linearGradient6538"
       id="linearGradient6548"
       x1="493.95428"
       y1="844.21344"
       x2="493.92819"
       y2="913.27191"
       gradientUnits="userSpaceOnUse" />
    <linearGradient
       inkscape:collect="always"
       xlink:href="#linearGradient6538"
       id="linearGradient6550"
       x1="498.45428"
       y1="848.21344"
       x2="498.42819"
       y2="917.27191"
       gradientUnits="userSpaceOnUse" />
    <linearGradient
       inkscape:collect="always"
       xlink:href="#linearGradient6538"
       id="linearGradient6552"
       x1="498.45428"
       y1="844.21344"
       x2="498.42819"
       y2="913.27191"
       gradientUnits="userSpaceOnUse" />
    <linearGradient
       inkscape:collect="always"
       xlink:href="#linearGradient6538"
       id="linearGradient6554"
       x1="495.95428"
       y1="843.21344"
       x2="495.92816"
       y2="912.27191"
       gradientUnits="userSpaceOnUse" />
    <linearGradient
       inkscape:collect="always"
       xlink:href="#linearGradient6538"
       id="linearGradient6562"
       x1="57.297771"
       y1="65.233604"
       x2="70.494225"
       y2="61.697628"
       gradientUnits="userSpaceOnUse"
       gradientTransform="matrix(0.2825579,0,0,0.2825579,45.285472,44.849372)" />
    <linearGradient
       inkscape:collect="always"
       xlink:href="#linearGradient6538"
       id="linearGradient4655"
       x1="417"
       y1="227"
       x2="417"
       y2="845"
       gradientUnits="userSpaceOnUse" />
  </defs>
  <sodipodi:namedview
     inkscape:window-height="968"
     inkscape:window-width="1280"
     inkscape:pageshadow="2"
     inkscape:pageopacity="0.0"
     guidetolerance="10.0"
     gridtolerance="10.0"
     objecttolerance="10.0"
     borderopacity="1.0"
     bordercolor="#666666"
     pagecolor="#ffffff"
     id="base"
     inkscape:zoom="13.076945"
     inkscape:cx="15.891805"
     inkscape:cy="18.811733"
     inkscape:window-x="0"
     inkscape:window-y="22"
     inkscape:current-layer="layer4"
     showgrid="false"
     inkscape:window-maximized="0" />
  <g
     inkscape:groupmode="layer"
     id="layer4"
     inkscape:label="fond"
     style="display:inline"
     transform="translate(-44.540867,-47.66127)">
    <ellipse
       transform="matrix(4.2319259e-2,0,0,4.2319259e-2,42.789617,45.066529)"
       style="fill:none;fill-opacity:1;stroke:#000000;stroke-width:82.70465851;stroke-miterlimit:4;stroke-dasharray:none;stroke-opacity:1"
       cx="417"
       cy="536"
       rx="292"
       ry="309"
       id="ellipse6575"
       sodipodi:cx="417"
       sodipodi:cy="536"
       sodipodi:rx="292"
       sodipodi:ry="309" />
    <ellipse
       transform="matrix(4.2319259e-2,0,0,4.2319259e-2,42.789617,45.066529)"
       style="fill:none;fill-opacity:1;fill-rule:nonzero;stroke:#000000;stroke-width:82.70465851;stroke-miterlimit:4;stroke-dasharray:none;stroke-opacity:1"
       cx="417"
       cy="379"
       rx="205"
       ry="131"
       id="ellipse6577"
       sodipodi:cx="417"
       sodipodi:cy="379"
       sodipodi:rx="205"
       sodipodi:ry="131" />
    <circle
       transform="matrix(4.2319259e-2,0,0,4.2319259e-2,42.895416,45.066529)"
       style="fill:none;fill-opacity:1;stroke:#000000;stroke-width:82.70465851;stroke-miterlimit:4;stroke-dasharray:none;stroke-opacity:1"
       cx="555"
       cy="869"
       r="40"
       id="circle6579"
       sodipodi:cx="555"
       sodipodi:cy="869"
       sodipodi:rx="40"
       sodipodi:ry="40" />
    <circle
       transform="matrix(4.2319259e-2,0,0,4.2319259e-2,42.789617,45.02421)"
       style="fill:none;fill-opacity:1;stroke:#000000;stroke-width:82.70465851;stroke-miterlimit:4;stroke-dasharray:none;stroke-opacity:1"
       cx="501"
       cy="869"
       r="39"
       id="circle6581"
       sodipodi:cx="501"
       sodipodi:cy="869"
       sodipodi:rx="39"
       sodipodi:ry="39" />
    <circle
       transform="matrix(4.2319259e-2,0,0,4.2319259e-2,42.789617,44.854933)"
       style="fill:none;fill-opacity:1;stroke:#000000;stroke-width:82.70465851;stroke-miterlimit:4;stroke-dasharray:none;stroke-opacity:1"
       cx="616"
       cy="873"
       r="39"
       id="circle6583"
       sodipodi:cx="616"
       sodipodi:cy="873"
       sodipodi:rx="39"
       sodipodi:ry="39" />
    <circle
       transform="matrix(4.2319259e-2,0,0,4.2319259e-2,42.980054,45.02421)"
       style="fill:none;fill-opacity:1;stroke:#000000;stroke-width:82.70465851;stroke-miterlimit:4;stroke-dasharray:none;stroke-opacity:1"
       cx="283"
       cy="869"
       r="39"
       id="circle6585"
       sodipodi:cx="283"
       sodipodi:cy="869"
       sodipodi:rx="39"
       sodipodi:ry="39" />
    <circle
       transform="matrix(4.2319259e-2,0,0,4.2319259e-2,42.789617,45.066529)"
       style="fill:none;fill-opacity:1;stroke:#000000;stroke-width:82.70465851;stroke-miterlimit:4;stroke-dasharray:none;stroke-opacity:1"
       cx="230"
       cy="869"
       r="40"
       id="circle6587"
       sodipodi:cx="230"
       sodipodi:cy="869"
       sodipodi:rx="40"
       sodipodi:ry="40" />
    <circle
       transform="matrix(4.2319259e-2,0,0,4.2319259e-2,42.789617,44.854933)"
       style="fill:none;fill-opacity:1;stroke:#000000;stroke-width:82.70465851;stroke-miterlimit:4;stroke-dasharray:none;stroke-opacity:1"
       cx="344"
       cy="873"
       r="39"
       id="circle6589"
       sodipodi:cx="344"
       sodipodi:cy="873"
       sodipodi:rx="39"
       sodipodi:ry="39" />
    <path
       style="fill:#ffff00;fill-opacity:1;fill-rule:evenodd;stroke:#000000;stroke-width:3.5;stroke-linecap:butt;stroke-linejoin:round;stroke-miterlimit:4;stroke-dasharray:none;stroke-opacity:1;display:inline"
       d="M 55.315994,56.115176 C 55.315994,56.115176 58.847059,55.910477 59.307632,56.422225 C 59.768206,56.933974 60.22878,58.622743 60.22878,58.622743 C 60.22878,58.622743 60.535829,56.729274 61.303452,56.217525 C 62.071074,55.705777 66.420937,57.701596 66.420937,57.701596 C 66.420937,57.701596 63.555145,56.012826 63.606319,55.347553 C 63.657495,54.68228 67.342084,52.99351 67.342084,52.99351 C 67.342084,52.99351 63.555145,54.221706 63.299271,53.863483 C 63.043395,53.505259 65.550964,49.41127 65.550964,49.41127 C 65.550964,49.41127 61.610499,54.426406 60.894053,54.272881 C 60.177605,54.119357 61.559325,50.690642 61.559325,50.690642 C 61.559325,50.690642 59.870556,53.607608 58.949408,54.426406 C 58.028261,55.245203 55.264819,56.166351 55.315994,56.115176 z "
       id="path5739" />
  </g>
  <g
     inkscape:groupmode="layer"
     id="layer3"
     inkscape:label="Poulette"
     transform="translate(-47.228927,-43.701146)"
     style="display:inline">
    <path
       sodipodi:type="arc"
       style="opacity:1;color:#000000;fill:#ffff00;fill-opacity:1;fill-rule:nonzero;stroke:#000000;stroke-width:5.89942932;stroke-linecap:round;stroke-linejoin:round;marker:none;marker-start:none;marker-mid:none;marker-end:none;stroke-miterlimit:4;stroke-dasharray:none;stroke-dashoffset:0;stroke-opacity:1;visibility:visible;display:inline;overflow:visible;enable-background:accumulate"
       id="path5487"
       sodipodi:cx="106.08865"
       sodipodi:cy="69.385155"
       sodipodi:rx="10.379704"
       sodipodi:ry="18.602585"
       d="M 116.46836,69.385155 A 10.379704,18.602585 0 0 1 106.08865,87.98774 10.379704,18.602585 0 0 1 95.708949,69.385155 10.379704,18.602585 0 0 1 106.08865,50.78257 10.379704,18.602585 0 0 1 116.46836,69.385155 Z"
       transform="matrix(-0.2674067,-9.6427656e-2,-9.0061936e-2,0.29659,85.963842,54.524615)" />
    <path
       sodipodi:type="arc"
       style="opacity:1;color:#000000;fill:#ffff00;fill-opacity:1;fill-rule:nonzero;stroke:#000000;stroke-width:5.89942932;stroke-linecap:round;stroke-linejoin:round;marker:none;marker-start:none;marker-mid:none;marker-end:none;stroke-miterlimit:4;stroke-dasharray:none;stroke-dashoffset:0;stroke-opacity:1;visibility:visible;display:inline;overflow:visible;enable-background:accumulate"
       id="path2575"
       sodipodi:cx="106.08865"
       sodipodi:cy="69.385155"
       sodipodi:rx="10.379704"
       sodipodi:ry="18.602585"
       d="M 116.46836,69.385155 A 10.379704,18.602585 0 0 1 106.08865,87.98774 10.379704,18.602585 0 0 1 95.708949,69.385155 10.379704,18.602585 0 0 1 106.08865,50.78257 10.379704,18.602585 0 0 1 116.46836,69.385155 Z"
       transform="matrix(0.2674067,-9.6427656e-2,9.0061936e-2,0.29659,40.277622,54.524615)" />
    <ellipse
       transform="matrix(4.2319259e-2,0,0,4.2319259e-2,45.477677,41.106405)"
       style="fill:url(#linearGradient4655);fill-opacity:1;fill-rule:nonzero;stroke:none;stroke-width:2"
       cx="417"
       cy="536"
       rx="292"
       ry="309"
       id="ellipse104"
       sodipodi:cx="417"
       sodipodi:cy="536"
       sodipodi:rx="292"
       sodipodi:ry="309" />
    <ellipse
       transform="matrix(4.2319259e-2,0,0,4.2319259e-2,45.477677,41.106405)"
       style="fill:url(#linearGradient6474);fill-opacity:1;fill-rule:nonzero;stroke:url(#linearGradient6464);stroke-width:2"
       cx="417"
       cy="379"
       rx="205"
       ry="131"
       id="ellipse106"
       sodipodi:cx="417"
       sodipodi:cy="379"
       sodipodi:rx="205"
       sodipodi:ry="131" />
    <ellipse
       transform="matrix(4.2319259e-2,0,0,4.2319259e-2,45.477677,41.106405)"
       style="fill:url(#linearGradient6476);fill-opacity:1;fill-rule:nonzero;stroke:none;stroke-width:2"
       cx="418"
       cy="672"
       rx="222"
       ry="178"
       id="ellipse108"
       sodipodi:cx="418"
       sodipodi:cy="672"
       sodipodi:rx="222"
       sodipodi:ry="178" />
    <path
       style="fill:url(#linearGradient6562);fill-opacity:1;stroke:none;stroke-width:0.29954401"
       d="M 63.12481,65.397659 L 60.627973,61.419649 L 65.663966,61.419649 L 63.12481,65.397659 z "
       id="path126" />
    <circle
       transform="matrix(4.2319259e-2,0,0,4.2319259e-2,45.583476,41.106405)"
       style="fill:url(#linearGradient6554);fill-opacity:1;stroke:none;stroke-width:2"
       cx="555"
       cy="869"
       r="40"
       id="circle134"
       sodipodi:cx="555"
       sodipodi:cy="869"
       sodipodi:rx="40"
       sodipodi:ry="40" />
    <circle
       transform="matrix(4.2319259e-2,0,0,4.2319259e-2,45.477677,41.064085)"
       style="fill:url(#linearGradient6552);fill-opacity:1;stroke:none;stroke-width:2"
       cx="501"
       cy="869"
       r="39"
       id="circle136"
       sodipodi:cx="501"
       sodipodi:cy="869"
       sodipodi:rx="39"
       sodipodi:ry="39" />
    <circle
       transform="matrix(4.2319259e-2,0,0,4.2319259e-2,45.477677,40.894808)"
       style="fill:url(#linearGradient6550);fill-opacity:1;stroke:none;stroke-width:2"
       cx="616"
       cy="873"
       r="39"
       id="circle138"
       sodipodi:cx="616"
       sodipodi:cy="873"
       sodipodi:rx="39"
       sodipodi:ry="39" />
    <circle
       transform="matrix(4.2319259e-2,0,0,4.2319259e-2,45.668114,41.064085)"
       style="fill:url(#linearGradient6548);fill-opacity:1;stroke:none;stroke-width:2"
       cx="283"
       cy="869"
       r="39"
       id="circle146"
       sodipodi:cx="283"
       sodipodi:cy="869"
       sodipodi:rx="39"
       sodipodi:ry="39" />
    <circle
       transform="matrix(4.2319259e-2,0,0,4.2319259e-2,45.477677,41.106405)"
       style="fill:url(#linearGradient6546);fill-opacity:1;stroke:none;stroke-width:2"
       cx="230"
       cy="869"
       r="40"
       id="circle148"
       sodipodi:cx="230"
       sodipodi:cy="869"
       sodipodi:rx="40"
       sodipodi:ry="40" />
    <circle
       transform="matrix(4.2319259e-2,0,0,4.2319259e-2,45.477677,40.894808)"
       style="fill:url(#linearGradient6544);fill-opacity:1;stroke:none;stroke-width:2"
       cx="344"
       cy="873"
       r="39"
       id="circle150"
       sodipodi:cx="344"
       sodipodi:cy="873"
       sodipodi:rx="39"
       sodipodi:ry="39" />
    <path
       style="fill:#ffff00;fill-opacity:1;fill-rule:evenodd;stroke:none;stroke-width:0.5;stroke-linecap:butt;stroke-linejoin:round;stroke-miterlimit:4;stroke-dasharray:none;stroke-opacity:1;display:inline"
       d="M 58.004054,52.155052 C 58.004054,52.155052 61.535119,51.950352 61.995692,52.462101 C 62.456266,52.973849 62.91684,54.662619 62.91684,54.662619 C 62.91684,54.662619 63.223889,52.76915 63.991512,52.257401 C 64.759134,51.745653 69.108997,53.741472 69.108997,53.741472 C 69.108997,53.741472 66.243205,52.052702 66.294379,51.387429 C 66.345555,50.722156 70.030144,49.033386 70.030144,49.033386 C 70.030144,49.033386 66.243205,50.261582 65.987331,49.903358 C 65.731455,49.545134 68.239024,45.451146 68.239024,45.451146 C 68.239024,45.451146 64.298559,50.466281 63.582113,50.312757 C 62.865665,50.159233 64.247385,46.730518 64.247385,46.730518 C 64.247385,46.730518 62.558616,49.647484 61.637468,50.466281 C 60.716321,51.285079 57.952879,52.206227 58.004054,52.155052 z "
       id="path4575" />
  </g>
  <g
     inkscape:groupmode="layer"
     id="layer2"
     inkscape:label="yeux"
     style="display:inline"
     transform="translate(-44.540867,-47.66127)">
    <path
       sodipodi:type="arc"
       style="fill:url(#radialGradient10449);fill-opacity:1;fill-rule:nonzero;stroke:none;stroke-width:0;stroke-linejoin:miter;stroke-miterlimit:4;stroke-dasharray:none;stroke-dashoffset:0;stroke-opacity:1;display:inline"
       id="path9390"
       sodipodi:cx="45.271362"
       sodipodi:cy="48.481598"
       sodipodi:rx="14.08727"
       sodipodi:ry="13.735088"
       d="M 59.358632,48.481598 A 14.08727,13.735088 0 0 1 45.271362,62.216686 14.08727,13.735088 0 0 1 31.184093,48.481598 14.08727,13.735088 0 0 1 45.271362,34.74651 14.08727,13.735088 0 0 1 59.358632,48.481598 Z"
       transform="matrix(0.2825579,0,0,0.2199868,51.531895,51.143323)" />
    <path
       sodipodi:type="arc"
       style="fill:url(#radialGradient10451);fill-opacity:1;fill-rule:nonzero;stroke:none;stroke-width:0;stroke-linejoin:miter;stroke-miterlimit:4;stroke-dasharray:none;stroke-dashoffset:0;stroke-opacity:1"
       id="path9386"
       sodipodi:cx="45.271362"
       sodipodi:cy="48.481598"
       sodipodi:rx="14.08727"
       sodipodi:ry="13.735088"
       d="M 59.358632,48.481598 A 14.08727,13.735088 0 0 1 45.271362,62.216686 14.08727,13.735088 0 0 1 31.184093,48.481598 14.08727,13.735088 0 0 1 45.271362,34.74651 14.08727,13.735088 0 0 1 59.358632,48.481598 Z"
       transform="matrix(0.2825579,0,0,0.2825579,43.607143,48.055497)" />
    <path
       sodipodi:type="arc"
       style="fill:url(#radialGradient10453);fill-opacity:1;fill-rule:nonzero;stroke:#000000;stroke-width:0;stroke-linejoin:miter;stroke-miterlimit:4;stroke-dasharray:none;stroke-dashoffset:0;stroke-opacity:1"
       id="path8393"
       sodipodi:cx="55.624268"
       sodipodi:cy="50.756863"
       sodipodi:rx="4.4599028"
       sodipodi:ry="4.8900456"
       d="m 60.08417,50.756863 a 4.4599028,4.8900456 0 0 1 -4.459902,4.890045 4.4599028,4.8900456 0 0 1 -4.459903,-4.890045 4.4599028,4.8900456 0 0 1 4.459903,-4.890046 4.4599028,4.8900456 0 0 1 4.459902,4.890046 z"
       transform="matrix(0.2825579,0,0,0.2825579,43.361334,47.677738)" />
    <path
       sodipodi:type="arc"
       style="fill:url(#radialGradient10455);fill-opacity:1;fill-rule:nonzero;stroke:#000000;stroke-width:0;stroke-linejoin:miter;stroke-miterlimit:4;stroke-dasharray:none;stroke-dashoffset:0;stroke-opacity:1"
       id="path8395"
       sodipodi:cx="63.095173"
       sodipodi:cy="51.775623"
       sodipodi:rx="2.4676619"
       sodipodi:ry="2.6487746"
       d="m 65.562835,51.775623 a 2.4676619,2.6487746 0 0 1 -2.467662,2.648775 2.4676619,2.6487746 0 0 1 -2.467662,-2.648775 2.4676619,2.6487746 0 0 1 2.467662,-2.648774 2.4676619,2.6487746 0 0 1 2.467662,2.648774 z"
       transform="matrix(0.2825579,0,0,0.2825579,43.331357,47.549801)" />
  </g>
</svg>
