<?xml version="1.0" encoding="UTF-8" standalone="no"?>
<!-- Created with Inkscape (http://www.inkscape.org/) -->

<svg
   xmlns:dc="http://purl.org/dc/elements/1.1/"
   xmlns:cc="http://creativecommons.org/ns#"
   xmlns:rdf="http://www.w3.org/1999/02/22-rdf-syntax-ns#"
   xmlns:svg="http://www.w3.org/2000/svg"
   xmlns="http://www.w3.org/2000/svg"
   xmlns:xlink="http://www.w3.org/1999/xlink"
   xmlns:sodipodi="http://sodipodi.sourceforge.net/DTD/sodipodi-0.dtd"
   xmlns:inkscape="http://www.inkscape.org/namespaces/inkscape"
   width="81.778221"
   height="93.320343"
   id="svg4366"
   sodipodi:version="0.32"
   inkscape:version="0.91 r13725"
   version="1.0"
   sodipodi:docname="za-raisin.svg"
   inkscape:output_extension="org.inkscape.output.svgz.inkscape">
  <defs
     id="defs4368">
    <linearGradient
       id="linearGradient4622">
      <stop
         style="stop-color:#99cc00;stop-opacity:1;"
         offset="0"
         id="stop4624" />
      <stop
         style="stop-color:#5d7c00;stop-opacity:1;"
         offset="1"
         id="stop4626" />
    </linearGradient>
    <linearGradient
       id="linearGradient4418">
      <stop
         style="stop-color:#9933ff;stop-opacity:1;"
         offset="0"
         id="stop4420" />
      <stop
         style="stop-color:#4f00ca;stop-opacity:1;"
         offset="1"
         id="stop4422" />
    </linearGradient>
    <radialGradient
       inkscape:collect="always"
       xlink:href="#linearGradient4418"
       id="radialGradient4426"
       cx="188.32236"
       cy="339.09576"
       fx="188.32236"
       fy="339.09576"
       r="46"
       gradientUnits="userSpaceOnUse"
       gradientTransform="matrix(2.1266356,0,0,2.1266356,-218.56731,-385.18887)" />
    <linearGradient
       inkscape:collect="always"
       xlink:href="#linearGradient4622"
       id="linearGradient4628"
       x1="321.60095"
       y1="192.5"
       x2="311.55502"
       y2="304"
       gradientUnits="userSpaceOnUse" />
  </defs>
  <sodipodi:namedview
     id="base"
     pagecolor="#ffffff"
     bordercolor="#666666"
     borderopacity="1.0"
     inkscape:pageopacity="0.0"
     inkscape:pageshadow="2"
     inkscape:zoom="3.1308838"
     inkscape:cx="44.615723"
     inkscape:cy="52.865591"
     inkscape:document-units="px"
     inkscape:current-layer="layer1"
     showgrid="false"
     inkscape:window-width="1280"
     inkscape:window-height="972"
     inkscape:window-x="-8"
     inkscape:window-y="-8"
     inkscape:window-maximized="1" />
  <metadata
     id="metadata4371">
    <rdf:RDF>
      <cc:Work
         rdf:about="">
        <dc:format>image/svg+xml</dc:format>
        <dc:type
           rdf:resource="http://purl.org/dc/dcmitype/StillImage" />
        <dc:title></dc:title>
        <dc:subject>
          <rdf:Bag>
            <rdf:li>z'animo</rdf:li>
          </rdf:Bag>
        </dc:subject>
        <dc:creator>
          <cc:Agent>
            <dc:title>JEM</dc:title>
          </cc:Agent>
        </dc:creator>
      </cc:Work>
    </rdf:RDF>
  </metadata>
  <g
     inkscape:groupmode="layer"
     id="layer2"
     style="display:inline"
     transform="translate(3.6079597,4.34149)">
    <path
       transform="translate(-743.6255,-933.18941)"
       style="fill:none;stroke:#000000;stroke-width:10.5;stroke-linecap:round;stroke-linejoin:round;stroke-miterlimit:4;stroke-dasharray:none;stroke-opacity:1"
       d="M 766.52039,958.77783 C 763.11051,954.51689 761.68178,948.12176 756.81642,945.54599 C 753.37944,943.72642 751.56819,953.48388 755.93141,951.60968 C 758.34033,950.57494 768.41073,940.89685 769.09283,947.08046 C 769.53459,951.08526 767.39728,954.31963 765.86981,948.98347 C 764.64365,944.69993 764.48057,939.67811 762.01215,936.17651 C 759.86347,933.12848 757.26654,942.60919 760.89707,941.34007 C 765.89128,939.59425 770.51022,936.49113 775.37682,934.09792"
       id="path4490"
       sodipodi:nodetypes="cssssssc" />
    <circle
       sodipodi:ry="46"
       sodipodi:rx="46"
       sodipodi:cy="345"
       sodipodi:cx="194"
       id="use4492"
       r="46"
       cy="345"
       cx="194"
       style="color:#000000;fill:#9933ff;fill-opacity:1;fill-rule:nonzero;stroke:#000000;stroke-width:46.77899933;stroke-linecap:round;stroke-linejoin:round;marker:none;marker-start:none;marker-mid:none;marker-end:none;stroke-miterlimit:4;stroke-dasharray:none;stroke-dashoffset:0;stroke-opacity:1;visibility:visible;display:inline;overflow:visible;enable-background:accumulate"
       transform="matrix(0.1496398,0,0,0.1496398,-14.73138,-16.71401)" />
    <circle
       sodipodi:ry="46"
       sodipodi:rx="46"
       sodipodi:cy="345"
       sodipodi:cx="194"
       id="use4494"
       r="46"
       cy="345"
       cx="194"
       style="color:#000000;fill:#9933ff;fill-opacity:1;fill-rule:nonzero;stroke:#000000;stroke-width:46.77899933;stroke-linecap:round;stroke-linejoin:round;marker:none;marker-start:none;marker-mid:none;marker-end:none;stroke-miterlimit:4;stroke-dasharray:none;stroke-dashoffset:0;stroke-opacity:1;visibility:visible;display:inline;overflow:visible;enable-background:accumulate"
       transform="matrix(0.1496398,0,0,0.1496398,-8.47787,-22.03953)" />
    <circle
       sodipodi:ry="46"
       sodipodi:rx="46"
       sodipodi:cy="345"
       sodipodi:cx="194"
       id="use4496"
       r="46"
       cy="345"
       cx="194"
       style="color:#000000;fill:#9933ff;fill-opacity:1;fill-rule:nonzero;stroke:#000000;stroke-width:46.77899933;stroke-linecap:round;stroke-linejoin:round;marker:none;marker-start:none;marker-mid:none;marker-end:none;stroke-miterlimit:4;stroke-dasharray:none;stroke-dashoffset:0;stroke-opacity:1;visibility:visible;display:inline;overflow:visible;enable-background:accumulate"
       transform="matrix(0.1496398,0,0,0.1496398,2.13703,-29.71839)" />
    <circle
       sodipodi:ry="46"
       sodipodi:rx="46"
       sodipodi:cy="345"
       sodipodi:cx="194"
       id="use4498"
       r="46"
       cy="345"
       cx="194"
       style="color:#000000;fill:#9933ff;fill-opacity:1;fill-rule:nonzero;stroke:#000000;stroke-width:46.77899933;stroke-linecap:round;stroke-linejoin:round;marker:none;marker-start:none;marker-mid:none;marker-end:none;stroke-miterlimit:4;stroke-dasharray:none;stroke-dashoffset:0;stroke-opacity:1;visibility:visible;display:inline;overflow:visible;enable-background:accumulate"
       transform="matrix(0.1496398,0,0,0.1496398,1.45949,-22.03953)" />
    <circle
       sodipodi:ry="46"
       sodipodi:rx="46"
       sodipodi:cy="345"
       sodipodi:cx="194"
       id="use4500"
       r="46"
       cy="345"
       cx="194"
       style="color:#000000;fill:#9933ff;fill-opacity:1;fill-rule:nonzero;stroke:#000000;stroke-width:46.77899933;stroke-linecap:round;stroke-linejoin:round;marker:none;marker-start:none;marker-mid:none;marker-end:none;stroke-miterlimit:4;stroke-dasharray:none;stroke-dashoffset:0;stroke-opacity:1;visibility:visible;display:inline;overflow:visible;enable-background:accumulate"
       transform="matrix(0.1496398,0,0,0.1496398,7.33156,-16.845)" />
    <circle
       sodipodi:ry="46"
       sodipodi:rx="46"
       sodipodi:cy="345"
       sodipodi:cx="194"
       id="use4502"
       r="46"
       cy="345"
       cx="194"
       style="color:#000000;fill:#9933ff;fill-opacity:1;fill-rule:nonzero;stroke:#000000;stroke-width:46.77899933;stroke-linecap:round;stroke-linejoin:round;marker:none;marker-start:none;marker-mid:none;marker-end:none;stroke-miterlimit:4;stroke-dasharray:none;stroke-dashoffset:0;stroke-opacity:1;visibility:visible;display:inline;overflow:visible;enable-background:accumulate"
       transform="matrix(0.1496398,0,0,0.1496398,16.59136,-17.2967)" />
    <circle
       sodipodi:ry="46"
       sodipodi:rx="46"
       sodipodi:cy="345"
       sodipodi:cx="194"
       id="use4504"
       r="46"
       cy="345"
       cx="194"
       style="color:#000000;fill:#9933ff;fill-opacity:1;fill-rule:nonzero;stroke:#000000;stroke-width:46.77899933;stroke-linecap:round;stroke-linejoin:round;marker:none;marker-start:none;marker-mid:none;marker-end:none;stroke-miterlimit:4;stroke-dasharray:none;stroke-dashoffset:0;stroke-opacity:1;visibility:visible;display:inline;overflow:visible;enable-background:accumulate"
       transform="matrix(0.1496398,0,0,0.1496398,13.20363,-9.61784)" />
    <circle
       sodipodi:ry="46"
       sodipodi:rx="46"
       sodipodi:cy="345"
       sodipodi:cx="194"
       id="use4506"
       r="46"
       cy="345"
       cx="194"
       style="color:#000000;fill:#9933ff;fill-opacity:1;fill-rule:nonzero;stroke:#000000;stroke-width:46.77899933;stroke-linecap:round;stroke-linejoin:round;marker:none;marker-start:none;marker-mid:none;marker-end:none;stroke-miterlimit:4;stroke-dasharray:none;stroke-dashoffset:0;stroke-opacity:1;visibility:visible;display:inline;overflow:visible;enable-background:accumulate"
       transform="matrix(0.1496398,0,0,0.1496398,5.52477,-4.64916)" />
    <circle
       sodipodi:ry="46"
       sodipodi:rx="46"
       sodipodi:cy="345"
       sodipodi:cx="194"
       id="use4508"
       r="46"
       cy="345"
       cx="194"
       style="color:#000000;fill:#9933ff;fill-opacity:1;fill-rule:nonzero;stroke:#000000;stroke-width:46.77899933;stroke-linecap:round;stroke-linejoin:round;marker:none;marker-start:none;marker-mid:none;marker-end:none;stroke-miterlimit:4;stroke-dasharray:none;stroke-dashoffset:0;stroke-opacity:1;visibility:visible;display:inline;overflow:visible;enable-background:accumulate"
       transform="matrix(0.1496398,0,0,0.1496398,-12.54315,-7.1335)" />
    <circle
       sodipodi:ry="46"
       sodipodi:rx="46"
       sodipodi:cy="345"
       sodipodi:cx="194"
       id="use4510"
       r="46"
       cy="345"
       cx="194"
       style="color:#000000;fill:#9933ff;fill-opacity:1;fill-rule:nonzero;stroke:#000000;stroke-width:46.77899933;stroke-linecap:round;stroke-linejoin:round;marker:none;marker-start:none;marker-mid:none;marker-end:none;stroke-miterlimit:4;stroke-dasharray:none;stroke-dashoffset:0;stroke-opacity:1;visibility:visible;display:inline;overflow:visible;enable-background:accumulate"
       transform="matrix(0.1496398,0,0,0.1496398,-22.25465,-8.48859)" />
    <circle
       sodipodi:ry="46"
       sodipodi:rx="46"
       sodipodi:cy="345"
       sodipodi:cx="194"
       id="use4512"
       r="46"
       cy="345"
       cx="194"
       style="color:#000000;fill:#9933ff;fill-opacity:1;fill-rule:nonzero;stroke:#000000;stroke-width:46.77899933;stroke-linecap:round;stroke-linejoin:round;marker:none;marker-start:none;marker-mid:none;marker-end:none;stroke-miterlimit:4;stroke-dasharray:none;stroke-dashoffset:0;stroke-opacity:1;visibility:visible;display:inline;overflow:visible;enable-background:accumulate"
       transform="matrix(0.1496398,0,0,0.1496398,-17.96352,0.31952)" />
    <circle
       sodipodi:ry="46"
       sodipodi:rx="46"
       sodipodi:cy="345"
       sodipodi:cx="194"
       id="use4514"
       r="46"
       cy="345"
       cx="194"
       style="color:#000000;fill:#9933ff;fill-opacity:1;fill-rule:nonzero;stroke:#000000;stroke-width:46.77899933;stroke-linecap:round;stroke-linejoin:round;marker:none;marker-start:none;marker-mid:none;marker-end:none;stroke-miterlimit:4;stroke-dasharray:none;stroke-dashoffset:0;stroke-opacity:1;visibility:visible;display:inline;overflow:visible;enable-background:accumulate"
       transform="matrix(0.1496398,0,0,0.1496398,-10.73636,10.70857)" />
    <circle
       sodipodi:ry="46"
       sodipodi:rx="46"
       sodipodi:cy="345"
       sodipodi:cx="194"
       id="use4516"
       r="46"
       cy="345"
       cx="194"
       style="color:#000000;fill:#9933ff;fill-opacity:1;fill-rule:nonzero;stroke:#000000;stroke-width:46.77899933;stroke-linecap:round;stroke-linejoin:round;marker:none;marker-start:none;marker-mid:none;marker-end:none;stroke-miterlimit:4;stroke-dasharray:none;stroke-dashoffset:0;stroke-opacity:1;visibility:visible;display:inline;overflow:visible;enable-background:accumulate"
       transform="matrix(0.1496398,0,0,0.1496398,6.65401,5.96574)" />
    <circle
       sodipodi:ry="46"
       sodipodi:rx="46"
       sodipodi:cy="345"
       sodipodi:cx="194"
       id="use4518"
       r="46"
       cy="345"
       cx="194"
       style="color:#000000;fill:#9933ff;fill-opacity:1;fill-rule:nonzero;stroke:#000000;stroke-width:46.77899933;stroke-linecap:round;stroke-linejoin:round;marker:none;marker-start:none;marker-mid:none;marker-end:none;stroke-miterlimit:4;stroke-dasharray:none;stroke-dashoffset:0;stroke-opacity:1;visibility:visible;display:inline;overflow:visible;enable-background:accumulate"
       transform="matrix(0.1496398,0,0,0.1496398,8.9125,17.25819)" />
    <circle
       sodipodi:ry="46"
       sodipodi:rx="46"
       sodipodi:cy="345"
       sodipodi:cx="194"
       id="use4520"
       r="46"
       cy="345"
       cx="194"
       style="color:#000000;fill:#9933ff;fill-opacity:1;fill-rule:nonzero;stroke:#000000;stroke-width:46.77899933;stroke-linecap:round;stroke-linejoin:round;marker:none;marker-start:none;marker-mid:none;marker-end:none;stroke-miterlimit:4;stroke-dasharray:none;stroke-dashoffset:0;stroke-opacity:1;visibility:visible;display:inline;overflow:visible;enable-background:accumulate"
       transform="matrix(0.1496398,0,0,0.1496398,-2.37995,18.61328)" />
    <circle
       sodipodi:ry="46"
       sodipodi:rx="46"
       sodipodi:cy="345"
       sodipodi:cx="194"
       id="use4522"
       r="46"
       cy="345"
       cx="194"
       style="color:#000000;fill:#9933ff;fill-opacity:1;fill-rule:nonzero;stroke:#000000;stroke-width:46.77899933;stroke-linecap:round;stroke-linejoin:round;marker:none;marker-start:none;marker-mid:none;marker-end:none;stroke-miterlimit:4;stroke-dasharray:none;stroke-dashoffset:0;stroke-opacity:1;visibility:visible;display:inline;overflow:visible;enable-background:accumulate"
       transform="matrix(0.1496398,0,0,0.1496398,5.07307,26.96969)" />
    <circle
       sodipodi:ry="46"
       sodipodi:rx="46"
       sodipodi:cy="345"
       sodipodi:cx="194"
       id="use4524"
       r="46"
       cy="345"
       cx="194"
       style="color:#000000;fill:#9933ff;fill-opacity:1;fill-rule:nonzero;stroke:#000000;stroke-width:46.77899933;stroke-linecap:round;stroke-linejoin:round;marker:none;marker-start:none;marker-mid:none;marker-end:none;stroke-miterlimit:4;stroke-dasharray:none;stroke-dashoffset:0;stroke-opacity:1;visibility:visible;display:inline;overflow:visible;enable-background:accumulate"
       transform="matrix(0.1496398,0,0,0.1496398,-1.2507,8.45008)" />
    <circle
       sodipodi:ry="46"
       sodipodi:rx="46"
       sodipodi:cy="345"
       sodipodi:cx="194"
       id="use4526"
       r="46"
       cy="345"
       cx="194"
       style="color:#000000;fill:#9933ff;fill-opacity:1;fill-rule:nonzero;stroke:#000000;stroke-width:46.77899933;stroke-linecap:round;stroke-linejoin:round;marker:none;marker-start:none;marker-mid:none;marker-end:none;stroke-miterlimit:4;stroke-dasharray:none;stroke-dashoffset:0;stroke-opacity:1;visibility:visible;display:inline;overflow:visible;enable-background:accumulate"
       transform="matrix(0.1496398,0,0,0.1496398,-4.63844,-1.26142)" />
    <circle
       transform="matrix(0.1496398,0,0,0.1496398,-3.89063,-11.97118)"
       style="opacity:1;color:#000000;fill:#9933ff;fill-opacity:1;fill-rule:nonzero;stroke:#000000;stroke-width:46.77899933;stroke-linecap:round;stroke-linejoin:round;marker:none;marker-start:none;marker-mid:none;marker-end:none;stroke-miterlimit:4;stroke-dasharray:none;stroke-dashoffset:0;stroke-opacity:1;visibility:visible;display:inline;overflow:visible;enable-background:accumulate"
       cx="194"
       cy="345"
       r="46"
       id="circle4528"
       sodipodi:cx="194"
       sodipodi:cy="345"
       sodipodi:rx="46"
       sodipodi:ry="46" />
    <path
       style="fill:#99cc00;stroke:#000000;stroke-width:46.77899933;stroke-linecap:round;stroke-linejoin:round;stroke-miterlimit:4;stroke-dasharray:none;stroke-opacity:1"
       d="M 243,200 L 242,190 L 242,181 L 242,173 L 243,165 L 244,157 L 245,150 L 247,144 L 249,138 L 251,132 L 254,127 L 256,122 L 259,117 L 263,113 L 266,110 L 269,106 L 273,103 L 276,100 L 280,98 L 284,96 L 287,93 L 294,90 L 301,87 L 307,85 L 313,83 L 315,83 L 317,82 L 319,81 L 321,81 L 322,81 L 322,81 L 322,81 L 322,82 L 322,84 L 321,86 L 320,88 L 319,90 L 318,93 L 316,96 L 313,103 L 310,110 L 307,117 L 304,125 L 301,132 L 301,136 L 300,139 L 300,142 L 300,146 L 300,148 L 300,151 L 301,153 L 303,155 L 305,157 L 307,158 L 310,159 L 314,159 L 317,159 L 320,159 L 324,158 L 327,157 L 329,155 L 332,154 L 336,150 L 340,146 L 344,140 L 347,135 L 350,129 L 352,123 L 354,117 L 356,111 L 359,106 L 361,101 L 363,96 L 366,93 L 367,91 L 369,90 L 431,101 L 432,102 L 432,103 L 432,105 L 431,107 L 430,109 L 429,111 L 426,116 L 423,121 L 419,127 L 415,132 L 411,138 L 407,143 L 406,146 L 405,149 L 404,151 L 404,153 L 404,155 L 404,157 L 405,159 L 407,161 L 408,162 L 411,163 L 414,164 L 418,165 L 422,165 L 427,165 L 432,165 L 437,164 L 441,164 L 444,163 L 448,161 L 450,160 L 452,158 L 454,156 L 456,154 L 457,151 L 458,149 L 458,147 L 459,141 L 458,136 L 458,131 L 457,125 L 456,120 L 455,116 L 455,112 L 455,109 L 456,108 L 457,107 L 458,106 L 459,106 L 461,106 L 462,106 L 466,108 L 470,110 L 474,113 L 478,117 L 482,121 L 487,125 L 491,130 L 500,140 L 509,151 L 512,156 L 516,160 L 519,165 L 522,168 L 523,170 L 524,172 L 524,175 L 525,177 L 525,183 L 524,189 L 522,196 L 519,202 L 516,209 L 513,216 L 509,223 L 505,230 L 501,236 L 497,242 L 493,247 L 490,251 L 488,253 L 486,254 L 485,255 L 483,256 L 482,256 L 481,257 L 480,257 L 479,256 L 478,255 L 477,253 L 477,250 L 476,247 L 475,243 L 474,239 L 472,235 L 470,231 L 468,228 L 467,226 L 465,224 L 462,222 L 460,220 L 457,218 L 453,217 L 450,215 L 446,213 L 441,212 L 436,211 L 431,210 L 426,209 L 421,209 L 418,209 L 414,210 L 412,210 L 410,212 L 408,213 L 407,215 L 406,216 L 406,219 L 406,221 L 407,223 L 407,226 L 408,229 L 411,235 L 414,241 L 417,247 L 421,253 L 424,259 L 427,264 L 428,267 L 428,269 L 429,271 L 429,273 L 429,274 L 428,276 L 372,287 L 371,286 L 370,285 L 369,283 L 369,280 L 370,277 L 370,273 L 371,269 L 372,265 L 373,260 L 374,256 L 374,251 L 373,247 L 372,244 L 371,242 L 370,240 L 368,238 L 366,235 L 363,233 L 361,231 L 358,229 L 354,227 L 350,226 L 346,224 L 342,223 L 339,223 L 337,224 L 334,225 L 333,226 L 331,228 L 330,231 L 329,233 L 329,236 L 328,240 L 328,243 L 329,251 L 330,259 L 331,268 L 332,276 L 333,284 L 334,287 L 334,291 L 335,294 L 335,297 L 335,299 L 334,301 L 334,302 L 333,303 L 332,304 L 330,304 L 326,303 L 322,302 L 316,302 L 310,301 L 304,299 L 297,297 L 294,295 L 290,294 L 287,292 L 283,290 L 280,287 L 276,284 L 273,281 L 270,278 L 267,274 L 264,270 L 261,265 L 258,260 L 255,254 L 253,248 L 250,241 L 248,234 L 247,226 L 245,218 L 244,209 L 243,200 L 243,200 z "
       id="path4530"
       transform="matrix(0.1496398,0,0,0.1496398,-3.89063,-11.97118)" />
  </g>
  <g
     inkscape:label="raisin"
     inkscape:groupmode="layer"
     id="layer1"
     transform="translate(-740.01754,-928.84792)"
     style="display:inline">
    <path
       style="fill:none;stroke:#99cc00;stroke-width:3.5;stroke-linecap:round;stroke-linejoin:round;stroke-miterlimit:4;stroke-dasharray:none;stroke-opacity:1"
       d="M 766.52039,958.77783 C 763.11051,954.51689 761.68178,948.12176 756.81642,945.54599 C 753.37944,943.72642 751.56819,953.48388 755.93141,951.60968 C 758.34033,950.57494 768.41073,940.89685 769.09283,947.08046 C 769.53459,951.08526 767.39728,954.31963 765.86981,948.98347 C 764.64365,944.69993 764.48057,939.67811 762.01215,936.17651 C 759.86347,933.12848 757.26654,942.60919 760.89707,941.34007 C 765.89128,939.59425 770.51022,936.49113 775.37682,934.09792"
       id="path4129"
       sodipodi:nodetypes="cssssssc" />
    <use
       x="0"
       y="0"
       xlink:href="#circle4293"
       id="use4428"
       transform="translate(-10.84075,-4.74283)"
       width="74.819901"
       height="85.145042" />
    <use
       x="0"
       y="0"
       xlink:href="#circle4293"
       id="use4430"
       transform="translate(-4.58724,-10.06835)"
       width="74.819901"
       height="85.145042" />
    <use
       x="0"
       y="0"
       xlink:href="#circle4293"
       id="use4432"
       transform="translate(6.02766,-17.74721)"
       width="74.819901"
       height="85.145042" />
    <use
       x="0"
       y="0"
       xlink:href="#circle4293"
       id="use4434"
       transform="translate(5.35012,-10.06835)"
       width="74.819901"
       height="85.145042" />
    <use
       x="0"
       y="0"
       xlink:href="#circle4293"
       id="use4436"
       transform="translate(11.22219,-4.87382)"
       width="74.819901"
       height="85.145042" />
    <use
       x="0"
       y="0"
       xlink:href="#circle4293"
       id="use4438"
       transform="translate(20.48199,-5.32552)"
       width="74.819901"
       height="85.145042" />
    <use
       x="0"
       y="0"
       xlink:href="#circle4293"
       id="use4440"
       transform="translate(17.09426,2.35334)"
       width="74.819901"
       height="85.145042" />
    <use
       x="0"
       y="0"
       xlink:href="#circle4293"
       id="use4442"
       transform="translate(9.4154,7.32202)"
       width="74.819901"
       height="85.145042" />
    <use
       x="0"
       y="0"
       xlink:href="#circle4293"
       id="use4446"
       transform="translate(-8.65252,4.83768)"
       width="74.819901"
       height="85.145042" />
    <use
       x="0"
       y="0"
       xlink:href="#circle4293"
       id="use4448"
       transform="translate(-18.36402,3.48259)"
       width="74.819901"
       height="85.145042" />
    <use
       x="0"
       y="0"
       xlink:href="#circle4293"
       id="use4450"
       transform="translate(-14.07289,12.2907)"
       width="74.819901"
       height="85.145042" />
    <use
       x="0"
       y="0"
       xlink:href="#circle4293"
       id="use4452"
       transform="translate(-6.84573,22.67975)"
       width="74.819901"
       height="85.145042" />
    <use
       x="0"
       y="0"
       xlink:href="#circle4293"
       id="use4456"
       transform="translate(10.54464,17.93692)"
       width="74.819901"
       height="85.145042" />
    <use
       x="0"
       y="0"
       xlink:href="#circle4293"
       id="use4458"
       transform="translate(12.80313,29.22937)"
       width="74.819901"
       height="85.145042" />
    <use
       x="0"
       y="0"
       xlink:href="#circle4293"
       id="use4460"
       transform="translate(1.51068,30.58446)"
       width="74.819901"
       height="85.145042" />
    <use
       x="0"
       y="0"
       xlink:href="#circle4293"
       id="use4462"
       transform="translate(8.9637,38.94087)"
       width="74.819901"
       height="85.145042" />
    <use
       x="0"
       y="0"
       xlink:href="#circle4293"
       id="use4454"
       transform="translate(2.63993,20.42126)"
       width="74.819901"
       height="85.145042" />
    <use
       x="0"
       y="0"
       xlink:href="#circle4293"
       id="use4444"
       transform="translate(-0.74781,10.70976)"
       width="74.819901"
       height="85.145042" />
    <circle
       transform="matrix(0.1496398,0,0,0.1496398,739.73487,921.21823)"
       style="opacity:1;color:#000000;fill:url(#radialGradient4426);fill-opacity:1;fill-rule:nonzero;stroke:none;stroke-width:1;stroke-linecap:butt;stroke-linejoin:miter;marker:none;marker-start:none;marker-mid:none;marker-end:none;stroke-miterlimit:4;stroke-dasharray:none;stroke-dashoffset:0;stroke-opacity:1;visibility:visible;display:inline;overflow:visible;enable-background:accumulate"
       cx="194"
       cy="345"
       r="46"
       id="circle4293"
       sodipodi:cx="194"
       sodipodi:cy="345"
       sodipodi:rx="46"
       sodipodi:ry="46" />
    <path
       style="fill:url(#linearGradient4628);fill-opacity:1;stroke:none"
       d="M 243,200 L 242,190 L 242,181 L 242,173 L 243,165 L 244,157 L 245,150 L 247,144 L 249,138 L 251,132 L 254,127 L 256,122 L 259,117 L 263,113 L 266,110 L 269,106 L 273,103 L 276,100 L 280,98 L 284,96 L 287,93 L 294,90 L 301,87 L 307,85 L 313,83 L 315,83 L 317,82 L 319,81 L 321,81 L 322,81 L 322,81 L 322,81 L 322,82 L 322,84 L 321,86 L 320,88 L 319,90 L 318,93 L 316,96 L 313,103 L 310,110 L 307,117 L 304,125 L 301,132 L 301,136 L 300,139 L 300,142 L 300,146 L 300,148 L 300,151 L 301,153 L 303,155 L 305,157 L 307,158 L 310,159 L 314,159 L 317,159 L 320,159 L 324,158 L 327,157 L 329,155 L 332,154 L 336,150 L 340,146 L 344,140 L 347,135 L 350,129 L 352,123 L 354,117 L 356,111 L 359,106 L 361,101 L 363,96 L 366,93 L 367,91 L 369,90 L 431,101 L 432,102 L 432,103 L 432,105 L 431,107 L 430,109 L 429,111 L 426,116 L 423,121 L 419,127 L 415,132 L 411,138 L 407,143 L 406,146 L 405,149 L 404,151 L 404,153 L 404,155 L 404,157 L 405,159 L 407,161 L 408,162 L 411,163 L 414,164 L 418,165 L 422,165 L 427,165 L 432,165 L 437,164 L 441,164 L 444,163 L 448,161 L 450,160 L 452,158 L 454,156 L 456,154 L 457,151 L 458,149 L 458,147 L 459,141 L 458,136 L 458,131 L 457,125 L 456,120 L 455,116 L 455,112 L 455,109 L 456,108 L 457,107 L 458,106 L 459,106 L 461,106 L 462,106 L 466,108 L 470,110 L 474,113 L 478,117 L 482,121 L 487,125 L 491,130 L 500,140 L 509,151 L 512,156 L 516,160 L 519,165 L 522,168 L 523,170 L 524,172 L 524,175 L 525,177 L 525,183 L 524,189 L 522,196 L 519,202 L 516,209 L 513,216 L 509,223 L 505,230 L 501,236 L 497,242 L 493,247 L 490,251 L 488,253 L 486,254 L 485,255 L 483,256 L 482,256 L 481,257 L 480,257 L 479,256 L 478,255 L 477,253 L 477,250 L 476,247 L 475,243 L 474,239 L 472,235 L 470,231 L 468,228 L 467,226 L 465,224 L 462,222 L 460,220 L 457,218 L 453,217 L 450,215 L 446,213 L 441,212 L 436,211 L 431,210 L 426,209 L 421,209 L 418,209 L 414,210 L 412,210 L 410,212 L 408,213 L 407,215 L 406,216 L 406,219 L 406,221 L 407,223 L 407,226 L 408,229 L 411,235 L 414,241 L 417,247 L 421,253 L 424,259 L 427,264 L 428,267 L 428,269 L 429,271 L 429,273 L 429,274 L 428,276 L 372,287 L 371,286 L 370,285 L 369,283 L 369,280 L 370,277 L 370,273 L 371,269 L 372,265 L 373,260 L 374,256 L 374,251 L 373,247 L 372,244 L 371,242 L 370,240 L 368,238 L 366,235 L 363,233 L 361,231 L 358,229 L 354,227 L 350,226 L 346,224 L 342,223 L 339,223 L 337,224 L 334,225 L 333,226 L 331,228 L 330,231 L 329,233 L 329,236 L 328,240 L 328,243 L 329,251 L 330,259 L 331,268 L 332,276 L 333,284 L 334,287 L 334,291 L 335,294 L 335,297 L 335,299 L 334,301 L 334,302 L 333,303 L 332,304 L 330,304 L 326,303 L 322,302 L 316,302 L 310,301 L 304,299 L 297,297 L 294,295 L 290,294 L 287,292 L 283,290 L 280,287 L 276,284 L 273,281 L 270,278 L 267,274 L 264,270 L 261,265 L 258,260 L 255,254 L 253,248 L 250,241 L 248,234 L 247,226 L 245,218 L 244,209 L 243,200 L 243,200 z "
       id="path4357"
       transform="matrix(0.1496398,0,0,0.1496398,739.73487,921.21823)" />
  </g>
</svg>
