<?xml version="1.0" encoding="UTF-8" standalone="no"?>
<svg
   xmlns:dc="http://purl.org/dc/elements/1.1/"
   xmlns:cc="http://creativecommons.org/ns#"
   xmlns:rdf="http://www.w3.org/1999/02/22-rdf-syntax-ns#"
   xmlns:svg="http://www.w3.org/2000/svg"
   xmlns="http://www.w3.org/2000/svg"
   xmlns:xlink="http://www.w3.org/1999/xlink"
   xmlns:sodipodi="http://sodipodi.sourceforge.net/DTD/sodipodi-0.dtd"
   xmlns:inkscape="http://www.inkscape.org/namespaces/inkscape"
   inkscape:export-ydpi="600"
   inkscape:export-xdpi="600"
   inkscape:export-filename="C:\Documents and Settings\jmviglino\Mes documents\svg\tictac.png"
   version="1.0"
   sodipodi:docname="za-seal.svg"
   inkscape:output_extension="org.inkscape.output.svgz.inkscape"
   inkscape:version="1.0 (4035a4fb49, 2020-05-01)"
   sodipodi:version="0.32"
   id="svg5323"
   height="108.38049"
   width="164.2536">
  <metadata
     id="metadata5454">
    <rdf:RDF>
      <cc:Work
         rdf:about="">
        <dc:format>image/svg+xml</dc:format>
        <dc:type
           rdf:resource="http://purl.org/dc/dcmitype/StillImage" />
        <dc:title></dc:title>
        <dc:creator>
          <cc:Agent>
            <dc:title>JEM</dc:title>
          </cc:Agent>
        </dc:creator>
        <dc:subject>
          <rdf:Bag>
            <rdf:li>z'animo</rdf:li>
          </rdf:Bag>
        </dc:subject>
      </cc:Work>
    </rdf:RDF>
  </metadata>
  <defs
     id="defs5452">
    <linearGradient
       id="linearGradient4370">
      <stop
         id="stop4372"
         offset="0"
         style="stop-color:#e7e7e7;stop-opacity:1;" />
      <stop
         id="stop4374"
         offset="1"
         style="stop-color:#b5b5b5;stop-opacity:1;" />
    </linearGradient>
    <linearGradient
       id="linearGradient10371">
      <stop
         style="stop-color:#ffffff;stop-opacity:1;"
         offset="0"
         id="stop10373" />
      <stop
         id="stop10377"
         offset="0.72500002"
         style="stop-color:#ffffff;stop-opacity:1;" />
      <stop
         style="stop-color:#bbbbbb;stop-opacity:1;"
         offset="1"
         id="stop10375" />
    </linearGradient>
    <linearGradient
       id="linearGradient7396">
      <stop
         id="stop7398"
         offset="0"
         style="stop-color:#ffffff;stop-opacity:1;" />
      <stop
         id="stop7400"
         offset="1"
         style="stop-color:#000000;stop-opacity:1;" />
    </linearGradient>
    <radialGradient
       r="14.08727"
       fy="52.918861"
       fx="43.378098"
       cy="52.918861"
       cx="43.378098"
       gradientTransform="matrix(-0.01011656,1.2900781,-1.2764138,-0.01651308,108.81931,-9.0482603)"
       gradientUnits="userSpaceOnUse"
       id="radialGradient10449"
       xlink:href="#linearGradient10371"
       inkscape:collect="always" />
    <radialGradient
       r="14.08727"
       fy="44.580708"
       fx="42.645226"
       cy="44.580708"
       cx="42.645226"
       gradientTransform="matrix(-0.02779835,1.1860934,-1.1864193,-0.02780598,96.722101,-4.6633809)"
       gradientUnits="userSpaceOnUse"
       id="radialGradient10451"
       xlink:href="#linearGradient10371"
       inkscape:collect="always" />
    <radialGradient
       r="4.9099026"
       fy="48.883465"
       fx="57.390118"
       cy="48.883465"
       cx="57.390118"
       gradientTransform="matrix(0.548023,-0.04583433,0.05450817,0.6517326,23.274469,19.49083)"
       gradientUnits="userSpaceOnUse"
       id="radialGradient10453"
       xlink:href="#linearGradient7396"
       inkscape:collect="always" />
    <radialGradient
       r="2.9176619"
       fy="50.816406"
       fx="63.910179"
       cy="50.816406"
       cx="63.910179"
       gradientTransform="matrix(0.6896268,0,0,0.6896268,19.836006,15.712507)"
       gradientUnits="userSpaceOnUse"
       id="radialGradient10455"
       xlink:href="#linearGradient7396"
       inkscape:collect="always" />
    <radialGradient
       r="226"
       fy="284.51001"
       fx="291.27371"
       cy="284.51001"
       cx="291.27371"
       gradientTransform="matrix(0.1554984,0.1994531,-0.1409417,0.1098816,43.99824,-36.597467)"
       gradientUnits="userSpaceOnUse"
       id="radialGradient4561"
       xlink:href="#linearGradient4370"
       inkscape:collect="always" />
    <linearGradient
       y2="631.92145"
       x2="201.47144"
       y1="559.19519"
       x1="195.57471"
       gradientTransform="matrix(0.1853387,0,0,0.1853387,-5.8941716,8.2533898)"
       gradientUnits="userSpaceOnUse"
       id="linearGradient4567"
       xlink:href="#linearGradient4370"
       inkscape:collect="always" />
    <linearGradient
       y2="633.88702"
       x2="518.9118"
       y1="562.14355"
       x1="511.0495"
       gradientTransform="matrix(0.1853387,0,0,0.1853387,-5.8941716,8.2533898)"
       gradientUnits="userSpaceOnUse"
       id="linearGradient4569"
       xlink:href="#linearGradient4370"
       inkscape:collect="always" />
    <radialGradient
       r="11.366768"
       fy="70.201492"
       fx="61.997612"
       cy="70.201492"
       cx="61.997612"
       gradientTransform="matrix(0.5134748,0,0,0.2922012,31.193043,52.022709)"
       gradientUnits="userSpaceOnUse"
       id="radialGradient4597"
       xlink:href="#linearGradient7396"
       inkscape:collect="always" />
    <linearGradient
       gradientUnits="userSpaceOnUse"
       y2="119.86487"
       x2="109.95087"
       y1="65.342438"
       x1="121.66531"
       id="linearGradient947"
       xlink:href="#linearGradient4370"
       inkscape:collect="always" />
    <linearGradient
       gradientTransform="translate(1.58668,1.6888678)"
       inkscape:collect="always"
       xlink:href="#linearGradient4370"
       id="linearGradient947-2"
       x1="146.19916"
       y1="70.734489"
       x2="103.3456"
       y2="98.161842"
       gradientUnits="userSpaceOnUse" />
  </defs>
  <sodipodi:namedview
     fit-margin-bottom="0"
     fit-margin-right="0"
     fit-margin-left="0"
     fit-margin-top="0"
     inkscape:document-rotation="0"
     inkscape:window-maximized="1"
     showgrid="false"
     inkscape:current-layer="layer1"
     inkscape:window-y="-8"
     inkscape:window-x="-8"
     inkscape:cy="72.644074"
     inkscape:cx="49.702993"
     inkscape:zoom="3.7091619"
     id="base"
     pagecolor="#ffffff"
     bordercolor="#666666"
     borderopacity="1.0"
     objecttolerance="10.0"
     gridtolerance="10.0"
     guidetolerance="10.0"
     inkscape:pageopacity="0.0"
     inkscape:pageshadow="2"
     inkscape:window-width="1920"
     inkscape:window-height="1017" />
  <g
     transform="translate(2.68806,-21.042155)"
     style="display:inline"
     inkscape:label="fond"
     id="layer4"
     inkscape:groupmode="layer" />
  <g
     transform="translate(1.10138,-22.731027)"
     style="display:inline"
     inkscape:label="Neo"
     id="layer1"
     inkscape:groupmode="layer">
    <path
       transform="translate(-1.10138,5.648996)"
       d="m 62.669922,20.582031 c -23.121374,0 -41.886719,22.087129 -41.886719,49.300781 0,27.213648 18.765345,49.298828 41.886719,49.298828 9.289162,0 17.871747,-3.56974 24.820312,-9.59961 9.152259,12.05668 53.213996,21.08486 60.791016,-30.318358 18.34411,-6.143094 11.97832,-20.958998 8.61719,-19.384766 -11.26814,11.324025 -11.87501,5.167673 -20.92774,-2.638672 -6.19256,0.896848 -5.62914,16.184044 2.53321,20.166016 -10.0169,17.943363 -30.55287,20.679549 -35.26563,4.78125 0.85968,-3.933557 1.31836,-8.056711 1.31836,-12.304688 0,-27.213651 -18.765345,-49.300781 -41.886718,-49.300781 z"
       style="display:inline;fill:#ffffff;fill-opacity:1;fill-rule:evenodd;stroke:#000000;stroke-width:7;stroke-linecap:butt;stroke-linejoin:miter;stroke-miterlimit:4;stroke-dasharray:none;stroke-opacity:1"
       id="path927-2" />
    <path
       style="display:inline;fill:none;fill-opacity:1;fill-rule:nonzero;stroke:#000000;stroke-width:7;stroke-linecap:round;stroke-miterlimit:4;stroke-dasharray:none;stroke-opacity:1"
       d="m 49.892777,119.45661 c 0,4.50151 -7.804984,8.1549 -17.421838,8.1549 -9.616854,0 -17.421838,-3.65339 -17.421838,-8.1549 0,-4.50151 7.804984,-8.1549 17.421838,-8.1549 9.616854,0 17.421838,3.65339 17.421838,8.1549 z"
       id="path4603" />
    <path
       id="ellipse2399"
       d="m 49.892777,119.45661 c 0,4.50151 -7.804984,8.1549 -17.421838,8.1549 -9.616854,0 -17.421838,-3.65339 -17.421838,-8.1549 0,-4.50151 7.804984,-8.1549 17.421838,-8.1549 9.616854,0 17.421838,3.65339 17.421838,8.1549 z"
       style="fill:url(#linearGradient4567);fill-opacity:1;fill-rule:nonzero;stroke:none" />
    <path
       style="display:inline;fill:none;fill-opacity:1;fill-rule:nonzero;stroke:#000000;stroke-width:7;stroke-linecap:round;stroke-miterlimit:4;stroke-dasharray:none;stroke-opacity:1"
       d="m 109.75718,119.45661 c 0,4.50151 -7.80498,8.1549 -17.421841,8.1549 -9.616854,0 -17.421838,-3.65339 -17.421838,-8.1549 0,-4.50151 7.804984,-8.1549 17.421838,-8.1549 9.616861,0 17.421841,3.65339 17.421841,8.1549 z"
       id="path4605" />
    <path
       style="display:inline;fill:url(#linearGradient947-2);fill-opacity:1;fill-rule:evenodd;stroke:none;stroke-width:1px;stroke-linecap:butt;stroke-linejoin:miter;stroke-opacity:1"
       d="m 101.21284,82.350956 c 1.30907,21.787024 25.1457,20.488614 36.19053,0.70391 -8.16235,-3.981972 -8.72737,-19.268681 -2.53481,-20.165529 9.05273,7.806345 9.65946,13.963053 20.9276,2.639028 3.36113,-1.574232 9.72805,13.240723 -8.61606,19.383817 -8.16238,55.374388 -58.692913,40.623188 -62.278223,27.499468 z"
       id="path927"
       sodipodi:nodetypes="ccccccc" />
    <path
       transform="translate(-1.10138,5.648996)"
       d="m 62.669922,20.582031 c -23.121374,0 -41.886719,22.087129 -41.886719,49.300781 0,27.213652 18.765345,49.298828 41.886719,49.298828 23.121373,0 41.886718,-22.085176 41.886718,-49.298828 0,-27.213652 -18.765345,-49.300781 -41.886718,-49.300781 z"
       style="fill:url(#radialGradient4561);fill-opacity:1;fill-rule:nonzero;stroke:none;stroke-width:3.5;stroke-miterlimit:4;stroke-dasharray:none;stroke-opacity:1"
       id="ellipse2349" />
    <ellipse
       transform="matrix(0.1853387,0,0,-0.1853387,-5.8941716,96.474602)"
       id="ellipse2353"
       ry="118"
       rx="161"
       cy="238"
       cx="360"
       style="fill:#dddddd" />
    <path
       id="ellipse2363"
       d="m 86.960517,93.685842 c 0,14.839308 -11.45838,26.882798 -25.576741,26.882798 -14.118361,0 -25.57674,-12.04349 -25.57674,-26.882798 0,-14.839304 11.458379,-26.882799 25.57674,-26.882799 14.118361,0 25.576741,12.043495 25.576741,26.882799 z"
       style="fill:#dddddd;stroke-width:1.21042" />
    <path
       id="ellipse2401"
       d="m 109.75718,119.45661 c 0,4.50151 -7.80498,8.1549 -17.421841,8.1549 -9.616854,0 -17.421838,-3.65339 -17.421838,-8.1549 0,-4.50151 7.804984,-8.1549 17.421838,-8.1549 9.616861,0 17.421841,3.65339 17.421841,8.1549 z"
       style="fill:url(#linearGradient4569);fill-opacity:1;fill-rule:nonzero;stroke:none" />
    <ellipse
       ry="4.9806018"
       rx="10.866768"
       cy="74.70903"
       cx="60.491676"
       transform="matrix(1.1,0,0,1.1,-5.56387,-8.5018868)"
       id="path4579"
       style="color:#000000;display:inline;overflow:visible;visibility:visible;opacity:1;fill:url(#radialGradient4597);fill-opacity:1;fill-rule:nonzero;stroke:none;stroke-width:1;stroke-linecap:butt;stroke-linejoin:round;stroke-miterlimit:4;stroke-dasharray:none;stroke-dashoffset:0;stroke-opacity:1;marker:none;marker-start:none;marker-mid:none;marker-end:none;enable-background:accumulate" />
    <g
       id="g4581"
       style="display:inline"
       transform="translate(0.485298,-1.0309837)">
      <path
         style="fill:none;fill-rule:evenodd;stroke:#000000;stroke-width:1px;stroke-linecap:round;stroke-linejoin:miter;stroke-opacity:1"
         d="m 69.547315,72.264007 c 0,0 23.90689,-9.598978 32.962535,-9.780091 9.05564,-0.181113 16.84349,3.803369 16.84349,3.803369"
         id="path4583" />
      <path
         style="fill:none;fill-rule:evenodd;stroke:#000000;stroke-width:1px;stroke-linecap:round;stroke-linejoin:miter;stroke-opacity:1"
         d="m 70.633992,74.256248 c 0,0 25.174679,-3.078917 34.592548,-0.543338 9.41786,2.535579 15.39459,8.512301 15.39459,8.512301"
         id="path4585" />
      <path
         style="fill:none;fill-rule:evenodd;stroke:#000000;stroke-width:1px;stroke-linecap:round;stroke-linejoin:miter;stroke-opacity:1"
         d="m 70.452879,76.248489 c 0,0 22.6391,3.803369 30.064721,11.228994 7.42563,7.425624 6.33895,9.05564 6.33895,9.05564"
         id="path4587" />
    </g>
    <g
       transform="matrix(-1,0,0,1,120.01975,-1.0309837)"
       id="g4589"
       style="display:inline">
      <path
         style="fill:none;fill-rule:evenodd;stroke:#000000;stroke-width:1px;stroke-linecap:round;stroke-linejoin:miter;stroke-opacity:1"
         d="m 69.547315,72.264007 c 0,0 23.90689,-9.598978 32.962535,-9.780091 9.05564,-0.181113 16.84349,3.803369 16.84349,3.803369"
         id="path4591" />
      <path
         style="fill:none;fill-rule:evenodd;stroke:#000000;stroke-width:1px;stroke-linecap:round;stroke-linejoin:miter;stroke-opacity:1"
         d="m 70.633992,74.256248 c 0,0 25.174679,-3.078917 34.592548,-0.543338 9.41786,2.535579 15.39459,8.512301 15.39459,8.512301"
         id="path4593" />
      <path
         style="fill:none;fill-rule:evenodd;stroke:#000000;stroke-width:1px;stroke-linecap:round;stroke-linejoin:miter;stroke-opacity:1"
         d="m 70.452879,76.248489 c 0,0 22.6391,3.803369 30.064721,11.228994 7.42563,7.425624 6.33895,9.05564 6.33895,9.05564"
         id="path4595" />
    </g>
  </g>
  <g
     transform="translate(2.68806,-21.042155)"
     style="display:inline"
     inkscape:label="yeux"
     id="layer2"
     inkscape:groupmode="layer">
    <ellipse
       ry="13.735088"
       rx="14.08727"
       cy="48.481598"
       cx="45.271362"
       transform="matrix(1,0,0,0.7785548,28.93195,12.219765)"
       id="path9390"
       style="display:inline;fill:url(#radialGradient10449);fill-opacity:1;fill-rule:nonzero;stroke:none;stroke-width:0;stroke-linejoin:miter;stroke-miterlimit:4;stroke-dasharray:none;stroke-dashoffset:0;stroke-opacity:1" />
    <ellipse
       ry="13.735088"
       rx="14.08727"
       cy="48.481598"
       cx="45.271362"
       transform="translate(0.8854763,1.2916472)"
       id="path9386"
       style="fill:url(#radialGradient10451);fill-opacity:1;fill-rule:nonzero;stroke:none;stroke-width:0;stroke-linejoin:miter;stroke-miterlimit:4;stroke-dasharray:none;stroke-dashoffset:0;stroke-opacity:1" />
    <ellipse
       ry="4.8900456"
       rx="4.4599028"
       cy="50.756863"
       cx="55.624268"
       transform="translate(0.0155372,-0.0452785)"
       id="path8393"
       style="fill:url(#radialGradient10453);fill-opacity:1;fill-rule:nonzero;stroke:#000000;stroke-width:0;stroke-linejoin:miter;stroke-miterlimit:4;stroke-dasharray:none;stroke-dashoffset:0;stroke-opacity:1" />
    <ellipse
       ry="2.6487746"
       rx="2.4676619"
       cy="51.775623"
       cx="63.095173"
       transform="translate(-0.0905562,-0.4980605)"
       id="path8395"
       style="fill:url(#radialGradient10455);fill-opacity:1;fill-rule:nonzero;stroke:#000000;stroke-width:0;stroke-linejoin:miter;stroke-miterlimit:4;stroke-dasharray:none;stroke-dashoffset:0;stroke-opacity:1" />
  </g>
</svg>
