<?xml version="1.0" encoding="UTF-8" standalone="no"?>
<svg
   xmlns:dc="http://purl.org/dc/elements/1.1/"
   xmlns:cc="http://creativecommons.org/ns#"
   xmlns:rdf="http://www.w3.org/1999/02/22-rdf-syntax-ns#"
   xmlns:svg="http://www.w3.org/2000/svg"
   xmlns="http://www.w3.org/2000/svg"
   xmlns:xlink="http://www.w3.org/1999/xlink"
   xmlns:sodipodi="http://sodipodi.sourceforge.net/DTD/sodipodi-0.dtd"
   xmlns:inkscape="http://www.inkscape.org/namespaces/inkscape"
   inkscape:export-ydpi="600"
   inkscape:export-xdpi="600"
   inkscape:export-filename="C:\Documents and Settings\jmviglino\Mes documents\svg\tictac.png"
   version="1.0"
   sodipodi:docname="za-wolf.svg"
   inkscape:output_extension="org.inkscape.output.svgz.inkscape"
   inkscape:version="1.0 (4035a4fb49, 2020-05-01)"
   sodipodi:version="0.32"
   id="svg5323"
   height="127.33437"
   width="145.85152">
  <metadata
     id="metadata5454">
    <rdf:RDF>
      <cc:Work
         rdf:about="">
        <dc:format>image/svg+xml</dc:format>
        <dc:type
           rdf:resource="http://purl.org/dc/dcmitype/StillImage" />
        <dc:title></dc:title>
        <dc:creator>
          <cc:Agent>
            <dc:title>JEM</dc:title>
          </cc:Agent>
        </dc:creator>
        <dc:subject>
          <rdf:Bag>
            <rdf:li>z'animo</rdf:li>
          </rdf:Bag>
        </dc:subject>
      </cc:Work>
    </rdf:RDF>
  </metadata>
  <defs
     id="defs5452">
    <linearGradient
       id="linearGradient1008"
       inkscape:collect="always">
      <stop
         id="stop1004"
         offset="0"
         style="stop-color:#800000;stop-opacity:1;" />
      <stop
         id="stop1006"
         offset="1"
         style="stop-color:#000000;stop-opacity:1" />
    </linearGradient>
    <linearGradient
       id="linearGradient4370">
      <stop
         id="stop4372"
         offset="0"
         style="stop-color:#e7e7e7;stop-opacity:1;" />
      <stop
         id="stop4374"
         offset="1"
         style="stop-color:#808080;stop-opacity:1;" />
    </linearGradient>
    <linearGradient
       id="linearGradient10371">
      <stop
         style="stop-color:#ffffff;stop-opacity:1;"
         offset="0"
         id="stop10373" />
      <stop
         id="stop10377"
         offset="0.72500002"
         style="stop-color:#ffffff;stop-opacity:1;" />
      <stop
         style="stop-color:#bbbbbb;stop-opacity:1;"
         offset="1"
         id="stop10375" />
    </linearGradient>
    <linearGradient
       id="linearGradient7396">
      <stop
         id="stop7398"
         offset="0"
         style="stop-color:#ffffff;stop-opacity:1;" />
      <stop
         id="stop7400"
         offset="1"
         style="stop-color:#000000;stop-opacity:1;" />
    </linearGradient>
    <radialGradient
       r="14.08727"
       fy="52.918861"
       fx="43.378098"
       cy="52.918861"
       cx="43.378098"
       gradientTransform="matrix(-0.01011656,1.2900781,-1.2764138,-0.01651308,108.81931,-9.0482603)"
       gradientUnits="userSpaceOnUse"
       id="radialGradient10449"
       xlink:href="#linearGradient10371"
       inkscape:collect="always" />
    <radialGradient
       r="14.08727"
       fy="44.580708"
       fx="42.645226"
       cy="44.580708"
       cx="42.645226"
       gradientTransform="matrix(-0.02779835,1.1860934,-1.1864193,-0.02780598,96.722101,-4.6633809)"
       gradientUnits="userSpaceOnUse"
       id="radialGradient10451"
       xlink:href="#linearGradient10371"
       inkscape:collect="always" />
    <radialGradient
       r="4.9099026"
       fy="48.883465"
       fx="57.390118"
       cy="48.883465"
       cx="57.390118"
       gradientTransform="matrix(0.548023,-0.04583433,0.05450817,0.6517326,23.274469,19.49083)"
       gradientUnits="userSpaceOnUse"
       id="radialGradient10453"
       xlink:href="#linearGradient7396"
       inkscape:collect="always" />
    <radialGradient
       r="2.9176619"
       fy="50.816406"
       fx="63.910179"
       cy="50.816406"
       cx="63.910179"
       gradientTransform="matrix(0.6896268,0,0,0.6896268,19.836006,15.712507)"
       gradientUnits="userSpaceOnUse"
       id="radialGradient10455"
       xlink:href="#linearGradient7396"
       inkscape:collect="always" />
    <radialGradient
       r="226"
       fy="284.51001"
       fx="291.27371"
       cy="284.51001"
       cx="291.27371"
       gradientTransform="matrix(0.1554984,0.1994531,-0.1409417,0.1098816,42.89686,-30.948471)"
       gradientUnits="userSpaceOnUse"
       id="radialGradient4561"
       xlink:href="#linearGradient4370"
       inkscape:collect="always" />
    <linearGradient
       y2="212.27121"
       x2="180.8329"
       y1="180.82201"
       x1="137.59026"
       gradientTransform="matrix(0.1853387,0,0,0.1853387,-5.8941716,8.2533898)"
       gradientUnits="userSpaceOnUse"
       id="linearGradient4563"
       xlink:href="#linearGradient4370"
       inkscape:collect="always" />
    <linearGradient
       y2="211.28842"
       x2="590"
       y1="163.13184"
       x1="541.51593"
       gradientTransform="matrix(0.1853387,0,0,0.1853387,-5.8941716,8.2533898)"
       gradientUnits="userSpaceOnUse"
       id="linearGradient4565"
       xlink:href="#linearGradient4370"
       inkscape:collect="always" />
    <linearGradient
       y2="631.92145"
       x2="201.47144"
       y1="559.19519"
       x1="195.57471"
       gradientTransform="matrix(0.1853387,0,0,0.1853387,-5.8941716,8.2533898)"
       gradientUnits="userSpaceOnUse"
       id="linearGradient4567"
       xlink:href="#linearGradient4370"
       inkscape:collect="always" />
    <linearGradient
       y2="633.88702"
       x2="518.9118"
       y1="562.14355"
       x1="511.0495"
       gradientTransform="matrix(0.1853387,0,0,0.1853387,-5.8941716,8.2533898)"
       gradientUnits="userSpaceOnUse"
       id="linearGradient4569"
       xlink:href="#linearGradient4370"
       inkscape:collect="always" />
    <linearGradient
       y2="538.55664"
       x2="328.25104"
       y1="503.1763"
       x1="284.02557"
       gradientTransform="matrix(0.1853387,0,0,0.1853387,-5.8941716,8.2533898)"
       gradientUnits="userSpaceOnUse"
       id="linearGradient4571"
       xlink:href="#linearGradient4370"
       inkscape:collect="always" />
    <linearGradient
       y2="546.41895"
       x2="456.99619"
       y1="503.1763"
       x1="415.71912"
       gradientTransform="matrix(0.1853387,0,0,0.1853387,-5.8941716,8.2533898)"
       gradientUnits="userSpaceOnUse"
       id="linearGradient4573"
       xlink:href="#linearGradient4370"
       inkscape:collect="always" />
    <radialGradient
       r="11.366768"
       fy="70.201492"
       fx="61.997612"
       cy="70.201492"
       cx="61.997612"
       gradientTransform="matrix(0.5134748,0,0,0.2922012,31.193043,52.022709)"
       gradientUnits="userSpaceOnUse"
       id="radialGradient4597"
       xlink:href="#linearGradient7396"
       inkscape:collect="always" />
    <linearGradient
       gradientUnits="userSpaceOnUse"
       y2="806"
       x2="238"
       y1="694"
       x1="238"
       id="linearGradient4446"
       xlink:href="#linearGradient7396"
       inkscape:collect="always" />
    <linearGradient
       gradientUnits="userSpaceOnUse"
       y2="806"
       x2="526"
       y1="694"
       x1="526"
       id="linearGradient4448"
       xlink:href="#linearGradient7396"
       inkscape:collect="always" />
    <linearGradient
       gradientTransform="translate(-0.2696027,0.5392054)"
       gradientUnits="userSpaceOnUse"
       y2="28.786003"
       x2="39.211498"
       y1="11.810298"
       x1="28.58074"
       id="linearGradient4462"
       xlink:href="#linearGradient7396"
       inkscape:collect="always" />
    <linearGradient
       gradientTransform="translate(-0.2696027,0.5392054)"
       gradientUnits="userSpaceOnUse"
       y2="26.318027"
       x2="86.566696"
       y1="11.97137"
       x1="97.036377"
       id="linearGradient4464"
       xlink:href="#linearGradient7396"
       inkscape:collect="always" />
    <linearGradient
       gradientUnits="userSpaceOnUse"
       y2="399"
       x2="573"
       y1="181.77246"
       x1="243.07648"
       id="linearGradient4466"
       xlink:href="#linearGradient7396"
       inkscape:collect="always" />
    <linearGradient
       gradientUnits="userSpaceOnUse"
       y2="649.50012"
       x2="574.07336"
       y1="104.27295"
       x1="177.83109"
       id="linearGradient4468"
       xlink:href="#linearGradient7396"
       inkscape:collect="always" />
    <linearGradient
       gradientUnits="userSpaceOnUse"
       y2="741"
       x2="591"
       y1="447.27914"
       x1="241.27914"
       id="linearGradient4470"
       xlink:href="#linearGradient7396"
       inkscape:collect="always" />
    <linearGradient
       gradientTransform="matrix(0.21201856,0,0,0.20051452,-18.278704,-18.857359)"
       gradientUnits="userSpaceOnUse"
       y2="489"
       x2="316"
       y1="409.93689"
       x1="316"
       id="linearGradient4479"
       xlink:href="#linearGradient7396"
       inkscape:collect="always" />
    <linearGradient
       gradientTransform="matrix(0.21201856,0,0,0.20051452,-18.278704,-18.857359)"
       gradientUnits="userSpaceOnUse"
       y2="489"
       x2="457"
       y1="407.56979"
       x1="457"
       id="linearGradient4481"
       xlink:href="#linearGradient7396"
       inkscape:collect="always" />
    <radialGradient
       r="11.366768"
       fy="78.550438"
       fx="80.189842"
       cy="78.550438"
       cx="80.189842"
       gradientTransform="matrix(2.0878278,1.5912906e-6,0,1.5228759,228.45409,276.02372)"
       gradientUnits="userSpaceOnUse"
       id="radialGradient4483"
       xlink:href="#linearGradient7396"
       inkscape:collect="always" />
    <linearGradient
       gradientTransform="matrix(1.3600446,0,0,1.5722029,-22.797677,-43.246991)"
       gradientUnits="userSpaceOnUse"
       y2="83.560204"
       x2="64.088936"
       y1="74.64122"
       x1="63.976181"
       id="linearGradient1010"
       xlink:href="#linearGradient1008"
       inkscape:collect="always" />
    <linearGradient
       gradientTransform="matrix(0.1610721,0,0,0.1610721,-3.3021487,-3.3931987)"
       y2="649.50012"
       x2="574.07336"
       y1="104.27295"
       x1="177.83109"
       gradientUnits="userSpaceOnUse"
       id="linearGradient1048"
       xlink:href="#linearGradient7396"
       inkscape:collect="always" />
  </defs>
  <sodipodi:namedview
     fit-margin-bottom="0"
     fit-margin-right="0"
     fit-margin-left="0"
     fit-margin-top="0"
     inkscape:document-rotation="0"
     inkscape:window-maximized="1"
     showgrid="false"
     inkscape:current-layer="layer5"
     inkscape:window-y="-8"
     inkscape:window-x="-8"
     inkscape:cy="84.432294"
     inkscape:cx="74.245422"
     inkscape:zoom="4"
     id="base"
     pagecolor="#ffffff"
     bordercolor="#666666"
     borderopacity="1.0"
     objecttolerance="10.0"
     gridtolerance="10.0"
     guidetolerance="10.0"
     inkscape:pageopacity="0.0"
     inkscape:pageshadow="2"
     inkscape:window-width="1920"
     inkscape:window-height="1017" />
  <g
     transform="translate(3.1547159,-8.286095)"
     style="display:inline"
     inkscape:label="fond"
     id="layer4"
     inkscape:groupmode="layer">
    <ellipse
       id="ellipse4505"
       ry="55"
       rx="127"
       cy="750"
       cx="526"
       style="display:inline;fill:none;fill-opacity:1;stroke:#000000;stroke-width:43.4588;stroke-miterlimit:4;stroke-dasharray:none;stroke-opacity:1"
       transform="matrix(0.1610721,0,0,0.1610721,-1.275962,2.4574259)" />
    <ellipse
       id="ellipse4507"
       ry="55"
       rx="128"
       cy="750"
       cx="238"
       style="display:inline;fill:none;fill-opacity:1;stroke:#000000;stroke-width:43.4588;stroke-miterlimit:4;stroke-dasharray:none;stroke-opacity:1"
       transform="matrix(0.1610721,0,0,0.1610721,-1.275962,2.4574259)" />
  </g>
  <g
     transform="translate(0.46665589,-4.325971)"
     style="display:inline"
     inkscape:label="Chat"
     id="layer5"
     inkscape:groupmode="layer">
    <path
       id="ellipse2233-0"
       style="display:inline;fill:#000000;fill-opacity:1;stroke:#000000;stroke-width:7;stroke-miterlimit:4;stroke-dasharray:none;stroke-opacity:1"
       d="M 63.026747,19.9198 A 43.811611,50.093423 0 0 0 20.5912,57.904176 l -1.480469,-0.04102 c -0.294004,-0.235975 -0.63186,-0.328351 -1.003906,-0.300777 -3.596447,0.26655 -10.3300783,11.679688 -10.3300783,11.679687 0,1e-6 7.7485603,-2.078364 9.9687503,-2.710937 0.09453,-0.03824 0.1952,-0.09571 0.285156,-0.117187 0.6069,-0.144898 0.3529,-0.06461 -0.285156,0.117187 -3.204584,1.296386 -8.9082034,11.904297 -8.9082034,11.904297 l 7.9550784,-4.951172 c -1.965535,3.878591 -3.430316,8.008444 -4.064453,12.552734 l 6.363281,-4.24414 -1.882812,12.333984 4.318359,-2.908203 c 0,0 1.713432,-0.118775 1.832031,-0.126953 A 43.811611,50.093423 0 0 0 63.102919,120.1073 43.811611,50.093423 0 0 0 102.97206,90.77527 l 1.70703,0.443359 4.31836,2.908203 -1.88281,-12.333984 6.36328,4.24414 c -0.63413,-4.54429 -2.09892,-8.674143 -4.06445,-12.552734 l 7.95312,4.951172 c 0,0 -5.70166,-10.607911 -8.90625,-11.904297 -0.63805,-0.181794 -0.89205,-0.262085 -0.28515,-0.117187 0.09,0.02148 0.19062,0.07895 0.28515,0.117187 2.22019,0.632573 9.96875,2.710938 9.96875,2.710937 0,0 -8.19793,-13.896023 -11.33398,-11.378906 0,0 -1.35771,0.119776 -1.46094,0.128906 A 43.811611,50.093423 0 0 0 63.102919,19.9198 a 43.811611,50.093423 0 0 0 -0.07617,0 z" />
    <path
       sodipodi:nodetypes="ccccc"
       id="path919"
       d="m 98.300559,90.967307 c -1.34074,-1.392716 -6.03499,2.568704 -7.427512,3.909646 -1.391421,1.340531 -1.433385,3.554982 -0.09375,4.947266 19.295253,35.811021 64.880353,15.435311 52.508073,-30.167275 -8.54534,-3.267751 -28.24519,56.997536 -44.986811,21.310363 z"
       style="color:#000000;font-style:normal;font-variant:normal;font-weight:normal;font-stretch:normal;font-size:medium;line-height:normal;font-family:sans-serif;font-variant-ligatures:normal;font-variant-position:normal;font-variant-caps:normal;font-variant-numeric:normal;font-variant-alternates:normal;font-variant-east-asian:normal;font-feature-settings:normal;font-variation-settings:normal;text-indent:0;text-align:start;text-decoration:none;text-decoration-line:none;text-decoration-style:solid;text-decoration-color:#000000;letter-spacing:normal;word-spacing:normal;text-transform:none;writing-mode:lr-tb;direction:ltr;text-orientation:mixed;dominant-baseline:auto;baseline-shift:baseline;text-anchor:start;white-space:normal;shape-padding:0;shape-margin:0;inline-size:0;clip-rule:nonzero;display:inline;overflow:visible;visibility:visible;opacity:1;isolation:auto;mix-blend-mode:normal;color-interpolation:sRGB;color-interpolation-filters:linearRGB;solid-color:#000000;solid-opacity:1;vector-effect:none;fill:#000000;fill-opacity:1;fill-rule:nonzero;stroke:none;stroke-width:7;stroke-linecap:round;stroke-linejoin:round;stroke-miterlimit:4;stroke-dasharray:none;stroke-dashoffset:0;stroke-opacity:1;color-rendering:auto;image-rendering:auto;shape-rendering:auto;text-rendering:auto;enable-background:accumulate;stop-color:#000000;stop-opacity:1" />
    <g
       transform="matrix(1.0886568,0,0,1.1900769,-5.5424873,-6.8479198)"
       id="g1014">
      <path
         style="display:inline;fill:url(#linearGradient4464);fill-opacity:1;stroke:#000000;stroke-width:3.5;stroke-miterlimit:4;stroke-dasharray:none"
         d="m 96.605703,12.671647 -20.61722,10.630759 18.04007,12.402551 z"
         id="path2229" />
      <path
         style="display:inline;fill:url(#linearGradient4462);fill-opacity:1;stroke:#000000;stroke-width:3.5;stroke-miterlimit:4;stroke-dasharray:none"
         d="M 28.47221,12.510575 49.411583,23.62455 31.371507,36.027102 Z"
         id="path2231" />
    </g>
    <path
       transform="translate(4.7142467,1.8905007)"
       d="M 58.3125,18.029297 A 43.811611,50.093423 0 0 0 15.876953,56.013672 l -1.480469,-0.04102 C 14.10248,55.736677 13.764624,55.644301 13.392578,55.671875 9.7961313,55.938425 3.0625,67.351563 3.0625,67.351562 c 0,10e-7 7.74856,-2.078364 9.96875,-2.710937 0.09453,-0.03824 0.1952,-0.09571 0.285156,-0.117187 0.6069,-0.144898 0.3529,-0.06461 -0.285156,0.117187 C 9.8266658,65.937011 4.1230469,76.544922 4.1230469,76.544922 L 12.078125,71.59375 C 10.11259,75.472341 8.6478089,79.602194 8.0136719,84.146484 l 6.3632811,-4.24414 -1.882812,12.333984 4.318359,-2.908203 c 0,0 1.713432,-0.118775 1.832031,-0.126953 A 43.811611,50.093423 0 0 0 58.388672,118.2168 43.811611,50.093423 0 0 0 98.257812,88.884766 l 1.707032,0.443359 4.318356,2.908203 -1.88281,-12.333984 6.36328,4.24414 c -0.63413,-4.54429 -2.09892,-8.674143 -4.06445,-12.552734 l 7.95312,4.951172 c 0,0 -5.70166,-10.607911 -8.90625,-11.904297 -0.63805,-0.181794 -0.89205,-0.262085 -0.28515,-0.117187 0.09,0.02148 0.19062,0.07895 0.28515,0.117187 2.22019,0.632573 9.96875,2.710938 9.96875,2.710937 0,0 -8.19793,-13.896023 -11.33398,-11.378906 0,0 -1.35771,0.119776 -1.46094,0.128906 a 43.811611,50.093423 0 0 0 -42.531248,-38.072265 43.811611,50.093423 0 0 0 -0.07617,0 z"
       style="display:inline;fill:url(#linearGradient1048);fill-opacity:1;stroke:none;stroke-width:0.322144"
       id="ellipse2233" />
    <ellipse
       id="ellipse2239"
       ry="123"
       rx="190"
       cy="275"
       cx="382"
       style="display:inline;fill:url(#linearGradient4466);fill-opacity:1;stroke:none;stroke-width:2"
       transform="matrix(0.1610721,0,0,0.1610721,1.412098,-1.502698)" />
    <ellipse
       id="ellipse2241"
       ry="179"
       rx="207"
       cy="561"
       cx="383"
       style="display:inline;fill:url(#linearGradient4470);fill-opacity:1;stroke:none;stroke-width:2"
       transform="matrix(0.1610721,0,0,0.1610721,1.412098,-1.502698)" />
    <ellipse
       id="ellipse2235"
       ry="55"
       rx="127"
       cy="750"
       cx="526"
       style="display:inline;fill:url(#linearGradient4448);fill-opacity:1;stroke:none;stroke-width:2"
       transform="matrix(0.1610721,0,0,0.1610721,1.412098,-1.502698)" />
    <ellipse
       id="ellipse2237"
       ry="55"
       rx="128"
       cy="750"
       cx="238"
       style="display:inline;fill:url(#linearGradient4446);fill-opacity:1;stroke:none;stroke-width:2"
       transform="matrix(0.1610721,0,0,0.1610721,1.412098,-1.502698)" />
    <path
       sodipodi:nodetypes="cscscscscscsc"
       id="path4509"
       d="m 42.388222,23.997708 c 0,0 12.535134,1.906596 14.817136,3.434478 2.190707,1.466756 4.77916,6.567797 4.77916,6.567797 0,0 1.887682,-5.917554 4.949604,-7.958835 3.061921,-2.041281 25.499898,9.534531 25.499898,9.534531 0,0 -14.662109,-12.11881 -14.457984,-14.772475 0.204136,-2.653666 2.202878,-5.003227 2.202878,-5.003227 0,0 -4.926071,0.644991 -5.946707,-0.783905 -1.020647,-1.428897 -1.501642,-5.1488292 -1.501642,-5.1488292 0,0 -5.234593,7.3942382 -8.092382,6.7818542 -2.857793,-0.612384 -5.094844,-5.932735 -5.094844,-5.932735 0,0 1.012282,3.27907 -2.662023,6.545119 -3.674306,3.266049 -14.697223,6.940356 -14.493094,6.736227 z"
       style="display:inline;fill:#000000;fill-opacity:1;fill-rule:evenodd;stroke:none;stroke-width:0.564;stroke-linecap:butt;stroke-linejoin:miter;stroke-miterlimit:4;stroke-dasharray:none;stroke-opacity:1" />
    <ellipse
       ry="6.6094322"
       rx="11.721686"
       cy="78.030434"
       cx="63.319038"
       id="path1002"
       style="color:#000000;overflow:visible;fill:url(#linearGradient1010);fill-opacity:1;stroke:none;stroke-width:10.5488;stroke-linecap:square;stroke-linejoin:miter;stroke-miterlimit:4;stroke-dasharray:none;stop-color:#000000" />
    <path
       id="path1018"
       d="m 69.561973,72.357564 6.691406,17.417969 6.691406,-17.417969 z"
       style="color:#000000;overflow:visible;fill:#ffffff;stroke-width:2.47915;stroke-linecap:round;stroke-linejoin:round;stop-color:#000000" />
    <path
       id="path893"
       d="m 44.388144,72.357564 6.691407,17.417969 6.691406,-17.417969 z"
       style="color:#000000;overflow:visible;fill:#ffffff;stroke-width:2.47915;stroke-linecap:round;stroke-linejoin:round;stop-color:#000000" />
    <g
       id="g915">
      <ellipse
         style="display:inline;fill:url(#linearGradient4481);fill-opacity:1;stroke:none;stroke-width:0.412373"
         cx="78.613777"
         cy="69.369026"
         rx="17.597538"
         ry="9.6246958"
         id="ellipse2247" />
      <ellipse
         style="display:inline;fill:url(#linearGradient4479);fill-opacity:1;stroke:none;stroke-width:0.412373"
         cx="48.719154"
         cy="69.369026"
         rx="17.597538"
         ry="9.6246958"
         id="ellipse2249" />
    </g>
    <ellipse
       id="ellipse2283"
       ry="32"
       rx="43"
       cy="411"
       cx="387"
       style="color:#000000;display:inline;overflow:visible;visibility:visible;opacity:1;fill:url(#radialGradient4483);fill-opacity:1;fill-rule:nonzero;stroke:none;stroke-width:6.82924;stroke-linecap:butt;stroke-linejoin:round;stroke-miterlimit:4;stroke-dasharray:none;stroke-dashoffset:0;stroke-opacity:1;marker:none;marker-start:none;marker-mid:none;marker-end:none;enable-background:accumulate"
       transform="matrix(0.1610721,0,0,0.1610721,1.412098,-1.502698)" />
  </g>
  <g
     transform="translate(3.1547159,-8.286095)"
     style="display:inline"
     inkscape:label="yeux"
     id="layer2"
     inkscape:groupmode="layer">
    <ellipse
       ry="13.735088"
       rx="14.08727"
       cy="48.481598"
       cx="45.271362"
       transform="matrix(1,0,0,0.7785548,28.93195,12.219765)"
       id="path9390"
       style="display:inline;fill:url(#radialGradient10449);fill-opacity:1;fill-rule:nonzero;stroke:none;stroke-width:0;stroke-linejoin:miter;stroke-miterlimit:4;stroke-dasharray:none;stroke-dashoffset:0;stroke-opacity:1" />
    <ellipse
       ry="13.735088"
       rx="14.08727"
       cy="48.481598"
       cx="45.271362"
       transform="translate(0.8854763,1.2916472)"
       id="path9386"
       style="fill:url(#radialGradient10451);fill-opacity:1;fill-rule:nonzero;stroke:none;stroke-width:0;stroke-linejoin:miter;stroke-miterlimit:4;stroke-dasharray:none;stroke-dashoffset:0;stroke-opacity:1" />
    <ellipse
       ry="4.8900456"
       rx="4.4599028"
       cy="50.756863"
       cx="55.624268"
       transform="translate(0.0155372,-0.0452785)"
       id="path8393"
       style="fill:url(#radialGradient10453);fill-opacity:1;fill-rule:nonzero;stroke:#000000;stroke-width:0;stroke-linejoin:miter;stroke-miterlimit:4;stroke-dasharray:none;stroke-dashoffset:0;stroke-opacity:1" />
    <ellipse
       ry="2.6487746"
       rx="2.4676619"
       cy="51.775623"
       cx="63.095173"
       transform="translate(-0.0905562,-0.4980605)"
       id="path8395"
       style="fill:url(#radialGradient10455);fill-opacity:1;fill-rule:nonzero;stroke:#000000;stroke-width:0;stroke-linejoin:miter;stroke-miterlimit:4;stroke-dasharray:none;stroke-dashoffset:0;stroke-opacity:1" />
  </g>
</svg>
