<?xml version="1.0" encoding="UTF-8" standalone="no"?>
<!-- Created with Inkscape (http://www.inkscape.org/) -->

<svg
   xmlns:dc="http://purl.org/dc/elements/1.1/"
   xmlns:cc="http://creativecommons.org/ns#"
   xmlns:rdf="http://www.w3.org/1999/02/22-rdf-syntax-ns#"
   xmlns:svg="http://www.w3.org/2000/svg"
   xmlns="http://www.w3.org/2000/svg"
   xmlns:sodipodi="http://sodipodi.sourceforge.net/DTD/sodipodi-0.dtd"
   xmlns:inkscape="http://www.inkscape.org/namespaces/inkscape"
   width="636.24347"
   height="614.33429"
   id="svg5961"
   version="1.1"
   inkscape:version="0.48.2 r9819"
   sodipodi:docname="A15b.svg">
  <defs
     id="defs5963">
    <marker
       style="overflow:visible"
       id="DistanceStart"
       refX="0"
       refY="0"
       orient="auto"
       inkscape:stockid="DistanceStart">
      <g
         id="g2300">
        <path
           style="fill:none;stroke:#ffffff;stroke-width:1.14999998;stroke-linecap:square"
           d="M 0,0 2,0"
           id="path2306"
           inkscape:connector-curvature="0" />
        <path
           style="fill:#000000;fill-rule:evenodd;stroke:none"
           d="M 0,0 13,4 9,0 13,-4 0,0 z"
           id="path2302"
           inkscape:connector-curvature="0" />
        <path
           style="fill:none;stroke:#000000;stroke-width:1;stroke-linecap:square"
           d="M 0,-4 0,40"
           id="path2304"
           inkscape:connector-curvature="0" />
      </g>
    </marker>
    <marker
       inkscape:stockid="Arrow2Lend"
       orient="auto"
       refY="0"
       refX="0"
       id="Arrow2Lend"
       style="overflow:visible">
      <path
         id="path6763"
         style="font-size:12px;fill-rule:evenodd;stroke-width:0.625;stroke-linejoin:round"
         d="M 8.7185878,4.0337352 -2.2072895,0.01601326 8.7185884,-4.0017078 c -1.7454984,2.3720609 -1.7354408,5.6174519 -6e-7,8.035443 z"
         transform="matrix(-1.1,0,0,-1.1,-1.1,0)"
         inkscape:connector-curvature="0" />
    </marker>
    <marker
       inkscape:stockid="Arrow1Lend"
       orient="auto"
       refY="0"
       refX="0"
       id="Arrow1Lend"
       style="overflow:visible">
      <path
         id="path6745"
         d="M 0,0 5,-5 -12.5,0 5,5 0,0 z"
         style="fill-rule:evenodd;stroke:#000000;stroke-width:1pt;marker-start:none"
         transform="matrix(-0.8,0,0,-0.8,-10,0)"
         inkscape:connector-curvature="0" />
    </marker>
    <marker
       inkscape:stockid="Arrow1Mend"
       orient="auto"
       refY="0"
       refX="0"
       id="Arrow1Mend"
       style="overflow:visible">
      <path
         id="path6751"
         d="M 0,0 5,-5 -12.5,0 5,5 0,0 z"
         style="fill-rule:evenodd;stroke:#000000;stroke-width:1pt;marker-start:none"
         transform="matrix(-0.4,0,0,-0.4,-4,0)"
         inkscape:connector-curvature="0" />
    </marker>
  </defs>
  <sodipodi:namedview
     id="base"
     pagecolor="#ffffff"
     bordercolor="#666666"
     borderopacity="1.0"
     inkscape:pageopacity="0.0"
     inkscape:pageshadow="2"
     inkscape:zoom="0.45254834"
     inkscape:cx="165.03124"
     inkscape:cy="485.84426"
     inkscape:document-units="px"
     inkscape:current-layer="layer1"
     showgrid="false"
     inkscape:window-width="1680"
     inkscape:window-height="1003"
     inkscape:window-x="-4"
     inkscape:window-y="24"
     inkscape:window-maximized="1"
     fit-margin-top="0"
     fit-margin-left="0"
     fit-margin-right="0"
     fit-margin-bottom="0" />
<metadata
     id="metadata5966">
    <rdf:RDF>
      <cc:Work
         rdf:about="">
        <dc:format>image/svg+xml</dc:format>
        <dc:type
           rdf:resource="http://purl.org/dc/dcmitype/StillImage" />
        <dc:title>Signalisation routière</dc:title>
        <cc:license
           rdf:resource="http://creativecommons.org/licenses/publicdomain/" />
        <dc:date>08/10/2012</dc:date>
        <dc:creator>
          <cc:Agent>
            <dc:title>Desmoric</dc:title>
          </cc:Agent>
        </dc:creator>
        <dc:rights>
          <cc:Agent>
            <dc:title>Domaine Public</dc:title>
          </cc:Agent>
        </dc:rights>
        <dc:publisher>
          <cc:Agent>
            <dc:title>Desmoric</dc:title>
          </cc:Agent>
        </dc:publisher>
        <dc:source>http://routes.wikia.com/wiki/Signalisation_routière_française</dc:source>
        <dc:description>Panneau de signalisation routière applicable en France issu de l'arrêté du 24 novembre 1967 sur la signalisation routière décrite dans L'instruction Interministérielle sur la Signalisation Routière (depuis 2002).</dc:description>
        <dc:language>French</dc:language>
      </cc:Work>
      <cc:License
         rdf:about="http://creativecommons.org/licenses/publicdomain/">
        <cc:permits
           rdf:resource="http://creativecommons.org/ns#Reproduction" />
        <cc:permits
           rdf:resource="http://creativecommons.org/ns#Distribution" />
        <cc:permits
           rdf:resource="http://creativecommons.org/ns#DerivativeWorks" />
      </cc:License>
    </rdf:RDF>
  </metadata>
  <g
     inkscape:label="Calque 1"
     inkscape:groupmode="layer"
     id="layer1"
     transform="translate(-44.038571,-114.30558)">
    <text
       xml:space="preserve"
       style="font-size:40px;font-style:normal;font-weight:normal;line-height:125%;letter-spacing:0px;word-spacing:0px;fill:#000000;fill-opacity:1;stroke:none;font-family:Sans"
       x="341.74323"
       y="728.17114"
       id="text6001"
       sodipodi:linespacing="125%"><tspan
         sodipodi:role="line"
         id="tspan6003"
         x="341.74323"
         y="728.17114">A15b</tspan></text>
    <flowRoot
       xml:space="preserve"
       id="flowRoot3250"
       style="fill:black;stroke:none;stroke-opacity:1;stroke-width:1px;stroke-linejoin:miter;stroke-linecap:butt;fill-opacity:1;font-family:Sans;font-style:normal;font-weight:normal;font-size:10px;line-height:125%;letter-spacing:0px;word-spacing:0px"><flowRegion
         id="flowRegion3252"><rect
           id="rect3254"
           width="194.45436"
           height="178.9864"
           x="141.42136"
           y="353.58865" /></flowRegion><flowPara
         id="flowPara3256"></flowPara></flowRoot>    <g
       id="g4102">
      <g
         transform="matrix(0.71957815,0,0,0.71957815,1679.8019,355.95075)"
         id="g6450">
        <path
           transform="matrix(-0.4663126,0.80802416,-0.8076771,-0.46651297,-1325.3869,21.369668)"
           sodipodi:type="star"
           style="opacity:0.51898738;fill:#000000;fill-opacity:1;stroke:#000000;stroke-width:112.56124115;stroke-linecap:round;stroke-linejoin:round;stroke-miterlimit:4;stroke-opacity:1;stroke-dasharray:none;stroke-dashoffset:0"
           id="path6715-4-9"
           sodipodi:sides="3"
           sodipodi:cx="406.08133"
           sodipodi:cy="391.72241"
           sodipodi:r1="482.38354"
           sodipodi:r2="241.19177"
           sodipodi:arg1="0.52359878"
           sodipodi:arg2="1.5707963"
           inkscape:flatsided="true"
           inkscape:rounded="-3.469447e-018"
           inkscape:randomized="0"
           d="M 823.83773,632.91419 -11.675076,632.91418 406.08133,-90.661133 z"
           inkscape:transform-center-y="-112.51909"
           inkscape:transform-center-x="3.4247237e-005" />
        <path
           transform="matrix(-0.4663126,0.80802416,-0.8076771,-0.46651297,-1325.3869,21.369668)"
           sodipodi:type="star"
           style="fill:none;stroke:#ffffff;stroke-width:107.2011795;stroke-linecap:round;stroke-linejoin:round;stroke-miterlimit:4;stroke-opacity:1;stroke-dasharray:none;stroke-dashoffset:0"
           id="path6715-4-9-2"
           sodipodi:sides="3"
           sodipodi:cx="406.08133"
           sodipodi:cy="391.72241"
           sodipodi:r1="482.38354"
           sodipodi:r2="241.19177"
           sodipodi:arg1="0.52359878"
           sodipodi:arg2="1.5707963"
           inkscape:flatsided="true"
           inkscape:rounded="-3.469447e-018"
           inkscape:randomized="0"
           d="M 823.83773,632.91419 -11.675076,632.91418 406.08133,-90.661133 z"
           inkscape:transform-center-y="-112.51909"
           inkscape:transform-center-x="3.4247237e-005" />
        <path
           transform="matrix(-0.4663126,0.80802416,-0.8076771,-0.46651297,-1325.3869,21.369668)"
           sodipodi:type="star"
           style="fill:#ffffff;stroke:#ff0000;stroke-width:75.04082489;stroke-linecap:round;stroke-linejoin:round;stroke-miterlimit:4;stroke-opacity:1;stroke-dasharray:none;stroke-dashoffset:0"
           id="path6715-4-9-2-3"
           sodipodi:sides="3"
           sodipodi:cx="406.08133"
           sodipodi:cy="391.72241"
           sodipodi:r1="482.38354"
           sodipodi:r2="241.19177"
           sodipodi:arg1="0.52359878"
           sodipodi:arg2="1.5707963"
           inkscape:flatsided="true"
           inkscape:rounded="-3.469447e-018"
           inkscape:randomized="0"
           d="M 823.83773,632.91419 -11.675076,632.91418 406.08133,-90.661133 z"
           inkscape:transform-center-y="-112.51909"
           inkscape:transform-center-x="3.4247237e-005" />
      </g>
      <path
         sodipodi:nodetypes="cssssssssccsscsssssssssssssssscsssscssssccsssssssssssssssssssssc"
         inkscape:connector-curvature="0"
         id="path4100"
         d="m 343.45409,414.86123 c 7.73399,11.32476 18.2301,22.37331 28.17379,27.06894 9.94369,4.69563 37.63782,12.11988 53.10578,11.84367 15.46796,-0.27622 23.95781,4.17671 33.9015,8.31992 9.94369,4.1432 21.51115,11.64836 22.33979,12.477 0.82864,0.82864 -3.0587,10.33972 -1.13837,18.27174 1.94738,8.0437 4.49457,16.18793 13.12421,20.76916 7.91672,4.20275 13.62112,7.57217 14.84039,13.94472 0.84498,4.41633 11.0314,32.28479 16.70111,37.46452 5.59332,5.10995 21.14015,18.60684 21.14015,18.60684 l 0,14.63932 c 0,0 -20.16359,-14.36311 -23.20194,-17.12525 -3.03835,-2.76213 -12.70583,-11.60097 -17.95388,-19.05873 -5.24806,-7.45777 -16.02039,-27.06893 -16.02039,-27.06893 0,0 -6.07326,-1.15205 -17.12524,-1.9335 -13.67258,-0.96675 -38.80801,-12.01529 -44.88471,-17.53957 -6.0767,-5.52427 -10.63423,-21.68276 -25.82597,-18.92062 -15.19175,2.76213 -27.06893,8.2864 -37.01262,8.01019 -9.94369,-0.27621 -23.34005,-4.1432 -24.72111,-4.1432 -1.38107,0 0.96674,4.97184 -4.55753,4.1432 -5.52427,-0.82864 -30.93593,-6.90534 -34.80292,-6.90534 -3.86699,0 -6.90534,-0.27621 -5.52427,1.9335 1.38107,2.2097 11.32476,20.16359 14.36311,21.26844 3.03835,1.10486 11.92359,5.10829 15.46796,7.18156 3.13601,1.8344 1.78245,4.4575 1.10485,6.2148 -0.87108,2.25908 -1.93349,3.45267 -7.73398,2.62403 -5.80048,-0.82864 -18.78252,-4.69563 -21.26844,-8.01019 -2.48592,-3.31457 -29.55486,-43.08932 -31.21214,-45.29903 -1.65728,-2.20971 -1.38107,-10.49612 4.41942,-10.49612 5.80049,0 30.38349,3.31456 35.35534,4.14321 4.97184,0.82864 13.81068,3.31456 13.81068,3.31456 0,0 0.27621,-29.00243 0.27621,-30.3835 0,-1.38106 -5.80048,-18.23009 -8.83883,-25.41165 -3.03835,-7.18155 -6.35292,-25.68786 -6.62913,-27.89757 -0.27621,-2.20971 0.41313,-5.474 -9.94369,-6.90534 -6.31684,-0.873 -16.73461,-2.43853 -16.73461,-2.43853 0,0 -1.07329,-6.10433 -1.21927,-7.50516 -0.27621,-2.65059 -3.31456,-1.94737 -3.59078,-4.69563 -0.14085,-1.40136 1.38107,-1.93349 3.86699,-2.20971 2.48592,-0.27621 18.20389,-2.16288 24.85923,-5.80048 2.93494,-1.60415 3.1834,-8.28641 3.1834,-8.28641 l 20.45943,-1.60989 c 0,0 -0.3935,-20.21098 -0.3935,-22.69691 0,-4.14608 8.43504,-6.01026 8.48171,-2.76213 0.0956,6.65026 0.58594,9.39126 3.90051,9.39126 3.31456,0 3.31456,-7.45777 3.31456,-10.49612 0,-3.03834 0.27621,-6.07669 0.27621,-8.01019 0,-1.93349 2.76214,-1.10485 2.76214,-3.86699 0,-2.76214 2.48592,-3.86699 3.59078,-3.86699 1.10485,0 3.59077,2.48592 3.59077,5.52427 0,3.03835 -0.28914,8.7004 1.9335,8.56262 4.4558,-0.27621 5.97904,-3.96465 5.97904,-8.64639 0,-3.31456 2.03115,-9.5837 3.68843,-11.79341 1.65729,-2.20971 2.76214,-2.48592 4.69564,-2.48592 1.93349,0 4.34861,2.92018 4.20735,5.80048 -0.14505,2.95745 -2.327,13.62112 -4.81292,16.38325 -2.48592,2.76214 -12.74313,11.59995 -16.43877,15.16925 -3.75259,3.62429 -12.78673,11.53682 -14.1678,13.1941 -1.38107,1.65728 -1.32256,3.49243 3.10537,3.52375 2.36863,0.0168 7.39649,0.45766 10.43484,0.94594 2.99986,0.48209 3.71238,4.11633 3.56828,6.8747 -0.19531,3.7387 -1.5625,6.20212 -6.81056,6.75455 -5.24806,0.55242 -13.61249,0.13116 -13.61249,3.72194 0,3.59077 4.28605,25.53034 12.15339,36.18397 z"
         style="fill:#000000;stroke:#000000;stroke-width:1px;stroke-linecap:butt;stroke-linejoin:miter;stroke-opacity:1" />
    </g>
  </g>
</svg>
