<?xml version="1.0" encoding="UTF-8" standalone="no"?>
<!-- Created with Inkscape (http://www.inkscape.org/) -->

<svg
   xmlns:dc="http://purl.org/dc/elements/1.1/"
   xmlns:cc="http://creativecommons.org/ns#"
   xmlns:rdf="http://www.w3.org/1999/02/22-rdf-syntax-ns#"
   xmlns:svg="http://www.w3.org/2000/svg"
   xmlns="http://www.w3.org/2000/svg"
   xmlns:sodipodi="http://sodipodi.sourceforge.net/DTD/sodipodi-0.dtd"
   xmlns:inkscape="http://www.inkscape.org/namespaces/inkscape"
   width="594.09332"
   height="774.99591"
   id="svg5961"
   version="1.1"
   inkscape:version="0.48.3.1 r9886"
   sodipodi:docname="AB3a.svg">
  <defs
     id="defs5963">
    <marker
       inkscape:stockid="Arrow2Lstart"
       orient="auto"
       refY="0"
       refX="0"
       id="Arrow2Lstart"
       style="overflow:visible">
      <path
         id="path6760"
         style="font-size:12px;fill-rule:evenodd;stroke-width:0.625;stroke-linejoin:round"
         d="M 8.7185878,4.0337352 -2.2072895,0.01601326 8.7185884,-4.0017078 c -1.7454984,2.3720609 -1.7354408,5.6174519 -6e-7,8.035443 z"
         transform="matrix(1.1,0,0,1.1,1.1,0)"
         inkscape:connector-curvature="0" />
    </marker>
    <marker
       inkscape:stockid="Arrow2Sstart"
       orient="auto"
       refY="0"
       refX="0"
       id="Arrow2Sstart"
       style="overflow:visible">
      <path
         id="path6772"
         style="font-size:12px;fill-rule:evenodd;stroke-width:0.625;stroke-linejoin:round"
         d="M 8.7185878,4.0337352 -2.2072895,0.01601326 8.7185884,-4.0017078 c -1.7454984,2.3720609 -1.7354408,5.6174519 -6e-7,8.035443 z"
         transform="matrix(0.3,0,0,0.3,-0.69,0)"
         inkscape:connector-curvature="0" />
    </marker>
    <marker
       inkscape:stockid="Arrow1Lstart"
       orient="auto"
       refY="0"
       refX="0"
       id="Arrow1Lstart"
       style="overflow:visible">
      <path
         id="path6742"
         d="M 0,0 5,-5 -12.5,0 5,5 0,0 z"
         style="fill-rule:evenodd;stroke:#000000;stroke-width:1pt;marker-start:none"
         transform="matrix(0.8,0,0,0.8,10,0)"
         inkscape:connector-curvature="0" />
    </marker>
    <marker
       style="overflow:visible"
       id="DistanceStart"
       refX="0"
       refY="0"
       orient="auto"
       inkscape:stockid="DistanceStart">
      <g
         id="g2300">
        <path
           style="fill:none;stroke:#ffffff;stroke-width:1.14999998;stroke-linecap:square"
           d="M 0,0 2,0"
           id="path2306"
           inkscape:connector-curvature="0" />
        <path
           style="fill:#000000;fill-rule:evenodd;stroke:none"
           d="M 0,0 13,4 9,0 13,-4 0,0 z"
           id="path2302"
           inkscape:connector-curvature="0" />
        <path
           style="fill:none;stroke:#000000;stroke-width:1;stroke-linecap:square"
           d="M 0,-4 0,40"
           id="path2304"
           inkscape:connector-curvature="0" />
      </g>
    </marker>
    <marker
       inkscape:stockid="Arrow2Lend"
       orient="auto"
       refY="0"
       refX="0"
       id="Arrow2Lend"
       style="overflow:visible">
      <path
         id="path6763"
         style="font-size:12px;fill-rule:evenodd;stroke-width:0.625;stroke-linejoin:round"
         d="M 8.7185878,4.0337352 -2.2072895,0.01601326 8.7185884,-4.0017078 c -1.7454984,2.3720609 -1.7354408,5.6174519 -6e-7,8.035443 z"
         transform="matrix(-1.1,0,0,-1.1,-1.1,0)"
         inkscape:connector-curvature="0" />
    </marker>
    <marker
       inkscape:stockid="Arrow1Lend"
       orient="auto"
       refY="0"
       refX="0"
       id="Arrow1Lend"
       style="overflow:visible">
      <path
         id="path6745"
         d="M 0,0 5,-5 -12.5,0 5,5 0,0 z"
         style="fill-rule:evenodd;stroke:#000000;stroke-width:1pt;marker-start:none"
         transform="matrix(-0.8,0,0,-0.8,-10,0)"
         inkscape:connector-curvature="0" />
    </marker>
    <marker
       inkscape:stockid="Arrow1Mend"
       orient="auto"
       refY="0"
       refX="0"
       id="Arrow1Mend"
       style="overflow:visible">
      <path
         id="path6751"
         d="M 0,0 5,-5 -12.5,0 5,5 0,0 z"
         style="fill-rule:evenodd;stroke:#000000;stroke-width:1pt;marker-start:none"
         transform="matrix(-0.4,0,0,-0.4,-4,0)"
         inkscape:connector-curvature="0" />
    </marker>
  </defs>
  <sodipodi:namedview
     id="base"
     pagecolor="#ffffff"
     bordercolor="#666666"
     borderopacity="1.0"
     inkscape:pageopacity="0.0"
     inkscape:pageshadow="2"
     inkscape:zoom="0.45254834"
     inkscape:cx="184.37922"
     inkscape:cy="595.98542"
     inkscape:document-units="px"
     inkscape:current-layer="text3880"
     showgrid="false"
     inkscape:window-width="1920"
     inkscape:window-height="1024"
     inkscape:window-x="0"
     inkscape:window-y="27"
     inkscape:window-maximized="1"
     showguides="true"
     inkscape:guide-bbox="true"
     fit-margin-top="0"
     fit-margin-left="0"
     fit-margin-right="0"
     fit-margin-bottom="0" />
  <metadata
     id="metadata5966">
    <rdf:RDF>
      <cc:Work
         rdf:about="">
        <dc:format>image/svg+xml</dc:format>
        <dc:type
           rdf:resource="http://purl.org/dc/dcmitype/StillImage" />
        <dc:title>Signalisation routière</dc:title>
        <cc:license
           rdf:resource="http://creativecommons.org/licenses/publicdomain/" />
        <dc:date>08/10/2012</dc:date>
        <dc:creator>
          <cc:Agent>
            <dc:title>Desmoric</dc:title>
          </cc:Agent>
        </dc:creator>
        <dc:rights>
          <cc:Agent>
            <dc:title>Domaine Public</dc:title>
          </cc:Agent>
        </dc:rights>
        <dc:publisher>
          <cc:Agent>
            <dc:title>Desmoric</dc:title>
          </cc:Agent>
        </dc:publisher>
        <dc:source>http://routes.wikia.com/wiki/Signalisation_routière_française</dc:source>
        <dc:description>Panneau de signalisation routière applicable en France issu de l'arrêté du 24 novembre 1967 sur la signalisation routière décrite dans L'instruction Interministérielle sur la Signalisation Routière (depuis 2002).</dc:description>
        <dc:language>French</dc:language>
      </cc:Work>
      <cc:License
         rdf:about="http://creativecommons.org/licenses/publicdomain/">
        <cc:permits
           rdf:resource="http://creativecommons.org/ns#Reproduction" />
        <cc:permits
           rdf:resource="http://creativecommons.org/ns#Distribution" />
        <cc:permits
           rdf:resource="http://creativecommons.org/ns#DerivativeWorks" />
      </cc:License>
    </rdf:RDF>
  </metadata>
  <g
     inkscape:label="Calque 1"
     inkscape:groupmode="layer"
     id="layer1"
     transform="translate(-63.469065,-39.86172)">
    <text
       xml:space="preserve"
       style="font-size:40px;font-style:normal;font-weight:normal;line-height:125%;letter-spacing:0px;word-spacing:0px;fill:#000000;fill-opacity:1;stroke:none;font-family:Sans"
       x="308.5976"
       y="814.34979"
       id="text6001"
       sodipodi:linespacing="125%"><tspan
         sodipodi:role="line"
         id="tspan6003"
         x="308.5976"
         y="814.34979">AB3a</tspan></text>
    <g
       id="g5362"
       transform="matrix(0.67190719,0,0,0.67190719,97.722032,18.717483)">
      <g
         transform="translate(924.52171,146.4699)"
         id="g3886">
        <path
           style="fill:#ffffff;fill-opacity:1;stroke:#000000;stroke-width:2.59700012;stroke-linecap:butt;stroke-linejoin:miter;stroke-miterlimit:4;stroke-dashoffset:0;stroke-opacity:1"
           d="m -710.84365,670.87756 354.88069,0 c 33.43097,0 60.3447,26.91374 60.3447,60.3447 l 0,130.42242 c 0,33.43096 -26.91373,60.3447 -60.3447,60.3447 l -354.88069,0 c -33.43097,0 -60.3447,-26.91374 -60.3447,-60.3447 l 0,-130.42242 c 0,-33.43096 26.91373,-60.3447 60.3447,-60.3447 z"
           id="rect3059" />
        <g
           style="font-size:40px;font-style:normal;font-weight:normal;line-height:125%;letter-spacing:0px;word-spacing:0px;fill:#000000;fill-opacity:1;stroke:none;font-family:Sans"
           id="text3880">
          <path
             d="m -700.28223,705.78406 c 9.47262,1.62767 15.67378,7.27545 18.60352,16.94336 l 0.43945,2.39258 -12.35351,2.58789 c -1.00916,-4.16662 -2.73441,-6.93354 -5.17578,-8.30079 -2.44144,-1.36712 -5.30602,-1.23691 -8.59375,0.39063 -2.18102,1.85552 -4.00393,4.39458 -5.46875,7.61719 -1.43231,3.2227 -2.37632,7.58468 -2.83204,13.08593 -0.19533,5.85941 0.56965,10.95381 2.29493,15.28321 1.72524,4.29689 3.80857,7.1452 6.25,8.54492 2.47393,1.39975 4.99671,1.59506 7.56836,0.58594 2.57157,-0.65103 4.62235,-3.30402 6.15234,-7.95899 l 12.35351,3.8086 c -1.6602,6.54298 -4.86658,11.2793 -9.61914,14.20898 -3.48311,2.21354 -7.58467,3.4668 -12.30468,3.75977 -8.88674,-0.19532 -15.52736,-3.82487 -19.92188,-10.88868 -4.6224,-7.68227 -6.9987,-15.99932 -7.1289,-24.95117 0.0651,-11.19787 2.47395,-20.36127 7.22656,-27.49023 2.99478,-3.93874 6.34764,-6.65683 10.05859,-8.1543 2.79946,-1.1067 5.84307,-1.66008 9.13086,-1.66015 1.07419,7e-5 2.18096,0.0652 3.32031,0.19531"
             style="font-size:100px;font-variant:normal;font-stretch:normal;text-align:center;line-height:125%;letter-spacing:1px;text-anchor:middle;font-family:Caracteres L1;-inkscape-font-specification:Caracteres L1"
             id="path3013" />
          <path
             d="m -632.33887,706.71179 0,13.08594 -29.58984,0 0,15.625 21.67969,0 0,13.23242 -21.67969,0 0,16.35742 30.85937,0 0,13.23243 -44.6289,0 0,-71.53321 43.35937,0 m -10.30273,-17.91992 -7.95899,14.84375 -15.86914,0 6.49414,-14.84375 17.33399,0"
             style="font-size:100px;font-variant:normal;font-stretch:normal;text-align:center;line-height:125%;letter-spacing:1px;text-anchor:middle;font-family:Caracteres L1;-inkscape-font-specification:Caracteres L1"
             id="path3015" />
          <path
             d="m -594.62012,706.41882 c 4.68747,0.55346 8.65882,2.4252 11.91407,5.61524 3.28771,3.19016 5.66401,6.9662 7.1289,11.32812 0.68354,1.92063 1.1881,4.44341 1.51367,7.56836 l 0,21.97266 c -0.48833,7.42189 -2.83208,13.41147 -7.03125,17.96875 -4.16671,4.55729 -9.24483,6.98242 -15.23437,7.27539 l -28.32031,0 0.0488,-71.72852 29.98047,0 m -16.01562,57.61719 11.42578,0 c 2.31117,-0.35806 4.28057,-1.20441 5.9082,-2.53906 1.62757,-1.36717 3.01103,-3.74347 4.15039,-7.12891 0.61845,-2.08331 0.79749,-9.66793 0.53711,-22.7539 -1.52998,-6.77078 -5.06188,-10.66075 -10.5957,-11.66993 l -11.42578,0 0,44.0918"
             style="font-size:100px;font-variant:normal;font-stretch:normal;text-align:center;line-height:125%;letter-spacing:1px;text-anchor:middle;font-family:Caracteres L1;-inkscape-font-specification:Caracteres L1"
             id="path3017" />
          <path
             d="m -524.28418,706.71179 0,13.08594 -29.58984,0 0,15.625 21.67968,0 0,13.23242 -21.67968,0 0,16.35742 30.85937,0 0,13.23243 -44.6289,0 0.0488,-71.53321 43.31055,0"
             style="font-size:100px;font-variant:normal;font-stretch:normal;text-align:center;line-height:125%;letter-spacing:1px;text-anchor:middle;font-family:Caracteres L1;-inkscape-font-specification:Caracteres L1"
             id="path3019" />
          <path
             d="m -469.13379,706.76062 -0.0488,13.81836 -30.76172,44.23828 31.64063,0 0,13.42774 -48.38867,0 0,-14.35547 30.02929,-43.31055 -28.51562,0 0,-13.81836 46.04492,0"
             style="font-size:100px;font-variant:normal;font-stretch:normal;text-align:center;line-height:125%;letter-spacing:1px;text-anchor:middle;font-family:Caracteres L1;-inkscape-font-specification:Caracteres L1"
             id="path3021" />
          <path
             d="m -415.4248,706.56531 0.0488,58.88672 27.68555,0 -0.0488,12.79297 -41.21094,0 0,-71.67969 13.5254,0"
             style="font-size:100px;font-variant:normal;font-stretch:normal;text-align:center;line-height:125%;letter-spacing:1px;text-anchor:middle;font-family:Caracteres L1;-inkscape-font-specification:Caracteres L1"
             id="path3023" />
          <path
             d="m -338.05762,706.71179 0,13.08594 -29.58984,0 0,15.625 21.67969,0 0,13.23242 -21.67969,0 0,16.35742 30.85937,0 0,13.23243 -44.6289,0 0.0488,-71.53321 43.31054,0"
             style="font-size:100px;font-variant:normal;font-stretch:normal;text-align:center;line-height:125%;letter-spacing:1px;text-anchor:middle;font-family:Caracteres L1;-inkscape-font-specification:Caracteres L1"
             id="path3025" />
          <path
             d="m -688.69824,831.56531 c 4.16663,0.4558 7.84501,1.95319 11.03515,4.49219 3.22262,2.53912 5.53381,5.4037 6.9336,8.59375 1.75776,3.41802 2.63667,7.08012 2.63672,10.98632 -5e-5,1.82297 -0.0163,3.01112 -0.0488,3.56446 -0.26047,4.49222 -1.1882,8.23571 -2.7832,11.23047 -1.5951,2.99482 -3.33664,5.28974 -5.22461,6.88476 -4.10161,3.74351 -8.41475,5.64781 -12.93946,5.71289 l -13.57422,0 0,20.06836 -13.3789,0 0,-71.5332 27.34375,0 m -13.76953,37.20703 11.03515,0 c 1.69268,-0.19528 3.09242,-0.61846 4.19922,-1.26953 2.99476,-1.79033 4.78512,-4.89905 5.3711,-9.32617 0.0976,-4.00386 -0.71619,-7.04748 -2.44141,-9.13086 -1.72529,-2.08328 -4.02021,-3.27143 -6.88477,-3.56446 l -11.27929,0 0,23.29102"
             style="font-size:100px;font-variant:normal;font-stretch:normal;text-align:center;line-height:125%;letter-spacing:1px;text-anchor:middle;font-family:Caracteres L1;-inkscape-font-specification:Caracteres L1"
             id="path3027" />
          <path
             d="m -637.7959,831.56531 18.45703,71.5332 -14.01367,0 -3.07617,-12.1582 -19.77539,0 -3.125,12.1582 -14.16016,0 18.26172,-71.5332 17.43164,0 m -15.72265,45.75195 14.11132,0 -6.83593,-27.92969 -7.27539,27.92969"
             style="font-size:100px;font-variant:normal;font-stretch:normal;text-align:center;line-height:125%;letter-spacing:1px;text-anchor:middle;font-family:Caracteres L1;-inkscape-font-specification:Caracteres L1"
             id="path3029" />
          <path
             d="m -616.97168,888.64539 0,-0.0977 c 0,-0.35806 0.37435,-0.6022 1.12305,-0.73242 5.76171,-1.85545 9.50519,-3.19009 11.23047,-4.00391 0.87889,1.20445 2.03448,2.29494 3.46679,3.27149 2.31118,1.3672 4.78514,2.19728 7.42188,2.49023 2.79945,0.0651 4.54098,10e-6 5.22461,-0.19531 3.22262,-0.91145 5.20829,-1.83918 5.95703,-2.78321 0.74866,-0.65102 1.3997,-2.22979 1.95312,-4.73632 0.13017,-0.97654 -4e-5,-2.06704 -0.39062,-3.27149 -0.48832,-0.81377 -1.00915,-1.49737 -1.5625,-2.05078 l -1.66016,-1.26953 -1.85547,-0.83008 c -10.31903,-3.22262 -15.99936,-5.11064 -17.04101,-5.66406 -4.78517,-1.92054 -8.34962,-5.09436 -10.69336,-9.52149 -1.52995,-2.96219 -2.21355,-6.55919 -2.05078,-10.79101 0.61848,-5.27338 2.78319,-9.45632 6.49414,-12.54883 4.16665,-3.02727 8.51235,-4.67115 13.03711,-4.93164 l 1.26953,0 c 3.22263,7e-5 5.8919,0.24421 8.00781,0.73242 4.29684,1.2045 7.6497,2.88093 10.05859,5.0293 2.40881,1.98574 4.39449,4.68756 5.95704,8.10547 l -0.14649,0.53711 -10.05859,4.83398 -0.48828,-0.24414 c -0.61853,-1.98562 -2.36006,-3.59695 -5.22461,-4.83398 -3.22269,-1.20437 -6.99873,-1.23692 -11.32813,-0.0977 -1.85549,0.61855 -3.15757,1.41607 -3.90625,2.39258 -0.26043,0.26047 -0.60223,1.07427 -1.02539,2.4414 -0.0651,1.59511 -1e-5,2.52284 0.19531,2.78321 0.42316,1.10682 1.26952,2.09966 2.53907,2.97851 l 1.26953,0.53711 c 9.24476,2.73442 15.51103,4.7201 18.79883,5.95703 2.83199,1.30213 4.9967,2.73442 6.49414,4.29688 l 2.73437,3.71094 c 2.01818,3.35289 3.0924,7.015 3.22266,10.98632 0.0325,0.26044 0.0488,0.56969 0.0488,0.92774 -6e-5,1.26955 -0.19537,2.97853 -0.58594,5.12695 -0.81385,3.02736 -1.79042,5.25717 -2.92969,6.68946 -1.95317,2.40886 -3.36918,3.85742 -4.24805,4.3457 -4.78519,3.28776 -9.71683,5.06185 -14.79492,5.32226 l -4.44336,0 c -3.32033,-0.32552 -6.11981,-0.97656 -8.39843,-1.95312 -3.64585,-1.69271 -6.59181,-3.58073 -8.8379,-5.66406 -1.85547,-1.6927 -3.4668,-4.11783 -4.83398,-7.27539"
             style="font-size:100px;font-variant:normal;font-stretch:normal;text-align:center;line-height:125%;letter-spacing:1px;text-anchor:middle;font-family:Caracteres L1;-inkscape-font-specification:Caracteres L1"
             id="path3031" />
          <path
             d="m -562.06543,888.64539 0,-0.0977 c 0,-0.35806 0.37435,-0.6022 1.12305,-0.73242 5.76171,-1.85545 9.50519,-3.19009 11.23047,-4.00391 0.87889,1.20445 2.03448,2.29494 3.46679,3.27149 2.31118,1.3672 4.78514,2.19728 7.42188,2.49023 2.79945,0.0651 4.54098,10e-6 5.22461,-0.19531 3.22262,-0.91145 5.20829,-1.83918 5.95703,-2.78321 0.74866,-0.65102 1.3997,-2.22979 1.95312,-4.73632 0.13017,-0.97654 -4e-5,-2.06704 -0.39062,-3.27149 -0.48832,-0.81377 -1.00915,-1.49737 -1.5625,-2.05078 l -1.66016,-1.26953 -1.85547,-0.83008 c -10.31903,-3.22262 -15.99936,-5.11064 -17.04101,-5.66406 -4.78517,-1.92054 -8.34962,-5.09436 -10.69336,-9.52149 -1.52995,-2.96219 -2.21355,-6.55919 -2.05078,-10.79101 0.61848,-5.27338 2.78319,-9.45632 6.49414,-12.54883 4.16665,-3.02727 8.51235,-4.67115 13.03711,-4.93164 l 1.26953,0 c 3.22263,7e-5 5.8919,0.24421 8.00781,0.73242 4.29684,1.2045 7.6497,2.88093 10.05859,5.0293 2.40881,1.98574 4.39449,4.68756 5.95704,8.10547 l -0.14649,0.53711 -10.05859,4.83398 -0.48828,-0.24414 c -0.61853,-1.98562 -2.36006,-3.59695 -5.22461,-4.83398 -3.22269,-1.20437 -6.99873,-1.23692 -11.32813,-0.0977 -1.85549,0.61855 -3.15757,1.41607 -3.90625,2.39258 -0.26043,0.26047 -0.60223,1.07427 -1.02539,2.4414 -0.0651,1.59511 -1e-5,2.52284 0.19531,2.78321 0.42316,1.10682 1.26952,2.09966 2.53907,2.97851 l 1.26953,0.53711 c 9.24476,2.73442 15.51103,4.7201 18.79883,5.95703 2.83199,1.30213 4.9967,2.73442 6.49414,4.29688 l 2.73437,3.71094 c 2.01818,3.35289 3.0924,7.015 3.22266,10.98632 0.0325,0.26044 0.0488,0.56969 0.0488,0.92774 -6e-5,1.26955 -0.19537,2.97853 -0.58594,5.12695 -0.81385,3.02736 -1.79042,5.25717 -2.92969,6.68946 -1.95317,2.40886 -3.36918,3.85742 -4.24805,4.3457 -4.78519,3.28776 -9.71683,5.06185 -14.79492,5.32226 l -4.44336,0 c -3.32033,-0.32552 -6.11981,-0.97656 -8.39843,-1.95312 -3.64585,-1.69271 -6.59181,-3.58073 -8.8379,-5.66406 -1.85547,-1.6927 -3.4668,-4.11783 -4.83398,-7.27539"
             style="font-size:100px;font-variant:normal;font-stretch:normal;text-align:center;line-height:125%;letter-spacing:1px;text-anchor:middle;font-family:Caracteres L1;-inkscape-font-specification:Caracteres L1"
             id="path3033" />
          <path
             d="m -472.2959,831.56531 18.45703,71.5332 -14.01367,0 -3.07617,-12.1582 -19.77539,0 -3.125,12.1582 -14.16016,0 18.26172,-71.5332 17.43164,0 m -15.72265,45.75195 14.11132,0 -6.83593,-27.92969 -7.27539,27.92969"
             style="font-size:100px;font-variant:normal;font-stretch:normal;text-align:center;line-height:125%;letter-spacing:1px;text-anchor:middle;font-family:Caracteres L1;-inkscape-font-specification:Caracteres L1"
             id="path3035" />
          <path
             d="m -423.54199,830.6864 c 9.3424,0.97664 15.98302,7.1778 19.92187,18.60352 l -12.69531,3.32031 c -2.27868,-5.01297 -4.88285,-8.02403 -7.8125,-9.0332 -3.80862,-1.43223 -7.487,0.56972 -11.03516,6.00586 -2.21356,3.64588 -3.58074,8.96814 -4.10156,15.96679 -0.0977,7.71488 1.10676,13.88349 3.61328,18.50586 2.53904,4.58986 5.51756,7.12892 8.93555,7.61719 5.46872,-0.26041 9.53772,-5.14321 12.20703,-14.64844 l -11.57226,0 0,-13.03711 25.48828,0 0,0.58594 c 0.0325,0.78129 0.0488,1.57881 0.0488,2.39258 -5e-5,11.75132 -2.71815,21.32163 -8.15429,28.71094 -3.64588,5.01302 -8.98441,7.8125 -16.01563,8.39843 l -1.07422,0 c -15.62501,0 -24.44662,-11.26301 -26.46484,-33.78906 -0.0326,-0.65101 -0.0488,-1.31832 -0.0488,-2.00195 0,-11.42574 2.58789,-20.99604 7.76367,-28.71094 3.05989,-3.90618 6.36392,-6.42897 9.91211,-7.56836 2.79946,-0.91139 5.72914,-1.36711 8.78907,-1.36719 0.74866,8e-5 1.51364,0.0163 2.29492,0.0488"
             style="font-size:100px;font-variant:normal;font-stretch:normal;text-align:center;line-height:125%;letter-spacing:1px;text-anchor:middle;font-family:Caracteres L1;-inkscape-font-specification:Caracteres L1"
             id="path3037" />
          <path
             d="m -351.25293,831.71179 0,13.08594 -29.58984,0 0,15.625 21.67968,0 0,13.23242 -21.67968,0 0,16.35742 30.85937,0 0,13.23243 -44.6289,0 0.0488,-71.53321 43.31055,0"
             style="font-size:100px;font-variant:normal;font-stretch:normal;text-align:center;line-height:125%;letter-spacing:1px;text-anchor:middle;font-family:Caracteres L1;-inkscape-font-specification:Caracteres L1"
             id="path3039" />
        </g>
      </g>
      <g
         transform="matrix(-1,0,0,-1,-419.50656,951.09635)"
         id="g7390">
        <path
           transform="matrix(-0.4663126,0.80802416,-0.8076771,-0.46651297,-304.8789,496.68883)"
           sodipodi:type="star"
           style="opacity:0.51898738;fill:#000000;fill-opacity:1;stroke:#000000;stroke-width:112.56124115;stroke-linecap:round;stroke-linejoin:round;stroke-miterlimit:4;stroke-opacity:1;stroke-dasharray:none;stroke-dashoffset:0"
           id="path6715-4-9"
           sodipodi:sides="3"
           sodipodi:cx="406.08133"
           sodipodi:cy="391.72241"
           sodipodi:r1="482.38354"
           sodipodi:r2="241.19177"
           sodipodi:arg1="0.52359878"
           sodipodi:arg2="1.5707963"
           inkscape:flatsided="true"
           inkscape:rounded="-3.469447e-018"
           inkscape:randomized="0"
           d="M 823.83773,632.91419 -11.675076,632.91418 406.08133,-90.661133 z"
           inkscape:transform-center-y="-112.51909"
           inkscape:transform-center-x="3.4247237e-005" />
        <path
           transform="matrix(-0.4663126,0.80802416,-0.8076771,-0.46651297,-304.8789,496.68883)"
           sodipodi:type="star"
           style="fill:none;stroke:#ffffff;stroke-width:107.2011795;stroke-linecap:round;stroke-linejoin:round;stroke-miterlimit:4;stroke-opacity:1;stroke-dasharray:none;stroke-dashoffset:0"
           id="path6715-4-9-2"
           sodipodi:sides="3"
           sodipodi:cx="406.08133"
           sodipodi:cy="391.72241"
           sodipodi:r1="482.38354"
           sodipodi:r2="241.19177"
           sodipodi:arg1="0.52359878"
           sodipodi:arg2="1.5707963"
           inkscape:flatsided="true"
           inkscape:rounded="-3.469447e-018"
           inkscape:randomized="0"
           d="M 823.83773,632.91419 -11.675076,632.91418 406.08133,-90.661133 z"
           inkscape:transform-center-y="-112.51909"
           inkscape:transform-center-x="3.4247237e-005" />
        <path
           transform="matrix(-0.4663126,0.80802416,-0.8076771,-0.46651297,-304.8789,496.68883)"
           sodipodi:type="star"
           style="fill:#ffffff;stroke:#ff0000;stroke-width:75.04082489;stroke-linecap:round;stroke-linejoin:round;stroke-miterlimit:4;stroke-opacity:1;stroke-dasharray:none;stroke-dashoffset:0"
           id="path6715-4-9-2-3"
           sodipodi:sides="3"
           sodipodi:cx="406.08133"
           sodipodi:cy="391.72241"
           sodipodi:r1="482.38354"
           sodipodi:r2="241.19177"
           sodipodi:arg1="0.52359878"
           sodipodi:arg2="1.5707963"
           inkscape:flatsided="true"
           inkscape:rounded="-3.469447e-018"
           inkscape:randomized="0"
           d="M 823.83773,632.91419 -11.675076,632.91418 406.08133,-90.661133 z"
           inkscape:transform-center-y="-112.51909"
           inkscape:transform-center-x="3.4247237e-005" />
      </g>
    </g>
  </g>
</svg>
