<?xml version="1.0" encoding="UTF-8" standalone="no"?>
<!-- Created with Inkscape (http://www.inkscape.org/) -->

<svg
   xmlns:dc="http://purl.org/dc/elements/1.1/"
   xmlns:cc="http://creativecommons.org/ns#"
   xmlns:rdf="http://www.w3.org/1999/02/22-rdf-syntax-ns#"
   xmlns:svg="http://www.w3.org/2000/svg"
   xmlns="http://www.w3.org/2000/svg"
   xmlns:sodipodi="http://sodipodi.sourceforge.net/DTD/sodipodi-0.dtd"
   xmlns:inkscape="http://www.inkscape.org/namespaces/inkscape"
   width="637.50134"
   height="735.97382"
   id="svg5961"
   version="1.1"
   inkscape:version="0.48.3.1 r9886"
   sodipodi:docname="AB3b.svg">
  <defs
     id="defs5963">
    <marker
       inkscape:stockid="Arrow2Lstart"
       orient="auto"
       refY="0"
       refX="0"
       id="Arrow2Lstart"
       style="overflow:visible">
      <path
         id="path6760"
         style="font-size:12px;fill-rule:evenodd;stroke-width:0.625;stroke-linejoin:round"
         d="M 8.7185878,4.0337352 -2.2072895,0.01601326 8.7185884,-4.0017078 c -1.7454984,2.3720609 -1.7354408,5.6174519 -6e-7,8.035443 z"
         transform="matrix(1.1,0,0,1.1,1.1,0)"
         inkscape:connector-curvature="0" />
    </marker>
    <marker
       inkscape:stockid="Arrow2Sstart"
       orient="auto"
       refY="0"
       refX="0"
       id="Arrow2Sstart"
       style="overflow:visible">
      <path
         id="path6772"
         style="font-size:12px;fill-rule:evenodd;stroke-width:0.625;stroke-linejoin:round"
         d="M 8.7185878,4.0337352 -2.2072895,0.01601326 8.7185884,-4.0017078 c -1.7454984,2.3720609 -1.7354408,5.6174519 -6e-7,8.035443 z"
         transform="matrix(0.3,0,0,0.3,-0.69,0)"
         inkscape:connector-curvature="0" />
    </marker>
    <marker
       inkscape:stockid="Arrow1Lstart"
       orient="auto"
       refY="0"
       refX="0"
       id="Arrow1Lstart"
       style="overflow:visible">
      <path
         id="path6742"
         d="M 0,0 5,-5 -12.5,0 5,5 0,0 z"
         style="fill-rule:evenodd;stroke:#000000;stroke-width:1pt;marker-start:none"
         transform="matrix(0.8,0,0,0.8,10,0)"
         inkscape:connector-curvature="0" />
    </marker>
    <marker
       style="overflow:visible"
       id="DistanceStart"
       refX="0"
       refY="0"
       orient="auto"
       inkscape:stockid="DistanceStart">
      <g
         id="g2300">
        <path
           style="fill:none;stroke:#ffffff;stroke-width:1.14999998;stroke-linecap:square"
           d="M 0,0 2,0"
           id="path2306"
           inkscape:connector-curvature="0" />
        <path
           style="fill:#000000;fill-rule:evenodd;stroke:none"
           d="M 0,0 13,4 9,0 13,-4 0,0 z"
           id="path2302"
           inkscape:connector-curvature="0" />
        <path
           style="fill:none;stroke:#000000;stroke-width:1;stroke-linecap:square"
           d="M 0,-4 0,40"
           id="path2304"
           inkscape:connector-curvature="0" />
      </g>
    </marker>
    <marker
       inkscape:stockid="Arrow2Lend"
       orient="auto"
       refY="0"
       refX="0"
       id="Arrow2Lend"
       style="overflow:visible">
      <path
         id="path6763"
         style="font-size:12px;fill-rule:evenodd;stroke-width:0.625;stroke-linejoin:round"
         d="M 8.7185878,4.0337352 -2.2072895,0.01601326 8.7185884,-4.0017078 c -1.7454984,2.3720609 -1.7354408,5.6174519 -6e-7,8.035443 z"
         transform="matrix(-1.1,0,0,-1.1,-1.1,0)"
         inkscape:connector-curvature="0" />
    </marker>
    <marker
       inkscape:stockid="Arrow1Lend"
       orient="auto"
       refY="0"
       refX="0"
       id="Arrow1Lend"
       style="overflow:visible">
      <path
         id="path6745"
         d="M 0,0 5,-5 -12.5,0 5,5 0,0 z"
         style="fill-rule:evenodd;stroke:#000000;stroke-width:1pt;marker-start:none"
         transform="matrix(-0.8,0,0,-0.8,-10,0)"
         inkscape:connector-curvature="0" />
    </marker>
    <marker
       inkscape:stockid="Arrow1Mend"
       orient="auto"
       refY="0"
       refX="0"
       id="Arrow1Mend"
       style="overflow:visible">
      <path
         id="path6751"
         d="M 0,0 5,-5 -12.5,0 5,5 0,0 z"
         style="fill-rule:evenodd;stroke:#000000;stroke-width:1pt;marker-start:none"
         transform="matrix(-0.4,0,0,-0.4,-4,0)"
         inkscape:connector-curvature="0" />
    </marker>
  </defs>
  <sodipodi:namedview
     id="base"
     pagecolor="#ffffff"
     bordercolor="#666666"
     borderopacity="1.0"
     inkscape:pageopacity="0.0"
     inkscape:pageshadow="2"
     inkscape:zoom="0.64"
     inkscape:cx="356.31905"
     inkscape:cy="243.37061"
     inkscape:document-units="px"
     inkscape:current-layer="text3880"
     showgrid="false"
     inkscape:window-width="1920"
     inkscape:window-height="1024"
     inkscape:window-x="0"
     inkscape:window-y="27"
     inkscape:window-maximized="1"
     showguides="true"
     inkscape:guide-bbox="true"
     fit-margin-top="0"
     fit-margin-left="0"
     fit-margin-right="0"
     fit-margin-bottom="0" />
  <metadata
     id="metadata5966">
    <rdf:RDF>
      <cc:Work
         rdf:about="">
        <dc:format>image/svg+xml</dc:format>
        <dc:type
           rdf:resource="http://purl.org/dc/dcmitype/StillImage" />
        <dc:title>Signalisation routière</dc:title>
        <cc:license
           rdf:resource="http://creativecommons.org/licenses/publicdomain/" />
        <dc:date>08/10/2012</dc:date>
        <dc:creator>
          <cc:Agent>
            <dc:title>Desmoric</dc:title>
          </cc:Agent>
        </dc:creator>
        <dc:rights>
          <cc:Agent>
            <dc:title>Domaine Public</dc:title>
          </cc:Agent>
        </dc:rights>
        <dc:publisher>
          <cc:Agent>
            <dc:title>Desmoric</dc:title>
          </cc:Agent>
        </dc:publisher>
        <dc:source>http://routes.wikia.com/wiki/Signalisation_routière_française</dc:source>
        <dc:description>Panneau de signalisation routière applicable en France issu de l'arrêté du 24 novembre 1967 sur la signalisation routière décrite dans L'instruction Interministérielle sur la Signalisation Routière (depuis 2002).</dc:description>
        <dc:language>French</dc:language>
      </cc:Work>
      <cc:License
         rdf:about="http://creativecommons.org/licenses/publicdomain/">
        <cc:permits
           rdf:resource="http://creativecommons.org/ns#Reproduction" />
        <cc:permits
           rdf:resource="http://creativecommons.org/ns#Distribution" />
        <cc:permits
           rdf:resource="http://creativecommons.org/ns#DerivativeWorks" />
      </cc:License>
    </rdf:RDF>
  </metadata>
  <g
     inkscape:label="Calque 1"
     inkscape:groupmode="layer"
     id="layer1"
     transform="translate(-52.459559,-52.50534)">
    <text
       xml:space="preserve"
       style="font-size:40px;font-style:normal;font-weight:normal;line-height:125%;letter-spacing:0px;word-spacing:0px;fill:#000000;fill-opacity:1;stroke:none;font-family:Sans"
       x="319.72699"
       y="787.97131"
       id="text6001"
       sodipodi:linespacing="125%"><tspan
         sodipodi:role="line"
         id="tspan6003"
         x="319.72699"
         y="787.97131">AB3b</tspan></text>
    <g
       id="g5439"
       transform="matrix(0.72100078,0,0,0.72100078,86.028827,27.467012)">
      <g
         transform="translate(-1.7528553,0)"
         id="g3900">
        <path
           style="fill:#ffffff;fill-opacity:1;stroke:#000000;stroke-width:1.69592857;stroke-linecap:butt;stroke-linejoin:miter;stroke-miterlimit:4;stroke-dashoffset:0;stroke-opacity:1"
           d="m 261.30625,817.34747 271.96892,0 c 19.75126,0 35.65209,15.90084 35.65209,35.6521 l 0,77.05451 c 0,19.75126 -15.90083,35.6521 -35.65209,35.6521 l -271.96892,0 c -19.75126,0 -35.65209,-15.90084 -35.65209,-35.6521 l 0,-77.05451 c 0,-19.75126 15.90083,-35.6521 35.65209,-35.6521 z"
           id="rect3059" />
        <g
           style="font-size:40px;font-style:normal;font-weight:normal;line-height:125%;letter-spacing:0px;word-spacing:0px;fill:#000000;fill-opacity:1;stroke:none;font-family:Sans"
           id="text3880">
          <path
             d="m 297.41473,855.58936 0,71.72851 -13.62304,0 0.0488,-50.63476 -0.19532,0 c -0.0977,0.42322 -1.26956,1.35096 -3.51562,2.7832 l -4.24805,2.24609 -3.80859,1.46485 c -1.52997,0.32556 -2.36004,0.5697 -2.49024,0.73242 l 0,-15.13672 3.02735,-1.41602 c 5.04555,-3.22259 8.6751,-7.14511 10.88867,-11.76757 l 13.91601,0"
             style="font-size:100px;font-variant:normal;font-stretch:normal;text-align:center;line-height:125%;letter-spacing:1px;text-anchor:middle;font-family:Caracteres L1;-inkscape-font-specification:Caracteres L1"
             id="path3013" />
          <path
             d="m 363.89325,855.54053 -0.0488,13.7207 -24.12109,0 -1.66016,12.20703 c 2.27862,-0.65099 4.68747,-0.92769 7.22656,-0.83008 2.37627,-0.0651 4.8014,0.19536 7.27539,0.78125 3.58069,1.13937 6.77079,3.14132 9.57032,6.00586 3.87364,4.23181 6.07091,8.9193 6.59179,14.0625 0.0325,0.74873 0.0488,1.48115 0.0488,2.19727 -5e-5,3.12502 -0.40695,5.82684 -1.2207,8.10547 -1.49745,3.48308 -3.54823,6.60808 -6.15234,9.375 -4.29692,4.03646 -9.5378,6.05468 -15.72266,6.05468 l -0.97656,0 -4.49219,-0.29296 c -4.68752,-0.52084 -8.75653,-2.16471 -12.20703,-4.93164 -4.45965,-4.10156 -7.2103,-8.31705 -8.25196,-12.64649 l 14.0625,-3.56445 c 0.42316,1.92059 1.52993,3.64585 3.32032,5.17578 2.70179,1.98569 6.51038,2.39259 11.42578,1.2207 4.06897,-1.66014 5.97326,-4.55727 5.71289,-8.6914 0.0976,-3.74347 -1.59509,-6.39646 -5.07813,-7.95899 -2.40888,-0.71611 -5.12698,-0.91142 -8.15429,-0.58594 -2.31123,0.48832 -4.37828,1.3835 -6.20117,2.68555 l -12.15821,-9.52148 3.61328,-32.56836 37.59766,0"
             style="font-size:100px;font-variant:normal;font-stretch:normal;text-align:center;line-height:125%;letter-spacing:1px;text-anchor:middle;font-family:Caracteres L1;-inkscape-font-specification:Caracteres L1"
             id="path3015" />
          <path
             d="m 399.7077,913.84131 c 2.0182,0.13022 3.27146,0.0977 3.75977,-0.0977 l 0.0488,0.0977 2.68554,-0.58594 c 2.1484,-0.71613 3.79228,-2.26235 4.93164,-4.63867 0.87887,-2.37628 1.52991,-5.20831 1.95313,-8.49609 l 0.24414,-11.03516 -0.14648,-5.17578 -0.48829,-3.85742 -0.19531,-0.19532 -0.63476,-2.73437 -0.19532,-0.0977 c -0.48832,-1.95307 -1.41605,-3.75971 -2.7832,-5.41992 -1.0417,-0.8463 -1.87178,-1.39968 -2.49023,-1.66016 l -2.83204,-0.68359 -2.97851,-0.14648 c -1.33466,-0.0325 -2.81578,0.24419 -4.44336,0.83007 -1.49742,0.71621 -2.75067,2.00201 -3.75977,3.85743 -0.71616,1.72531 -1.3672,3.89002 -1.95312,6.49414 l 0.0977,0.29297 c -0.19534,0.1628 -0.30927,0.69991 -0.3418,1.61132 -0.45575,3.80864 -0.50458,9.39132 -0.14649,16.74805 l 0.78125,5.32227 1.02539,3.75976 c 0.74868,1.95314 1.77407,3.36916 3.07618,4.24805 1.17185,0.74871 2.7669,1.26954 4.78515,1.5625 m -24.3164,-14.7461 c -0.0977,-1.82288 -0.14649,-3.61324 -0.14649,-5.37109 0,-0.87887 0.0163,-1.75778 0.0488,-2.63672 0.0977,-3.45048 0.37435,-6.80334 0.83008,-10.05859 l 0,-0.3418 0.19531,-0.43945 0.3418,-3.36914 0.24414,-0.48828 0.48828,-2.73438 0.19531,-0.29297 c 0.48828,-2.34369 1.54622,-4.98041 3.17383,-7.91015 l 1.41602,-2.14844 2.73437,-2.7832 c 2.89712,-2.34368 6.65688,-4.02012 11.2793,-5.0293 1.46482,-0.26035 2.97849,-0.39055 4.54101,-0.39063 l 0.39063,0 c 2.44137,0.0652 4.99671,0.47208 7.66601,1.22071 1.10674,0.13028 2.88082,0.8627 5.32227,2.19726 2.50647,1.56257 4.78511,3.69473 6.83594,6.39649 l 1.5625,2.39258 1.26953,2.68554 0.53711,1.95313 0.14648,0.14648 0,0.48828 c 0.32547,0.68365 0.52078,1.22076 0.58594,1.61133 l 0.19531,0.24414 0.83008,4.3457 0.14648,0.0977 -0.0976,0.63477 0.19531,0.39062 0.48828,5.22461 0.19531,0.48828 -0.14648,0.0488 0.3418,3.07617 -0.0977,0.0977 c 0.13015,0.32556 0.13015,0.52087 0,0.58594 l 0.14649,0.48828 -0.0977,0.14648 0.24414,3.32031 -0.0977,0.0977 0.14649,1.41602 -0.0488,0.0977 0,1.95313 c -0.0326,1.20445 -0.13026,2.65302 -0.29297,4.3457 l -0.24414,1.80664 0.0977,0.0977 -0.24414,0.48828 c -0.0977,1.20445 -0.37441,2.63674 -0.83008,4.29687 l -0.29297,0.92774 -0.0488,0.53711 -1.26953,3.61328 -0.24414,0.19531 c -5e-5,0.32554 -0.42323,1.31837 -1.26953,2.97852 l -2.34375,3.36914 c -2.57166,2.96224 -5.41997,5.12695 -8.54492,6.49414 -2.05082,0.8138 -4.11788,1.35091 -6.20118,1.61133 l -3.75976,0.24414 -0.87891,-0.0488 c -7.42189,-0.19531 -13.41147,-2.60417 -17.96875,-7.22656 -2.2461,-2.50651 -3.93881,-5.41991 -5.07812,-8.74024 -1.30209,-3.3854 -2.09962,-6.94985 -2.39258,-10.69336 l -0.19531,-2.14844"
             style="font-size:100px;font-variant:normal;font-stretch:normal;text-align:center;line-height:125%;letter-spacing:1px;text-anchor:middle;font-family:Caracteres L1;-inkscape-font-specification:Caracteres L1"
             id="path3017" />
          <path
             d="m 472.06903,878.88037 11.23047,0 -0.92773,8.1543 c 3.54815,-4.85022 7.1126,-7.63342 10.69335,-8.34961 0.91143,-0.0976 1.75778,-0.14644 2.53907,-0.14649 2.27861,5e-5 3.97131,0.39068 5.07812,1.17188 2.99475,1.92062 4.55725,5.09444 4.6875,9.52148 5.4036,-6.60802 9.66792,-9.99344 12.79297,-10.15625 0.9114,-0.26036 1.75776,-0.39057 2.53906,-0.39062 2.27859,5e-5 4.02012,0.39067 5.22461,1.17187 2.24603,1.49745 3.72715,3.45057 4.44336,5.85938 0.48821,1.88806 0.73236,3.95511 0.73242,6.20117 -6e-5,1.66019 -0.14655,3.418 -0.43945,5.27344 l -5.66406,30.12695 -12.01172,0 5.61523,-29.58984 c 0.61844,-3.32028 0.35802,-5.90817 -0.78125,-7.76367 -2.66932,-1.62757 -5.56645,-1.20439 -8.6914,1.26953 -2.11593,2.01826 -3.77609,5.58271 -4.98047,10.69336 l -4.24805,25.29296 -12.01172,0 5.61524,-29.58984 c 0.61846,-3.32028 0.22783,-5.77796 -1.17188,-7.37305 -2.40888,-1.88798 -4.99677,-1.59501 -7.76367,0.87891 -2.1159,2.01826 -3.77606,5.58271 -4.98047,10.69336 l -4.6875,25.39062 -11.32812,0 7.8125,-42.48046 0.68359,-5.85938"
             style="font-family:Caracteres L4;-inkscape-font-specification:Caracteres L4 Oblique"
             id="path3019" />
        </g>
      </g>
      <g
         transform="matrix(-1,0,0,-1,-415.08711,954.35455)"
         id="g7390">
        <path
           transform="matrix(-0.4663126,0.80802416,-0.8076771,-0.46651297,-304.8789,496.68883)"
           sodipodi:type="star"
           style="opacity:0.51898738;fill:#000000;fill-opacity:1;stroke:#000000;stroke-width:112.56124115;stroke-linecap:round;stroke-linejoin:round;stroke-miterlimit:4;stroke-opacity:1;stroke-dasharray:none;stroke-dashoffset:0"
           id="path6715-4-9"
           sodipodi:sides="3"
           sodipodi:cx="406.08133"
           sodipodi:cy="391.72241"
           sodipodi:r1="482.38354"
           sodipodi:r2="241.19177"
           sodipodi:arg1="0.52359878"
           sodipodi:arg2="1.5707963"
           inkscape:flatsided="true"
           inkscape:rounded="-3.469447e-018"
           inkscape:randomized="0"
           d="M 823.83773,632.91419 -11.675076,632.91418 406.08133,-90.661133 z"
           inkscape:transform-center-y="-112.51909"
           inkscape:transform-center-x="3.4247237e-005" />
        <path
           transform="matrix(-0.4663126,0.80802416,-0.8076771,-0.46651297,-304.8789,496.68883)"
           sodipodi:type="star"
           style="fill:none;stroke:#ffffff;stroke-width:107.2011795;stroke-linecap:round;stroke-linejoin:round;stroke-miterlimit:4;stroke-opacity:1;stroke-dasharray:none;stroke-dashoffset:0"
           id="path6715-4-9-2"
           sodipodi:sides="3"
           sodipodi:cx="406.08133"
           sodipodi:cy="391.72241"
           sodipodi:r1="482.38354"
           sodipodi:r2="241.19177"
           sodipodi:arg1="0.52359878"
           sodipodi:arg2="1.5707963"
           inkscape:flatsided="true"
           inkscape:rounded="-3.469447e-018"
           inkscape:randomized="0"
           d="M 823.83773,632.91419 -11.675076,632.91418 406.08133,-90.661133 z"
           inkscape:transform-center-y="-112.51909"
           inkscape:transform-center-x="3.4247237e-005" />
        <path
           transform="matrix(-0.4663126,0.80802416,-0.8076771,-0.46651297,-304.8789,496.68883)"
           sodipodi:type="star"
           style="fill:#ffffff;stroke:#ff0000;stroke-width:75.04082489;stroke-linecap:round;stroke-linejoin:round;stroke-miterlimit:4;stroke-opacity:1;stroke-dasharray:none;stroke-dashoffset:0"
           id="path6715-4-9-2-3"
           sodipodi:sides="3"
           sodipodi:cx="406.08133"
           sodipodi:cy="391.72241"
           sodipodi:r1="482.38354"
           sodipodi:r2="241.19177"
           sodipodi:arg1="0.52359878"
           sodipodi:arg2="1.5707963"
           inkscape:flatsided="true"
           inkscape:rounded="-3.469447e-018"
           inkscape:randomized="0"
           d="M 823.83773,632.91419 -11.675076,632.91418 406.08133,-90.661133 z"
           inkscape:transform-center-y="-112.51909"
           inkscape:transform-center-x="3.4247237e-005" />
      </g>
    </g>
  </g>
</svg>
