<?xml version="1.0" encoding="UTF-8" standalone="no"?>
<!-- Created with Inkscape (http://www.inkscape.org/) -->

<svg
   xmlns:dc="http://purl.org/dc/elements/1.1/"
   xmlns:cc="http://creativecommons.org/ns#"
   xmlns:rdf="http://www.w3.org/1999/02/22-rdf-syntax-ns#"
   xmlns:svg="http://www.w3.org/2000/svg"
   xmlns="http://www.w3.org/2000/svg"
   xmlns:sodipodi="http://sodipodi.sourceforge.net/DTD/sodipodi-0.dtd"
   xmlns:inkscape="http://www.inkscape.org/namespaces/inkscape"
   width="644.42859"
   height="699.84546"
   id="svg8761"
   version="1.1"
   inkscape:version="0.48.3.1 r9886"
   sodipodi:docname="B13a.svg">
  <defs
     id="defs8763" />
  <sodipodi:namedview
     id="base"
     pagecolor="#ffffff"
     bordercolor="#666666"
     borderopacity="1.0"
     inkscape:pageopacity="0.0"
     inkscape:pageshadow="2"
     inkscape:zoom="0.7"
     inkscape:cx="4.5289181"
     inkscape:cy="310.94531"
     inkscape:document-units="px"
     inkscape:current-layer="g5374"
     showgrid="false"
     inkscape:window-width="1920"
     inkscape:window-height="1024"
     inkscape:window-x="0"
     inkscape:window-y="27"
     inkscape:window-maximized="1"
     fit-margin-top="0"
     fit-margin-left="0"
     fit-margin-right="0"
     fit-margin-bottom="0" />
  <metadata
     id="metadata5966">
    <rdf:RDF>
      <cc:Work
         rdf:about="">
        <dc:format>image/svg+xml</dc:format>
        <dc:type
           rdf:resource="http://purl.org/dc/dcmitype/StillImage" />
        <dc:title>Signalisation routière</dc:title>
        <cc:license
           rdf:resource="http://creativecommons.org/licenses/publicdomain/" />
        <dc:date>08/10/2012</dc:date>
        <dc:creator>
          <cc:Agent>
            <dc:title>Desmoric</dc:title>
          </cc:Agent>
        </dc:creator>
        <dc:rights>
          <cc:Agent>
            <dc:title>Domaine Public</dc:title>
          </cc:Agent>
        </dc:rights>
        <dc:publisher>
          <cc:Agent>
            <dc:title>Desmoric</dc:title>
          </cc:Agent>
        </dc:publisher>
        <dc:source>http://routes.wikia.com/wiki/Signalisation_routière_française</dc:source>
        <dc:description>Panneau de signalisation routière applicable en France issu de l'arrêté du 24 novembre 1967 sur la signalisation routière décrite dans L'instruction Interministérielle sur la Signalisation Routière (depuis 2002).</dc:description>
        <dc:language>French</dc:language>
      </cc:Work>
      <cc:License
         rdf:about="http://creativecommons.org/licenses/publicdomain/">
        <cc:permits
           rdf:resource="http://creativecommons.org/ns#Reproduction" />
        <cc:permits
           rdf:resource="http://creativecommons.org/ns#Distribution" />
        <cc:permits
           rdf:resource="http://creativecommons.org/ns#DerivativeWorks" />
      </cc:License>
    </rdf:RDF>
  </metadata>
  <g
     inkscape:label="Calque 1"
     inkscape:groupmode="layer"
     id="layer1"
     transform="translate(-32.071424,-67.290759)">
    <text
       xml:space="preserve"
       style="font-size:40px;font-style:normal;font-weight:normal;line-height:125%;letter-spacing:0px;word-spacing:0px;fill:#000000;fill-opacity:1;stroke:none;font-family:Sans"
       x="335.71429"
       y="766.64795"
       id="text8780"
       sodipodi:linespacing="125%"><tspan
         sodipodi:role="line"
         id="tspan8782"
         x="335.71429"
         y="766.64795">B13a</tspan></text>
    <g
       id="g5374">
      <path
         sodipodi:type="arc"
         style="fill:#ffffff;fill-opacity:1;stroke:#000000;stroke-width:3.01336312;stroke-miterlimit:4;stroke-opacity:1;stroke-dasharray:none"
         id="path8784"
         sodipodi:cx="77.85714"
         sodipodi:cy="568.79077"
         sodipodi:rx="322.14285"
         sodipodi:ry="322.14285"
         d="m 399.99999,568.79077 c 0,177.91459 -144.22827,322.14285 -322.14285,322.14285 -177.91459,0 -322.14285,-144.22826 -322.14285,-322.14285 0,-177.91458 144.22826,-322.14285 322.14285,-322.14285 177.91458,0 322.14285,144.22827 322.14285,322.14285 z"
         transform="matrix(0.99556541,0,0,0.99556541,276.77383,-176.76338)" />
      <path
         sodipodi:type="arc"
         style="fill:none;stroke:#ff0000;stroke-width:110.49676514;stroke-miterlimit:4;stroke-opacity:1;stroke-dasharray:none"
         id="path8784-6"
         sodipodi:cx="77.85714"
         sodipodi:cy="568.79077"
         sodipodi:rx="322.14285"
         sodipodi:ry="322.14285"
         d="m 399.99999,568.79077 c 0,177.91459 -144.22827,322.14285 -322.14285,322.14285 -177.91459,0 -322.14285,-144.22826 -322.14285,-322.14285 0,-177.91458 144.22826,-322.14285 322.14285,-322.14285 177.91458,0 322.14285,144.22827 322.14285,322.14285 z"
         transform="matrix(0.81450348,0,0,0.81450348,290.87079,-73.777022)" />
      <g
         style="font-size:152.14109802px;font-style:normal;font-weight:normal;line-height:125%;letter-spacing:0px;word-spacing:0px;fill:#000000;fill-opacity:1;stroke:none;font-family:Sans"
         id="text4951">
        <path
           d="m 267.76161,241.0397 c 6.7675,1.0939 14.25285,4.54605 22.45606,10.35645 2.46084,1.98256 5.16103,5.09291 8.10058,9.33105 l 3.58887,6.5625 1.33301,3.17871 -0.30762,0.30762 c 1.70888,4.64856 2.56337,9.09191 2.56348,13.33008 -0.41027,8.20322 -1.16222,13.50107 -2.25586,15.89355 -1.84581,4.92197 -3.48643,8.44247 -4.92188,10.56153 l -2.3584,3.38379 -5.22949,5.74218 -42.75879,42.55372 59.78028,0 0,29.32617 -101.00098,0 0.10254,-29.63379 63.06152,-63.67676 c 1.98235,-2.39248 3.38371,-4.57998 4.2041,-6.5625 2.11906,-6.90419 1.12785,-12.71473 -2.97363,-17.43164 -3.75984,-3.62293 -9.05768,-5.43445 -15.89355,-5.43457 l -6.04981,0.82031 -2.76855,1.33301 -1.74317,0.10254 -3.79394,2.97363 -2.15332,2.56348 c -1.36723,2.46105 -2.29008,4.37511 -2.76856,5.74219 l -0.61523,3.58886 c -0.27348,0.75206 -0.44438,1.0255 -0.5127,0.82032 l -27.68554,0.10253 -0.20508,-0.71777 0.20508,-5.02441 0.41015,-0.61524 c 0.27343,-4.30652 1.67479,-9.12585 4.2041,-14.45801 l 4.7168,-7.8955 3.79395,-4.2041 0.61523,-0.20508 c 7.24606,-6.494 15.31246,-10.5272 24.19922,-12.09961 5.19526,-0.88852 9.91205,-1.33286 14.15039,-1.33301 3.14446,1.5e-4 5.98138,0.23941 8.51074,0.71777"
           style="font-size:210px;fill:#000000"
           id="path3058" />
        <path
           d="m 318.39102,365.251 31.61781,0 -8.67562,54.27082 -22.94219,0 0,-54.27082"
           style="font-size:197.41851807px;fill:#000000"
           id="path3060" />
        <path
           d="m 436.358,268.56204 -0.0837,23.5132 -41.33637,0 -2.84501,20.91922 c 3.90487,-1.11561 8.03293,-1.58978 12.38417,-1.42251 4.07222,-0.11148 8.22817,0.33479 12.46786,1.33883 6.13623,1.95254 11.60311,5.38329 16.40066,10.29226 6.63828,7.25206 10.40374,15.28503 11.29638,24.09894 0.0557,1.28309 0.0836,2.53824 0.0837,3.76546 -9e-5,5.35535 -0.6974,9.98547 -2.09192,13.89036 -2.56618,5.96897 -6.08061,11.32429 -10.54329,16.06596 -7.36364,6.91729 -16.34495,10.37593 -26.94395,10.37593 l -1.67354,0 -7.69827,-0.50206 c -8.03302,-0.89255 -15.00609,-3.70967 -20.91922,-8.45136 -7.64251,-7.02884 -12.3563,-14.25294 -14.14139,-21.67231 l 24.09894,-6.10841 c 0.72516,3.29132 2.62184,6.2479 5.69002,8.86974 4.63008,3.40289 11.15687,4.10019 19.58039,2.09193 6.97301,-2.84499 10.2364,-7.80981 9.7902,-14.89449 0.16728,-6.41518 -2.73351,-10.96162 -8.7024,-13.63933 -4.12811,-1.2272 -8.78612,-1.56191 -13.97404,-1.00412 -3.96074,0.83682 -7.50306,2.3709 -10.62696,4.60223 l -20.83554,-16.31699 6.19209,-55.81248 64.43119,0"
           style="font-size:171.37023926px;fill:#000000"
           id="path3062" />
        <path
           d="m 484.27159,393.23697 c -7.6693,0 -13.57587,-2.07194 -17.71973,-6.21582 -4.14389,-4.20572 -6.21583,-10.54523 -6.21582,-19.01856 l 0,-59.18945 -12.70996,0 0,-17.62695 14.00879,0 8.16406,-23.56446 16.32813,0 0,23.56446 19.01855,0 0,17.62695 -19.01855,0 0,52.13867 c -4e-5,4.8861 0.92769,8.50426 2.7832,10.85449 1.85543,2.28843 4.7314,3.43264 8.62793,3.43262 1.60802,2e-5 3.06147,-0.12368 4.36035,-0.37109 1.29877,-0.24738 2.75222,-0.55663 4.36036,-0.92774 l 0,16.14258 c -3.21621,1.05143 -6.6179,1.82455 -10.20508,2.31934 -3.58729,0.55664 -7.51469,0.83496 -11.78223,0.83496"
           style="font-size:190px;font-style:normal;font-variant:normal;font-weight:bold;font-stretch:normal;fill:#000000;font-family:Liberation Sans;-inkscape-font-specification:Liberation Sans Bold"
           id="path3064" />
      </g>
      <path
         inkscape:connector-curvature="0"
         id="path5353"
         d="m 219.31696,400.69701 c -4.0202,0 -7.25,3.26105 -7.25,7.28125 l 0,42.40625 c -6.66959,2.46971 -11.4375,8.87785 -11.4375,16.40625 0,7.52643 4.77066,13.90387 11.4375,16.375 l 0,41.71875 c 0,4.0202 3.2298,7.25 7.25,7.25 l 31.03125,0 c 4.0202,0 7.25,-3.2298 7.25,-7.25 l 0,-44.90625 68.34375,0 c 5.00919,10.16036 15.46848,17.15625 27.5625,17.15625 12.09402,0 22.55331,-6.99589 27.5625,-17.15625 l 66.71875,0 0,44.90625 c 0,4.0202 3.2298,7.25 7.25,7.25 l 31.03125,0 c 4.0202,0 7.25,-3.2298 7.25,-7.25 l 0,-41.40625 c 7.13842,-2.20681 12.3125,-8.82422 12.3125,-16.6875 0,-7.86328 -5.17408,-14.51194 -12.3125,-16.71875 l 0,-42.09375 c 0,-4.0202 -3.2298,-7.28125 -7.25,-7.28125 l -31.03125,0 c -4.0202,0 -7.25,3.26105 -7.25,7.28125 l 0,46.3125 -66.09375,0 c -4.70778,-10.9214 -15.53931,-18.59375 -28.1875,-18.59375 -12.64875,0 -23.51131,7.67158 -28.21875,18.59375 l -67.6875,0 0,-46.3125 c 0,-4.0202 -3.2298,-7.28125 -7.25,-7.28125 l -31.03125,0 z"
         style="fill:#000000;fill-opacity:1;stroke:none" />
    </g>
  </g>
</svg>
