<?xml version="1.0" encoding="UTF-8" standalone="no"?>
<!-- Created with Inkscape (http://www.inkscape.org/) -->

<svg
   xmlns:dc="http://purl.org/dc/elements/1.1/"
   xmlns:cc="http://creativecommons.org/ns#"
   xmlns:rdf="http://www.w3.org/1999/02/22-rdf-syntax-ns#"
   xmlns:svg="http://www.w3.org/2000/svg"
   xmlns="http://www.w3.org/2000/svg"
   xmlns:sodipodi="http://sodipodi.sourceforge.net/DTD/sodipodi-0.dtd"
   xmlns:inkscape="http://www.inkscape.org/namespaces/inkscape"
   width="644.41083"
   height="699.92218"
   id="svg8761"
   version="1.1"
   inkscape:version="0.48.2 r9819"
   sodipodi:docname="B22c.svg">
  <defs
     id="defs8763" />
  <sodipodi:namedview
     id="base"
     pagecolor="#ffffff"
     bordercolor="#666666"
     borderopacity="1.0"
     inkscape:pageopacity="0.0"
     inkscape:pageshadow="2"
     inkscape:zoom="0.7"
     inkscape:cx="84.437171"
     inkscape:cy="481.63036"
     inkscape:document-units="px"
     inkscape:current-layer="layer1"
     showgrid="false"
     inkscape:window-width="1680"
     inkscape:window-height="1003"
     inkscape:window-x="-4"
     inkscape:window-y="24"
     inkscape:window-maximized="1"
     showguides="true"
     inkscape:guide-bbox="true"
     fit-margin-top="0"
     fit-margin-left="0"
     fit-margin-right="0"
     fit-margin-bottom="0" />
<metadata
     id="metadata5966">
    <rdf:RDF>
      <cc:Work
         rdf:about="">
        <dc:format>image/svg+xml</dc:format>
        <dc:type
           rdf:resource="http://purl.org/dc/dcmitype/StillImage" />
        <dc:title>Signalisation routière</dc:title>
        <cc:license
           rdf:resource="http://creativecommons.org/licenses/publicdomain/" />
        <dc:date>08/10/2012</dc:date>
        <dc:creator>
          <cc:Agent>
            <dc:title>Desmoric</dc:title>
          </cc:Agent>
        </dc:creator>
        <dc:rights>
          <cc:Agent>
            <dc:title>Domaine Public</dc:title>
          </cc:Agent>
        </dc:rights>
        <dc:publisher>
          <cc:Agent>
            <dc:title>Desmoric</dc:title>
          </cc:Agent>
        </dc:publisher>
        <dc:source>http://routes.wikia.com/wiki/Signalisation_routière_française</dc:source>
        <dc:description>Panneau de signalisation routière applicable en France issu de l'arrêté du 24 novembre 1967 sur la signalisation routière décrite dans L'instruction Interministérielle sur la Signalisation Routière (depuis 2002).</dc:description>
        <dc:language>French</dc:language>
      </cc:Work>
      <cc:License
         rdf:about="http://creativecommons.org/licenses/publicdomain/">
        <cc:permits
           rdf:resource="http://creativecommons.org/ns#Reproduction" />
        <cc:permits
           rdf:resource="http://creativecommons.org/ns#Distribution" />
        <cc:permits
           rdf:resource="http://creativecommons.org/ns#DerivativeWorks" />
      </cc:License>
    </rdf:RDF>
  </metadata>
  <g
     inkscape:label="Calque 1"
     inkscape:groupmode="layer"
     id="layer1"
     transform="translate(-33.214039,-71.697483)">
    <text
       xml:space="preserve"
       style="font-size:40px;font-style:normal;font-weight:normal;line-height:125%;letter-spacing:0px;word-spacing:0px;fill:#000000;fill-opacity:1;stroke:none;font-family:Sans"
       x="309.1806"
       y="771.61969"
       id="text8780"
       sodipodi:linespacing="125%"><tspan
         sodipodi:role="line"
         id="tspan8782"
         x="309.1806"
         y="771.61969">B22c</tspan></text>
    <g
       id="g6460">
      <path
         sodipodi:type="arc"
         style="fill:#ffffff;fill-opacity:1;stroke:#000000;stroke-width:3.01336312;stroke-miterlimit:4;stroke-opacity:1;stroke-dasharray:none"
         id="path8784"
         sodipodi:cx="77.85714"
         sodipodi:cy="568.79077"
         sodipodi:rx="322.14285"
         sodipodi:ry="322.14285"
         d="m 399.99999,568.79077 a 322.14285,322.14285 0 1 1 -644.2857,0 322.14285,322.14285 0 1 1 644.2857,0 z"
         transform="matrix(0.99556541,0,0,0.99556541,277.90535,-172.3716)" />
      <path
         sodipodi:type="arc"
         style="fill:#0000ff;stroke:none"
         id="path8784-6"
         sodipodi:cx="77.85714"
         sodipodi:cy="568.79077"
         sodipodi:rx="322.14285"
         sodipodi:ry="322.14285"
         d="m 399.99999,568.79077 a 322.14285,322.14285 0 1 1 -644.2857,0 322.14285,322.14285 0 1 1 644.2857,0 z"
         transform="matrix(0.90230388,0,0,0.90230388,285.16643,-119.3253)" />
      <g
         id="g6356">
        <path
           style="fill:#ffffff;stroke:#ffffff;stroke-width:1.48131239px;stroke-linecap:butt;stroke-linejoin:miter;stroke-opacity:1"
           d="m 166.91296,554.26063 0,-95.74312 67.10197,-39.22958 c 0,0 -3.9511,-17.87112 -8.04264,-26.05429 -2.35573,-11.65499 0.38855,-26.17761 2.02526,-32.72416 1.63655,-6.54654 -20.16867,-43.56085 -20.16867,-43.56085 l -53.19067,26.18616 -13.09302,-15.54804 c 0,0 9.00149,-12.27476 12.27475,-13.91139 3.27325,-1.63664 5.14963,-16.8457 4.33121,-21.7556 -0.81828,-4.90992 0.43832,-10.54738 3.852,-13.43204 5.76246,-4.86947 14.72958,-10.63812 14.72958,-10.63812 l 2.45498,-36.00596 17.1847,19.63961 c 0,0 10.5388,0.0496 17.18471,0 4.97736,-0.0372 18.7783,3.34166 27.41717,9.27378 7.70386,5.28998 23.6967,20.59691 28.89773,26.63289 5.20104,6.03598 17.62066,27.09156 17.62066,27.09156 l 32.40371,-17.93776 c 0,0 -2.89315,-6.65434 -6.0756,-12.1514 -2.985,-5.15572 0.8679,-16.78048 3.76105,-19.09504 2.89315,-2.31455 1.15735,-8.10092 1.15735,-8.10092 0,0 -13.30871,-2.8932 -16.78061,-8.10093 -3.47175,-5.20775 -2.31455,-17.35913 -2.31455,-19.09505 0,-1.73591 -19.095,-2.89318 -19.095,-2.89318 l 0,-5.20775 20.25235,-5.20773 c 0,0 6.07575,-7.23298 11.28346,-10.70481 5.2077,-3.47182 17.35905,-2.60386 22.8562,-0.28931 5.497,2.31455 12.25875,10.89649 13.30856,14.46595 1.04995,3.56946 2.90278,14.19254 -0.2893,19.38436 -3.19194,5.19181 -10.70471,8.96888 -10.70471,12.4407 0,3.47183 0,5.20775 0,5.20775 l 15.04451,-1.15728 c 0,0 41.66191,59.59967 45.13381,66.54333 3.47175,6.94365 3.17327,24.16854 2.89315,28.93188 -0.2893,4.91841 9.99516,-4.37575 16.20185,-5.78638 6.36506,-1.44659 29.22126,-1.44659 35.00756,-0.86794 5.78645,0.57863 22.11763,10.52451 27.77461,19.38435 3.02114,4.73147 8.101,0.57864 22.27761,-3.1825 9.22398,-2.4472 34.13951,-1.73592 43.97646,3.47181 9.8368,5.20775 19.095,26.0387 20.25221,35.29691 0.93307,7.4642 3.4719,55.83853 3.4719,55.83853 l -35.58616,-0.57863 c 0,0 -1.08477,-47.54064 -0.28945,-50.92012 0.69962,-2.97216 -1.0187,-7.42336 -7.52226,-13.30867 -2.74724,-2.48607 -13.3087,-5.20773 -20.83095,-4.6291 -7.52225,0.57864 -14.46591,2.31455 -14.46591,2.31455 0,0 0.5786,1.73592 2.31455,7.5223 1.73595,5.78637 4.05051,12.15138 4.05051,15.6232 0,3.47183 -1.15735,12.1514 -4.05051,13.88731 -2.89315,1.73592 8.39031,13.59799 11.28346,18.22709 2.89315,4.6291 28.06391,46.0017 28.06391,46.0017 l 0,94.31793 -26.61741,0 c 0,0 -0.8008,-78.59921 0,-81.58791 0.80094,-2.98869 -3.47175,-12.15139 -9.2582,-12.15139 -5.78631,0 -27.19586,-9.83684 -32.98231,-15.04458 -5.78631,-5.20773 -19.09501,-18.51641 -21.98816,-21.40959 -2.8933,-2.89319 0,9.2582 2.31455,13.8873 2.31455,4.62911 12.72996,43.97647 12.72996,43.97647 l -41.08332,72.3297 -33.56091,0 c 0,0 40.79402,-69.14719 42.52982,-73.19766 1.73595,-4.05046 4.3398,-7.81162 -2.02525,-15.3339 -3.97318,-4.69558 -29.79082,-39.1663 -33.56091,-48.60556 -0.75621,-1.8934 -19.09501,2.89318 -40.50471,3.47182 -21.40956,0.57864 -50.34152,-4.6291 -53.23467,-4.6291 -4.33965,0 -5.76438,0.67405 -3.47175,4.33979 2.29278,3.66573 7.81155,13.30866 8.96875,20.25231 1.15735,6.94365 0.86805,33.27167 0.86805,33.27167 l 31.24651,78.69472 -27.19601,0 -57.86376,-135.40121 -51.49886,30.66779 -1.15721,61.33559 z"
           id="path3258"
           inkscape:connector-curvature="0"
           sodipodi:nodetypes="ccccccccscscccsszccssccscccszzzsccssssssssccssscsssscccssssscccssssszcccccccc" />
        <path
           style="fill:#0000ff;stroke:#ffffff;stroke-width:1.48131239000000000px;stroke-linecap:butt;stroke-linejoin:miter;stroke-opacity:1"
           d="m 300.22263,335.31243 c -0.44528,-0.53413 31.24651,-19.67368 31.24651,-19.67368 l 10.41555,15.62323 c 0,0 -26.4158,18.20953 -30.4663,18.20953 -4.0505,0 -10.75047,-13.62494 -11.19576,-14.15908 z"
           id="path3260"
           inkscape:connector-curvature="0"
           sodipodi:nodetypes="zccsz" />
      </g>
    </g>
  </g>
</svg>
