<?xml version="1.0" encoding="UTF-8" standalone="no"?>
<!-- Created with Inkscape (http://www.inkscape.org/) -->

<svg
   xmlns:dc="http://purl.org/dc/elements/1.1/"
   xmlns:cc="http://creativecommons.org/ns#"
   xmlns:rdf="http://www.w3.org/1999/02/22-rdf-syntax-ns#"
   xmlns:svg="http://www.w3.org/2000/svg"
   xmlns="http://www.w3.org/2000/svg"
   xmlns:sodipodi="http://sodipodi.sourceforge.net/DTD/sodipodi-0.dtd"
   xmlns:inkscape="http://www.inkscape.org/namespaces/inkscape"
   width="644.41083"
   height="699.92218"
   id="svg8761"
   version="1.1"
   inkscape:version="0.48.2 r9819"
   sodipodi:docname="B27a.svg">
  <defs
     id="defs8763" />
  <sodipodi:namedview
     id="base"
     pagecolor="#ffffff"
     bordercolor="#666666"
     borderopacity="1.0"
     inkscape:pageopacity="0.0"
     inkscape:pageshadow="2"
     inkscape:zoom="0.7"
     inkscape:cx="84.437171"
     inkscape:cy="481.63036"
     inkscape:document-units="px"
     inkscape:current-layer="layer1"
     showgrid="false"
     inkscape:window-width="1680"
     inkscape:window-height="1003"
     inkscape:window-x="-4"
     inkscape:window-y="24"
     inkscape:window-maximized="1"
     showguides="true"
     inkscape:guide-bbox="true"
     fit-margin-top="0"
     fit-margin-left="0"
     fit-margin-right="0"
     fit-margin-bottom="0" />
<metadata
     id="metadata5966">
    <rdf:RDF>
      <cc:Work
         rdf:about="">
        <dc:format>image/svg+xml</dc:format>
        <dc:type
           rdf:resource="http://purl.org/dc/dcmitype/StillImage" />
        <dc:title>Signalisation routière</dc:title>
        <cc:license
           rdf:resource="http://creativecommons.org/licenses/publicdomain/" />
        <dc:date>08/10/2012</dc:date>
        <dc:creator>
          <cc:Agent>
            <dc:title>Desmoric</dc:title>
          </cc:Agent>
        </dc:creator>
        <dc:rights>
          <cc:Agent>
            <dc:title>Domaine Public</dc:title>
          </cc:Agent>
        </dc:rights>
        <dc:publisher>
          <cc:Agent>
            <dc:title>Desmoric</dc:title>
          </cc:Agent>
        </dc:publisher>
        <dc:source>http://routes.wikia.com/wiki/Signalisation_routière_française</dc:source>
        <dc:description>Panneau de signalisation routière applicable en France issu de l'arrêté du 24 novembre 1967 sur la signalisation routière décrite dans L'instruction Interministérielle sur la Signalisation Routière (depuis 2002).</dc:description>
        <dc:language>French</dc:language>
      </cc:Work>
      <cc:License
         rdf:about="http://creativecommons.org/licenses/publicdomain/">
        <cc:permits
           rdf:resource="http://creativecommons.org/ns#Reproduction" />
        <cc:permits
           rdf:resource="http://creativecommons.org/ns#Distribution" />
        <cc:permits
           rdf:resource="http://creativecommons.org/ns#DerivativeWorks" />
      </cc:License>
    </rdf:RDF>
  </metadata>
  <g
     inkscape:label="Calque 1"
     inkscape:groupmode="layer"
     id="layer1"
     transform="translate(-33.214039,-71.697483)">
    <text
       xml:space="preserve"
       style="font-size:40px;font-style:normal;font-weight:normal;line-height:125%;letter-spacing:0px;word-spacing:0px;fill:#000000;fill-opacity:1;stroke:none;font-family:Sans"
       x="309.1806"
       y="771.61969"
       id="text8780"
       sodipodi:linespacing="125%"><tspan
         sodipodi:role="line"
         id="tspan8782"
         x="309.1806"
         y="771.61969">B27a</tspan></text>
    <path
       transform="matrix(0.99556541,0,0,0.99556541,277.90535,-172.3716)"
       d="m 399.99999,568.79077 a 322.14285,322.14285 0 1 1 -644.2857,0 322.14285,322.14285 0 1 1 644.2857,0 z"
       sodipodi:ry="322.14285"
       sodipodi:rx="322.14285"
       sodipodi:cy="568.79077"
       sodipodi:cx="77.85714"
       id="path8784"
       style="fill:#ffffff;fill-opacity:1;stroke:#000000;stroke-width:3.01336312;stroke-miterlimit:4;stroke-opacity:1;stroke-dasharray:none"
       sodipodi:type="arc" />
    <path
       transform="matrix(0.90230388,0,0,0.90230388,285.16643,-119.3253)"
       d="m 399.99999,568.79077 a 322.14285,322.14285 0 1 1 -644.2857,0 322.14285,322.14285 0 1 1 644.2857,0 z"
       sodipodi:ry="322.14285"
       sodipodi:rx="322.14285"
       sodipodi:cy="568.79077"
       sodipodi:cx="77.85714"
       id="path8784-6"
       style="fill:#0000ff;stroke:none"
       sodipodi:type="arc" />
    <g
       id="g6503"
       transform="matrix(1.3818399,0,0,1.3818399,670.77318,-80.14086)">
      <path
         sodipodi:nodetypes="cccssscsscc"
         inkscape:connector-curvature="0"
         id="path10344"
         d="m -393.6684,295.52159 4.42383,0 -9.84659,39.38645 c 0,0 -8.70501,1.56976 -8.70501,8.13416 0,6.56442 0,29.96796 0,35.67614 0,5.70819 5.28011,9.63256 9.63258,9.63256 4.35246,0 349.530687,0.0113 349.530687,0.0113 0,0 0,-100.50373 0,-105.24638 0,-4.74264 -2.724503,-8.2744 -8.980757,-8.2744 -6.256254,0 -336.05474,0.28352 -336.05474,0.28352 0.0256,0.90816 0,20.3966 0,20.3966 z"
         style="fill:#ffffff;stroke:none" />
      <rect
         ry="3.1311669"
         y="293.80914"
         x="-354.13928"
         height="41.098907"
         width="69.354416"
         id="rect10328"
         style="fill:#0000ff;fill-opacity:1;stroke:none" />
      <rect
         style="fill:#0000ff;fill-opacity:1;stroke:none"
         id="rect10330"
         width="69.354416"
         height="41.098907"
         x="-277.6496"
         y="293.80914"
         ry="3.1311669" />
      <rect
         style="fill:#0000ff;fill-opacity:1;stroke:none"
         id="rect10332"
         width="69.354416"
         height="41.098907"
         x="-202.30161"
         y="293.80914"
         ry="3.1311669" />
      <rect
         ry="3.1311669"
         y="293.80914"
         x="-125.81197"
         height="41.098907"
         width="69.354416"
         id="rect10334"
         style="fill:#0000ff;fill-opacity:1;stroke:none" />
      <path
         transform="matrix(0.79914546,0,0,0.79914546,197.98466,-10.754928)"
         d="m -618.57145,490.21933 c 0,18.1465 -14.71064,32.85714 -32.85714,32.85714 -18.1465,0 -32.85714,-14.71064 -32.85714,-32.85714 0,-18.1465 14.71064,-32.85714 32.85714,-32.85714 18.1465,0 32.85714,14.71064 32.85714,32.85714 z"
         sodipodi:ry="32.857143"
         sodipodi:rx="32.857143"
         sodipodi:cy="490.21933"
         sodipodi:cx="-651.42859"
         id="path10336"
         style="fill:#ffffff;fill-opacity:1;stroke:#0000ff;stroke-width:10;stroke-miterlimit:4;stroke-dasharray:none"
         sodipodi:type="arc" />
      <path
         transform="matrix(0.79914546,0,0,0.79914546,382.35894,-10.754928)"
         sodipodi:type="arc"
         style="fill:#ffffff;fill-opacity:1;stroke:#0000ff;stroke-width:10;stroke-miterlimit:4;stroke-dasharray:none"
         id="path10338"
         sodipodi:cx="-651.42859"
         sodipodi:cy="490.21933"
         sodipodi:rx="32.857143"
         sodipodi:ry="32.857143"
         d="m -618.57145,490.21933 c 0,18.1465 -14.71064,32.85714 -32.85714,32.85714 -18.1465,0 -32.85714,-14.71064 -32.85714,-32.85714 0,-18.1465 14.71064,-32.85714 32.85714,-32.85714 18.1465,0 32.85714,14.71064 32.85714,32.85714 z" />
      <path
         sodipodi:nodetypes="ccssssc"
         inkscape:connector-curvature="0"
         id="path10346"
         d="m -383.67906,294.23725 -10.34609,39.24375 c 0,0 27.18521,0 30.18201,0 2.9968,0 2.89539,-0.0406 2.89539,-5.01496 0,-4.97436 0,-28.37791 0,-31.23199 0,-2.85409 -1.56974,-3.01745 -3.44555,-3.01745 -1.87581,0 -19.28576,0.0206 -19.28576,0.0206 z"
         style="fill:#0000ff;stroke:none" />
    </g>
  </g>
</svg>
