<?xml version="1.0" encoding="UTF-8" standalone="no"?>
<!-- Created with Inkscape (http://www.inkscape.org/) -->

<svg
   xmlns:dc="http://purl.org/dc/elements/1.1/"
   xmlns:cc="http://creativecommons.org/ns#"
   xmlns:rdf="http://www.w3.org/1999/02/22-rdf-syntax-ns#"
   xmlns:svg="http://www.w3.org/2000/svg"
   xmlns="http://www.w3.org/2000/svg"
   xmlns:sodipodi="http://sodipodi.sourceforge.net/DTD/sodipodi-0.dtd"
   xmlns:inkscape="http://www.inkscape.org/namespaces/inkscape"
   width="644.41083"
   height="690.20856"
   id="svg8761"
   version="1.1"
   inkscape:version="0.48.3.1 r9886"
   sodipodi:docname="B5b.svg">
  <defs
     id="defs8763" />
  <sodipodi:namedview
     id="base"
     pagecolor="#ffffff"
     bordercolor="#666666"
     borderopacity="1.0"
     inkscape:pageopacity="0.0"
     inkscape:pageshadow="2"
     inkscape:zoom="0.35"
     inkscape:cx="909.95429"
     inkscape:cy="192.81689"
     inkscape:document-units="px"
     inkscape:current-layer="g5577"
     showgrid="false"
     inkscape:window-width="1920"
     inkscape:window-height="1024"
     inkscape:window-x="0"
     inkscape:window-y="27"
     inkscape:window-maximized="1"
     showguides="true"
     inkscape:guide-bbox="true"
     fit-margin-top="0"
     fit-margin-left="0"
     fit-margin-right="0"
     fit-margin-bottom="0" />
  <metadata
     id="metadata5966">
    <rdf:RDF>
      <cc:Work
         rdf:about="">
        <dc:format>image/svg+xml</dc:format>
        <dc:type
           rdf:resource="http://purl.org/dc/dcmitype/StillImage" />
        <dc:title>Signalisation routière</dc:title>
        <cc:license
           rdf:resource="http://creativecommons.org/licenses/publicdomain/" />
        <dc:date>08/10/2012</dc:date>
        <dc:creator>
          <cc:Agent>
            <dc:title>Desmoric</dc:title>
          </cc:Agent>
        </dc:creator>
        <dc:rights>
          <cc:Agent>
            <dc:title>Domaine Public</dc:title>
          </cc:Agent>
        </dc:rights>
        <dc:publisher>
          <cc:Agent>
            <dc:title>Desmoric</dc:title>
          </cc:Agent>
        </dc:publisher>
        <dc:source>http://routes.wikia.com/wiki/Signalisation_routière_française</dc:source>
        <dc:description>Panneau de signalisation routière applicable en France issu de l'arrêté du 24 novembre 1967 sur la signalisation routière décrite dans L'instruction Interministérielle sur la Signalisation Routière (depuis 2002).</dc:description>
        <dc:language>French</dc:language>
      </cc:Work>
      <cc:License
         rdf:about="http://creativecommons.org/licenses/publicdomain/">
        <cc:permits
           rdf:resource="http://creativecommons.org/ns#Reproduction" />
        <cc:permits
           rdf:resource="http://creativecommons.org/ns#Distribution" />
        <cc:permits
           rdf:resource="http://creativecommons.org/ns#DerivativeWorks" />
      </cc:License>
    </rdf:RDF>
  </metadata>
  <g
     inkscape:label="Calque 1"
     inkscape:groupmode="layer"
     id="layer1"
     transform="translate(-39.605319,-73.191623)">
    <text
       xml:space="preserve"
       style="font-size:40px;font-style:normal;font-weight:normal;line-height:125%;letter-spacing:0px;word-spacing:0px;fill:#000000;fill-opacity:1;stroke:none;font-family:Sans"
       x="338.05661"
       y="762.91193"
       id="text8780"
       sodipodi:linespacing="125%"><tspan
         sodipodi:role="line"
         id="tspan8782"
         x="338.05661"
         y="762.91193">B5b</tspan></text>
    <flowRoot
       xml:space="preserve"
       id="flowRoot10485"
       style="font-size:40px;font-style:normal;font-weight:normal;line-height:125%;letter-spacing:0px;word-spacing:0px;fill:#000000;fill-opacity:1;stroke:none;font-family:Sans"><flowRegion
         id="flowRegion10487"><rect
           id="rect10489"
           width="147.14285"
           height="51.42857"
           x="520"
           y="450.93362" /></flowRegion><flowPara
         id="flowPara10491" /></flowRoot>    <g
       id="g5577">
      <g
         transform="translate(-7.78258,3.3283804)"
         id="g10138">
        <path
           sodipodi:type="arc"
           style="fill:#ffffff;fill-opacity:1;stroke:#000000;stroke-width:3.01336312;stroke-miterlimit:4;stroke-opacity:1;stroke-dasharray:none"
           id="path8784"
           sodipodi:cx="77.85714"
           sodipodi:cy="568.79077"
           sodipodi:rx="322.14285"
           sodipodi:ry="322.14285"
           d="m 399.99999,568.79077 c 0,177.91459 -144.22827,322.14285 -322.14285,322.14285 -177.91459,0 -322.14285,-144.22826 -322.14285,-322.14285 0,-177.91458 144.22826,-322.14285 322.14285,-322.14285 177.91458,0 322.14285,144.22827 322.14285,322.14285 z"
           transform="matrix(0.99556541,0,0,0.99556541,292.07921,-174.20584)" />
        <path
           sodipodi:type="arc"
           style="fill:none;stroke:#ff0000;stroke-width:110.49676514;stroke-miterlimit:4;stroke-opacity:1;stroke-dasharray:none"
           id="path8784-6"
           sodipodi:cx="77.85714"
           sodipodi:cy="568.79077"
           sodipodi:rx="322.14285"
           sodipodi:ry="322.14285"
           d="m 399.99999,568.79077 c 0,177.91459 -144.22827,322.14285 -322.14285,322.14285 -177.91459,0 -322.14285,-144.22826 -322.14285,-322.14285 0,-177.91458 144.22826,-322.14285 322.14285,-322.14285 177.91458,0 322.14285,144.22827 322.14285,322.14285 z"
           transform="matrix(0.81450348,0,0,0.81450348,306.17617,-71.219485)" />
      </g>
      <g
         transform="translate(-15.31051,-0.08099472)"
         id="g10603">
        <path
           style="fill:none;stroke:#000000;stroke-width:50;stroke-linecap:round;stroke-linejoin:miter;stroke-miterlimit:4;stroke-opacity:1;stroke-dasharray:none"
           d="m 224.97616,394.19873 304.28571,0"
           id="path10464"
           inkscape:connector-curvature="0" />
        <g
           style="font-size:40px;font-style:normal;font-weight:normal;line-height:125%;letter-spacing:0px;word-spacing:0px;fill:#000000;fill-opacity:1;stroke:#000000;font-family:Sans"
           id="text10456">
          <path
             d="m 259.80164,270.7049 0,25.79589 17.70996,0 0,-25.75195 12.34863,0 0,64.37988 -12.34863,0 0,-26.63086 -17.70996,0 0,26.63086 -12.34864,0 0,-64.42382 12.34864,0"
             style="font-size:90px;font-variant:normal;font-stretch:normal;text-align:center;letter-spacing:11px;text-anchor:middle;fill:#000000;stroke:#000000;font-family:Caracteres L1;-inkscape-font-specification:Caracteres L1"
             id="path3089" />
          <path
             d="m 337.203,270.617 16.61133,64.37989 -12.6123,0 -2.76856,-10.94239 -17.79785,0 -2.8125,10.94239 -12.74414,0 16.43555,-64.37989 15.68847,0 m -14.15039,41.17676 12.7002,0 -6.15235,-25.13672 -6.54785,25.13672"
             style="font-size:90px;font-variant:normal;font-stretch:normal;text-align:center;letter-spacing:11px;text-anchor:middle;fill:#000000;stroke:#000000;font-family:Caracteres L1;-inkscape-font-specification:Caracteres L1"
             id="path3091" />
          <path
             d="m 381.86511,270.617 0.0439,52.99805 24.91699,0 -0.0439,11.51367 -37.08984,0 0,-64.51172 12.17285,0"
             style="font-size:90px;font-variant:normal;font-stretch:normal;text-align:center;letter-spacing:11px;text-anchor:middle;fill:#000000;stroke:#000000;font-family:Caracteres L1;-inkscape-font-specification:Caracteres L1"
             id="path3093" />
          <path
             d="m 450.6532,270.66095 0,12.39258 -12.87598,0 0,52.07519 -11.95312,0 0,-52.20703 -13.75489,0 0,-12.26074 38.58399,0"
             style="font-size:90px;font-variant:normal;font-stretch:normal;text-align:center;letter-spacing:11px;text-anchor:middle;fill:#000000;stroke:#000000;font-family:Caracteres L1;-inkscape-font-specification:Caracteres L1"
             id="path3095" />
          <path
             d="m 505.64246,270.74884 0,11.77734 -26.63086,0 0,14.0625 19.51172,0 0,11.90918 -19.51172,0 0,14.72168 27.77343,0 0,11.90918 -40.16601,0 0.0439,-64.37988 38.9795,0"
             style="font-size:90px;font-variant:normal;font-stretch:normal;text-align:center;letter-spacing:11px;text-anchor:middle;fill:#000000;stroke:#000000;font-family:Caracteres L1;-inkscape-font-specification:Caracteres L1"
             id="path3097" />
        </g>
        <g
           transform="scale(0.8214248,1.2173969)"
           style="font-size:48.66304398px;font-style:normal;font-weight:normal;line-height:125%;letter-spacing:0px;word-spacing:0px;fill:#000000;fill-opacity:1;stroke:#000000;stroke-width:1.2165761;font-family:Sans"
           id="text10470">
          <path
             d="m 304.11694,377.78776 c 2.83866,0.31053 5.34467,1.33068 7.51806,3.06045 2.19551,1.72987 3.77009,3.68146 4.72374,5.85478 1.19753,2.32864 1.79631,4.82357 1.79635,7.48479 -4e-5,1.24195 -0.0111,2.05142 -0.0333,2.4284 -0.17745,3.06048 -0.8095,5.61085 -1.89614,7.65112 -1.08672,2.04032 -2.27319,3.60381 -3.55944,4.69047 -2.79435,2.55039 -5.73282,3.84776 -8.81542,3.8921 l -9.24788,0 0,13.67222 -9.11482,0 0,-48.73433 18.62882,0 m -9.38094,25.34851 7.51806,0 c 1.15319,-0.13304 2.10681,-0.42135 2.86086,-0.86491 2.04027,-1.21972 3.26001,-3.33764 3.65923,-6.35376 0.0665,-2.72776 -0.48792,-4.80132 -1.66329,-6.2207 -1.17541,-1.4193 -2.7389,-2.22876 -4.69047,-2.4284 l -7.68439,0 0,15.86777"
             style="font-size:68.12825775px;font-variant:normal;font-stretch:normal;letter-spacing:31.43006325px;fill:#000000;stroke:#000000;font-family:Caracteres L1;-inkscape-font-specification:Caracteres L1"
             id="path3100" />
          <path
             d="m 373.40343,377.25551 c 5.36684,0.82061 9.33655,3.99194 11.90914,9.51401 2.1955,4.08063 3.29327,9.09267 3.29331,15.03612 l 0,0.59878 c -4e-5,7.42937 -1.80748,13.74985 -5.42232,18.96148 -2.57258,3.50399 -6.20963,5.46667 -10.91117,5.88804 -0.48792,0.0444 -0.96472,0.0665 -1.43043,0.0665 -4.87899,0 -8.97067,-2.06248 -12.27506,-6.18743 -3.41528,-5.49993 -5.1451,-11.14401 -5.18945,-16.93227 -0.0222,-0.48787 -0.0333,-0.97577 -0.0333,-1.46369 0,-7.82851 1.7409,-14.30424 5.22272,-19.4272 2.3286,-2.79428 4.75699,-4.57954 7.2852,-5.35579 1.75198,-0.55438 3.50398,-0.83159 5.25599,-0.83164 0.77618,5e-5 1.54129,0.0444 2.29534,0.13306 m -2.56147,41.54893 c 2.57253,-0.13306 4.74589,-1.89614 6.52009,-5.28926 1.28625,-2.26205 2.09572,-5.58863 2.4284,-9.97972 0.0665,-5.58862 -0.92038,-10.1682 -2.96065,-13.73876 -1.66331,-2.4838 -3.50401,-3.86987 -5.52211,-4.15822 -2.66128,0.13311 -4.879,1.87401 -6.65315,5.22273 -1.26412,2.35081 -2.08467,5.72173 -2.46167,10.11278 -0.0444,5.58867 0.96469,10.15716 3.02718,13.70549 1.6411,2.48385 3.51507,3.85884 5.62191,4.12496"
             style="font-size:68.12825775px;font-variant:normal;font-stretch:normal;letter-spacing:31.43006325px;fill:#000000;stroke:#000000;font-family:Caracteres L1;-inkscape-font-specification:Caracteres L1"
             id="path3102" />
          <path
             d="m 433.7747,377.78776 0.0333,40.1185 18.86168,0 -0.0333,8.71563 -28.07629,0 0,-48.83413 9.21461,0"
             style="font-size:68.12825775px;font-variant:normal;font-stretch:normal;letter-spacing:31.43006325px;fill:#000000;stroke:#000000;font-family:Caracteres L1;-inkscape-font-specification:Caracteres L1"
             id="path3104" />
          <path
             d="m 498.13785,377.8543 0,48.76759 -9.24788,0 0,-48.76759 9.24788,0"
             style="font-size:68.12825775px;font-variant:normal;font-stretch:normal;letter-spacing:31.43006325px;fill:#000000;stroke:#000000;font-family:Caracteres L1;-inkscape-font-specification:Caracteres L1"
             id="path3106" />
          <path
             d="m 554.81663,377.25551 c 6.45352,1.10891 10.67827,4.95664 12.67425,11.54322 l 0.29939,1.63002 -8.41624,1.76309 c -0.68751,-2.83865 -1.8629,-4.7237 -3.52617,-5.65518 -1.6633,-0.9314 -3.61489,-0.84269 -5.85477,0.26612 -1.48588,1.26414 -2.7278,2.99396 -3.72576,5.18946 -0.97581,2.19557 -1.61895,5.16731 -1.92942,8.91522 -0.13307,3.99191 0.38809,7.46264 1.5635,10.41218 1.17537,2.9274 2.59471,4.8679 4.25801,5.82151 1.68545,0.95362 3.40418,1.08669 5.15619,0.39919 1.75197,-0.44354 3.14913,-2.25097 4.19149,-5.42232 l 8.41623,2.59473 c -1.13107,4.45762 -3.31552,7.68439 -6.55335,9.68033 -2.37298,1.50805 -5.1673,2.36187 -8.38297,2.56146 -6.05438,-0.13306 -10.57852,-2.60581 -13.57243,-7.41826 -3.14916,-5.2338 -4.76809,-10.90006 -4.8568,-16.9988 0.0444,-7.62891 1.68547,-13.87178 4.92334,-18.72861 2.04029,-2.6834 4.32453,-4.53519 6.85274,-5.55538 1.90722,-0.75398 3.98078,-1.13099 6.2207,-1.13104 0.73182,5e-5 1.48584,0.0444 2.26207,0.13306"
             style="font-size:68.12825775px;font-variant:normal;font-stretch:normal;letter-spacing:31.43006325px;fill:#000000;stroke:#000000;font-family:Caracteres L1;-inkscape-font-specification:Caracteres L1"
             id="path3108" />
          <path
             d="m 631.85402,377.88756 0,8.91522 -20.15905,0 0,10.64504 14.77,0 0,9.01502 -14.77,0 0,11.14403 21.02396,0 0,9.01502 -30.4049,0 0.0333,-48.73433 29.50672,0"
             style="font-size:68.12825775px;font-variant:normal;font-stretch:normal;letter-spacing:31.43006325px;fill:#000000;stroke:#000000;font-family:Caracteres L1;-inkscape-font-specification:Caracteres L1"
             id="path3110" />
        </g>
      </g>
    </g>
  </g>
</svg>
