<?xml version="1.0" encoding="UTF-8" standalone="no"?>
<!-- Created with Inkscape (http://www.inkscape.org/) -->

<svg
   xmlns:dc="http://purl.org/dc/elements/1.1/"
   xmlns:cc="http://creativecommons.org/ns#"
   xmlns:rdf="http://www.w3.org/1999/02/22-rdf-syntax-ns#"
   xmlns:svg="http://www.w3.org/2000/svg"
   xmlns="http://www.w3.org/2000/svg"
   xmlns:sodipodi="http://sodipodi.sourceforge.net/DTD/sodipodi-0.dtd"
   xmlns:inkscape="http://www.inkscape.org/namespaces/inkscape"
   width="644.41083"
   height="691.63708"
   id="svg8761"
   version="1.1"
   inkscape:version="0.48.3.1 r9886"
   sodipodi:docname="B5c.svg">
  <defs
     id="defs8763" />
  <sodipodi:namedview
     id="base"
     pagecolor="#ffffff"
     bordercolor="#666666"
     borderopacity="1.0"
     inkscape:pageopacity="0.0"
     inkscape:pageshadow="2"
     inkscape:zoom="0.7"
     inkscape:cx="-19.430192"
     inkscape:cy="273.92711"
     inkscape:document-units="px"
     inkscape:current-layer="g5649"
     showgrid="false"
     inkscape:window-width="1920"
     inkscape:window-height="1024"
     inkscape:window-x="0"
     inkscape:window-y="27"
     inkscape:window-maximized="1"
     showguides="true"
     inkscape:guide-bbox="true"
     fit-margin-top="0"
     fit-margin-left="0"
     fit-margin-right="0"
     fit-margin-bottom="0" />
  <metadata
     id="metadata5966">
    <rdf:RDF>
      <cc:Work
         rdf:about="">
        <dc:format>image/svg+xml</dc:format>
        <dc:type
           rdf:resource="http://purl.org/dc/dcmitype/StillImage" />
        <dc:title>Signalisation routière</dc:title>
        <cc:license
           rdf:resource="http://creativecommons.org/licenses/publicdomain/" />
        <dc:date>08/10/2012</dc:date>
        <dc:creator>
          <cc:Agent>
            <dc:title>Desmoric</dc:title>
          </cc:Agent>
        </dc:creator>
        <dc:rights>
          <cc:Agent>
            <dc:title>Domaine Public</dc:title>
          </cc:Agent>
        </dc:rights>
        <dc:publisher>
          <cc:Agent>
            <dc:title>Desmoric</dc:title>
          </cc:Agent>
        </dc:publisher>
        <dc:source>http://routes.wikia.com/wiki/Signalisation_routière_française</dc:source>
        <dc:description>Panneau de signalisation routière applicable en France issu de l'arrêté du 24 novembre 1967 sur la signalisation routière décrite dans L'instruction Interministérielle sur la Signalisation Routière (depuis 2002).</dc:description>
        <dc:language>French</dc:language>
      </cc:Work>
      <cc:License
         rdf:about="http://creativecommons.org/licenses/publicdomain/">
        <cc:permits
           rdf:resource="http://creativecommons.org/ns#Reproduction" />
        <cc:permits
           rdf:resource="http://creativecommons.org/ns#Distribution" />
        <cc:permits
           rdf:resource="http://creativecommons.org/ns#DerivativeWorks" />
      </cc:License>
    </rdf:RDF>
  </metadata>
  <g
     inkscape:label="Calque 1"
     inkscape:groupmode="layer"
     id="layer1"
     transform="translate(-39.605319,-73.191623)">
    <text
       xml:space="preserve"
       style="font-size:40px;font-style:normal;font-weight:normal;line-height:125%;letter-spacing:0px;word-spacing:0px;fill:#000000;fill-opacity:1;stroke:none;font-family:Sans"
       x="333.77087"
       y="764.34045"
       id="text8780"
       sodipodi:linespacing="125%"><tspan
         sodipodi:role="line"
         id="tspan8782"
         x="333.77087"
         y="764.34045">B5c</tspan></text>
    <flowRoot
       xml:space="preserve"
       id="flowRoot10485"
       style="font-size:40px;font-style:normal;font-weight:normal;line-height:125%;letter-spacing:0px;word-spacing:0px;fill:#000000;fill-opacity:1;stroke:none;font-family:Sans"><flowRegion
         id="flowRegion10487"><rect
           id="rect10489"
           width="147.14285"
           height="51.42857"
           x="520"
           y="450.93362" /></flowRegion><flowPara
         id="flowPara10491" /></flowRoot>    <g
       id="g5649">
      <g
         transform="translate(-7.78258,3.3283804)"
         id="g10138">
        <path
           sodipodi:type="arc"
           style="fill:#ffffff;fill-opacity:1;stroke:#000000;stroke-width:3.01336312;stroke-miterlimit:4;stroke-opacity:1;stroke-dasharray:none"
           id="path8784"
           sodipodi:cx="77.85714"
           sodipodi:cy="568.79077"
           sodipodi:rx="322.14285"
           sodipodi:ry="322.14285"
           d="m 399.99999,568.79077 c 0,177.91459 -144.22827,322.14285 -322.14285,322.14285 -177.91459,0 -322.14285,-144.22826 -322.14285,-322.14285 0,-177.91458 144.22826,-322.14285 322.14285,-322.14285 177.91458,0 322.14285,144.22827 322.14285,322.14285 z"
           transform="matrix(0.99556541,0,0,0.99556541,292.07921,-174.20584)" />
        <path
           sodipodi:type="arc"
           style="fill:none;stroke:#ff0000;stroke-width:110.49676514;stroke-miterlimit:4;stroke-opacity:1;stroke-dasharray:none"
           id="path8784-6"
           sodipodi:cx="77.85714"
           sodipodi:cy="568.79077"
           sodipodi:rx="322.14285"
           sodipodi:ry="322.14285"
           d="m 399.99999,568.79077 c 0,177.91459 -144.22827,322.14285 -322.14285,322.14285 -177.91459,0 -322.14285,-144.22826 -322.14285,-322.14285 0,-177.91458 144.22826,-322.14285 322.14285,-322.14285 177.91458,0 322.14285,144.22827 322.14285,322.14285 z"
           transform="matrix(0.81450348,0,0,0.81450348,306.17617,-71.219485)" />
      </g>
      <g
         id="g10615">
        <path
           style="fill:none;stroke:#000000;stroke-width:50;stroke-linecap:round;stroke-linejoin:miter;stroke-miterlimit:4;stroke-opacity:1;stroke-dasharray:none"
           d="m 214.40765,394.11774 304.28571,0"
           id="path10464"
           inkscape:connector-curvature="0" />
        <g
           style="font-size:40px;font-style:normal;font-weight:normal;line-height:125%;letter-spacing:0px;word-spacing:0px;fill:#000000;fill-opacity:1;stroke:#000000;font-family:Sans"
           id="text10456">
          <path
             d="m 249.23312,270.6239 0,25.7959 17.70996,0 0,-25.75195 12.34864,0 0,64.37988 -12.34864,0 0,-26.63086 -17.70996,0 0,26.63086 -12.34863,0 0,-64.42383 12.34863,0"
             style="font-size:90px;font-variant:normal;font-stretch:normal;text-align:center;letter-spacing:11px;text-anchor:middle;fill:#000000;stroke:#000000;font-family:Caracteres L1;-inkscape-font-specification:Caracteres L1"
             id="path3067" />
          <path
             d="m 326.63449,270.53601 16.61133,64.37988 -12.61231,0 -2.76855,-10.94238 -17.79785,0 -2.8125,10.94238 -12.74414,0 16.43554,-64.37988 15.68848,0 m -14.15039,41.17676 12.7002,0 -6.15235,-25.13672 -6.54785,25.13672"
             style="font-size:90px;font-variant:normal;font-stretch:normal;text-align:center;letter-spacing:11px;text-anchor:middle;fill:#000000;stroke:#000000;font-family:Caracteres L1;-inkscape-font-specification:Caracteres L1"
             id="path3069" />
          <path
             d="m 371.2966,270.53601 0.0439,52.99805 24.91699,0 -0.0439,11.51367 -37.08984,0 0,-64.51172 12.17285,0"
             style="font-size:90px;font-variant:normal;font-stretch:normal;text-align:center;letter-spacing:11px;text-anchor:middle;fill:#000000;stroke:#000000;font-family:Caracteres L1;-inkscape-font-specification:Caracteres L1"
             id="path3071" />
          <path
             d="m 440.08469,270.57996 0,12.39257 -12.87598,0 0,52.0752 -11.95313,0 0,-52.20703 -13.75488,0 0,-12.26074 38.58399,0"
             style="font-size:90px;font-variant:normal;font-stretch:normal;text-align:center;letter-spacing:11px;text-anchor:middle;fill:#000000;stroke:#000000;font-family:Caracteres L1;-inkscape-font-specification:Caracteres L1"
             id="path3073" />
          <path
             d="m 495.07394,270.66785 0,11.77734 -26.63086,0 0,14.0625 19.51172,0 0,11.90918 -19.51172,0 0,14.72168 27.77344,0 0,11.90918 -40.16601,0 0.0439,-64.37988 38.97949,0"
             style="font-size:90px;font-variant:normal;font-stretch:normal;text-align:center;letter-spacing:11px;text-anchor:middle;fill:#000000;stroke:#000000;font-family:Caracteres L1;-inkscape-font-specification:Caracteres L1"
             id="path3075" />
        </g>
        <g
           transform="scale(0.8214248,1.2173969)"
           style="font-size:48.66304398px;font-style:normal;font-weight:normal;line-height:125%;letter-spacing:0px;word-spacing:0px;fill:#000000;fill-opacity:1;stroke:#000000;stroke-width:1.2165761;font-family:Sans"
           id="text10470">
          <path
             d="m 331.53043,374.94598 c 2.99997,0.32818 5.64841,1.4063 7.94531,3.23438 2.32028,1.82817 3.98434,3.89067 4.99219,6.1875 1.26558,2.46098 1.8984,5.09769 1.89843,7.91016 -3e-5,1.31253 -0.0118,2.168 -0.0351,2.5664 -0.18754,3.2344 -0.85551,5.92971 -2.00391,8.08594 -1.14847,2.15627 -2.40238,3.80861 -3.76172,4.95703 -2.95315,2.69533 -6.05862,4.06642 -9.3164,4.11328 l -9.77344,0 0,14.44922 -9.63281,0 0,-51.50391 19.6875,0 m -9.91407,26.78907 7.94532,0 c 1.21872,-0.1406 2.22654,-0.44529 3.02343,-0.91407 2.15623,-1.28903 3.44529,-3.52731 3.86719,-6.71484 0.0703,-2.88278 -0.51565,-5.07418 -1.75781,-6.57422 -1.24221,-1.49996 -2.89456,-2.35543 -4.95703,-2.5664 l -8.1211,0 0,16.76953"
             style="font-size:72px;font-variant:normal;font-stretch:normal;letter-spacing:20px;fill:#000000;stroke:#000000;font-family:Caracteres L1;-inkscape-font-specification:Caracteres L1"
             id="path3078" />
          <path
             d="m 401.4523,375.05145 0,9.42188 -21.30469,0 0,11.25 15.60938,0 0,9.52734 -15.60938,0 0,11.77735 22.21875,0 0,9.52734 -32.13281,0 0.0352,-51.50391 31.18359,0"
             style="font-size:72px;font-variant:normal;font-stretch:normal;letter-spacing:20px;fill:#000000;stroke:#000000;font-family:Caracteres L1;-inkscape-font-specification:Caracteres L1"
             id="path3080" />
          <path
             d="m 451.19449,374.94598 13.28906,51.50391 -10.08984,0 -2.21485,-8.75391 -14.23828,0 -2.25,8.75391 -10.19531,0 13.14844,-51.50391 12.55078,0 m -11.32031,32.94141 10.16015,0 -4.92187,-20.10937 -5.23828,20.10937"
             style="font-size:72px;font-variant:normal;font-stretch:normal;letter-spacing:20px;fill:#000000;stroke:#000000;font-family:Caracteres L1;-inkscape-font-specification:Caracteres L1"
             id="path3082" />
          <path
             d="m 505.5773,374.31317 c 6.72653,0.70318 11.50778,5.16802 14.34375,13.39453 l -9.14062,2.39063 c -1.64066,-3.60934 -3.51565,-5.7773 -5.625,-6.50391 -2.74221,-1.0312 -5.39065,0.4102 -7.94532,4.32422 -1.59376,2.62504 -2.57813,6.45706 -2.95312,11.49609 -0.0703,5.55471 0.79686,9.99611 2.60156,13.32422 1.82811,3.3047 3.97264,5.13282 6.43359,5.48438 3.93748,-0.18749 6.86717,-3.70312 8.78907,-10.54688 l -8.33203,0 0,-9.38672 18.35156,0 0,0.42188 c 0.0234,0.56253 0.0351,1.13674 0.0352,1.72266 -3e-5,8.46095 -1.95706,15.35157 -5.87109,20.67187 -2.62503,3.60938 -6.46878,5.625 -11.53125,6.04688 l -0.77344,0 c -11.25001,-1e-5 -17.60156,-8.10937 -19.05468,-24.32813 -0.0234,-0.46873 -0.0352,-0.94919 -0.0352,-1.44141 0,-8.22653 1.86328,-15.11714 5.58984,-20.67187 2.20312,-2.81245 4.58202,-4.62886 7.13672,-5.44922 2.01561,-0.6562 4.12498,-0.98432 6.32813,-0.98437 0.53904,5e-5 1.08982,0.0118 1.65234,0.0351"
             style="font-size:72px;font-variant:normal;font-stretch:normal;letter-spacing:20px;fill:#000000;stroke:#000000;font-family:Caracteres L1;-inkscape-font-specification:Caracteres L1"
             id="path3084" />
          <path
             d="m 576.90543,375.05145 0,9.42188 -21.30469,0 0,11.25 15.60937,0 0,9.52734 -15.60937,0 0,11.77735 22.21875,0 0,9.52734 -32.13281,0 0.0351,-51.50391 31.1836,0"
             style="font-size:72px;font-variant:normal;font-stretch:normal;letter-spacing:20px;fill:#000000;stroke:#000000;font-family:Caracteres L1;-inkscape-font-specification:Caracteres L1"
             id="path3086" />
        </g>
      </g>
    </g>
  </g>
</svg>
