<?xml version="1.0" encoding="UTF-8" standalone="no"?>
<!-- Created with Inkscape (http://www.inkscape.org/) -->

<svg
   xmlns:dc="http://purl.org/dc/elements/1.1/"
   xmlns:cc="http://creativecommons.org/ns#"
   xmlns:rdf="http://www.w3.org/1999/02/22-rdf-syntax-ns#"
   xmlns:svg="http://www.w3.org/2000/svg"
   xmlns="http://www.w3.org/2000/svg"
   xmlns:sodipodi="http://sodipodi.sourceforge.net/DTD/sodipodi-0.dtd"
   xmlns:inkscape="http://www.inkscape.org/namespaces/inkscape"
   width="644.41083"
   height="691.2395"
   id="svg8761"
   version="1.1"
   inkscape:version="0.48.2 r9819"
   sodipodi:docname="B7a.svg">
  <defs
     id="defs8763" />
  <sodipodi:namedview
     id="base"
     pagecolor="#ffffff"
     bordercolor="#666666"
     borderopacity="1.0"
     inkscape:pageopacity="0.0"
     inkscape:pageshadow="2"
     inkscape:zoom="0.7"
     inkscape:cx="303.85845"
     inkscape:cy="255.0027"
     inkscape:document-units="px"
     inkscape:current-layer="layer1"
     showgrid="false"
     inkscape:window-width="1680"
     inkscape:window-height="1003"
     inkscape:window-x="-4"
     inkscape:window-y="24"
     inkscape:window-maximized="1"
     fit-margin-top="0"
     fit-margin-left="0"
     fit-margin-right="0"
     fit-margin-bottom="0" />
<metadata
     id="metadata5966">
    <rdf:RDF>
      <cc:Work
         rdf:about="">
        <dc:format>image/svg+xml</dc:format>
        <dc:type
           rdf:resource="http://purl.org/dc/dcmitype/StillImage" />
        <dc:title>Signalisation routière</dc:title>
        <cc:license
           rdf:resource="http://creativecommons.org/licenses/publicdomain/" />
        <dc:date>08/10/2012</dc:date>
        <dc:creator>
          <cc:Agent>
            <dc:title>Desmoric</dc:title>
          </cc:Agent>
        </dc:creator>
        <dc:rights>
          <cc:Agent>
            <dc:title>Domaine Public</dc:title>
          </cc:Agent>
        </dc:rights>
        <dc:publisher>
          <cc:Agent>
            <dc:title>Desmoric</dc:title>
          </cc:Agent>
        </dc:publisher>
        <dc:source>http://routes.wikia.com/wiki/Signalisation_routière_française</dc:source>
        <dc:description>Panneau de signalisation routière applicable en France issu de l'arrêté du 24 novembre 1967 sur la signalisation routière décrite dans L'instruction Interministérielle sur la Signalisation Routière (depuis 2002).</dc:description>
        <dc:language>French</dc:language>
      </cc:Work>
      <cc:License
         rdf:about="http://creativecommons.org/licenses/publicdomain/">
        <cc:permits
           rdf:resource="http://creativecommons.org/ns#Reproduction" />
        <cc:permits
           rdf:resource="http://creativecommons.org/ns#Distribution" />
        <cc:permits
           rdf:resource="http://creativecommons.org/ns#DerivativeWorks" />
      </cc:License>
    </rdf:RDF>
  </metadata>
  <g
     inkscape:label="Calque 1"
     inkscape:groupmode="layer"
     id="layer1"
     transform="translate(-32.082519,-67.305706)">
    <text
       xml:space="preserve"
       style="font-size:40px;font-style:normal;font-weight:normal;line-height:125%;letter-spacing:0px;word-spacing:0px;fill:#000000;fill-opacity:1;stroke:none;font-family:Sans"
       x="337.14285"
       y="758.07648"
       id="text8780"
       sodipodi:linespacing="125%"><tspan
         sodipodi:role="line"
         id="tspan8782"
         x="337.14285"
         y="758.07648">B7a</tspan></text>
    <g
       id="g6144">
      <g
         transform="translate(-15.30538,-2.557537)"
         id="g10138">
        <path
           transform="matrix(0.99556541,0,0,0.99556541,292.07921,-174.20584)"
           d="m 399.99999,568.79077 c 0,177.91459 -144.22827,322.14285 -322.14285,322.14285 -177.91459,0 -322.14285,-144.22826 -322.14285,-322.14285 0,-177.91458 144.22826,-322.14285 322.14285,-322.14285 177.91458,0 322.14285,144.22827 322.14285,322.14285 z"
           sodipodi:ry="322.14285"
           sodipodi:rx="322.14285"
           sodipodi:cy="568.79077"
           sodipodi:cx="77.85714"
           id="path8784"
           style="fill:#ffffff;fill-opacity:1;stroke:#000000;stroke-width:3.01336312;stroke-miterlimit:4;stroke-opacity:1;stroke-dasharray:none"
           sodipodi:type="arc" />
        <path
           transform="matrix(0.81450348,0,0,0.81450348,306.17617,-71.219485)"
           d="m 399.99999,568.79077 c 0,177.91459 -144.22827,322.14285 -322.14285,322.14285 -177.91459,0 -322.14285,-144.22826 -322.14285,-322.14285 0,-177.91458 144.22826,-322.14285 322.14285,-322.14285 177.91458,0 322.14285,144.22827 322.14285,322.14285 z"
           sodipodi:ry="322.14285"
           sodipodi:rx="322.14285"
           sodipodi:cy="568.79077"
           sodipodi:cx="77.85714"
           id="path8784-6"
           style="fill:none;stroke:#ff0000;stroke-width:110.49676514;stroke-miterlimit:4;stroke-opacity:1;stroke-dasharray:none"
           sodipodi:type="arc" />
      </g>
      <g
         id="g10088"
         transform="matrix(0.90695383,0,0,0.90695383,1311.9483,78.193464)">
        <rect
           style="fill:#000000;fill-opacity:1;stroke:none"
           id="rect9993-6"
           width="25.867369"
           height="42.399113"
           x="-1032.1329"
           y="276.05328"
           ry="6.1315532" />
        <rect
           style="fill:#000000;fill-opacity:1;stroke:none"
           id="rect9993-8-1"
           width="25.867369"
           height="42.399113"
           x="-911.11823"
           y="276.05328"
           ry="6.1315532" />
        <rect
           style="fill:#000000;fill-opacity:1;stroke:none"
           id="rect9993-5-8"
           width="56.677021"
           height="168.1631"
           x="-279.90228"
           y="-1043.1481"
           ry="11.186947"
           transform="matrix(0,-1,1,0,0,0)" />
        <path
           style="fill:none;stroke:#000000;stroke-width:15;stroke-linecap:butt;stroke-linejoin:miter;stroke-miterlimit:4;stroke-opacity:1;stroke-dasharray:none"
           d="m -1028.262,240.19954 c 15.026,-60.10408 12.1219,-60.10408 28.0318,-60.10408 24.24361,0 65.40733,0 84.09515,0 18.68782,0 14.2059,0 25.86227,60.10408"
           id="path10024-9"
           inkscape:connector-curvature="0"
           sodipodi:nodetypes="cssc" />
      </g>
      <g
         id="g11285"
         transform="translate(649.90262,8.943048)">
        <path
           sodipodi:nodetypes="ccsssssssssssscssc"
           inkscape:connector-curvature="0"
           id="path10753"
           d="m -302.68921,426.27627 c -7.14286,0 -58.92857,1.78572 -58.92857,1.78572 0,0 -4.28572,-5.71429 -10.71429,-6.42857 -6.42857,-0.71429 -24.43365,-2.53961 -26.93365,-2.53961 -2.5,0 -8.78063,0.0396 -10.56635,0.0396 -1.78571,0 -3.96818,-4.19906 -10.94516,-4.19906 -5.71428,0 -8.17096,5.79351 -8.17096,10.43637 0,4.64285 6.04977,9.23341 8.72835,9.23341 2.67857,0 10.14216,5.25077 14.42256,11.14002 4.28039,5.88926 7.15919,5.88926 11.32236,5.88926 3.153,0 4.51658,0.24881 4.64285,3.92857 0.13052,3.80378 -1.01015,5 -2.43872,5 -1.42857,0 -2.56128,3.92857 -2.56128,7.85714 0,3.92857 3.92857,13.92857 10.71429,13.92857 6.78571,0 45.53571,-0.17857 45.53571,-0.17857 0,0 -0.89286,-23.39285 13.39286,-30.35714 14.21248,-6.92858 20.31122,-4.98853 23.92857,-5.89286 1.42857,-0.35713 -1.42857,-19.64285 -1.42857,-19.64285 z"
           style="fill:#000000;stroke:none" />
        <path
           transform="matrix(1.1346154,0,0,1.1346154,249.28194,-74.212956)"
           d="m -581.07145,484.86218 c 0,15.38508 -12.47206,27.85715 -27.85714,27.85715 -15.38507,0 -27.85714,-12.47207 -27.85714,-27.85715 0,-15.38507 12.47207,-27.85714 27.85714,-27.85714 15.38508,0 27.85714,12.47207 27.85714,27.85714 z"
           sodipodi:ry="27.857143"
           sodipodi:rx="27.857143"
           sodipodi:cy="484.86218"
           sodipodi:cx="-608.92859"
           id="path10755"
           style="fill:#000000;fill-opacity:1;stroke:none"
           sodipodi:type="arc" />
        <path
           sodipodi:type="arc"
           style="fill:#ffffff;fill-opacity:1;stroke:none"
           id="path10757"
           sodipodi:cx="-608.92859"
           sodipodi:cy="484.86218"
           sodipodi:rx="27.857143"
           sodipodi:ry="27.857143"
           d="m -581.07145,484.86218 c 0,15.38508 -12.47206,27.85715 -27.85714,27.85715 -15.38507,0 -27.85714,-12.47207 -27.85714,-27.85715 0,-15.38507 12.47207,-27.85714 27.85714,-27.85714 15.38508,0 27.85714,12.47207 27.85714,27.85714 z"
           transform="matrix(0.73076925,0,0,0.73076925,3.3684826,121.59677)" />
        <path
           transform="matrix(0.41025644,0,0,0.41025644,-191.80094,277.00131)"
           d="m -581.07145,484.86218 c 0,15.38508 -12.47206,27.85715 -27.85714,27.85715 -15.38507,0 -27.85714,-12.47207 -27.85714,-27.85715 0,-15.38507 12.47207,-27.85714 27.85714,-27.85714 15.38508,0 27.85714,12.47207 27.85714,27.85714 z"
           sodipodi:ry="27.857143"
           sodipodi:rx="27.857143"
           sodipodi:cy="484.86218"
           sodipodi:cx="-608.92859"
           id="path10759"
           style="fill:#000000;fill-opacity:1;stroke:none"
           sodipodi:type="arc" />
        <path
           sodipodi:nodetypes="cc"
           inkscape:connector-curvature="0"
           id="path11269"
           d="m -439.6535,475.74056 c 0,0 27.85715,-40.53572 29.82143,-43.92858"
           style="fill:none;stroke:#000000;stroke-width:10;stroke-linecap:round;stroke-linejoin:miter;stroke-miterlimit:4;stroke-opacity:1;stroke-dasharray:none" />
        <path
           inkscape:connector-curvature="0"
           id="path11271"
           d="m -403.58207,421.99056 c 0,-6.60714 0.35714,-11.42857 17.85714,-14.82143"
           style="fill:none;stroke:#000000;stroke-width:5;stroke-linecap:butt;stroke-linejoin:miter;stroke-miterlimit:4;stroke-opacity:1;stroke-dasharray:none" />
        <path
           sodipodi:type="arc"
           style="fill:#000000;fill-opacity:1;stroke:none"
           id="path11273"
           sodipodi:cx="-608.92859"
           sodipodi:cy="484.86218"
           sodipodi:rx="27.857143"
           sodipodi:ry="27.857143"
           d="m -581.07145,484.86218 c 0,15.38508 -12.47206,27.85715 -27.85714,27.85715 -15.38507,0 -27.85714,-12.47207 -27.85714,-27.85715 0,-15.38507 12.47207,-27.85714 27.85714,-27.85714 15.38508,0 27.85714,12.47207 27.85714,27.85714 z"
           transform="matrix(1.1346154,0,0,1.1346154,384.00527,-74.212956)" />
        <path
           transform="matrix(0.73076925,0,0,0.73076925,138.09181,121.59677)"
           d="m -581.07145,484.86218 c 0,15.38508 -12.47206,27.85715 -27.85714,27.85715 -15.38507,0 -27.85714,-12.47207 -27.85714,-27.85715 0,-15.38507 12.47207,-27.85714 27.85714,-27.85714 15.38508,0 27.85714,12.47207 27.85714,27.85714 z"
           sodipodi:ry="27.857143"
           sodipodi:rx="27.857143"
           sodipodi:cy="484.86218"
           sodipodi:cx="-608.92859"
           id="path11275"
           style="fill:#ffffff;fill-opacity:1;stroke:none"
           sodipodi:type="arc" />
        <path
           sodipodi:type="arc"
           style="fill:#000000;fill-opacity:1;stroke:none"
           id="path11277"
           sodipodi:cx="-608.92859"
           sodipodi:cy="484.86218"
           sodipodi:rx="27.857143"
           sodipodi:ry="27.857143"
           d="m -581.07145,484.86218 c 0,15.38508 -12.47206,27.85715 -27.85714,27.85715 -15.38507,0 -27.85714,-12.47207 -27.85714,-27.85715 0,-15.38507 12.47207,-27.85714 27.85714,-27.85714 15.38508,0 27.85714,12.47207 27.85714,27.85714 z"
           transform="matrix(0.41025644,0,0,0.41025644,-57.077607,277.00131)" />
        <path
           inkscape:connector-curvature="0"
           id="path11279"
           d="m -271.72676,477.73371 -71.46829,0"
           style="fill:none;stroke:#000000;stroke-width:8;stroke-linecap:butt;stroke-linejoin:miter;stroke-miterlimit:4;stroke-opacity:1;stroke-dasharray:none" />
        <path
           inkscape:connector-curvature="0"
           id="path11283"
           d="m -306.1849,477.61746 -16.18906,-37.01687"
           style="fill:none;stroke:#000000;stroke-width:5;stroke-linecap:butt;stroke-linejoin:miter;stroke-miterlimit:4;stroke-opacity:1;stroke-dasharray:none" />
      </g>
      <rect
         style="fill:#ff0000;fill-opacity:1;stroke:none"
         id="rect11298"
         width="52.857143"
         height="488.57141"
         x="-52.189892"
         y="281.99954"
         ry="0"
         transform="matrix(0.70710678,-0.70710678,0.70710678,0.70710678,0,0)" />
      <path
         sodipodi:type="arc"
         style="fill:#ffffff;fill-opacity:1;stroke:none"
         id="path11300"
         sodipodi:cx="-405"
         sodipodi:cy="303.43362"
         sodipodi:rx="8.5714283"
         sodipodi:ry="8.5714283"
         d="m -396.42857,303.43362 c 0,4.73387 -3.83756,8.57143 -8.57143,8.57143 -4.73387,0 -8.57143,-3.83756 -8.57143,-8.57143 0,-4.73386 3.83756,-8.57142 8.57143,-8.57142 4.73387,0 8.57143,3.83756 8.57143,8.57142 z"
         transform="translate(791.42862,0)" />
      <path
         transform="translate(902.50002,0)"
         d="m -396.42857,303.43362 c 0,4.73387 -3.83756,8.57143 -8.57143,8.57143 -4.73387,0 -8.57143,-3.83756 -8.57143,-8.57143 0,-4.73386 3.83756,-8.57142 8.57143,-8.57142 4.73387,0 8.57143,3.83756 8.57143,8.57142 z"
         sodipodi:ry="8.5714283"
         sodipodi:rx="8.5714283"
         sodipodi:cy="303.43362"
         sodipodi:cx="-405"
         id="path11302"
         style="fill:#ffffff;fill-opacity:1;stroke:none"
         sodipodi:type="arc" />
    </g>
  </g>
</svg>
