<?xml version="1.0" encoding="UTF-8" standalone="no"?>
<!-- Created with Inkscape (http://www.inkscape.org/) -->

<svg
   xmlns:dc="http://purl.org/dc/elements/1.1/"
   xmlns:cc="http://creativecommons.org/ns#"
   xmlns:rdf="http://www.w3.org/1999/02/22-rdf-syntax-ns#"
   xmlns:svg="http://www.w3.org/2000/svg"
   xmlns="http://www.w3.org/2000/svg"
   xmlns:sodipodi="http://sodipodi.sourceforge.net/DTD/sodipodi-0.dtd"
   xmlns:inkscape="http://www.inkscape.org/namespaces/inkscape"
   width="644.41083"
   height="689.81091"
   id="svg8761"
   version="1.1"
   inkscape:version="0.48.2 r9819"
   sodipodi:docname="B7b.svg">
  <defs
     id="defs8763" />
  <sodipodi:namedview
     id="base"
     pagecolor="#ffffff"
     bordercolor="#666666"
     borderopacity="1.0"
     inkscape:pageopacity="0.0"
     inkscape:pageshadow="2"
     inkscape:zoom="0.7"
     inkscape:cx="303.85845"
     inkscape:cy="253.57412"
     inkscape:document-units="px"
     inkscape:current-layer="layer1"
     showgrid="false"
     inkscape:window-width="1680"
     inkscape:window-height="1003"
     inkscape:window-x="-4"
     inkscape:window-y="24"
     inkscape:window-maximized="1"
     fit-margin-top="0"
     fit-margin-left="0"
     fit-margin-right="0"
     fit-margin-bottom="0" />
<metadata
     id="metadata5966">
    <rdf:RDF>
      <cc:Work
         rdf:about="">
        <dc:format>image/svg+xml</dc:format>
        <dc:type
           rdf:resource="http://purl.org/dc/dcmitype/StillImage" />
        <dc:title>Signalisation routière</dc:title>
        <cc:license
           rdf:resource="http://creativecommons.org/licenses/publicdomain/" />
        <dc:date>08/10/2012</dc:date>
        <dc:creator>
          <cc:Agent>
            <dc:title>Desmoric</dc:title>
          </cc:Agent>
        </dc:creator>
        <dc:rights>
          <cc:Agent>
            <dc:title>Domaine Public</dc:title>
          </cc:Agent>
        </dc:rights>
        <dc:publisher>
          <cc:Agent>
            <dc:title>Desmoric</dc:title>
          </cc:Agent>
        </dc:publisher>
        <dc:source>http://routes.wikia.com/wiki/Signalisation_routière_française</dc:source>
        <dc:description>Panneau de signalisation routière applicable en France issu de l'arrêté du 24 novembre 1967 sur la signalisation routière décrite dans L'instruction Interministérielle sur la Signalisation Routière (depuis 2002).</dc:description>
        <dc:language>French</dc:language>
      </cc:Work>
      <cc:License
         rdf:about="http://creativecommons.org/licenses/publicdomain/">
        <cc:permits
           rdf:resource="http://creativecommons.org/ns#Reproduction" />
        <cc:permits
           rdf:resource="http://creativecommons.org/ns#Distribution" />
        <cc:permits
           rdf:resource="http://creativecommons.org/ns#DerivativeWorks" />
      </cc:License>
    </rdf:RDF>
  </metadata>
  <g
     inkscape:label="Calque 1"
     inkscape:groupmode="layer"
     id="layer1"
     transform="translate(-32.082519,-67.305706)">
    <text
       xml:space="preserve"
       style="font-size:40px;font-style:normal;font-weight:normal;line-height:125%;letter-spacing:0px;word-spacing:0px;fill:#000000;fill-opacity:1;stroke:none;font-family:Sans"
       x="340"
       y="756.64789"
       id="text8780"
       sodipodi:linespacing="125%"><tspan
         sodipodi:role="line"
         id="tspan8782"
         x="340"
         y="756.64789">B7b</tspan></text>
    <g
       id="g10138"
       transform="translate(-15.30538,-2.557537)">
      <path
         sodipodi:type="arc"
         style="fill:#ffffff;fill-opacity:1;stroke:#000000;stroke-width:3.01336312;stroke-miterlimit:4;stroke-opacity:1;stroke-dasharray:none"
         id="path8784"
         sodipodi:cx="77.85714"
         sodipodi:cy="568.79077"
         sodipodi:rx="322.14285"
         sodipodi:ry="322.14285"
         d="m 399.99999,568.79077 c 0,177.91459 -144.22827,322.14285 -322.14285,322.14285 -177.91459,0 -322.14285,-144.22826 -322.14285,-322.14285 0,-177.91458 144.22826,-322.14285 322.14285,-322.14285 177.91458,0 322.14285,144.22827 322.14285,322.14285 z"
         transform="matrix(0.99556541,0,0,0.99556541,292.07921,-174.20584)" />
      <path
         sodipodi:type="arc"
         style="fill:none;stroke:#ff0000;stroke-width:110.49676514;stroke-miterlimit:4;stroke-opacity:1;stroke-dasharray:none"
         id="path8784-6"
         sodipodi:cx="77.85714"
         sodipodi:cy="568.79077"
         sodipodi:rx="322.14285"
         sodipodi:ry="322.14285"
         d="m 399.99999,568.79077 c 0,177.91459 -144.22827,322.14285 -322.14285,322.14285 -177.91459,0 -322.14285,-144.22826 -322.14285,-322.14285 0,-177.91458 144.22826,-322.14285 322.14285,-322.14285 177.91458,0 322.14285,144.22827 322.14285,322.14285 z"
         transform="matrix(0.81450348,0,0,0.81450348,306.17617,-71.219485)" />
    </g>
    <g
       transform="matrix(0.90695383,0,0,0.90695383,1311.9483,78.193464)"
       id="g10088">
      <rect
         ry="6.1315532"
         y="276.05328"
         x="-1032.1329"
         height="42.399113"
         width="25.867369"
         id="rect9993-6"
         style="fill:#000000;fill-opacity:1;stroke:none" />
      <rect
         ry="6.1315532"
         y="276.05328"
         x="-911.11823"
         height="42.399113"
         width="25.867369"
         id="rect9993-8-1"
         style="fill:#000000;fill-opacity:1;stroke:none" />
      <rect
         transform="matrix(0,-1,1,0,0,0)"
         ry="11.186947"
         y="-1043.1481"
         x="-279.90228"
         height="168.1631"
         width="56.677021"
         id="rect9993-5-8"
         style="fill:#000000;fill-opacity:1;stroke:none" />
      <path
         sodipodi:nodetypes="cssc"
         inkscape:connector-curvature="0"
         id="path10024-9"
         d="m -1028.262,240.19954 c 15.026,-60.10408 12.1219,-60.10408 28.0318,-60.10408 24.24361,0 65.40733,0 84.09515,0 18.68782,0 14.2059,0 25.86227,60.10408"
         style="fill:none;stroke:#000000;stroke-width:15;stroke-linecap:butt;stroke-linejoin:miter;stroke-miterlimit:4;stroke-opacity:1;stroke-dasharray:none" />
    </g>
    <g
       transform="translate(717.04548,68.943048)"
       id="g11285">
      <path
         style="fill:#000000;stroke:none"
         d="m -302.68921,426.27627 c -7.14286,0 -58.92857,1.78572 -58.92857,1.78572 0,0 -4.28572,-5.71429 -10.71429,-6.42857 -6.42857,-0.71429 -24.43365,-2.53961 -26.93365,-2.53961 -2.5,0 -8.78063,0.0396 -10.56635,0.0396 -1.78571,0 -3.96818,-4.19906 -10.94516,-4.19906 -5.71428,0 -8.17096,5.79351 -8.17096,10.43637 0,4.64285 6.04977,9.23341 8.72835,9.23341 2.67857,0 10.14216,5.25077 14.42256,11.14002 4.28039,5.88926 7.15919,5.88926 11.32236,5.88926 3.153,0 4.51658,0.24881 4.64285,3.92857 0.13052,3.80378 -1.01015,5 -2.43872,5 -1.42857,0 -2.56128,3.92857 -2.56128,7.85714 0,3.92857 3.92857,13.92857 10.71429,13.92857 6.78571,0 45.53571,-0.17857 45.53571,-0.17857 0,0 -0.89286,-23.39285 13.39286,-30.35714 14.21248,-6.92858 20.31122,-4.98853 23.92857,-5.89286 1.42857,-0.35713 -1.42857,-19.64285 -1.42857,-19.64285 z"
         id="path10753"
         inkscape:connector-curvature="0"
         sodipodi:nodetypes="ccsssssssssssscssc" />
      <path
         sodipodi:type="arc"
         style="fill:#000000;fill-opacity:1;stroke:none"
         id="path10755"
         sodipodi:cx="-608.92859"
         sodipodi:cy="484.86218"
         sodipodi:rx="27.857143"
         sodipodi:ry="27.857143"
         d="m -581.07145,484.86218 c 0,15.38508 -12.47206,27.85715 -27.85714,27.85715 -15.38507,0 -27.85714,-12.47207 -27.85714,-27.85715 0,-15.38507 12.47207,-27.85714 27.85714,-27.85714 15.38508,0 27.85714,12.47207 27.85714,27.85714 z"
         transform="matrix(1.1346154,0,0,1.1346154,249.28194,-74.212956)" />
      <path
         transform="matrix(0.73076925,0,0,0.73076925,3.3684826,121.59677)"
         d="m -581.07145,484.86218 c 0,15.38508 -12.47206,27.85715 -27.85714,27.85715 -15.38507,0 -27.85714,-12.47207 -27.85714,-27.85715 0,-15.38507 12.47207,-27.85714 27.85714,-27.85714 15.38508,0 27.85714,12.47207 27.85714,27.85714 z"
         sodipodi:ry="27.857143"
         sodipodi:rx="27.857143"
         sodipodi:cy="484.86218"
         sodipodi:cx="-608.92859"
         id="path10757"
         style="fill:#ffffff;fill-opacity:1;stroke:none"
         sodipodi:type="arc" />
      <path
         sodipodi:type="arc"
         style="fill:#000000;fill-opacity:1;stroke:none"
         id="path10759"
         sodipodi:cx="-608.92859"
         sodipodi:cy="484.86218"
         sodipodi:rx="27.857143"
         sodipodi:ry="27.857143"
         d="m -581.07145,484.86218 c 0,15.38508 -12.47206,27.85715 -27.85714,27.85715 -15.38507,0 -27.85714,-12.47207 -27.85714,-27.85715 0,-15.38507 12.47207,-27.85714 27.85714,-27.85714 15.38508,0 27.85714,12.47207 27.85714,27.85714 z"
         transform="matrix(0.41025644,0,0,0.41025644,-191.80094,277.00131)" />
      <path
         style="fill:none;stroke:#000000;stroke-width:10;stroke-linecap:round;stroke-linejoin:miter;stroke-miterlimit:4;stroke-opacity:1;stroke-dasharray:none"
         d="m -439.6535,475.74056 c 0,0 27.85715,-40.53572 29.82143,-43.92858"
         id="path11269"
         inkscape:connector-curvature="0"
         sodipodi:nodetypes="cc" />
      <path
         style="fill:none;stroke:#000000;stroke-width:5;stroke-linecap:butt;stroke-linejoin:miter;stroke-miterlimit:4;stroke-opacity:1;stroke-dasharray:none"
         d="m -403.58207,421.99056 c 0,-6.60714 0.35714,-11.42857 17.85714,-14.82143"
         id="path11271"
         inkscape:connector-curvature="0" />
      <path
         transform="matrix(1.1346154,0,0,1.1346154,384.00527,-74.212956)"
         d="m -581.07145,484.86218 c 0,15.38508 -12.47206,27.85715 -27.85714,27.85715 -15.38507,0 -27.85714,-12.47207 -27.85714,-27.85715 0,-15.38507 12.47207,-27.85714 27.85714,-27.85714 15.38508,0 27.85714,12.47207 27.85714,27.85714 z"
         sodipodi:ry="27.857143"
         sodipodi:rx="27.857143"
         sodipodi:cy="484.86218"
         sodipodi:cx="-608.92859"
         id="path11273"
         style="fill:#000000;fill-opacity:1;stroke:none"
         sodipodi:type="arc" />
      <path
         sodipodi:type="arc"
         style="fill:#ffffff;fill-opacity:1;stroke:none"
         id="path11275"
         sodipodi:cx="-608.92859"
         sodipodi:cy="484.86218"
         sodipodi:rx="27.857143"
         sodipodi:ry="27.857143"
         d="m -581.07145,484.86218 c 0,15.38508 -12.47206,27.85715 -27.85714,27.85715 -15.38507,0 -27.85714,-12.47207 -27.85714,-27.85715 0,-15.38507 12.47207,-27.85714 27.85714,-27.85714 15.38508,0 27.85714,12.47207 27.85714,27.85714 z"
         transform="matrix(0.73076925,0,0,0.73076925,138.09181,121.59677)" />
      <path
         transform="matrix(0.41025644,0,0,0.41025644,-57.077607,277.00131)"
         d="m -581.07145,484.86218 c 0,15.38508 -12.47206,27.85715 -27.85714,27.85715 -15.38507,0 -27.85714,-12.47207 -27.85714,-27.85715 0,-15.38507 12.47207,-27.85714 27.85714,-27.85714 15.38508,0 27.85714,12.47207 27.85714,27.85714 z"
         sodipodi:ry="27.857143"
         sodipodi:rx="27.857143"
         sodipodi:cy="484.86218"
         sodipodi:cx="-608.92859"
         id="path11277"
         style="fill:#000000;fill-opacity:1;stroke:none"
         sodipodi:type="arc" />
      <path
         style="fill:none;stroke:#000000;stroke-width:8;stroke-linecap:butt;stroke-linejoin:miter;stroke-miterlimit:4;stroke-opacity:1;stroke-dasharray:none"
         d="m -271.72676,477.73371 -71.46829,0"
         id="path11279"
         inkscape:connector-curvature="0" />
      <path
         style="fill:none;stroke:#000000;stroke-width:5;stroke-linecap:butt;stroke-linejoin:miter;stroke-miterlimit:4;stroke-opacity:1;stroke-dasharray:none"
         d="m -306.1849,477.61746 -16.18906,-37.01687"
         id="path11283"
         inkscape:connector-curvature="0" />
    </g>
    <rect
       transform="matrix(0.70710678,-0.70710678,0.70710678,0.70710678,0,0)"
       ry="0"
       y="281.99954"
       x="-52.189892"
       height="488.57141"
       width="52.857143"
       id="rect11298"
       style="fill:#ff0000;fill-opacity:1;stroke:none" />
    <path
       transform="translate(791.42862,0)"
       d="m -396.42857,303.43362 c 0,4.73387 -3.83756,8.57143 -8.57143,8.57143 -4.73387,0 -8.57143,-3.83756 -8.57143,-8.57143 0,-4.73386 3.83756,-8.57142 8.57143,-8.57142 4.73387,0 8.57143,3.83756 8.57143,8.57142 z"
       sodipodi:ry="8.5714283"
       sodipodi:rx="8.5714283"
       sodipodi:cy="303.43362"
       sodipodi:cx="-405"
       id="path11300"
       style="fill:#ffffff;fill-opacity:1;stroke:none"
       sodipodi:type="arc" />
    <path
       sodipodi:type="arc"
       style="fill:#ffffff;fill-opacity:1;stroke:none"
       id="path11302"
       sodipodi:cx="-405"
       sodipodi:cy="303.43362"
       sodipodi:rx="8.5714283"
       sodipodi:ry="8.5714283"
       d="m -396.42857,303.43362 c 0,4.73387 -3.83756,8.57143 -8.57143,8.57143 -4.73387,0 -8.57143,-3.83756 -8.57143,-8.57143 0,-4.73386 3.83756,-8.57142 8.57143,-8.57142 4.73387,0 8.57143,3.83756 8.57143,8.57142 z"
       transform="translate(902.50002,0)" />
    <g
       id="g12502"
       transform="matrix(0.4504329,0,0,0.4504329,-525.64322,201.23708)">
      <path
         sodipodi:nodetypes="ccsssccccsscccccssssssscccc"
         inkscape:connector-curvature="0"
         id="path12452"
         d="m 1596.1309,380.28931 56.7858,37.5 c 0,0 5,8.92856 8.5714,13.92856 3.5714,5 9.6428,12.14286 20,12.14286 10.3571,0 24.2857,-9.28571 27.5,-17.85714 3.2143,-8.57143 8.5714,-25 8.5714,-25 l -23.2143,-9.64286 0,-13.57143 67.5,0 c 0,0 7.1429,6.42857 7.1429,10.35715 0,3.92857 -3.5714,11.42857 -12.5,11.42857 -8.9286,0 -20.3572,0 -20.3572,0 l -3.2142,10.35714 94.2857,0 0,12.85714 -10.3572,0 c 0,0 5.5358,4.73214 10.3572,8.92857 9.5929,8.34935 23.6958,26.7095 23.6958,46.71269 0,0 -2.7852,0.0956 -4.4267,0.0956 -1.6415,0 0.8255,18.3502 -6.501,33.96638 -7.7332,16.48296 -27.9705,35.86042 -57.77,35.86042 -29.7995,0 -56.8736,-24.03721 -61.8719,-49.62375 -0.3881,-1.98669 -34.724,-1.13642 -46.3407,-1.6415 -11.6168,-0.50508 -22.8547,-19.44544 -22.6021,-30.30457 0.2525,-7.32361 0,-11.36422 0,-11.36422 l -64.6498,-42.67894 z"
         style="fill:#000000;stroke:none" />
      <rect
         y="367.07504"
         x="1551.488"
         height="34.285713"
         width="43.57143"
         id="rect12454"
         style="fill:#000000;fill-opacity:1;stroke:none" />
      <path
         transform="translate(545.77376,43.998556)"
         d="m 1062.1428,440.21933 c 0,29.58668 -23.9847,53.57143 -53.5714,53.57143 -29.58667,0 -53.57142,-23.98475 -53.57142,-53.57143 0,-29.58668 23.98475,-53.57143 53.57142,-53.57143 29.5867,0 53.5714,23.98475 53.5714,53.57143 z"
         sodipodi:ry="53.57143"
         sodipodi:rx="53.57143"
         sodipodi:cy="440.21933"
         sodipodi:cx="1008.5714"
         id="path12456"
         style="fill:#ffffff;fill-opacity:1;stroke:#000000;stroke-width:12;stroke-linecap:round;stroke-linejoin:miter;stroke-miterlimit:4;stroke-opacity:1;stroke-dasharray:none;stroke-dashoffset:0"
         sodipodi:type="arc" />
      <path
         inkscape:connector-curvature="0"
         id="path12458"
         d="m 1554.3452,485.64645 c 0,0 45.3572,-110.35714 46.4286,-113.92858 1.0714,-3.57142 4.4643,-8.03571 -1.25,-16.96427 -5.7143,-8.92857 -6.9643,-14.64286 1.7857,-18.92857 8.75,-4.28572 21.0714,-10.35715 21.0714,-10.35715"
         style="fill:none;stroke:#000000;stroke-width:12;stroke-linecap:butt;stroke-linejoin:miter;stroke-miterlimit:4;stroke-opacity:1;stroke-dasharray:none" />
      <path
         transform="matrix(1.631579,0,0,1.631579,263.19857,7.337476)"
         d="m 798.57142,292.71933 c 0,3.74765 -3.03807,6.78571 -6.78571,6.78571 -3.74765,0 -6.78572,-3.03806 -6.78572,-6.78571 0,-3.74765 3.03807,-6.78571 6.78572,-6.78571 3.74764,0 6.78571,3.03806 6.78571,6.78571 z"
         sodipodi:ry="6.7857141"
         sodipodi:rx="6.7857141"
         sodipodi:cy="292.71933"
         sodipodi:cx="791.78571"
         id="path12460"
         style="fill:#000000;fill-opacity:1;stroke:none"
         sodipodi:type="arc" />
      <path
         sodipodi:nodetypes="cssc"
         inkscape:connector-curvature="0"
         id="path12462"
         d="m 1517.5405,432.94306 c 11.8694,-8.33376 37.8822,-14.37121 58.1144,-7.1144 21.0611,7.55412 34.9226,29.86414 38.1027,41.45959 3.2653,11.9062 4.0539,29.39127 -5.0508,47.22462"
         style="fill:none;stroke:#000000;stroke-width:8;stroke-linecap:round;stroke-linejoin:miter;stroke-miterlimit:4;stroke-opacity:1;stroke-dasharray:none" />
      <path
         transform="translate(544.47222,43.941636)"
         d="m 1281.3785,439.19958 c 0,24.2683 -19.6733,43.94164 -43.9416,43.94164 -24.2683,0 -43.9416,-19.67334 -43.9416,-43.94164 0,-24.26829 19.6733,-43.94163 43.9416,-43.94163 24.2683,0 43.9416,19.67334 43.9416,43.94163 z"
         sodipodi:ry="43.941635"
         sodipodi:rx="43.941635"
         sodipodi:cy="439.19958"
         sodipodi:cx="1237.4369"
         id="path12486"
         style="fill:#ffffff;fill-opacity:1;stroke:none"
         sodipodi:type="arc" />
      <g
         transform="translate(545.48237,43.436559)"
         style="fill:#000000"
         id="g12482">
        <path
           transform="matrix(3.6412509,0,0,3.6412509,-1646.229,-626.38921)"
           d="m 798.57142,292.71933 c 0,3.74765 -3.03807,6.78571 -6.78571,6.78571 -3.74765,0 -6.78572,-3.03806 -6.78572,-6.78571 0,-3.74765 3.03807,-6.78571 6.78572,-6.78571 3.74764,0 6.78571,3.03806 6.78571,6.78571 z"
           sodipodi:ry="6.7857141"
           sodipodi:rx="6.7857141"
           sodipodi:cy="292.71933"
           sodipodi:cx="791.78571"
           id="path12478"
           style="fill:#000000;fill-opacity:1;stroke:none"
           sodipodi:type="arc" />
        <rect
           style="fill:#000000;fill-opacity:1;stroke:none"
           id="rect12480"
           width="107.07617"
           height="37.880722"
           x="1134.9064"
           y="414.76682" />
      </g>
    </g>
  </g>
</svg>
