<?xml version="1.0" encoding="UTF-8" standalone="no"?>
<!-- Created with Inkscape (http://www.inkscape.org/) -->

<svg
   xmlns:dc="http://purl.org/dc/elements/1.1/"
   xmlns:cc="http://creativecommons.org/ns#"
   xmlns:rdf="http://www.w3.org/1999/02/22-rdf-syntax-ns#"
   xmlns:svg="http://www.w3.org/2000/svg"
   xmlns="http://www.w3.org/2000/svg"
   xmlns:sodipodi="http://sodipodi.sourceforge.net/DTD/sodipodi-0.dtd"
   xmlns:inkscape="http://www.inkscape.org/namespaces/inkscape"
   width="644.41083"
   height="689.83044"
   id="svg8761"
   version="1.1"
   inkscape:version="0.48.2 r9819"
   sodipodi:docname="B9a.svg">
  <defs
     id="defs8763" />
  <sodipodi:namedview
     id="base"
     pagecolor="#ffffff"
     bordercolor="#666666"
     borderopacity="1.0"
     inkscape:pageopacity="0.0"
     inkscape:pageshadow="2"
     inkscape:zoom="0.7"
     inkscape:cx="352.04178"
     inkscape:cy="224.53386"
     inkscape:document-units="px"
     inkscape:current-layer="layer1"
     showgrid="false"
     inkscape:window-width="1680"
     inkscape:window-height="1003"
     inkscape:window-x="-4"
     inkscape:window-y="24"
     inkscape:window-maximized="1"
     fit-margin-top="0"
     fit-margin-left="0"
     fit-margin-right="0"
     fit-margin-bottom="0" />
<metadata
     id="metadata5966">
    <rdf:RDF>
      <cc:Work
         rdf:about="">
        <dc:format>image/svg+xml</dc:format>
        <dc:type
           rdf:resource="http://purl.org/dc/dcmitype/StillImage" />
        <dc:title>Signalisation routière</dc:title>
        <cc:license
           rdf:resource="http://creativecommons.org/licenses/publicdomain/" />
        <dc:date>08/10/2012</dc:date>
        <dc:creator>
          <cc:Agent>
            <dc:title>Desmoric</dc:title>
          </cc:Agent>
        </dc:creator>
        <dc:rights>
          <cc:Agent>
            <dc:title>Domaine Public</dc:title>
          </cc:Agent>
        </dc:rights>
        <dc:publisher>
          <cc:Agent>
            <dc:title>Desmoric</dc:title>
          </cc:Agent>
        </dc:publisher>
        <dc:source>http://routes.wikia.com/wiki/Signalisation_routière_française</dc:source>
        <dc:description>Panneau de signalisation routière applicable en France issu de l'arrêté du 24 novembre 1967 sur la signalisation routière décrite dans L'instruction Interministérielle sur la Signalisation Routière (depuis 2002).</dc:description>
        <dc:language>French</dc:language>
      </cc:Work>
      <cc:License
         rdf:about="http://creativecommons.org/licenses/publicdomain/">
        <cc:permits
           rdf:resource="http://creativecommons.org/ns#Reproduction" />
        <cc:permits
           rdf:resource="http://creativecommons.org/ns#Distribution" />
        <cc:permits
           rdf:resource="http://creativecommons.org/ns#DerivativeWorks" />
      </cc:License>
    </rdf:RDF>
  </metadata>
  <g
     inkscape:label="Calque 1"
     inkscape:groupmode="layer"
     id="layer1"
     transform="translate(-32.082519,-67.305706)">
    <text
       xml:space="preserve"
       style="font-size:40px;font-style:normal;font-weight:normal;line-height:125%;letter-spacing:0px;word-spacing:0px;fill:#000000;fill-opacity:1;stroke:none;font-family:Sans"
       x="328.57144"
       y="756.64789"
       id="text8780"
       sodipodi:linespacing="125%"><tspan
         sodipodi:role="line"
         id="tspan8782"
         x="328.57144"
         y="756.64789">B9a</tspan></text>
    <g
       id="g12250">
      <g
         transform="translate(-15.30538,-2.557537)"
         id="g10138">
        <path
           transform="matrix(0.99556541,0,0,0.99556541,292.07921,-174.20584)"
           d="m 399.99999,568.79077 c 0,177.91459 -144.22827,322.14285 -322.14285,322.14285 -177.91459,0 -322.14285,-144.22826 -322.14285,-322.14285 0,-177.91458 144.22826,-322.14285 322.14285,-322.14285 177.91458,0 322.14285,144.22827 322.14285,322.14285 z"
           sodipodi:ry="322.14285"
           sodipodi:rx="322.14285"
           sodipodi:cy="568.79077"
           sodipodi:cx="77.85714"
           id="path8784"
           style="fill:#ffffff;fill-opacity:1;stroke:#000000;stroke-width:3.01336312;stroke-miterlimit:4;stroke-opacity:1;stroke-dasharray:none"
           sodipodi:type="arc" />
        <path
           transform="matrix(0.81450348,0,0,0.81450348,306.17617,-71.219485)"
           d="m 399.99999,568.79077 c 0,177.91459 -144.22827,322.14285 -322.14285,322.14285 -177.91459,0 -322.14285,-144.22826 -322.14285,-322.14285 0,-177.91458 144.22826,-322.14285 322.14285,-322.14285 177.91458,0 322.14285,144.22827 322.14285,322.14285 z"
           sodipodi:ry="322.14285"
           sodipodi:rx="322.14285"
           sodipodi:cy="568.79077"
           sodipodi:cx="77.85714"
           id="path8784-6"
           style="fill:none;stroke:#ff0000;stroke-width:110.49676514;stroke-miterlimit:4;stroke-opacity:1;stroke-dasharray:none"
           sodipodi:type="arc" />
      </g>
      <path
         sodipodi:type="arc"
         style="fill:#ffffff;fill-opacity:1;stroke:none"
         id="path11300"
         sodipodi:cx="-405"
         sodipodi:cy="303.43362"
         sodipodi:rx="8.5714283"
         sodipodi:ry="8.5714283"
         d="m -396.42857,303.43362 c 0,4.73387 -3.83756,8.57143 -8.57143,8.57143 -4.73387,0 -8.57143,-3.83756 -8.57143,-8.57143 0,-4.73386 3.83756,-8.57142 8.57143,-8.57142 4.73387,0 8.57143,3.83756 8.57143,8.57142 z"
         transform="translate(759.28571,86.071416)" />
      <path
         transform="translate(759.28571,86.071416)"
         d="m -396.42857,303.43362 c 0,4.73387 -3.83756,8.57143 -8.57143,8.57143 -4.73387,0 -8.57143,-3.83756 -8.57143,-8.57143 0,-4.73386 3.83756,-8.57142 8.57143,-8.57142 4.73387,0 8.57143,3.83756 8.57143,8.57142 z"
         sodipodi:ry="8.5714283"
         sodipodi:rx="8.5714283"
         sodipodi:cy="303.43362"
         sodipodi:cx="-405"
         id="path11302"
         style="fill:#ffffff;fill-opacity:1;stroke:none"
         sodipodi:type="arc" />
      <path
         sodipodi:nodetypes="cscsssccczsssccccssscccczssccscssssc"
         inkscape:connector-curvature="0"
         id="path12248"
         d="m 333.5335,287.66757 c -11.11168,0 -17.67767,20.20305 -21.71828,28.78935 -4.04061,8.58629 -15.15229,30.80965 -15.15229,30.80965 0,0 -47.04882,24.61583 -52.52793,27.7792 -5.47911,3.16336 -4.54569,13.13198 -1.51523,17.67767 2.39374,3.5906 9.09137,8.08122 16.16244,4.54568 7.07107,-3.53553 58.08377,-29.29442 58.08377,-29.29442 l 13.13199,-34.85026 7.82868,54.04316 c 0,0 -57.95293,126.02806 -61.11423,133.08759 -3.16131,7.05953 -5.66403,6.42328 -9.34391,5.30331 -2.90418,-0.88388 -8.2425,0.38917 -10.98541,6.43972 -4.29315,9.47017 0.37881,14.77348 6.43972,17.29886 5.691,2.37125 31.31473,12.12183 31.31473,12.12183 l 65.65992,-137.88582 9.09137,0 56.82108,116.79889 c 0,0 -1.76777,0.88388 -4.79822,2.90418 -3.03046,2.02031 -5.55584,10.60661 -2.02031,15.65737 3.53554,5.05076 14.14214,7.07107 22.22336,3.03046 8.08122,-4.04061 27.27412,-14.14214 27.27412,-14.14214 l -79.29698,-164.14979 -11.11168,-53.53808 24.24366,20.20305 c 0,0 17.8887,53.77154 22.09709,63.38707 4.2084,9.61553 11.255,10.7525 16.2398,8.98677 3.99126,-1.4138 11.16059,-6.20885 7.11998,-18.33068 -4.04061,-12.12183 -21.71828,-66.16499 -21.71828,-66.16499 l -46.21448,-46.46702 c 0,0 -15.9099,-9.59645 -20.45559,-9.59645 -1.26269,0 -0.25253,-11.86929 -0.25253,-11.86929 0,0 14.39467,-10.35406 14.39467,-25.50635 0,-15.15229 -15.15229,-29.7995 -31.56727,-29.7995 -15.41581,0 -28.03173,13.13198 -29.04189,29.29442 -1.01015,16.16244 9.58223,24.34183 19.69798,28.28427 2.39959,0.9352 1.01015,15.15229 1.01015,15.15229 z"
         style="fill:#000000;stroke:#000000;stroke-width:1px;stroke-linecap:butt;stroke-linejoin:miter;stroke-opacity:1" />
    </g>
  </g>
</svg>
