<?xml version="1.0" encoding="UTF-8" standalone="no"?>
<!-- Created with Inkscape (http://www.inkscape.org/) -->

<svg
   xmlns:dc="http://purl.org/dc/elements/1.1/"
   xmlns:cc="http://creativecommons.org/ns#"
   xmlns:rdf="http://www.w3.org/1999/02/22-rdf-syntax-ns#"
   xmlns:svg="http://www.w3.org/2000/svg"
   xmlns="http://www.w3.org/2000/svg"
   xmlns:sodipodi="http://sodipodi.sourceforge.net/DTD/sodipodi-0.dtd"
   xmlns:inkscape="http://www.inkscape.org/namespaces/inkscape"
   width="644.42859"
   height="699.84546"
   id="svg8761"
   version="1.1"
   inkscape:version="0.48.2 r9819"
   sodipodi:docname="B0.svg">
  <defs
     id="defs8763" />
  <sodipodi:namedview
     id="base"
     pagecolor="#ffffff"
     bordercolor="#666666"
     borderopacity="1.0"
     inkscape:pageopacity="0.0"
     inkscape:pageshadow="2"
     inkscape:zoom="0.7"
     inkscape:cx="10.290164"
     inkscape:cy="275.95137"
     inkscape:document-units="px"
     inkscape:current-layer="layer1"
     showgrid="false"
     inkscape:window-width="1680"
     inkscape:window-height="1003"
     inkscape:window-x="-4"
     inkscape:window-y="24"
     inkscape:window-maximized="1"
     fit-margin-top="0"
     fit-margin-left="0"
     fit-margin-right="0"
     fit-margin-bottom="0" />
<metadata
     id="metadata5966">
    <rdf:RDF>
      <cc:Work
         rdf:about="">
        <dc:format>image/svg+xml</dc:format>
        <dc:type
           rdf:resource="http://purl.org/dc/dcmitype/StillImage" />
        <dc:title>Signalisation routière</dc:title>
        <cc:license
           rdf:resource="http://creativecommons.org/licenses/publicdomain/" />
        <dc:date>08/10/2012</dc:date>
        <dc:creator>
          <cc:Agent>
            <dc:title>Desmoric</dc:title>
          </cc:Agent>
        </dc:creator>
        <dc:rights>
          <cc:Agent>
            <dc:title>Domaine Public</dc:title>
          </cc:Agent>
        </dc:rights>
        <dc:publisher>
          <cc:Agent>
            <dc:title>Desmoric</dc:title>
          </cc:Agent>
        </dc:publisher>
        <dc:source>http://routes.wikia.com/wiki/Signalisation_routière_française</dc:source>
        <dc:description>Panneau de signalisation routière applicable en France issu de l'arrêté du 24 novembre 1967 sur la signalisation routière décrite dans L'instruction Interministérielle sur la Signalisation Routière (depuis 2002).</dc:description>
        <dc:language>French</dc:language>
      </cc:Work>
      <cc:License
         rdf:about="http://creativecommons.org/licenses/publicdomain/">
        <cc:permits
           rdf:resource="http://creativecommons.org/ns#Reproduction" />
        <cc:permits
           rdf:resource="http://creativecommons.org/ns#Distribution" />
        <cc:permits
           rdf:resource="http://creativecommons.org/ns#DerivativeWorks" />
      </cc:License>
    </rdf:RDF>
  </metadata>
  <g
     inkscape:label="Calque 1"
     inkscape:groupmode="layer"
     id="layer1"
     transform="translate(-32.071424,-67.290759)">
    <text
       xml:space="preserve"
       style="font-size:40px;font-style:normal;font-weight:normal;line-height:125%;letter-spacing:0px;word-spacing:0px;fill:#000000;fill-opacity:1;stroke:none;font-family:Sans"
       x="335.71429"
       y="766.64795"
       id="text8780"
       sodipodi:linespacing="125%"><tspan
         sodipodi:role="line"
         id="tspan8782"
         x="335.71429"
         y="766.64795">B9d</tspan></text>
    <g
       id="g4866">
      <g
         transform="translate(-559.24998,-75.909766)"
         id="g9312">
        <g
           id="g10138"
           transform="translate(543.9446,73.352229)">
          <path
             sodipodi:type="arc"
             style="fill:#ffffff;fill-opacity:1;stroke:#000000;stroke-width:3.01336312;stroke-miterlimit:4;stroke-opacity:1;stroke-dasharray:none"
             id="path8784"
             sodipodi:cx="77.85714"
             sodipodi:cy="568.79077"
             sodipodi:rx="322.14285"
             sodipodi:ry="322.14285"
             d="m 399.99999,568.79077 c 0,177.91459 -144.22827,322.14285 -322.14285,322.14285 -177.91459,0 -322.14285,-144.22826 -322.14285,-322.14285 0,-177.91458 144.22826,-322.14285 322.14285,-322.14285 177.91458,0 322.14285,144.22827 322.14285,322.14285 z"
             transform="matrix(0.99556541,0,0,0.99556541,292.07921,-174.20584)" />
          <path
             sodipodi:type="arc"
             style="fill:none;stroke:#ff0000;stroke-width:110.49676514;stroke-miterlimit:4;stroke-opacity:1;stroke-dasharray:none"
             id="path8784-6"
             sodipodi:cx="77.85714"
             sodipodi:cy="568.79077"
             sodipodi:rx="322.14285"
             sodipodi:ry="322.14285"
             d="m 399.99999,568.79077 c 0,177.91459 -144.22827,322.14285 -322.14285,322.14285 -177.91459,0 -322.14285,-144.22826 -322.14285,-322.14285 0,-177.91458 144.22826,-322.14285 322.14285,-322.14285 177.91458,0 322.14285,144.22827 322.14285,322.14285 z"
             transform="matrix(0.81450348,0,0,0.81450348,306.17617,-71.219485)" />
        </g>
      </g>
      <g
         id="g4858">
        <path
           sodipodi:type="arc"
           style="fill:#000000;fill-opacity:1;stroke:none"
           id="path4808"
           sodipodi:cx="-647.50775"
           sodipodi:cy="393.76923"
           sodipodi:rx="38.385796"
           sodipodi:ry="38.385796"
           d="m -609.12196,393.76923 a 38.385796,38.385796 0 1 1 -76.77159,0 38.385796,38.385796 0 1 1 76.77159,0 z"
           transform="matrix(1.0526316,0,0,1.0526316,911.44139,46.5048)" />
        <path
           transform="matrix(1.5898486,0,0,1.5898486,1453.2429,-208.47129)"
           d="m -609.12196,393.76923 a 38.385796,38.385796 0 1 1 -76.77159,0 38.385796,38.385796 0 1 1 76.77159,0 z"
           sodipodi:ry="38.385796"
           sodipodi:rx="38.385796"
           sodipodi:cy="393.76923"
           sodipodi:cx="-647.50775"
           id="path4810"
           style="fill:#ffffff;fill-opacity:1;stroke:#000000;stroke-width:27.46745872;stroke-miterlimit:4;stroke-dasharray:none"
           sodipodi:type="arc" />
        <path
           style="fill:#000000;stroke:#000000;stroke-width:1px;stroke-linecap:butt;stroke-linejoin:miter;stroke-opacity:1"
           d="m 179.02012,417.71011 c 0,0 0,-60.60916 0,-67.68022 0,-7.07107 3.03045,-10.35407 10.35406,-10.35407 7.3236,0 154.3008,0 154.3008,0 l 4.79822,5.55584 33.84012,-32.82995 -10e-6,-7.57615 c 0,0 -3.8281,-2.32913 -5.80837,-4.41941 -2.27285,-2.39912 -3.94671,-7.19257 -3.78807,-11.23795 0.25254,-6.43972 8.08121,-14.01587 15.65736,-14.01587 7.57614,0 15.40483,5.17703 15.40483,15.78363 0,10.6066 -7.32361,11.61675 -7.32361,12.87945 0,3.53553 0,8.58629 0,8.58629 0,0 10.35406,4.04061 10.35406,10.35407 0,6.31345 0,23.99112 0,23.99112 0,0 -61.76403,69.94083 -64.19109,69.94083 -2.42706,0 0.0711,-11.51786 -5.85606,-11.51786 -5.92721,0 -4.28572,11.27756 -4.28572,11.27756 z"
           id="path4814"
           inkscape:connector-curvature="0"
           sodipodi:nodetypes="cssccccssssscsczzcc" />
        <path
           style="fill:#ffffff;stroke:#000000;stroke-width:1px;stroke-linecap:butt;stroke-linejoin:miter;stroke-opacity:1"
           d="m 372.21179,337.15044 0,15.15229 -8.08122,7.57614 -7.57615,-6.56599 z"
           id="path4816"
           inkscape:connector-curvature="0" />
        <path
           style="fill:#000000;stroke:#000000;stroke-width:1px;stroke-linecap:butt;stroke-linejoin:miter;stroke-opacity:1"
           d="m 493.68263,404.57812 21.21321,0 0,-25.25381 16.16244,0 0,37.37564 -34.85027,0 z"
           id="path4818"
           inkscape:connector-curvature="0" />
        <rect
           style="fill:#000000;fill-opacity:1;stroke:#000000;stroke-width:1;stroke-linecap:butt;stroke-linejoin:miter;stroke-miterlimit:4;stroke-opacity:1;stroke-dasharray:none;stroke-dashoffset:0"
           id="rect4820"
           width="27.526657"
           height="27.274118"
           x="214.17462"
           y="407.2475"
           ry="0" />
      </g>
    </g>
  </g>
</svg>
