<?xml version="1.0" encoding="UTF-8" standalone="no"?>
<!-- Created with Inkscape (http://www.inkscape.org/) -->

<svg
   xmlns:dc="http://purl.org/dc/elements/1.1/"
   xmlns:cc="http://creativecommons.org/ns#"
   xmlns:rdf="http://www.w3.org/1999/02/22-rdf-syntax-ns#"
   xmlns:svg="http://www.w3.org/2000/svg"
   xmlns="http://www.w3.org/2000/svg"
   xmlns:sodipodi="http://sodipodi.sourceforge.net/DTD/sodipodi-0.dtd"
   xmlns:inkscape="http://www.inkscape.org/namespaces/inkscape"
   width="644.41083"
   height="688.40192"
   id="svg8761"
   version="1.1"
   inkscape:version="0.48.2 r9819"
   sodipodi:docname="B9f.svg">
  <defs
     id="defs8763" />
  <sodipodi:namedview
     id="base"
     pagecolor="#ffffff"
     bordercolor="#666666"
     borderopacity="1.0"
     inkscape:pageopacity="0.0"
     inkscape:pageshadow="2"
     inkscape:zoom="0.7"
     inkscape:cx="83.858451"
     inkscape:cy="225.02226"
     inkscape:document-units="px"
     inkscape:current-layer="layer1"
     showgrid="false"
     inkscape:window-width="1680"
     inkscape:window-height="1003"
     inkscape:window-x="-4"
     inkscape:window-y="24"
     inkscape:window-maximized="1"
     fit-margin-top="0"
     fit-margin-left="0"
     fit-margin-right="0"
     fit-margin-bottom="0" />
<metadata
     id="metadata5966">
    <rdf:RDF>
      <cc:Work
         rdf:about="">
        <dc:format>image/svg+xml</dc:format>
        <dc:type
           rdf:resource="http://purl.org/dc/dcmitype/StillImage" />
        <dc:title>Signalisation routière</dc:title>
        <cc:license
           rdf:resource="http://creativecommons.org/licenses/publicdomain/" />
        <dc:date>08/10/2012</dc:date>
        <dc:creator>
          <cc:Agent>
            <dc:title>Desmoric</dc:title>
          </cc:Agent>
        </dc:creator>
        <dc:rights>
          <cc:Agent>
            <dc:title>Domaine Public</dc:title>
          </cc:Agent>
        </dc:rights>
        <dc:publisher>
          <cc:Agent>
            <dc:title>Desmoric</dc:title>
          </cc:Agent>
        </dc:publisher>
        <dc:source>http://routes.wikia.com/wiki/Signalisation_routière_française</dc:source>
        <dc:description>Panneau de signalisation routière applicable en France issu de l'arrêté du 24 novembre 1967 sur la signalisation routière décrite dans L'instruction Interministérielle sur la Signalisation Routière (depuis 2002).</dc:description>
        <dc:language>French</dc:language>
      </cc:Work>
      <cc:License
         rdf:about="http://creativecommons.org/licenses/publicdomain/">
        <cc:permits
           rdf:resource="http://creativecommons.org/ns#Reproduction" />
        <cc:permits
           rdf:resource="http://creativecommons.org/ns#Distribution" />
        <cc:permits
           rdf:resource="http://creativecommons.org/ns#DerivativeWorks" />
      </cc:License>
    </rdf:RDF>
  </metadata>
  <g
     inkscape:label="Calque 1"
     inkscape:groupmode="layer"
     id="layer1"
     transform="translate(-32.082519,-67.305706)">
    <text
       xml:space="preserve"
       style="font-size:40px;font-style:normal;font-weight:normal;line-height:125%;letter-spacing:0px;word-spacing:0px;fill:#000000;fill-opacity:1;stroke:none;font-family:Sans"
       x="338.57144"
       y="755.21936"
       id="text8780"
       sodipodi:linespacing="125%"><tspan
         sodipodi:role="line"
         id="tspan8782"
         x="338.57144"
         y="755.21936">B9f</tspan></text>
    <g
       id="g6531">
      <g
         transform="translate(-15.30538,-2.557537)"
         id="g10138">
        <path
           transform="matrix(0.99556541,0,0,0.99556541,292.07921,-174.20584)"
           d="m 399.99999,568.79077 c 0,177.91459 -144.22827,322.14285 -322.14285,322.14285 -177.91459,0 -322.14285,-144.22826 -322.14285,-322.14285 0,-177.91458 144.22826,-322.14285 322.14285,-322.14285 177.91458,0 322.14285,144.22827 322.14285,322.14285 z"
           sodipodi:ry="322.14285"
           sodipodi:rx="322.14285"
           sodipodi:cy="568.79077"
           sodipodi:cx="77.85714"
           id="path8784"
           style="fill:#ffffff;fill-opacity:1;stroke:#000000;stroke-width:3.01336312;stroke-miterlimit:4;stroke-opacity:1;stroke-dasharray:none"
           sodipodi:type="arc" />
        <path
           transform="matrix(0.81450348,0,0,0.81450348,306.17617,-71.219485)"
           d="m 399.99999,568.79077 c 0,177.91459 -144.22827,322.14285 -322.14285,322.14285 -177.91459,0 -322.14285,-144.22826 -322.14285,-322.14285 0,-177.91458 144.22826,-322.14285 322.14285,-322.14285 177.91458,0 322.14285,144.22827 322.14285,322.14285 z"
           sodipodi:ry="322.14285"
           sodipodi:rx="322.14285"
           sodipodi:cy="568.79077"
           sodipodi:cx="77.85714"
           id="path8784-6"
           style="fill:none;stroke:#ff0000;stroke-width:110.49676514;stroke-miterlimit:4;stroke-opacity:1;stroke-dasharray:none"
           sodipodi:type="arc" />
      </g>
      <path
         sodipodi:type="arc"
         style="fill:#ffffff;fill-opacity:1;stroke:none"
         id="path11300"
         sodipodi:cx="-405"
         sodipodi:cy="303.43362"
         sodipodi:rx="8.5714283"
         sodipodi:ry="8.5714283"
         d="m -396.42857,303.43362 c 0,4.73387 -3.83756,8.57143 -8.57143,8.57143 -4.73387,0 -8.57143,-3.83756 -8.57143,-8.57143 0,-4.73386 3.83756,-8.57142 8.57143,-8.57142 4.73387,0 8.57143,3.83756 8.57143,8.57142 z"
         transform="translate(759.28571,86.071416)" />
      <path
         transform="translate(759.28571,86.071416)"
         d="m -396.42857,303.43362 c 0,4.73387 -3.83756,8.57143 -8.57143,8.57143 -4.73387,0 -8.57143,-3.83756 -8.57143,-8.57143 0,-4.73386 3.83756,-8.57142 8.57143,-8.57142 4.73387,0 8.57143,3.83756 8.57143,8.57142 z"
         sodipodi:ry="8.5714283"
         sodipodi:rx="8.5714283"
         sodipodi:cy="303.43362"
         sodipodi:cx="-405"
         id="path11302"
         style="fill:#ffffff;fill-opacity:1;stroke:none"
         sodipodi:type="arc" />
      <g
         transform="matrix(0.79914546,0,0,0.79914546,670.60663,36.7546)"
         id="g11503">
        <path
           style="fill:#000000;stroke:none"
           d="m -602.86244,381.93773 5.5357,0 -12.3214,49.28571 c 0,0 -10.8929,1.96429 -10.8929,10.17857 0,8.21429 0,37.5 0,44.64286 0,7.14286 6.6072,12.05357 12.0536,12.05357 5.4464,0 437.38056,0.0142 437.38056,0.0142 0,0 0,-125.76399 0,-131.69864 0,-5.93464 -3.40927,-10.35406 -11.23795,-10.35406 -7.82868,0 -420.51761,0.35477 -420.51761,0.35477 0.032,1.13642 0,25.52302 0,25.52302 z"
           id="path10344"
           inkscape:connector-curvature="0"
           sodipodi:nodetypes="cccssscsscc" />
        <rect
           style="fill:#ffffff;fill-opacity:1;stroke:none"
           id="rect10328"
           width="86.785721"
           height="51.42857"
           x="-553.39819"
           y="379.79486"
           ry="3.918144" />
        <rect
           ry="3.918144"
           y="379.79486"
           x="-457.68387"
           height="51.42857"
           width="86.785721"
           id="rect10330"
           style="fill:#ffffff;fill-opacity:1;stroke:none" />
        <rect
           ry="3.918144"
           y="379.79486"
           x="-363.39816"
           height="51.42857"
           width="86.785721"
           id="rect10332"
           style="fill:#ffffff;fill-opacity:1;stroke:none" />
        <rect
           style="fill:#ffffff;fill-opacity:1;stroke:none"
           id="rect10334"
           width="86.785721"
           height="51.42857"
           x="-267.68387"
           y="379.79486"
           ry="3.918144" />
        <path
           sodipodi:type="arc"
           style="fill:#000000;fill-opacity:1;stroke:#ffffff;stroke-width:10;stroke-miterlimit:4;stroke-dasharray:none"
           id="path10336"
           sodipodi:cx="-651.42859"
           sodipodi:cy="490.21933"
           sodipodi:rx="32.857143"
           sodipodi:ry="32.857143"
           d="m -618.57145,490.21933 c 0,18.1465 -14.71064,32.85714 -32.85714,32.85714 -18.1465,0 -32.85714,-14.71064 -32.85714,-32.85714 0,-18.1465 14.71064,-32.85714 32.85714,-32.85714 18.1465,0 32.85714,14.71064 32.85714,32.85714 z"
           transform="translate(137.49472,-1.3173057)" />
        <path
           d="m -618.57145,490.21933 c 0,18.1465 -14.71064,32.85714 -32.85714,32.85714 -18.1465,0 -32.85714,-14.71064 -32.85714,-32.85714 0,-18.1465 14.71064,-32.85714 32.85714,-32.85714 18.1465,0 32.85714,14.71064 32.85714,32.85714 z"
           sodipodi:ry="32.857143"
           sodipodi:rx="32.857143"
           sodipodi:cy="490.21933"
           sodipodi:cx="-651.42859"
           id="path10338"
           style="fill:#000000;fill-opacity:1;stroke:#ffffff;stroke-width:10;stroke-miterlimit:4;stroke-dasharray:none"
           sodipodi:type="arc"
           transform="translate(368.20901,-1.3173057)" />
        <path
           style="fill:#ffffff;stroke:none"
           d="m -590.36242,380.33059 -12.94643,49.10714 c 0,0 34.01785,0 37.76785,0 3.75,0 3.62311,-0.0508 3.62311,-6.27541 0,-6.22459 0,-35.51031 0,-39.08173 0,-3.57143 -1.96428,-3.77585 -4.31155,-3.77585 -2.34727,0 -24.13298,0.0258 -24.13298,0.0258 z"
           id="path10346"
           inkscape:connector-curvature="0"
           sodipodi:nodetypes="ccssssc" />
      </g>
    </g>
  </g>
</svg>
