<?xml version="1.0" encoding="UTF-8" standalone="no"?>
<!-- Created with Inkscape (http://www.inkscape.org/) -->

<svg
   xmlns:dc="http://purl.org/dc/elements/1.1/"
   xmlns:cc="http://creativecommons.org/ns#"
   xmlns:rdf="http://www.w3.org/1999/02/22-rdf-syntax-ns#"
   xmlns:svg="http://www.w3.org/2000/svg"
   xmlns="http://www.w3.org/2000/svg"
   xmlns:sodipodi="http://sodipodi.sourceforge.net/DTD/sodipodi-0.dtd"
   xmlns:inkscape="http://www.inkscape.org/namespaces/inkscape"
   width="644.41083"
   height="696.3316"
   id="svg8761"
   version="1.1"
   inkscape:version="0.48.2 r9819"
   sodipodi:docname="B9g.svg">
  <defs
     id="defs8763" />
  <sodipodi:namedview
     id="base"
     pagecolor="#ffffff"
     bordercolor="#666666"
     borderopacity="1.0"
     inkscape:pageopacity="0.0"
     inkscape:pageshadow="2"
     inkscape:zoom="0.7"
     inkscape:cx="295.7126"
     inkscape:cy="245.5911"
     inkscape:document-units="px"
     inkscape:current-layer="layer1"
     showgrid="false"
     inkscape:window-width="1680"
     inkscape:window-height="1003"
     inkscape:window-x="-4"
     inkscape:window-y="24"
     inkscape:window-maximized="1"
     fit-margin-top="0"
     fit-margin-left="0"
     fit-margin-right="0"
     fit-margin-bottom="0" />
<metadata
     id="metadata5966">
    <rdf:RDF>
      <cc:Work
         rdf:about="">
        <dc:format>image/svg+xml</dc:format>
        <dc:type
           rdf:resource="http://purl.org/dc/dcmitype/StillImage" />
        <dc:title>Signalisation routière</dc:title>
        <cc:license
           rdf:resource="http://creativecommons.org/licenses/publicdomain/" />
        <dc:date>08/10/2012</dc:date>
        <dc:creator>
          <cc:Agent>
            <dc:title>Desmoric</dc:title>
          </cc:Agent>
        </dc:creator>
        <dc:rights>
          <cc:Agent>
            <dc:title>Domaine Public</dc:title>
          </cc:Agent>
        </dc:rights>
        <dc:publisher>
          <cc:Agent>
            <dc:title>Desmoric</dc:title>
          </cc:Agent>
        </dc:publisher>
        <dc:source>http://routes.wikia.com/wiki/Signalisation_routière_française</dc:source>
        <dc:description>Panneau de signalisation routière applicable en France issu de l'arrêté du 24 novembre 1967 sur la signalisation routière décrite dans L'instruction Interministérielle sur la Signalisation Routière (depuis 2002).</dc:description>
        <dc:language>French</dc:language>
      </cc:Work>
      <cc:License
         rdf:about="http://creativecommons.org/licenses/publicdomain/">
        <cc:permits
           rdf:resource="http://creativecommons.org/ns#Reproduction" />
        <cc:permits
           rdf:resource="http://creativecommons.org/ns#Distribution" />
        <cc:permits
           rdf:resource="http://creativecommons.org/ns#DerivativeWorks" />
      </cc:License>
    </rdf:RDF>
  </metadata>
  <g
     inkscape:label="Calque 1"
     inkscape:groupmode="layer"
     id="layer1"
     transform="translate(-32.082519,-67.305706)">
    <text
       xml:space="preserve"
       style="font-size:40px;font-style:normal;font-weight:normal;line-height:125%;letter-spacing:0px;word-spacing:0px;fill:#000000;fill-opacity:1;stroke:none;font-family:Sans"
       x="330"
       y="755.21936"
       id="text8780"
       sodipodi:linespacing="125%"><tspan
         sodipodi:role="line"
         id="tspan8782"
         x="330"
         y="755.21936">B9g</tspan></text>
    <g
       id="g12514">
      <g
         transform="translate(-15.30538,-2.557537)"
         id="g10138">
        <path
           transform="matrix(0.99556541,0,0,0.99556541,292.07921,-174.20584)"
           d="m 399.99999,568.79077 c 0,177.91459 -144.22827,322.14285 -322.14285,322.14285 -177.91459,0 -322.14285,-144.22826 -322.14285,-322.14285 0,-177.91458 144.22826,-322.14285 322.14285,-322.14285 177.91458,0 322.14285,144.22827 322.14285,322.14285 z"
           sodipodi:ry="322.14285"
           sodipodi:rx="322.14285"
           sodipodi:cy="568.79077"
           sodipodi:cx="77.85714"
           id="path8784"
           style="fill:#ffffff;fill-opacity:1;stroke:#000000;stroke-width:3.01336312;stroke-miterlimit:4;stroke-opacity:1;stroke-dasharray:none"
           sodipodi:type="arc" />
        <path
           transform="matrix(0.81450348,0,0,0.81450348,306.17617,-71.219485)"
           d="m 399.99999,568.79077 c 0,177.91459 -144.22827,322.14285 -322.14285,322.14285 -177.91459,0 -322.14285,-144.22826 -322.14285,-322.14285 0,-177.91458 144.22826,-322.14285 322.14285,-322.14285 177.91458,0 322.14285,144.22827 322.14285,322.14285 z"
           sodipodi:ry="322.14285"
           sodipodi:rx="322.14285"
           sodipodi:cy="568.79077"
           sodipodi:cx="77.85714"
           id="path8784-6"
           style="fill:none;stroke:#ff0000;stroke-width:110.49676514;stroke-miterlimit:4;stroke-opacity:1;stroke-dasharray:none"
           sodipodi:type="arc" />
      </g>
      <path
         sodipodi:type="arc"
         style="fill:#ffffff;fill-opacity:1;stroke:none"
         id="path11300"
         sodipodi:cx="-405"
         sodipodi:cy="303.43362"
         sodipodi:rx="8.5714283"
         sodipodi:ry="8.5714283"
         d="m -396.42857,303.43362 c 0,4.73387 -3.83756,8.57143 -8.57143,8.57143 -4.73387,0 -8.57143,-3.83756 -8.57143,-8.57143 0,-4.73386 3.83756,-8.57142 8.57143,-8.57142 4.73387,0 8.57143,3.83756 8.57143,8.57142 z"
         transform="translate(759.28571,86.071416)" />
      <path
         transform="translate(759.28571,86.071416)"
         d="m -396.42857,303.43362 c 0,4.73387 -3.83756,8.57143 -8.57143,8.57143 -4.73387,0 -8.57143,-3.83756 -8.57143,-8.57143 0,-4.73386 3.83756,-8.57142 8.57143,-8.57142 4.73387,0 8.57143,3.83756 8.57143,8.57142 z"
         sodipodi:ry="8.5714283"
         sodipodi:rx="8.5714283"
         sodipodi:cy="303.43362"
         sodipodi:cx="-405"
         id="path11302"
         style="fill:#ffffff;fill-opacity:1;stroke:none"
         sodipodi:type="arc" />
      <g
         transform="translate(-1318.5503,-44.405379)"
         id="g12502">
        <path
           style="fill:#000000;stroke:none"
           d="m 1596.1309,380.28931 56.7858,37.5 c 0,0 5,8.92856 8.5714,13.92856 3.5714,5 9.6428,12.14286 20,12.14286 10.3571,0 24.2857,-9.28571 27.5,-17.85714 3.2143,-8.57143 8.5714,-25 8.5714,-25 l -23.2143,-9.64286 0,-13.57143 67.5,0 c 0,0 7.1429,6.42857 7.1429,10.35715 0,3.92857 -3.5714,11.42857 -12.5,11.42857 -8.9286,0 -20.3572,0 -20.3572,0 l -3.2142,10.35714 94.2857,0 0,12.85714 -10.3572,0 c 0,0 5.5358,4.73214 10.3572,8.92857 9.5929,8.34935 23.6958,26.7095 23.6958,46.71269 0,0 -2.7852,0.0956 -4.4267,0.0956 -1.6415,0 0.8255,18.3502 -6.501,33.96638 -7.7332,16.48296 -27.9705,35.86042 -57.77,35.86042 -29.7995,0 -56.8736,-24.03721 -61.8719,-49.62375 -0.3881,-1.98669 -34.724,-1.13642 -46.3407,-1.6415 -11.6168,-0.50508 -22.8547,-19.44544 -22.6021,-30.30457 0.2525,-7.32361 0,-11.36422 0,-11.36422 l -64.6498,-42.67894 z"
           id="path12452"
           inkscape:connector-curvature="0"
           sodipodi:nodetypes="ccsssccccsscccccssssssscccc" />
        <rect
           style="fill:#000000;fill-opacity:1;stroke:none"
           id="rect12454"
           width="43.57143"
           height="34.285713"
           x="1551.488"
           y="367.07504" />
        <path
           sodipodi:type="arc"
           style="fill:#ffffff;fill-opacity:1;stroke:#000000;stroke-width:12;stroke-linecap:round;stroke-linejoin:miter;stroke-miterlimit:4;stroke-opacity:1;stroke-dasharray:none;stroke-dashoffset:0"
           id="path12456"
           sodipodi:cx="1008.5714"
           sodipodi:cy="440.21933"
           sodipodi:rx="53.57143"
           sodipodi:ry="53.57143"
           d="m 1062.1428,440.21933 c 0,29.58668 -23.9847,53.57143 -53.5714,53.57143 -29.58667,0 -53.57142,-23.98475 -53.57142,-53.57143 0,-29.58668 23.98475,-53.57143 53.57142,-53.57143 29.5867,0 53.5714,23.98475 53.5714,53.57143 z"
           transform="translate(545.77376,43.998556)" />
        <path
           style="fill:none;stroke:#000000;stroke-width:12;stroke-linecap:butt;stroke-linejoin:miter;stroke-miterlimit:4;stroke-opacity:1;stroke-dasharray:none"
           d="m 1554.3452,485.64645 c 0,0 45.3572,-110.35714 46.4286,-113.92858 1.0714,-3.57142 4.4643,-8.03571 -1.25,-16.96427 -5.7143,-8.92857 -6.9643,-14.64286 1.7857,-18.92857 8.75,-4.28572 21.0714,-10.35715 21.0714,-10.35715"
           id="path12458"
           inkscape:connector-curvature="0" />
        <path
           sodipodi:type="arc"
           style="fill:#000000;fill-opacity:1;stroke:none"
           id="path12460"
           sodipodi:cx="791.78571"
           sodipodi:cy="292.71933"
           sodipodi:rx="6.7857141"
           sodipodi:ry="6.7857141"
           d="m 798.57142,292.71933 c 0,3.74765 -3.03807,6.78571 -6.78571,6.78571 -3.74765,0 -6.78572,-3.03806 -6.78572,-6.78571 0,-3.74765 3.03807,-6.78571 6.78572,-6.78571 3.74764,0 6.78571,3.03806 6.78571,6.78571 z"
           transform="matrix(1.631579,0,0,1.631579,263.19857,7.337476)" />
        <path
           style="fill:none;stroke:#000000;stroke-width:8;stroke-linecap:round;stroke-linejoin:miter;stroke-miterlimit:4;stroke-opacity:1;stroke-dasharray:none"
           d="m 1517.5405,432.94306 c 11.8694,-8.33376 37.8822,-14.37121 58.1144,-7.1144 21.0611,7.55412 34.9226,29.86414 38.1027,41.45959 3.2653,11.9062 4.0539,29.39127 -5.0508,47.22462"
           id="path12462"
           inkscape:connector-curvature="0"
           sodipodi:nodetypes="cssc" />
        <path
           sodipodi:type="arc"
           style="fill:#ffffff;fill-opacity:1;stroke:none"
           id="path12486"
           sodipodi:cx="1237.4369"
           sodipodi:cy="439.19958"
           sodipodi:rx="43.941635"
           sodipodi:ry="43.941635"
           d="m 1281.3785,439.19958 c 0,24.2683 -19.6733,43.94164 -43.9416,43.94164 -24.2683,0 -43.9416,-19.67334 -43.9416,-43.94164 0,-24.26829 19.6733,-43.94163 43.9416,-43.94163 24.2683,0 43.9416,19.67334 43.9416,43.94163 z"
           transform="translate(544.47222,43.941636)" />
        <g
           id="g12482"
           style="fill:#000000"
           transform="translate(545.48237,43.436559)">
          <path
             sodipodi:type="arc"
             style="fill:#000000;fill-opacity:1;stroke:none"
             id="path12478"
             sodipodi:cx="791.78571"
             sodipodi:cy="292.71933"
             sodipodi:rx="6.7857141"
             sodipodi:ry="6.7857141"
             d="m 798.57142,292.71933 c 0,3.74765 -3.03807,6.78571 -6.78571,6.78571 -3.74765,0 -6.78572,-3.03806 -6.78572,-6.78571 0,-3.74765 3.03807,-6.78571 6.78572,-6.78571 3.74764,0 6.78571,3.03806 6.78571,6.78571 z"
             transform="matrix(3.6412509,0,0,3.6412509,-1646.229,-626.38921)" />
          <rect
             y="414.76682"
             x="1134.9064"
             height="37.880722"
             width="107.07617"
             id="rect12480"
             style="fill:#000000;fill-opacity:1;stroke:none" />
        </g>
      </g>
    </g>
  </g>
</svg>
