<?xml version="1.0" encoding="UTF-8" standalone="no"?>
<!-- Created with Inkscape (http://www.inkscape.org/) -->

<svg
   xmlns:dc="http://purl.org/dc/elements/1.1/"
   xmlns:cc="http://creativecommons.org/ns#"
   xmlns:rdf="http://www.w3.org/1999/02/22-rdf-syntax-ns#"
   xmlns:svg="http://www.w3.org/2000/svg"
   xmlns="http://www.w3.org/2000/svg"
   xmlns:sodipodi="http://sodipodi.sourceforge.net/DTD/sodipodi-0.dtd"
   xmlns:inkscape="http://www.inkscape.org/namespaces/inkscape"
   width="591.0625"
   height="638.05225"
   id="svg8761"
   version="1.1"
   inkscape:version="0.48.3.1 r9886"
   sodipodi:docname="C4a.svg">
  <defs
     id="defs8763" />
  <sodipodi:namedview
     id="base"
     pagecolor="#ffffff"
     bordercolor="#666666"
     borderopacity="1.0"
     inkscape:pageopacity="0.0"
     inkscape:pageshadow="2"
     inkscape:zoom="0.7"
     inkscape:cx="75.77845"
     inkscape:cy="198.3427"
     inkscape:document-units="px"
     inkscape:current-layer="text11545"
     showgrid="false"
     inkscape:window-width="1920"
     inkscape:window-height="1024"
     inkscape:window-x="0"
     inkscape:window-y="27"
     inkscape:window-maximized="1"
     fit-margin-top="0"
     fit-margin-left="0"
     fit-margin-right="0"
     fit-margin-bottom="0" />
  <metadata
     id="metadata5966">
    <rdf:RDF>
      <cc:Work
         rdf:about="">
        <dc:format>image/svg+xml</dc:format>
        <dc:type
           rdf:resource="http://purl.org/dc/dcmitype/StillImage" />
        <dc:title>Signalisation routière</dc:title>
        <cc:license
           rdf:resource="http://creativecommons.org/licenses/publicdomain/" />
        <dc:date>08/10/2012</dc:date>
        <dc:creator>
          <cc:Agent>
            <dc:title>Desmoric</dc:title>
          </cc:Agent>
        </dc:creator>
        <dc:rights>
          <cc:Agent>
            <dc:title>Domaine Public</dc:title>
          </cc:Agent>
        </dc:rights>
        <dc:publisher>
          <cc:Agent>
            <dc:title>Desmoric</dc:title>
          </cc:Agent>
        </dc:publisher>
        <dc:source>http://routes.wikia.com/wiki/Signalisation_routière_française</dc:source>
        <dc:description>Panneau de signalisation routière applicable en France issu de l'arrêté du 24 novembre 1967 sur la signalisation routière décrite dans L'instruction Interministérielle sur la Signalisation Routière (depuis 2002).</dc:description>
        <dc:language>French</dc:language>
      </cc:Work>
      <cc:License
         rdf:about="http://creativecommons.org/licenses/publicdomain/">
        <cc:permits
           rdf:resource="http://creativecommons.org/ns#Reproduction" />
        <cc:permits
           rdf:resource="http://creativecommons.org/ns#Distribution" />
        <cc:permits
           rdf:resource="http://creativecommons.org/ns#DerivativeWorks" />
      </cc:License>
    </rdf:RDF>
  </metadata>
  <g
     inkscape:label="Calque 1"
     inkscape:groupmode="layer"
     id="layer1"
     transform="translate(-94.47687,-75.410374)">
    <text
       xml:space="preserve"
       style="font-size:40px;font-style:normal;font-weight:normal;line-height:125%;letter-spacing:0px;word-spacing:0px;fill:#000000;fill-opacity:1;stroke:none;font-family:Sans"
       x="363.04276"
       y="712.97437"
       id="text8780"
       sodipodi:linespacing="125%"><tspan
         sodipodi:role="line"
         id="tspan8782"
         x="363.04276"
         y="712.97437">C4a</tspan></text>
    <g
       id="g10573">
      <g
         id="g10368"
         transform="translate(20.35187,7.2541243)">
        <rect
           style="fill:#ffffff;fill-opacity:1;stroke:#000000;stroke-width:2.86630392;stroke-miterlimit:4;stroke-opacity:1;stroke-dasharray:none"
           id="rect11228"
           width="588.20837"
           height="588.2085"
           x="75.543945"
           y="69.575241"
           ry="40.194893" />
        <rect
           ry="13.678816"
           y="100.98488"
           x="106.95355"
           height="525.38922"
           width="525.38916"
           id="rect14523"
           style="fill:#0000ff;fill-opacity:1;stroke:none" />
      </g>
      <g
         style="font-size:102.17047882px;font-style:normal;font-weight:normal;line-height:125%;letter-spacing:0px;word-spacing:0px;fill:#ffffff;fill-opacity:1;stroke:#cccccc;stroke-width:1.07493818;font-family:Sans"
         id="text11545">
        <path
           d="m 300.65073,238.3016 c 9.81781,2.03569 19.15682,5.9868 28.01706,11.85337 l 12.21256,10.41659 c 5.38772,6.46571 8.85992,11.01549 10.4166,13.64934 l 5.56749,11.13498 c 3.11282,9.09977 4.78905,18.37891 5.0287,27.83746 l -0.89798,13.64934 -3.05314,10.0574 c -3.47238,8.62079 -8.86027,17.36115 -16.16369,26.22109 l 0.89799,2.33476 8.62063,9.51861 5.56749,8.44104 5.0287,12.57175 c 2.75362,8.74047 4.13053,17.30122 4.13072,25.68231 -1.9e-4,17.00186 -5.68741,33.16553 -17.06167,48.49105 -17.24142,20.71348 -39.57123,31.54913 -66.9895,32.50697 -9.93777,0 -18.13933,-0.59865 -24.60472,-1.79596 -8.38124,-2.27489 -14.30792,-4.19058 -17.78005,-5.74709 l -10.77579,-5.3879 -9.15943,-6.64507 -8.26144,-7.36345 -8.44103,-10.95539 c -4.909,-8.02193 -8.38119,-15.62484 -10.4166,-22.80876 l -0.1796,-1.61637 47.23389,-12.93095 c 2.27482,8.9799 7.96204,15.80456 17.06167,20.47401 5.62726,2.27494 13.94856,3.53211 24.96391,3.77152 l 8.44104,-0.89798 6.82467,-2.15516 5.20829,-3.05314 c 3.5918,-2.39456 6.82454,-5.92662 9.69822,-10.59619 1.43663,-2.99321 2.51421,-7.06406 3.23273,-12.21256 0.23932,-4.19051 -1.4e-4,-6.58512 -0.71838,-7.18387 0.23932,-1.9156 -0.5988,-4.84901 -2.51435,-8.80022 l -4.48992,-6.28588 c -3.23287,-3.23263 -6.04654,-5.44766 -8.44103,-6.64507 -2.9934,-1.67613 -7.00439,-3.05303 -12.03297,-4.13072 l -19.57602,-0.53879 0,-48.67066 c 2.63399,0.23963 7.84228,-0.11957 15.6249,-1.07758 l 0.35919,0.3592 c 14.24787,-1.67607 23.22768,-9.45858 26.93948,-23.34755 l -0.3592,-8.08184 0.3592,-1.25718 -0.71839,-2.51435 -3.41233,-6.64507 c -3.3526,-4.19038 -6.40574,-6.94419 -9.15942,-8.26144 -0.47905,-0.35898 -4.5499,-1.43656 -12.21257,-3.23274 l -11.31458,0.35919 0,-0.35919 -11.13498,1.79597 -7.90225,3.41233 -3.23274,2.51435 -3.59193,5.2083 -2.69394,6.64507 -46.6951,-14.00853 3.05314,-8.08184 1.07758,-1.07758 c -0.23949,-0.59843 1.13742,-3.59171 4.13072,-8.97982 l 5.0287,-8.08185 7.18387,-8.26144 c 2.63403,-1.43652 3.95107,-2.5141 3.95112,-3.23273 l 3.77153,-2.69395 c 9.33895,-6.94414 20.23446,-11.37419 32.68656,-13.29014 6.22592,-0.95759 13.7091,-1.43651 22.44957,-1.43678 6.34562,2.7e-4 12.75123,0.47919 19.21682,1.43678"
           style="font-size:367.81365967px;font-variant:normal;font-stretch:normal;fill:#ffffff;stroke:#cccccc;font-family:Caracteres L1;-inkscape-font-specification:Caracteres L1"
           id="path2991" />
        <path
           d="m 485.63514,453.09903 c 7.42322,0.47897 12.03286,0.35924 13.82894,-0.3592 l 0.17959,0.3592 9.87781,-2.15516 c 7.90211,-2.63403 13.94852,-8.32125 18.13925,-17.06167 3.23259,-8.74029 5.62721,-19.15687 7.18386,-31.24979 l 0.89798,-40.58882 -0.53879,-19.03723 -1.79596,-14.18812 -0.71839,-0.71839 -2.33475,-10.0574 -0.71839,-0.3592 c -1.79611,-7.18366 -5.20844,-13.82873 -10.237,-19.93521 -3.83152,-3.1128 -6.88466,-5.14822 -9.15942,-6.10628 l -10.4166,-2.51435 -10.95539,-0.53879 c -4.90907,-0.11952 -10.35682,0.8982 -16.34328,3.05314 -5.50771,2.63429 -10.11735,7.36366 -13.82893,14.18812 -2.63416,6.34594 -5.02877,14.30804 -7.18386,23.88634 l 0.35919,1.07758 c -0.71845,0.59883 -1.13751,2.57439 -1.25718,5.92669 -1.67629,14.00868 -1.85589,34.54252 -0.53879,61.6016 l 2.87355,19.57602 3.77153,13.82893 c 2.75373,7.18393 6.52526,12.39222 11.31458,15.6249 4.31022,2.75386 10.17704,4.66956 17.60045,5.74709 m -89.43906,-54.23815 c -0.3592,-6.70483 -0.5388,-13.29003 -0.53879,-19.75562 -10e-6,-3.23261 0.0599,-6.46534 0.1796,-9.69821 0.35918,-12.69134 1.37689,-25.02362 3.05314,-36.99688 l 0,-1.25718 0.71838,-1.61637 1.25718,-12.39215 0.89798,-1.79597 1.79597,-10.0574 0.71838,-1.07758 c 1.79595,-8.62043 5.6872,-18.31863 11.67378,-29.09464 l 5.2083,-7.90225 10.0574,-10.237 c 10.656,-8.62038 24.48492,-14.78652 41.4868,-18.49844 5.3878,-0.95758 10.95528,-1.4365 16.70247,-1.43677 l 1.43677,0 c 8.97971,0.23973 18.37859,1.73636 28.19666,4.48991 4.07071,0.47919 10.59605,3.17313 19.57602,8.08185 9.21912,5.74733 17.60028,13.58971 25.14351,23.52714 l 5.74709,8.80023 4.66951,9.87781 1.97556,7.18386 0.53879,0.53879 0,1.79596 c 1.19711,2.51455 1.9155,4.49011 2.15515,5.92669 l 0.71839,0.89798 3.05314,15.98409 0.53879,0.35919 -0.35919,2.33476 0.71838,1.43677 1.79597,19.21683 0.71839,1.79596 -0.53879,0.1796 1.25717,11.31458 -0.35919,0.35919 c 0.47872,1.19745 0.47872,1.91584 0,2.15516 l 0.53879,1.79596 -0.3592,0.53879 0.89799,12.21257 -0.3592,0.35919 0.53879,5.2083 -0.17959,0.35919 0,7.18386 c -0.11994,4.43016 -0.47913,9.75818 -1.07758,15.98409 l -0.89798,6.64507 0.35919,0.3592 -0.89798,1.79596 c -0.3594,4.43013 -1.37711,9.69829 -3.05314,15.80449 l -1.07758,3.41234 -0.1796,1.97556 -4.66951,13.29014 -0.89798,0.71839 c -1.9e-4,1.19736 -1.55669,4.84915 -4.66951,10.95539 l -8.62063,12.39215 c -9.45892,10.89554 -19.93537,18.85765 -31.42939,23.88634 -7.5432,2.99328 -15.14611,4.96884 -22.80876,5.92669 l -13.82893,0.89798 -3.23274,-0.1796 c -27.29875,-0.71839 -49.32923,-9.57847 -66.09152,-26.58028 -8.26147,-9.21926 -14.48747,-19.93517 -18.67803,-32.14778 -4.78926,-12.45195 -7.72267,-25.56249 -8.80023,-39.33163 l -0.71839,-7.90225"
           style="font-size:367.81365967px;font-variant:normal;font-stretch:normal;fill:#ffffff;stroke:#cccccc;font-family:Caracteres L1;-inkscape-font-specification:Caracteres L1"
           id="path2993" />
      </g>
    </g>
  </g>
</svg>
